<mxfile host="app.diagrams.net" modified="2023-07-27T15:17:07.028Z" agent="Mozilla/5.0 (Macintosh; Intel Mac OS X 10_15_7) AppleWebKit/537.36 (KHTML, like Gecko) Chrome/117.0.0.0 Safari/537.36" etag="eiqtXPzpOBTxkOo0M6aC" version="21.6.5" type="github">
  <diagram name="Page-1" id="97916047-d0de-89f5-080d-49f4d83e522f">
    <mxGraphModel dx="3590.5" dy="2177.5" grid="1" gridSize="10" guides="1" tooltips="1" connect="1" arrows="1" fold="1" page="1" pageScale="1.5" pageWidth="1169" pageHeight="827" background="none" math="0" shadow="0">
      <root>
        <mxCell id="0" />
        <mxCell id="1" parent="0" />
        <mxCell id="GwSeWStYfNyYOptomUMy-55" value="" style="shape=image;verticalLabelPosition=bottom;labelBackgroundColor=default;verticalAlign=top;aspect=fixed;imageAspect=0;image=data:image/png,iVBORw0KGgoAAAANSUhEUgAABLIAAAQ4CAYAAAAdN/VHAAAKqWlDQ1BJQ0MgUHJvZmlsZQAASImVlwdQU+kWgP9700NCSwhFSuhNkE4AKSG0UATpYCMkAUIJMRBU7MriCqwoItIURZeq4FoAWSui2BZFpVgXZBFR1sWCqFjeBYbg7pv33rwzc+b/7rnnP+f8/9wzcy4AZHmOSJQMywOQIkwXB3u70yOjoum4YQABDJAFyoDI4aaJmEFB/gCR2fXv8r4H8UbkrtlUrH9//19FgcdP4wIABSEcy0vjpiB8EtEXXJE4HQDUAcSuuypdNMXtCFPFSIEI901x/AyPTnHsNKPBtE9oMAthKgB4EocjjgeAREfs9AxuPBKH5IawhZAnECIsQtglJSWVh/AxhI0QH8RGmorPiP0uTvzfYsZKY3I48VKeOcu04D0EaaJkzpr/8zr+t6QkS2ZzGCBKShD7BCOrInJnfUmpflIWxi4KnGUBb9p/mhMkPmGzzE1jRc8yj+PhJ92bvMh/luMEXmxpnHR26Czz0zxDZlmcGizNFSdmMWeZI57LK0kKk9oT+Gxp/MyE0IhZzhCEL5rltKQQvzkfltQulgRL6+cLvd3n8npJz56S9t15BWzp3vSEUB/p2Tlz9fOFzLmYaZHS2nh8D885nzCpvyjdXZpLlBwk9ecne0vtaRkh0r3pyAc5tzdIeoeJHN+gWQYskAqSERUDOvBHnjwASOevTp86CCtVtEYsiE9IpzORDuPT2UKu+Xy6lYWVNQBT/TrzObylTfchRLs+Z0s9A4ADEemRkjkbhwRAMxZJGzhnM5AFQG4MgLMeXIk4Y8Y23UsYQARygApUgSbQBUbADFgBO+AE3IAn8AWBIBREgeWACxJAClL5KrAObAbZIBfsBHtAKagAh0ANOAqOg2ZwBlwEV8ANcBt0g4egHwyBl2AMvAeTEAThIDJEgVQhLUgfMoWsIAbkAnlC/lAwFAXFQPGQEJJA66CtUC5UAJVCB6Fa6BfoNHQRugZ1QfehAWgEegN9glEwCabCGrABvABmwEzYDw6Fl8Hx8Eo4E86Cd8DFcCV8BG6CL8I34G64H34Jj6MASgZFQ2mjzFAMFAsViIpGxaHEqA2oHFQRqhLVgGpFdaDuovpRo6iPaCyagqajzdBOaB90GJqLXonegM5Dl6Jr0E3odvRd9AB6DP0VQ8aoY0wxjhg2JhITj1mFycYUYaowpzCXMd2YIcx7LBZLwxpi7bE+2ChsInYtNg+7D9uIvYDtwg5ix3E4nCrOFOeMC8RxcOm4bFwJ7gjuPO4Obgj3AS+D18Jb4b3w0Xghfgu+CF+HP4e/gx/GTxLkCfoER0IggUdYQ8gnHCa0Em4RhgiTRAWiIdGZGEpMJG4mFhMbiJeJj4hvZWRkdGQcZBbLCGQ2yRTLHJO5KjMg85GkSDIhsUhLSRLSDlI16QLpPuktmUw2ILuRo8np5B3kWvIl8hPyB1mKrLksW5Ynu1G2TLZJ9o7sKzmCnL4cU265XKZckdwJuVtyo/IEeQN5ljxHfoN8mfxp+V75cQWKgqVCoEKKQp5CncI1heeKOEUDRU9FnmKW4iHFS4qDFBRFl8KicClbKYcplylDVCzVkMqmJlJzqUepndQxJUUlG6VwpdVKZUpnlfppKJoBjU1LpuXTjtN6aJ+UNZSZynzl7coNyneUJ1Tmqbip8FVyVBpVulU+qdJVPVWTVHepNqs+VkOrmagtVlultl/tstroPOo8p3nceTnzjs97oA6rm6gHq69VP6R+U31cQ1PDW0OkUaJxSWNUk6bpppmoWah5TnNEi6LloiXQKtQ6r/WCrkRn0pPpxfR2+pi2uraPtkT7oHan9qSOoU6YzhadRp3HukRdhm6cbqFum+6YnpZegN46vXq9B/oEfYZ+gv5e/Q79CQNDgwiDbQbNBs8NVQzZhpmG9YaPjMhGrkYrjSqN7hljjRnGScb7jG+bwCa2JgkmZSa3TGFTO1OB6T7TrvmY+Q7zhfMr5/eakcyYZhlm9WYD5jRzf/Mt5s3mrxboLYhesGtBx4KvFrYWyRaHLR5aKlr6Wm6xbLV8Y2VixbUqs7pnTbb2st5o3WL92sbUhm+z36bPlmIbYLvNts32i529ndiuwW7EXs8+xr7cvpdBZQQx8hhXHTAO7g4bHc44fHS0c0x3PO74l5OZU5JTndPzhYYL+QsPLxx01nHmOB907nehu8S4HHDpd9V25bhWuj5103XjuVW5DTONmYnMI8xX7hbuYvdT7hMsR9Z61gUPlIe3R45Hp6eiZ5hnqecTLx2veK96rzFvW++13hd8MD5+Prt8etkabC67lj3ma++73rfdj+QX4lfq99TfxF/s3xoAB/gG7A54tEh/kXBRcyAIZAfuDnwcZBi0MujXxdjFQYvLFj8LtgxeF9wRQglZEVIX8j7UPTQ/9GGYUZgkrC1cLnxpeG34RIRHREFEf+SCyPWRN6LUogRRLdG46PDoqujxJZ5L9iwZWmq7NHtpzzLDZauXXVuutjx5+dkVcis4K07EYGIiYupiPnMCOZWc8Vh2bHnsGJfF3ct9yXPjFfJG+M78Av5wnHNcQdzzeOf43fEjCa4JRQmjApagVPA60SexInEiKTCpOulbckRyYwo+JSbltFBRmCRsT9VMXZ3aJTIVZYv6Vzqu3LNyTOwnrkqD0paltaRTkcHopsRI8oNkIMMloyzjw6rwVSdWK6wWrr65xmTN9jXDmV6ZP69Fr+WubVunvW7zuoH1zPUHN0AbYje0bdTdmLVxaJP3pprNxM1Jm3/bYrGlYMu7rRFbW7M0sjZlDf7g/UN9tmy2OLt3m9O2ih/RPwp+7Nxuvb1k+9ccXs71XIvcotzPedy86z9Z/lT807cdcTs68+3y9+/E7hTu7NnluqumQKEgs2Bwd8DupkJ6YU7huz0r9lwrsimq2EvcK9nbX+xf3FKiV7Kz5HNpQml3mXtZY7l6+fbyiX28fXf2u+1vqNCoyK34dEBwoO+g98GmSoPKokPYQxmHnh0OP9zxM+Pn2iq1qtyqL9XC6v6a4Jr2Wvva2jr1uvx6uF5SP3Jk6ZHbRz2OtjSYNRxspDXmHgPHJMde/BLzS89xv+NtJxgnGk7qnyw/RTmV0wQ1rWkaa05o7m+Jauk67Xu6rdWp9dSv5r9Wn9E+U3ZW6Wz+OeK5rHPfzmeeH78gujB6Mf7iYNuKtoeXIi/da1/c3nnZ7/LVK15XLnUwO85fdb565prjtdPXGdebb9jdaLppe/PUb7a/neq062y6ZX+r5bbD7dauhV3n7rjeuXjX4+6Ve+x7N7oXdXf1hPX09S7t7e/j9T2/n3z/9YOMB5MPNz3CPMp5LP+46In6k8rfjX9v7LfrPzvgMXDzacjTh4PcwZd/pP3xeSjrGflZ0bDWcO1zq+dnRrxGbr9Y8mLopejl5Gj2nwp/lr8yenXyL7e/bo5Fjg29Fr/+9ibvrerb6nc279rGg8afvE95PzmR80H1Q81HxseOTxGfhidXfcZ9Lv5i/KX1q9/XR99Svn0TccSc6VEAhSgcFwfAm2oAyFEAUG4DQFwyM09PCzTzDzBN4D/xzMw9LXYAHLoAQOgmAKbGs4qpGQRhOTcApkaiUDcAW1tLdXb2nZ7TpwSL/LEccJiibhsq+KfMzPDf1f3PFUxFtQH/XP8F5WIAN9rpXZEAAABsZVhJZk1NACoAAAAIAAQBGgAFAAAAAQAAAD4BGwAFAAAAAQAAAEYBKAADAAAAAQACAACHaQAEAAAAAQAAAE4AAAAAAAAAkAAAAAEAAACQAAAAAQACoAIABAAAAAEAAASyoAMABAAAAAEAAAQ4AAAAAH/kAPQAAAAJcEhZcwAAFiUAABYlAUlSJPAAAEAASURBVHgB7N0HnBPV9sDxs8vSe+9VBUVAiiBKkSZIUSkKCiKK2LuioFgBffpQH6iIBSxgF0GwoAhKU0QURBCkSO/S+8IC/5zLf2IS0iabbDLZ332fJZOZe+/c+U5238t5955JOekqQkEAAQQQQAABBBBAAAEEEEAAAQQQQCDBBVITfHwMDwEEEEAAAQQQQAABBBBAAAEEEEAAASNAIIsPAgIIIIAAAggggAACCCCAAAIIIICAIwQIZDniNjFIBBBAAAEEEEAAAQQQQAABBBBAAAECWXwGEEAAAQQQQAABBBBAAAEEEEAAAQQcIUAgyxG3iUEigAACCCCAAAIIIIAAAggggAACCBDI4jOAAAIIIIAAAggggAACCCCAAAIIIOAIAQJZjrhNDBIBBBBAAAEEEEAAAQQQQAABBBBAgEAWnwEEEEAAAQQQQAABBBBAAAEEEEAAAUcIEMhyxG1ikAgggAACCCCAAAIIIIAAAggggAACBLL4DCCAAAIIIIAAAggggAACCCCAAAIIOEKAQJYjbhODRAABBBBAAAEEEEAAAQQQQAABBBAgkMVnAAEEEEAAAQQQQAABBBBAAAEEEEDAEQIEshxxmxgkAggggAACCCCAAAIIIIAAAggggACBLD4DCCCAAAIIIIAAAggggAACCCCAAAKOECCQ5YjbxCARQAABBBBAAAEEEEAAAQQQQAABBAhk8RlAAAEEEEAAAQQQQAABBBBAAAEEEHCEAIEsR9wmBokAAggggAACCCCAAAIIIIAAAgggQCCLzwACCCCAAAIIIIAAAggggAACCCCAgCMECGQ54jYxSAQQQAABBBBAAAEEEEAAAQQQQAABAll8BhBAAAEEEEAAAQQQQAABBBBAAAEEHCFAIMsRt4lBIoAAAggggAACCCCAAAIIIIAAAggQyOIzgAACCCCAAAIIIIAAAggggAACCCDgCAECWY64TQwSAQQQQAABBBBAAAEEEEAAAQQQQIBAFp8BBBBAAAEEEEAAAQQQQAABBBBAAAFHCBDIcsRtYpAIIIAAAggggAACCCCAAAIIIIAAAgSy+AwggAACCCCAAAIIIIAAAggggAACCDhCgECWI24Tg0QAAQQQQAABBBBAAAEEEEAAAQQQIJDFZwABBBBAAAEEEEAAAQQQQAABBBBAwBECBLIccZsYJAIIIIAAAggggAACCCCAAAIIIIAAgSw+AwgggAACCCCAAAIIIIAAAggggAACjhAgkOWI28QgEUAAAQQQQAABBBBAAAEEEEAAAQQIZPEZQAABBBBAAAEEEEAAAQQQQAABBBBwhACBLEfcJgaJAAIIIIAAAggggAACCCCAAAIIIEAgi88AAggggAACCCCAAAIIIIAAAggggIAjBAhkOeI2MUgEEEAAAQQQQAABBBBAAAEEEEAAAQJZfAYQQAABBBBAAAEEEEAAAQQQQAABBBwhQCDLEbeJQSKAAAIIIIAAAggggAACCCCAAAIIEMjiM4AAAggggAACCCCAAAIIIIAAAggg4AgBAlmOuE0MEgEEEEAAAQQQQAABBBBAAAEEEECAQBafAQQQQAABBBBAAAEEEEAAAQQQQAABRwgQyHLEbWKQCCCAAAIIIIAAAggggAACCCCAAAIEsvgMIIAAAggggAACCCCAAAIIIIAAAgg4QoBAliNuE4NEAAEEEEAAAQQQQAABBBBAAAEEECCQxWcAAQQQQAABBBBAAAEEEEAAAQQQQMARAgSyHHGbGCQCCCCAAAIIIIAAAggggAACCCCAAIEsPgMIIIAAAggggAACCCCAAAIIIIAAAo4QIJDliNvEIBFAAAEEEEAAAQQQQAABBBBAAAEECGTxGUAAAQQQQAABBBBAAAEEEEAAAQQQcIQAgSxH3CYGiQACCCCAAAIIIIAAAggggAACCCBAIIvPAAIIIIAAAggggAACCCCAAAIIIICAIwQIZDniNjFIBBBAAAEEEEAAAQQQQAABBBBAAAECWXwGEEAAAQQQQAABBBBAAAEEEEAAAQQcIUAgyxG3iUEigAACCCCAAAIIIIAAAggggAACCBDI4jOAAAIIIIAAAggggAACCCCAAAIIIOAIAQJZjrhNDBIBBBBAAAEEEEAAAQQQQAABBBBAgEAWnwEEEEAAAQQQQAABBBBAAAEEEEAAAUcIEMhyxG1ikAgggAACCCCAAAIIIIAAAggggAACBLL4DCCAAAIIIIAAAggggAACCCCAAAIIOEKAQJYjbhODRAABBBBAAAEEEEAAAQQQQAABBBAgkMVnAAEEEEAAAQQQQAABBBBAAAEEEEDAEQIEshxxmxgkAggggAACCCCAAAIIIIAAAggggACBLD4DCCCAAAIIIIAAAggggAACCCCAAAKOECCQ5YjbxCARQAABBBBAAAEEEEAAAQQQQAABBAhk8RlAAAEEEEAAAQQQQAABBBBAAAEEEHCEAIEsR9wmBokAAggggAACCCCAAAIIIIAAAgggQCCLzwACCCCAAAIIIIAAAggggAACCCCAgCMECGQ54jYxSAQQQAABBBBAAAEEEEAAAQQQQAABAll8BhBAAAEEEEAAAQQQQAABBBBAAAEEHCFAIMsRt4lBIoAAAggggAACCCCAAAIIIIAAAggQyOIzgAACCCCAAAIIIIAAAggggAACCCDgCAECWY64TQwSAQQQQAABBBBAAAEEEEAAAQQQQIBAFp8BBBBAAAEEEEAAAQQQQAABBBBAAAFHCBDIcsRtYpAIIIAAAggggAACCCCAAAIIIIAAAgSy+AwggAACCCCAAAIIIIAAAggggAACCDhCgECWI24Tg0QAAQQQQAABBBBAAAEEEEAAAQQQIJDFZwABBBBAAAEEEEAAAQQQQAABBBBAwBECBLIccZsYJAIIIIAAAggggAACCCCAAAIIIIAAgSw+AwgggAACCCCAAAIIIIAAAggggAACjhAgkOWI28QgEUAAAQQQQAABBBBAAAEEEEAAAQQIZPEZQAABBBBAAAEEEEAAAQQQQAABBBBwhACBLEfcJgaJAAIIIIAAAggggAACCCCAAAIIIEAgi88AAggggAACCCCAAAIIIIAAAggggIAjBAhkOeI2MUgEEEAAAQQQQAABBBBAAAEEEEAAAQJZfAYQQAABBBBAAAEEEEAAAQQQQAABBBwhQCDLEbeJQSKAAAIIIIAAAggggAACCCCAAAIIEMjiM4AAAggggAACCCCAAAIIIIAAAggg4AiBNEeMkkEigAACCCCAAAIOFjickS7rD2yTD1d9LxNWz5ath3Y5+GoYulMEmpatLb3OaiNtKjSQQrnyS4pTBs44EUAAAQQQCCKQctJVghznEAIIIIAAAggggECEAu+vnCbD/xgv6/Zvi7AHmiEQHYGcqTmkY+ULZUSTOyVvWu7odEovCCCAAAIIxEGAQFYc0DklAggggAACCCSvgP4/hN+snyd9vn820xeZO0dOSU0hE0SmIZOoA53dl9lyUZlz5f3WgyR/zryZ7Yr2CCCAAAIIZLkAgawsJ+eECCCAAAIIIJCsAunHj0mrL+6XlXs2RnSJOlNmQL2rpU35BlK1UFnJmUoWiIggk7zRP4f3yJ+718orSz6XWZsXRXS1qSkp8mrz+6Rr1WYRtacRAggggAAC8RIgkBUvec6LAAIIIIAAAkklsG7/Vmk84Q45fvKE7evSoNX4tk9KxQKlbLelAQIP/fy6jF0+VU5E8NnrcWZLeanpXa78WWTQ4pOEAAIIIOAMAQJZzrhPjBIBBBBAAAEEElhg2e71cvGkeyIa4butBkr7ShdE1JZGCFgCu9P3y0UT75SdR/ZZu8J+beJKCj+x3eCw61MRAQQQQACBeAoQyIqnPudGAAEEEEAAAccLaM6iM97vJRknj9u6ljw5csmi7mOkaO4CttpRGYFgAjfPfEE+XzMnWBW/x66r0Vaev/A2v8fYiQACCCCAQCIJkD00ke4GY0EAAQQQQAABxwmc+cG1toNYmsB9UffRBLEcd7cTf8BvXPyA3HD2pbYHqksTF+5YZbsdDRBAAAEEEMhqAQJZWS3O+RBAAAEEEEAgaQQG/TJajp3IsH09C696wxXEKmi7XSI2OHr0qAwYMEDGjRuXZcPLnTu3XHpp8GDNG2+8IWeccYaMHTvW9rhSXInQ9WfhwoW22yZCg+ca3yK1i1ezPZR2Xz4oGSfszSy0fRIaIIAAAgggkEkBAlmZBKQ5AggggAACCGRfgTeXfmX74h9r0FvK5ituu12iNsiVK5f897//lSNHjsRsiK+++qpX3xo8q127tnvfzz//LFWqVHG/141vvvlGVq9eLddcc43X/nDf1KtXT/THs+TPn18KFiwY1k+RIkU8m2b59nedhkV0znt/eiWidjRCAAEEEEAgqwR4pnNWSXMeBBBAAAEEEEgqgQ5fD4zoeu6q3TWidqEa/fLLL3LBBaeSxletWjVU9bCOr1mzxtTbsWOHFC8ePPhWoUIFv33qmIoWLSoVK1b0Or5//37Rfjt27Cj33Xef1zHPN1OnTpU77rhDatasKS1atHAfuummm9zbbdu2lYyMDFGDRo0amf0TJ06U8uXLS86cOd317GzkyJHjtOqHDh2SPHnyBB2vNho+fLgUK1bstPZZuUOXr45sdo/cMXuErdOO/3uWyZWlOdwoCCCAAAIIJKIAgaxEvCuMCQEEEEAAAQQSXuC37Stsj3FCDJ8Mp0vh0tLS5OKLLw46rn379sn8+fOlefPmIYM81apVk5kzZwbtL9TBRYsWic6gOj0wdNIVfDouN9xwQ9AuNEjVuHFjadmypZw8efK0upUqVZIDBw7IiRMnTjv29NNPn7YvMzv0XBqAe+aZZ4J28/rrr4vWjXe56owW0n/uKDmccTTsoZw4eUI+WvWDXF+jXdhtqIgAAggggEBWChDIykptzoUAAggggAACSSEwZf08Oen6j93SpOy/y+Hstg1Vv2HDhnLs2LFQ1UwQS2ct6YylrJo1pMG1H374wWtsmzdvNjOmQs300kbTpk2TwoULy6xZs0wAzupI92/YsEE0WOZZJk+ebN62b9/ec3e23G5f6QKZsHq2rWsfNG80gSxbYlRGAAEEEMhKAQJZWanNuRBAAAEEEEAgKQQ+WvW97etoVraOpNhulfwNypUrF/AidfZYamqqaB4uXdanRWd3adGgnc4qS09PN7OxdFaWzkrTPFY6Y6pMmTJSqlQpUzfUP7169TLLFj2Danv27JEJEyaYprq8cdSoUaG68Trub/aYV4UsevNa8/ttB7L0AQYaqHWlvM+iUXIaBBBAAAEEwhcgkBW+FTURQAABBBBAAAEjMH3jAtsSrSt4Jw633UGCNND8T/o0v3Ku/FOFXInPrfLJJ5/I77//Llu3bpVdu3ZJv379gi5zPHz4sNU04Kvmz5ozZ47f47Vq1Tpt/2233SbPPvuszJs3zwSx2rU7fXmcBsR0eeAXX3zhztv1wQcfiP54llWrVkm3bt3cu6xA1oED+8Vfv+6Krg3tX2eKObnM27ZMGpeu6eRLYOwIIIAAAkkqQCArSW8sl4UAAggggAACsRM46pqxYrc0LHm23SYJWX/lypUmCGQlUT948KAZ5+eff25mTukbnSV12WWXBR2/JmcPVV588UXRp/+dddZZpqqeu3r16mZb83fpksICBQqY95r3S5cf1qhRw8zi0tlYunzRKkuWLJF8+fKJttMxe86Y8tzW+jqz6/zzzzfLMK321uuJEye9+tX92neVKlXcY9ExaDArUUpaag7JOHHc1nAW/LOCQJYtMSojgAACCGSVAIGsrJLmPAgggAACCCCQrQWqFCyTkNeveaZ0BtOgQYPCGt/IkSNFf6zSqVMn+eqrr8yMpmjnpNK8X56ldu3a5gmIu3fvltWrV5tZVxrAOvfcc0Xrjh492swIe/nll+XOO+/0bGqCUzrWjz/+2Gu/3TeFChWSxYsXezXTANrGjRtcM9F2S0GPWWpeleL4pnLB0vL33n+DeuEMZe2BbeFUow4CCCCAAAJZLpCa5WfkhAgggAACCCCAQDYUKJm3SEJe9e233y6PPvqoPPHEk7bHd/z4cfn2229NO9/gju3OgjTQvFilS5c2ubD+/vtvU3P58uVmdpUuMdQgnD618P777xcNNPkGsayuQy0JtOrZfdUZXE2aNE3IIJbda6E+AggggAACiS5AICvR7xDjQwABBBBAAAEEYiiwYsUKufLKK2Xw4Kfk6quvtnWmX375RawlggMGDJAbb7zRVvtwKu/du9ckbt++fbtZSli0aFHTbO3atWZm1FVXXWWSu+uSQ00O/+eff8rzzz/vt+tLLrnE7/5gO3UZoucTF62ljL5tdAmkv6LLISkIIIAAAgggED0BAlnRs6QnBBBAAAEEEEDAkQKffvqp3HrrrWbZnQaGdHZTOOWiiy6SEiVKmKqNGzeWt956Sx566KHTmlr5tE47EGLH22+/bXJk6RMEJ0+eLOecc467xaZNm8xyQU0y37t3bxPk0oO6zO/BBx8UfdKgVb788kuzqbO1wi0aoOvfv7/Je6X5r6yiSdx1BpbnjwbbJk2a5LXPOh5odpjVH68IIIAAAgggYE+AHFn2vKiNAAIIIIAAAggkpYA+lU8DTppfSoNSOtsqWNHAjRYNJLVq1Uoef/xx0Xxbw4YNE81h9eabb7qblytXzr0d7oYG05YuXWqqf//999KiRQuz3aNHD9FZTp59jh071t2t5qjSpO46Q6xt27Zmv16TXpudQJY+gVF/9DqqVq1q+lm/fr1ceumlpz3hUANdTZo0kffff989Dt3Qa/BNJO9VgTcIIIAAAgggYFuAGVm2yWiAAAIIIIAAAggkp8BLL70kXbp0MU/ra9q0acCZWRqcueGGG0xgqGXLlm6MF154weSt0txZVtFgjgaWApU6der4PZSammqCYvrkQSuIpcv8xo8fLw0aNDBJ3f02dO3UwJoGu6yZZX/88YfUq1fPzJgK1Eb3azAvV65cpkrFihVNEKpfv35eTXQsurzR80eXNNavX99rnx4vXry4e8aaVye8QQABBBBAAIGIBQhkRUxHQwQQQAABBBBAIPkEJkyYIOedd578+OOPosEsf6VDhw5m1tWqVatOO6xJ2HWJoVVOnDgulSpVst7aetUAUdmyZd1txo0bZ4JTmrOqWrVq7v26MWfOHPf7xx57TDTopU9j3LZtmwl66fLDQKVPnz6uGVtpoonvrRxcmlzeX7nQtZySggACCCCAAALxE2BpYfzsOTMCCCCAAAIIIJCQArqkrn379ibvk+8AP/vsM/nmm29MkKtkyZK+hyUt7d//ealLDI8fPyF169Y9rV44OzTflb+iM7J8y5QpU9y7GjVqZLa7du0qN998s9m++ZZb3Md9N3bu3OmaiZVbJk78WDp16uR35pYGxLQ0athQLrvsMilVqpR5f+zYMfP6008/eSW7T09PN0nny5QpY47zDwIIIIAAAghER+Df/6URnf7oBQEEEEAAAQQQQCAJBDwDQ56XYz3Z8KuvvvLc7Xd7xowZZr/m3IqkeOaX+uCDD6RXr15myeCZZ57p7k7zV61bt87krnLvdG1osnfNkTV48GCpUKGC5HLlyApUrGTwgY7r/ocfftgc1jFpfc25pQndtehyRJ3Bpj9WOXr0qLz33nvWW14RQAABBBBAIEoCLC2MEiTdIIAAAggggAACwQSOuZbYJUPRGUg///xzWInTrSWGRYoUydSl6xME9amKmofKM4i1ZcsWE8TSpYS+pU2bNu5ZUzqDLLPl3XffNXm2rCcwzp49W3TWVaCfzJ6P9ggggAACCCDgX4BAln8X9iKAAAIIIIAAAlEV2Hhge1T7i2dnF1xwQVin15lL3bt391t3//79fvf729m/f3/R+rrcUfNmWUVnXOmkqKeeesra5X5du3atbN9+yvzyyy93749kQ5daauL42267LZLmcW9z3DV2uyV/Wh67TaiPAAIIIIBAlggQyMoSZk6CAAIIIIAAAtld4PedpydGT2aTnj17msvTBO3hlJkzZ8pzzz1nkrP71u/WrZv07dtXnn76adG8WdWrV5ebbrpJlixZ4vr507e6mSVVo0YNs1/Pv3r1aunYseNp9cLdoefXomNwYlm7f6vtYdcr8e/yTduNaYAAAggggEAMBQhkxRCXrhFAAAEEEEAgOQVqFKlo+8LmbFlsu41TG2jg6MMPP5QrrrjC5I8K5zr0KYMDBw6UWbNmnVa9WbNmMmbMGNH8VMuWLZO///5bRo8ebepp3qylS5e62xw6dMgsKdTliH/++adce+21cvfdd8vXX39tcmbpzCo75cUXXzSBsAcffFBy5Mhhp6mj67YoV8/R42fwCCCAAALJK0Cy9+S9t1wZAggggAACCMRIoNdZreXx+e/Y6n3y2p/khYtut9XGiZUPHz4stWrVMkPXBO3hlrfffttUDTZzav369dK5c2ezzO8/zz4rJ44fl0cffVRatmxpZnLpDK169eqJBrHmzJkjNWvWNH2OGDHC7Hv11VdN4nftx/PpioHGqAnen3WdJ1++fGa2mGc9zbu1alXiz7Kbsn6e57DD3i6UK1/YdamIAAIIIIBAVgoQyMpKbc6FAAIIIIAAAkkh0KVac9uBrL1HD8rhjHTJm5Y7rgY6YylW5bfffpMLL7xQNCH83LlzTQAo0LmsBPDWk/+0XqlSpbzaHHcFqhYuXCjTp0+XIUOGiM7aKleunJkhpU8r1PLII4+YOn369JGxY8dKamqKqd+kSRNz3Ppn5MiRJmfW+PHjzRMH77nnHhk+fLh1WDSnltWn7uzatat5UmGOtDRpf+ml7icUWjO6Xn755bAS3rtPEKeNAT+/YfvMTcvWtt2GBggggAACCGSVAIGsrJLmPAgggAACCCCQNAKl8xaVXDlyytHjx2xdU8vJ98nPXV+11SbalX/99VfT5dGjR6Pa9fLly6Vx48ZSrFgxk+Bdt4MVffqgLv3T2VJaNHF7ly5dvJqkpqbKE088YZYF6oFp06aZ2Ve637N88cUXJoiVO3duWblypVSs6H/p56effmqCV5qLa9iwYZ5dSJUqVdzvNReWLiXUMtQVQPMsGlzTouO66667PA95bXsG6LwOZOGblXs3ytZDu2yf8dVm99puQwMEEEAAAQSySiDFlWvgZFadjPMggAACCCCAAALJIrDCFSRoOjFwICPQdf7Y5WU5q3CFQIcdtz89Pd0sv2vWtJm0at0qJuNfvHix1K4dfJbQqFGjsuSpgrps8fPPPzcJ5+vUqROT641WpxdMuE3W7LOX6L1ywTIyv9uoaA2BfhBAAAEEEIi6AIGsqJPSIQIIIIAAAghkF4GGn90q6/Zvs3W5hXPll5U937PVhsoI2BV4afFnMvQ3+5+z+d1ek8oFS9s9HfURQAABBBDIMgHvedlZdlpOhAACCCCAAAIIOF/gs7ZP2b4IzZXV9dvHbbejAQLhCizbvS6iIFbXas0IYoWLTD0EEEAAgbgJEMiKGz0nRgABBBBAAAGnC1RyzVx5p9UA25cxZ8ti6T+X5Vu24WgQUmDDge1y8ST7Oa6K5i4go5rfF7J/KiCAAAIIIBBvAQJZ8b4DnB8BBBBAAAEEHC3QoVJj6XVWG9vXMHb5VLn0q4ck3WbCeNsnokG2EZi09kfR5a52S87UHLLgyjclxfUfCgIIIIAAAokuQI6sRL9DjA8BBBBAAAEEHCFw88wX5PM1cyIa65SOz0mDktUjaksjBI6dyJCWk++XFXs22MZIcwWxVlwzTgrkzGu7LQ0QQAABBBCIhwCBrHioc04EEEAAAQQQSEqBt5dPkQFz34jo2ornKST31blKbjyng+RIYdJ8RIjZrNHCHSvlv79/JNM3Lojoys8sXF5mXjFccqamRdSeRggggAACCMRDgEBWPNQ5JwIIIIAAAggkrcC+Y4ek4fhbZXf6/kxdY90SZ8oFpc/JVB80Tj6BTQd3yNfr5smJkycivrhUV6D03jrdZGC9nhH3QUMEEEAAAQTiJUAgK17ynBcBBBBAAAEEklrg+00L5YYfnpPDGelJfZ1cnLME+tRoJ481uE4K5crnrIEzWgQQQAABBP5fgEAWHwUEEEAAAQQQQCCGAhrI6j/3Nflp6xLZfniPaD4jCgJZJVA0d0Gp4nq65sP1e0mLcnWz6rScBwEEEEAAgZgJEMiKGS0dI4AAAggggAACpwvsO3rQPKnwYMaR0w+yx69AtbKV5P4B/eXOe+/2e5yd3gL67MHCuQpIkdwFvA/wDgEEEEAAgSQQILNjEtxELgEBBBBAAAEEnCNQKFd+M9iSzhly3Ed68uAxKZKSzzWzqEzcx8IAEEAAAQQQQCC+AjwSJ77+nB0BBBBAAAEEEEAAAQQQQAABBBBAIEwBAllhQlENAQQQQAABBBBAAAEEEEAAAQQQQCC+AgSy4uvP2RFAAAEEEEAAAQQQQAABBBBAAAEEwhQgkBUmFNUQQAABBBBAAAEEEEAAAQQQQAABBOIrQCArvv6cHQEEEEAAAQQQQAABBBBAAAEEEEAgTAECWWFCUQ0BBBBAAAEEEEAAAQQQQAABBBBAIL4CBLLi68/ZEUAAAQQQQAABBBBAAAEEEEAAAQTCFCCQFSYU1RBAAAEEEEAAAQQQQAABBBBAAAEE4itAICu+/pwdAQQQQAABBBBAAAEEEEAAAQQQQCBMAQJZYUJRDQEEEEAAAQQQQAABBBBAAAEEEEAgvgIEsuLrz9kRQAABBBBAAAEEEEAAAQQQQAABBMIUIJAVJhTVEEAAAQQQQAABBBBAAAEEEEAAAQTiK0AgK77+nB0BBBBAAAEEEEAAAQQQQAABBBBAIEwBAllhQlENAQQQQAABBBBAAAEEEEAAAQQQQCC+AgSy4uvP2RFAAAEEEEAAAQQQQAABBBBAAAEEwhQgkBUmFNUQQAABBBBAAAEEEEAAAQQQQAABBOIrQCArvv6cHQEEEEAAAQQQQAABBBBAAAEEEEAgTAECWWFCUQ0BBBBAAAEEEEAAAQQQQAABBBBAIL4CBLLi68/ZEUAAAQQQQAABBBBAAAEEEEAAAQTCFCCQFSYU1RBAAAEEEEAAAQQQQAABBBBAAAEE4itAICu+/pwdAQQQQAABBBBAAAEEEEAAAQQQQCBMAQJZYUJRDQEEEEAAAQQQQAABBBBAAAEEEEAgvgIEsuLrz9kRQAABBBBAAAEEEEAAAQQQQAABBMIUIJAVJhTVEEAAAQQQQAABBBBAAAEEEEAAAQTiK0AgK77+nB0BBBBAAAEEEEAAAQQQQAABBBBAIEwBAllhQlENAQQQQAABBBBAAAEEEEAAAQQQQCC+AgSy4uvP2RFAAAEEEEAAAQQQQAABBBBAAAEEwhQgkBUmFNUQQAABBBBAAAEEEEAAAQQQQAABBOIrQCArvv6cHQEEEEAAAQQQQAABBBBAAAEEEEAgTAECWWFCUQ0BBBBAAAEEEEAAAQQQQAABBBBAIL4CBLLi68/ZEUAAAQQQQAABBBBAAAEEEEAAAQTCFCCQFSYU1RBAAAEEEEAAAQQQQAABBBBAAAEE4itAICu+/pwdAQQQQAABBBBAAAEEEEAAAQQQQCBMAQJZYUJRDQEEEEAAAQQQQAABBBBAAAEEEEAgvgIEsuLrz9kRQAABBBBAAAEEEEAAAQQQQAABBMIUIJAVJhTVEEAAAQQQQAABBBBAAAEEEEAAAQTiK0AgK77+nB0BBBBAAAEEEEDAJdC8eXNZsGCBZGRkhO2xefNmGThwoEybNi3sNlREAAEEEEAAAWcLEMhy9v1j9AgggAACCCCAQFIITJw4URo1aiT58uWTZs2aycaNGwNe15AhQ6RixYpSvnx5yZUrl7Rp0yZgXQ4ggAACCCCAQHIJpJx0leS6JK4GAQQQQAABBBBAwIkCU6ZMkQ4dOriHnpqaIo8//oQ8+eST0r17d1m6dKksWbLEffzMM8+UlStXut+zgQACCCCAAALJL0AgK/nvMVeIAAIIIIAAAgg4RqBjx47y9ddfhzXevXv3SqFChcKqSyUEEEAAAQQQSA4BlhYmx33kKhBAAAEEEEAAgaQQGD9+vKSkpIS8lhEjRhDECqlEBQQQQAABBJJPgBlZyXdPuSIEEEAAAQQQQMDRAuPGjZPrrrsu4DUUK1ZMduzYEVbAK2AnHEAAAQQQQAABRwoQyHLkbWPQCCCAAAIIIIBAcguULFnSBKv8XeX06dOlVatW/g6xDwEEEEAAAQSSXIBAVpLfYC4PAQQQQAABBBBwosB3330nbdu2PW3oBQoUkP3795+2nx0IIIAAAgggkD0ECGRlj/vMVSKAAAIIIIAAAo4TyJs3rxw5csRr3AsXLpS6det67eMNAggggAACCGQfAZK9Z597zZUigAACCCCAAAKOEli+fLnXeCtXrkwQy0uENwgggAACCGQ/AQJZ2e+ec8UIIIAAAggggIAjBCpWrCilS5d2j/WTTz5xb7OBAAIIIIAAAtlTgEBW9rzvXDUCCCCAAAIIIJDwAikpKfLoo4+acebKlUsaNWqU8GNmgAgggAACCCAQWwFyZMXWl94RQAABBBBAAAEEMimgAa0xY8ZI3759M9kTzRFAAAEEEEDA6QLMyHL6HWT8CCCAAAIIIIBAkgv06NFDevbsmeRXyeUhgAACCCCAQDgCzMgKR4k6CCCAAAIIIIAAAnETOHHihKSm8v+/xu0GcGIEEEAAAQQSSIBAVgLdDIaCAAIIIIAAAggggAACCCCAAAIIIBBYgP9rK7ANRxBAAAEEEEAAAQQQQAABBBBAAAEEEkiAQFYC3QyGggACCCCAAAIIIIAAAggggAACCCAQWIBAVmAbjiCAAAIIIIAAAggggAACCCCAAAIIJJAAgawEuhkMBQEEEEAAAQQQQAABBBBAAAEEEEAgsEBa4EMcQQABBBBAAAEEEIiGwPI966X/3Ndk/va/5ORJkZOu/1AQiLVAirj+k5IigxpcK3fV6hLr09E/AggggAACWSLAUwuzhJmTIIAAAggggEB2E9h2aJc8PO9N+XLdz9nt0rneBBUolbeoDKh3tfSu3jZBR8iwEEAAAQQQCC1AICu0ETUQQAABBBBAAIGwBTJOHJcrpz4hP239M+w2vhVTXbNocufIJWkpOUS3KQhYAvr5OnYiQ466fjJTFl71ppTPXyIzXdAWAQQQQACBuAgQyIoLOydFAAEEEEAAgWQU+HHrErlq6pOiwYZISu/ql0ifGu2kTvEzImlOm2wksCf9gHy7cb489eu7suPw3oiuvGPlxvJ2ywERtaURAggggAAC8RIgkBUvec6LAAIIIIAAAkkl8MnfP8ids1+yfU2ax6jbGc3l1Wb32m5LAwRUYN3+bdL6i/tl39FDtkFK5i0iC698Q3LlyGm7LQ0QQAABBBCIhwCBrHioc04EEEAAAQQQSCqBlxdPkCG/jbN9Tflz5pW5XV6RMvmK2W5LAwR8Bf6z8H3536LxvrtDvi+ep5Asu/rdkPWogAACCCCAQCIIEMhKhLvAGBBAAAEEEEDAsQIr926UJhPvsj3+qoXKyLyuo2y3owECwQQmr/1R+s14PlgVv8fOKlxe5nR5WZ9z6Pc4OxFAAAEEEEgUgdREGQjjQAABBBBAAAEEnCagCbcjCWKVyFNYfuz8itMu1+94Fy1aJOPGjZO1a9f6Pe7Ena+++qrMnz8/rKHr9SdSubxKE3mv9SO2h7Ry7yYZueRz2+1ogAACCCCAQFYLEMjKanHOhwACCCCAAAJJI9Dju6dsX4vmIlp69TuSlprDdttIGnTr1k1SXE8+HDhwoLv5vn373NvWhtbRnzVr1li7wnrdu3evXHfddTJs2DCv+ocPH/Z6H+xNRkaG2KkfrC/fYytWrJD//Oc/UqJECUlPT/c97Pf9Dz/8II0aNZI//wz+5MlKlSpJ3bp1ZcmSJX77idfOthUbytVntrJ9+sG/jpW9Rw/abkcDBBBAAAEEslKAQFZWanMuBBBAAAEEEEgagQPHDsuPW+wHMN5t9W9AKRYYL774osyYMcPddVpamtl++umn3fvKlSsnHTp0cL+3Np544gmpWrWq9Tas15IlS5p6997rnaxeZypZwbFQrzlz5pRJkyaHdb5AlU6ePCnfffedDB06VM4//3wpW7as6LXXqFFDHnnkEdm5c6fodYdT8uTJY6qde+65QasvW7bMHD/vvPNiFogLOoAgB19qepfkyZErSA3/h66d/u/nxH8N9iKAAAIIIBBfgVP/yya+Y+DsCCCAAAIIIICA4wQiWVKYLy2PtC5fP6bXqrODHnzwQdmzZ48ULFhQatasaV5z5Dg1A6xv374m6DJ48GD3OGbOnGm2u3fv7t5nd0ODVZ5Fg1NaNKCVK1fggIrO6GrcuLEUK1bUs7nXtl5L0aKBj3tV/v83GrTSWVVnnHGGCWw1aNBA1ODo0aNBx+Ovr0D78ufPL5s2bZLKlSvLa6+9Jvfdd1+gqnHZP6n9UGn35UO2zj1v2zLZnX5AiuYuYKsdlRFAAAEEEMgqAQJZWSXNeRBAAAEEEEAgaQQOHjsiWw7ttH09uqQw1mX06NHy9ttvyyWXXCI///yz1+mmTp1qjk2cONEEd6yD48ePN8EdDXpFq2jgSIvOiMqdO3fAbnft2mWOVaxYMWAdq73OstJgmwbGNEiVL18+adiwoZl5pUGq/fv3S6lSpcQKogXsMIIDV1xxhcydO1eaNGlyWus2bdrIrFmzzI91UAOKGqTbtm2bmZlm7c/K13olzpIiroDUHldgyk55esF78vyFt9ppQl0EEEAAAQSyTIBAVpZRcyIEEEAAAQQQSBaBCWtm2b6UPGm5JF9a4ICO7Q4DNEhNTZXZs2fLV199dVqNCRMmyB133CGdO3f2OvbOO+9InTp1vPYl4puuXbvK8OHDAw5NA3cVKlQwPxs2bAhYL5IDulxx8uTJsn37dr/NffOOHTt2THbs2BG3IJY1yLtqd5Ehv46z3ob1Onb5twSywpKiEgIIIIBAPAQIZMVDnXMigAACCCCAgKMFPls92/b421Y433Ybuw00UKVL6po2bWp+fNvr8jctmkNLAz29e/c27w8cOBD2U/rmzJkjzZs3N+08/6levbr7rc6a+uijj9zvw9k4dOhQONXCqjNq1Kiw6lmVXn/9ddm6datcfPHFZpfOotKiM9h0FpaVB0z3/fjjj/oSsjz77LMmN1fIijGucFetrrYDWTEeEt0jgAACCCCQKQECWZniozECCCCAAAIIZEeBn7baT/LerlKjmFPpEwoDFd8cVlpPA1nFihUzTfwd9+xLk6lrKVKkiHTq1MkkU9f3mr/qk08+kR49ekihQoV0l5QpU8a86j9W4nT3jgAb69evF2s5YoAqorOeQo1T21522WWBunDv16czVqlSxbz/66+//M70ateunTmuiewtJ3cHSb4xdeOvkhXB1yRn5PIQQAABBGIgQCArBqh0iQACCCCAAAII+Ao0LFnDd1fU31vBJu1Yt3WZoVVq1aolv//+u0l4bu3TGUe7d++WQYMGSfv27a3dsmrVKrn++uvls88+M/mmvv/+e/cx7UeX2FlFn9yngawhQ4bImWeeae12v2pbz2TvP/zwg0yfPl0GDBhgktBrRR1X4cKF3W0CbWiurIULF0rdunX9VunXr5+MGTPGXLvfCv+/c8OGja6gW0F3lf/973+iP1bRAN97773n1Y8GtTxzb3Xp0kX+53pCZJX/f8pjRkaGvPLKK2I9vXHjxo2SN29e00c4wTfr3LF4LZ6nkOw8ss9W10t2riaQZUuMyggggAACWSVAICurpDkPAggggAACCGRrgeJ5Qgdqogmkyck1gNKzZ0/5+OOPZenSpWZWkSYh18Tqhw8flg4dOphTDh061OvUGsjS0qJFC9MmnBlOXh14vLnooou8kr1rDqvHHntMWrVqZV61qr8E6h5duDc1kBUoiKWV/vzzTylQIPTT9ipWrODuM9yNb7/91l1Vn8T4+eefy5QpU2TevHly3nnnmScWaiBLiwazdNt6724Ypw1N+G43kLX18O44jZbTIoAAAgggEFyAQFZwH44igAACCCCAAAJRESiYM29U+gmnEw1iffHFFyaQognHdWaQLsvT5XGVKlUSTe6uS/l0maAVtPLsd+bMmWY2VyyX02kwK9pFk73r9cWyHD9+3ATeNGCms9nS0k79z+mXX37Z5M+677775Oyzz5ZLL700lsOgbwQQQAABBLKtAIGsbHvruXAEEEAAAQQQSEYBzTO1YMECuf/++80TCjV31cGDB82lakLzmjVrmmWDuvRNg0mauF0DXZ4zjjRnlGeeq3CddJZXmzZtvBKif/rpp+5gj/ajgTUtvsngdaaYBteee+45d/4tUzHAP/v37xdNMO+7JFGDSxpI8i0agNq7d2/Apw761rfea3J7zfOlTy08evSonHHGGcZz06bNXtel9dVdZ4zpMs1p06ZJ69atrW54RQABBBBAAIEoCRDIihIk3SCAAAIIIIAAAvEU0NlIuoxPc2NpAOWFF14ww9E8WQULFhQN5GiuKp2Bpfmsypcvb45rYEZnaHkWzXtVrVo1z10ht4cPHy4jR450B5aspxDecccdXgnaT5w4Yfq69dZbT+tTZ4098fjjp+3XsfsWvSYNzGnieSuh/CWXXOJbzf1el/k1btzY/T6cjaJFi5pk9hoAU7dzzz1Xjh07ZvJ0lStX1m8Xmu+rePHiJqC3c+fObJck3i8KOxFAAAEEEIiiAIGsKGLSFQIIIIAAAgggEC8BnYmls60uvPBCefPNN80wdPaTJkef7FpmmCNHDvfQPJf1aYBHA1kHDhww+aX0VZ9EqMnewymaK0qLBrE0YboGrrT88ccf5lXH4Jkkff78+dKoUSNzDlPB5x8r0OW5Oz093bzVXFS+RWdwhbMEMtx8VStXrpQvv/zSnEbzef3000+SP39+ky9MZ2T9/fffIYN8mzdvlrPOOsv9FEffMfMeAQQQQAABBCIXIJAVuR0tEUAAAQQQQACBhBHQYJEuz/Ms+vS95cuXy+5duzx3e21rkEbLtddeaxKYa6BGiz4BMFDRWV/jxo2TPn36uKtoAMjzqYXfffedOeYZQNMdq1evdrfxt+H5pEXruLU0Ml++fNaugK+a4F6Twvfv3198k9gHaqTXowErXYa5adMm15LBU0G/xYsXu5voUkxNmF+oUCH3vkAbGoybO3fuaUsPA9VnPwIIIIAAAgiEL0AgK3wraiKAAAIIIIAAAgkr8PTTT5ug1TnnnGOWEupAv/nmGzNbacOGDe4n6P36668mT5Q+yVCX52nRpxJas5C6d+9u9mneLH9l0KBBMmzYMLPETutoUnnNi+Vb3n//fddSxpwmabznMZ3xZbfo0wi16LWFU3QGV7hBLO2vc+fOMnnyZDNrTZdo6uyt995777RTabDrpptuOm1/oB0aIKMggAACCCCAQHQFCGRF15PeEEAAAQQQQACBuAhs377dzJIqW/ZU7iZNem7NTnrmmWfcY9K8UroUzwpi6YH//ve/JiCl9VasWGESxbsb+GxowEzzb+lSwttvv100n5a/ouOpW7ee1KpVS6xAlGc9HZtn0Sco6pj9lbFjx5rd9evX93f4tH3+kr2fVsljhwb17r33XnnttdfM3kDLEFu0aGECfp4zz7p27WpmammCfM+iM+EoCCCAAAIIIBB9AQJZ0TelRwQQQAABBBBAIMsFNNn6iBEjzHl1aZsmdteAji6Hs4ou69Pk7oMHD7Z2mVetp0vmdLaVFn3iYbCiTyf0DUR51tdE7xqU0uTrOgNMA1mTJk3yrOK1fffdd3vl8PI66HqjgSY7RZ9maKdosngriBWsnQawPINYWleXMWqpUaOGebX+8X1v7ecVAQQQQAABBDInQCArc360RgABBBBAAAEEwhLYe/SgFM51Kh9VWA1sVvIMLD3wwAPmKYWeQSzt7sorrzQBLp1J5Vt0JlaZMmXME/esJxr61rHee57L2uf5qsv0tNxyyy2iea2+/fZbufzyyz2reG0/+uijAQNjGjTTJXr6RMZQRa9BS9u2bUNV5TgCCCCAAAIIOFQg1aHjZtgIIIAAAggggICjBHal78uS8erSQZ2dpaVp06bmaYS6PX78ePMEQ+tpgrrPs2gQS8vOnTvlnnvu8Txke/vGG280bSpWrGi7rW8Da/ZYODmvdGaXlmuuucbkyNJr8sxTpfmvsmPZdWS/7csul6+47TY0QAABBBBAICsEmJGVFcqcAwEEEEAAAQSyvcDcrUulasFT+atiiaHBmy1btojmldKcV5oLS5OyHz+eIZrjyd+St/bt25shaYJ2nU310ksvSalSpdxLDe2MV8+rSws/+OADO8381s3IyDCJ1/XJihdffLFXnf3798tHH30kOmNLiy5d1Jlf+qRGzQGm77dt22aSzWtga9WqVWY2mlcn2eTN7nT7gaxaxapmEx0uEwEEEEDAaQLMyHLaHWO8CCCAAAIIIBB3gWZl69gew3cbf7XdJtIGGsx66KGHZM+ePTJ9+nQT7Dl69JjMmDHDLOGzlhxqLq3zzjvPPN2wU6dO0rNnTxMc0gTtutzvvvvuszUEzcHVp08fEzjr0aOHrbb+Klszyh588MHTnn6oATo9R7ly5eS5554zTx7U3FhWYvj58+eb2VgVKlSQDz/80OS2Ugu95uxUTkpkT05sU6FBdmLiWhFAAAEEHCRAIMtBN4uhIoAAAggggEBiCFx1hvfsoHBGNXXD/HCqRa3O6r//lsaNG0vr1q3l0ksvNbOkNKG5JifXWUz6o7OzdKnh1VdfbZ5aaJ188eLFUqdOHbNE8dxzz3UvT7SO66vOltKiwTEtGiCqWbOm2Z4wYcJpgacOHTpIoJ+1a9eadp7/6MywefPmmVlUTzzxhOchs61BM33SoM7WGjhwoNx1113i70mBGzZskN9++01KlCghN9xwg2j+L39PUfQ8QXp6uudbufPOO0WfBunvZ8mSJaauv2O6z18+Mq/OY/xm+B/jY3wGukcAAQQQQCBrBVhamLXenA0BBBBAAAEEkkDg8ioXyd1zXrZ1JcdOHJfd6QekaO4CttrZqfzCCy/I559/LnPmzDHNdNbSggULpF69eua9Jl/XYM6TTz4p559/vtnXuXNnM2PJ9zyLFi0SDWLp7K3ChQvLtGnTpGXLlu5qGkQaOXKkea/BMZ0NdeTIEdExaODMKrNmzTKbulQxUNE8Vrt27fI6rMnhdf/Bgwfd+/VaGjZs6DWrqlq1aib3lz51MVCpX7++/PPPPybwpU921Blno0ePFiuXl7bTwF7JkiWlatWqosEpfZKhVXTWmgbAgp3Dquv5um/fPtPOc19WbutsrFeXBH5aZKCx3FzzskCH2I8AAggggEDcBVJc/wMhsvnGcR86A0AAAQQQQAABBOInUO/Tm2TTwR22BpAnRy5Z3/tjW23sVi5durRJ2K75o/Qphf5Kv379ZMyYMWYWli4pDFbuv/9+s8xQ8055Fp3J9fjjj4u212CYznjyVxo0aGCCacH+J2flypVl7969Zimkvz489z322GPy4osvmnNff/0NUrp04ACZZztre9myZWbMf7tmrPkWnYWms9GKFCkiv//+u+i4nFxmbV4kV0590vYlrOr1vhTKmc92OxoggAACCCCQFQIEsrJCmXMggAACCCCAQFIKlHqni+3reqfVQOlQ6QLb7aLdQANLKSkp0e6W/hJIoOK47pJ+/JitETUpW0smthtiqw2VEUAAAQQQyEoBcmRlpTbnQgABBBBAAIGkEmhXqaHt67lpxvO228SiAUGsWKgmTp89pw21HcTS0X/Q+tHEuQhGggACCCCAgB8BAll+UNiFAAIIIIAAAgiEI/BWi4fCqeZV59iJDKk0rofoKwWBWAiMXTFVpm38zXbXz1zQT/Km5bbdjgYIIIAAAghkpQCBrKzU5lwIIIAAAgggkFQCOVPT5I/uY2xf05HjR+X88bfYbkcDBEIJPL/oE+n/06hQ1U47Xr/kWXLjOR1P288OBBBAAAEEEk2AQFai3RHGgwACCCCAAAKOEiiTr5i82aK/7TFvObTLzMxasWeD7bY0QMBXIOPkcbl99nD578IPfQ+FfH920UryTcf/ChnTQlJRAQEEEEAgAQRI9p4AN4EhIIAAAggggIDzBX7fsUrafvlgRBdyYemaMqn90xG1pRECq/ZukhaT7pWjESxXLZ23qCxyzSpMJfE/HyQEEEAAAYcIEMhyyI1imAgggAACCCCQ+AJLd6+TS77oH3H+qzYVGsiNZ7eX1q5XCgLBBNbs2yKfrp4pry6ZJIcyjgSrGvBYP9dSQs2LRUEAAQQQQMBJAgSynHS3GCsCCCCAAAIIOELgmmlDZPrGBY4YK4PMfgIprkWEK3u9J4Vy5st+F88VI4AAAgg4XoBAluNvIReAAAIIIIAAAokosCt9nwz+dax8sHJ6Ig6PMWVDgepFKsjghjdIq/L1s+HVc8kIIIAAAskiQCArWe4k14EAAggggAACCSuw/9hhGfTLaPlm/S+SfvyYZESQyyhhLy4LBnb0cLrkyJkmOdJyZMHZkuMUaak5JC0lTSoWKCkD6l0j7StdkBwXxlUggAACCGR7AQJZ2f4jAAACCCCAAAIIIJDYAimuRORDhgyRRx99NLEHyugQQAABBBBAIOYCqTE/AydAAAEEEEAAAQQQQAABBBBAAAEEEEAgCgIEsqKASBcIIIAAAggggAACCCCAAAIIIIAAArEXIJAVe2POgAACCCCAAAIIIIAAAggggAACCCAQBQECWVFApAsEEEAAAQQQQAABBBBAAAEEEEAAgdgLEMiKvTFnQAABBBBAAAEEEEAAAQQQQAABBBCIggCBrCgg0gUCCCCAAAIIIIAAAggggAACCCCAQOwFCGTF3pgzIIAAAggggAACCCCAAAIIIIAAAghEQYBAVhQQ6QIBBBBAAAEEEEAAAQQQQAABBBBAIPYCBLJib8wZEEAAAQQQQAABBBBAAAEEEEAAAQSiIEAgKwqIdIEAAggggAACCCCAAAIIIIAAAgggEHsBAlmxN+YMCCCAAAIIIIAAAggggAACCCCAAAJRECCQFQVEukAAAQQQQAABBBBAAAEEEEAAAQQQiL0AgazYG3MGBBBAAAEEEEAAAQQQQAABBBBAAIEoCBDIigIiXSCAAAIIIIAAAggggAACCCCAAAIIxF6AQFbsjTkDAggggAACCCCAAAIIIIAAAggggEAUBAhkRQGRLhBAAAEEEEAAAQQQQAABBBBAAAEEYi9AICv2xpwBAQQQQAABBBBAAAEEEEAAAQQQQCAKAgSyooBIFwgggAACCCCAAAIIIIAAAggggAACsRcgkBV7Y86AAAIIIIAAAggggAACCCCAAAIIIBAFAQJZUUCkCwQQQAABBBBAAAEEEEAAAQQQQACB2AsQyIq9MWdAAAEEEEAAAQQQQAABBBBAAAEEEIiCAIGsKCDSBQIIIIAAAggggAACCCCAAAIIIIBA7AUIZMXemDMggAACCCCAAAIIIIAAAggggAACCERBgEBWFBDpAgEEEEAAAQQQQAABBBBAAAEEEEAg9gIEsmJvzBkQQAABBBBAAAEEEEAAAQQQQAABBKIgQCArCoh0gQACCCCAAAIIIIAAAggggAACCCAQewECWbE35gwIIIAAAggggAACCCCAAAIIIIAAAlEQIJAVBUS6QAABBBBAAAEEEEAAAQQQQAABBBCIvQCBrNgbcwYEEEAAAQQQQAABBBBAAAEEEEAAgSgIEMiKAiJdIIAAAggggAACCCCAAAIIIIAAAgjEXoBAVuyNOQMCCCCAAAIIIIAAAggggAACCCClbY0DAABAAElEQVSAQBQECGRFAZEuEEAAAQQQQAABBBBAAAEEEEAAAQRiL0AgK/bGnAEBBBBAAAEEEEAAAQQQQAABBBBAIAoCBLKigEgXCCCAAAIIIIAAAggggAACCCCAAAKxFyCQFXtjzoAAAggggAACCCCAAAIIIIAAAgggEAUBAllRQKQLBBBAAAEEEEAAAQQQQAABBBBAAIHYCxDIir0xZ0AAAQQQQAABBBBAAAEEEEAAAQQQiIIAgawoINIFAggggAACCCCAQOYEOnToIL1795adO3eG1VF6erpMnTpV0tLSZNu2bWG1oRICCCCAAAIIOF+AQJbz7yFXgAACCCCAAAIIOF5g8uTJMnHiRClRooSULl1aHn74Yb/XNG3aNGnevLnkzZtX2rVrJ7Nnzzb1/VZmJwIIIIAAAggknUDKSVdJuqvighBAAAEEEEAAAQQcJ3DgwAEpWLCg17iLFCkie/bskfLly8umTZu8jnXr1k3Gjx/vtY83CCCAAAIIIJDcAgSykvv+cnUIIIAAAggggICjBB577DEZOnRoWGPOyMiQHDlyhFWXSggggAACCCCQHAIEspLjPnIVCCCAAAIIIIBA0gjkzp1bjh49GvR6fv31V2nQoEHQOhxEAAEEEEAAgeQTIEdW8t1TrggBBBBAAAEEEHC0wNq164KOv3bt2lK/fv2gdTiIAAIIIIAAAskpQCArOe8rV4UAAggggAACCDhWoGzZMkFnW3311VeSkpLi2Otj4AgggAACCCAQuQCBrMjtaIkAAggggAACCCAQI4FJkyb57blly5ZSsWJFv8fYiQACCCCAAALJL0COrOS/x1whAggggAACCCDgSIEaNWrIihUrvMa+ZcsWKVOmjNc+3iCAAAIIIIBA9hFgRlb2uddcKQIIIIAAAggg4CiB+fPne423Xr16BLG8RHiDAAIIIIBA9hMgkJX97jlXjAACCCCAAAIIOEKgUKFCUqtWLfdYNTcWBQEEEEAAAQSytwCBrOx9/7l6BBBAAAEEEEAgoQVGjBhhxle2bFnRHwoCCCCAAAIIZG8BcmRl7/vP1SOAAAIIIIAAAgkvoE8onDZtmrRu3Trhx8oAEUAAAQQQQCC2AszIiq0vvSOAAAIIIIAAAghkUuDVV18liJVJQ5ojgAACCCCQLALMyEqWO8l1IIAAAggggAACCCCAAAIIIIAAAkkuwIysJL/BXB4CCCCAAAIIIIAAAggggAACCCCQLAIEspLlTnIdCCCAAAIIIIAAAggggAACCCCAQJILEMhK8hvM5SGAAAIIIIAAAggggAACCCCAAALJIkAgK1nuJNeBAAIIIIAAAggggAACCCCAAAIIJLlAWpJfH5eHAAIIIIAAAggklMA/R/bIjsN7E2pMDCb5BArkzCvF8hSS/Gl5ku/iuCIEEEAAgWwtQCArW99+Lh4BBBBAAAEEYi2w88heuXHGMFmya43sO3oo1qejfwS8BHLnyCmFc+WXpxreIN2qNfc6xhsEEEAAAQScKJBy0lWcOHDGjAACCCCAAAIIJLLAeyu+k4fnvSnpx48l8jAZWzYT6Fi5sTzb+GYpnbdoNrtyLhcBBBBAIFkECGQly53kOhBAAAEEEEAgIQR06WD9T2/OdACrUelzpGW586R+ieoJcV0MIv4CBzKOyLxtS2X83zNlV/r+TA2oU5UL5a0WD2WqDxojgAACCCAQDwECWfFQ55wIIIAAAgggkJQCTy94T0b88VlE11a1UFl5pH4vubzyRZKSkhJRHzTKXgIbDmyXEYs/k7HLp0Z04eXzl5DZnV8SzadFiY5AxonjMmHNLJm4Zo5M37ggOp3SCwIhBErkKSxtK54v3c9oKReVOTdEbQ4j4HwBAlnOv4dcAQIIIIAAAggkgEDbLx+U33essj2StNQc8lOXl6VKwbK229IAARU46fpPx68fll+3L7cNkuoKmv519VgpkruA7bY0+Fdg79GDrpmYN8n+Y4f/3ckWAnESuP7sS+WZRv1E//uFgkAyChDISsa7yjUhgAACCCCAQJYK9P7+Gfl2/Xzb52xVvp6813oQXzZsy9HAn8DsLX/IVVOfkhMnT/g7HHCfftld3H2MFHfN6qDYE/jn8B7p/f1/ZME/K+w19FO7lCtvWRPXbJr6JatLxQIl/dRgVzIL7Ek/IBsP7jD/h8iMzb+Lzu7LbOl3TkcZ2qivpKakZrYr2iOQUAIEshLqdjAYBBBAAAEEEHCawFt/TZGBP79he9g31+zk+oJxo+12NEAgmMDhjHQ544Netr8E6/LClT3fkxx84Q3G6z6ms+BG/TlJnpz/rntfJBsl8xaRUc3uleaufHgUBHwFnpj/jryz/BvR3+vMlN+ufIPgaGYAaZtwAoRmE+6WMCAEEEAAAQQQcIrA8j3rIwpita5QP+pBrG+//Vb27t3rFLq4jnP48OGydOnSkGMYPXq0nDhhb3aTdvrWW29Ju3bt5O677w55jmhXyJuWW37pNso1A8NenrUDriVxPb57KtrDSdr+dClnZoJYZxUuL7M6j5A/e7xNECtpPyWZv7CnGl4va6/9SN5uOSBTnTUYf7O8tnRypvqgMQKJJMCMrES6G4wFAQQQQAABBBwlUOvjvrL98G5bY9blQ0t6vGWrTTiV8+TJI+np6fLuu+/KddddF06TqNY5fPiwbNmyRTSgNmjQINm9e7esWbNGqlSpEtXzRKOzAgUKyMGDB2X//v2i21pmzJghLVq0MNvWP5p0v1ChQrJy5SopVSr8pV5z5syRZs2ayb59+6RgwYJWd7J9+3bZs2eP+32wjYyMDKlYsaJX+2D1fY+NXz1Tbp813Hd3yPffXTZMzit+Zsh62bWCLveq7woKbD20K2KCkc3ukavOaBFxexpmX4Grpj4pMzcvihhgYL2ecv95V0XcnoYIJIoAgaxEuROMAwEEEEAAAQQcJTDL9WXiSteXCrvl1ytfl0oFStltFrK+Bk00aKQBpEsvvVSmTJkSsk2wCosW+f+ypPu3bt0q69evN7Oatm3bJps2bfI7GyxfvnwmmJMjR+CEw/PmzZPOnTtL3rz2n5x38uRJ2blzpzlHoGs5evSo1K5dW+644w73DKlqZ5wh/7iCShrI0qJmxYsXlxo1asiyZcvMvh07dkjJkiXl77//lmrVqpl94f5jBbJ0fJ7l7bfflr59+3ruCrr9xx9/mLEHrRTkYKvJ98uSXWuC1Dj9kOZm0mVIFP8CGsTaeOAf/wdD7M2fM4/83GWklM5XLERNDiMQWGDC6lly66z/Ba4Q4sjj518nd9bqEqIWhxFIbIG0xB4eo0MAAQQQQAABBBJT4JppQ20PrGbRyraDWBoM+eWXX0RnXFmzhwKdeP78+XLJJZeIzubRAEygosvldGaQzjbS4I2/UrduXX+73fty585txlOkSBE5++yzRV8vuugiad++vTRs2NBdL9SGBpA0MBYocBas/RVXXGGCTcHq5MqVS5o0aSL33HOPCSKpYY3q1eXk/y8ZPH78uFSoUEHKli3rDmJpf7r8UIsei1YpXPhUMnXfAJdv/ytXrpTqrjFa9X2Ph/t+XOuHpd6nN4db3dTb4ArSbD64U8rlL26rXXao3HfGfyMOYumST306ZO4cOeNCpZ+5Dh06yOWXXy79+vWTnDljN47nn3/e/N5ccMEFUrVq1Zhf77PPPmt+t0uViv7/QWB38EuWLDF/z/TvWr169ew2D6t+12rNJcP1QIc7Z48Iq75vpcG/jpWLSp96qIDvMd4j4BQBAllOuVOMEwEEEEAAAQQSRmDt/q1y7ESG7fF8d9kLttto0Klx48a22umSvjPPDL087L777pMXX3wxYN8DBw40X3q1ghVEy58/v3tbZy09+uij0qtXL7OULmBHYRyoU6dOGLW8q2gwbfny5d47/bzTnFU6G0pnVunyPs+iywmPHTvmFcTS4++9956cf/75ooGwaBUNTtkpGrzMTCmfv6SUdQWktrgCU3bKja6AzZSOz9lpkvR1l+1eL1+unRvxdWresngFsXTQDzzwgHzzzTcya9YsE2Cx/qY8/vjjMnjw4Iivy1/DmTNnypdfful3lqa/+pnZZ/0N0r9Dw4YNE/2bFs+iS5b1/0zQvzexCmTp9XV3LU3dnb5fHvslsmXqnb95TNb3/jieVJwbgUwJEMjKFB+NEUAAAQQQQCA7Cny+Zo7tyy7lejpZztTAS+wCdajL8kLN4AnUNrP7y5cvL2e4luEFKjrz6/XXXzdBIP3ymplSpkwZ2831S2y4RXNg6cwx33LTTTeZL506O80quuRw3bp1cv/991u7gr5qfrBQSyN1iWM8yvCL7nAlcbcXqPjtnxXxGGpCn/PiSfdEPL7hTe6Q0q7cePEq1157rbz//vvSo0cP+eijj9zD0Hx2Q4YMMZ9/DQjrUuBolEqVKpluPH+nPPvduHGjyf/22WefSdeuXT0P2d4uUaKEmYHasmVL8/s6duxY0eXKdgLQNWvWlHPOOSfsc+uy6quvvtoEB30baXBdi2++Pd960Xh/S83LZPSyr2Td/m22uzty/KjcNPN5efPi/rbb0gCBRBAgkJUId4ExIIAAAggggICjBD75e4bt8bavdIHtNoEafP/992YpX/369QNV8do/d+5cMxNJl+LZLbpcMdRSQU0wH6z8+eefcu655warYpbjBK3g56AGpkLNyNJgnM4m85zx9fvvv5u8WldddSrp8RdffCFqpIE5XeY4ZswYc7a77rrLz1lP7Vq4cKF7xoUGB2688Ub3l2frSYfWjCorCX+498s6qeb/yuxyqZblI1vetM2VzJxcTqfuxCd//2DdEtuvxfMUkp5ntbHdLloNdGamLjPWz3inTp28utUna+rn/sILLzRLATUwnJqa6lUnkjehlsRaOedGjRpl8vmFCqDp+IMF1HWMP/zwg5lF2bt3b0lLC/4VV2esei551Bx/ujTas6iLjuu8887z3G22dVnmoUOHzBNN9W+GnaDZaZ1lcsePXV6RCmMjS94+ac2PMrLpPZIrTstdM3npNM/mAsF/y7M5DpePAAIIIIAAAgj4E1i1d5O/3UH3tSwfPOdU0MY+B9944w35+GN7y0I0L04kgaxGjRr5nP30t55fCk8/empPoFllVtAnWNAoUJ+6TNAKFgWqo1/M9Uvqhg0bTBUNfFlPDrT26QGdEaZPXdRiLU8K9qX+rLPOkhUrTs1c0lxA48aNMwnjtb0G7vr37y+ff/65vhXNw6WJ+C0DfRpiOEUDYPEqs7culiurXRyv0yfUeZ9Z8H7E4/mk7RMRt81Mw02bNruWJF9gHobw119/BcyFp0sM9XOvT8jU2Z+6He7sSJ2ZVLly5YDD9P2c63LDadOmmaW8AwYMEM1tFU7RALA+zCLcEuzhEtqHPsTBc4nx3r17vbrWGZYaxBo6dKj7b4FXhf9/o7/XOgNL+1O3UOf110dm9+VKTZOOlRvLV+t+jqirV/+cJPfWuTKitjRCIJ4CBLLiqc+5EUAAAQQQQCDbCJzjSvQerWJ9edQvUuEU/YKly2ciKTrjwPcLqdVPs2bN5KeffjKBGmufv1crgOPv2IEDB0zQJ1RAyl9bfRLh7Nmz/R1y7/MMVulOz2vRWVX6BdlaDqTHNVm9Fp2l4TkbSme06DIozaflez1q6+lr5RPTp0d6Fk0ErUX78Cya3+f554fJp5+Ol8suu8wc0nNE64txtULlZPW+zZ6nDLk9f/tfBLJcSgePHTbJ70OC+alQMFc+qV2smp8jsd2lM4T0M6a/U4888oiMGDFCVq1aZU6qv28LFiww2/oZsz7LVkC5XLlyZqZROCPUmVdTp06V5s2be1V/7LHHTL6qI0eOuPdroGfXrl3mIQoa+Ak3iKUdFC1a1MyW9A04uTu3uWFdc6BmuuRRi+a6Clas3882bdpE7Xc12PkCHRtYryeBrEA47E9aAQJZSXtruTAEEEAAAQQQSCSBivmj/0StYDOGonXt1pc1f/1pEEu/lNoZh365/eCDD7yW9ujT1CItrVq1MsuKtL0GrXTZzzXXXHNad7t37zbLp3SpoS5z1C/z+qVev+zr0sBT+YM+Ngmxr7zyStEv9J5FZ5NoCbVsybNNoG3fPjSn0PHjJ8zyR99jgfqwsz/MCWBeXZ70epd938zcvCjii69b4syI22amof5OaP4r/Sy98847ZtaUzpr89ddf3U8W1SCUBoj091dnH+nnXX93rAcchJPTTfvwF+yxPsOeAWIN7uoyR8+Zj3av0erXbju79dUsZ840vzn17PaVFfVrFKkoqSmpcsL1JEO7ZU/6AbtNqI9AQggQyEqI28AgEEAAAQQQQCDZBdIiSPQeyMSaUeA7EyJQfd2vCcwzU3T2l87O8v0y2blz54AzsrSNb/4YXS53yy23SI4oeljX5ZpfYmY0+Qay9Et5sWLFzGwszQOkY9anL/7zzz8mz5Umbp48ebK8+eab0qBBA9fMqE/NNXkG8TSJtPYRSVEHz74C9REqD1CgduyPncBLSyZG3Pkt55yaXRdxBxE21KcT+hbN/Va2bFlZvXq1WVYX6OEEGgyOZHak7/k83+vfKw3W6qwvzU+V2XLxxRebpy/a7UdzgWnwPVjRMU6fPl1Kly5tZpv51tX8hM8991xYv8++bWP5Xh8kku4KhkdS9hw9IEVyFYikKW0QiJsAgay40XNiBBBAAAEEEEAgMgENwOiyvkBPBfPtVZe+6BfZzJRFixaZII9vHxr80R9/RWdr6NIjz6KzOHyX1nkej/b2lClT3LnBND+WfoH/8ccf5eDBg+ZUurywW7duMn78eDN7RWet6PJDzRmkOYCsol9wmzRpYr0N+/Xtt9+WBx98UDyfsOibq2zt2rWmP9/9mzdvNsE2tVc3StYLLMjEExzbVjw/6wcc4Iya002DyhqoChTE0qahgli//fabmcllJWwPcDqv3fpQBs07tWzZsoD965MMdYakvyeLenXmelO3bl0zu1KDTaGKJorXILX2GyqIpX1pknct27Ztk44dO5pt3380kJVopXHpmhLp7MGJq2fLDWefWlKdaNfFeBAIJEAgK5AM+xFAAAEEEEAAgQQV0OBIVhTPWUQ6m0OLJmtu3bp1yNNrgnWd9RSq6JfCgQMHhqoW9PjSpUvlnHPOOa2O5puylgTqF1T9Mq+zoypUqCCeS6c0J47mytKlVVr69u0rb731lrs/nVESSSDLyselyxa1WIGxxYsXu/vWDSuRte9+PabjtGbg6XsKAr4C+vCCGjVqSPXq1f0GmzWAq0Giyy+/XJ588knf5gHfz5s3zzzQQJ+eaRUN+q5bt856G/TV+vxblfz9jlrH9FWXOmoerVBFc36FU3ScVVwPWdCcghpEC6c0bdrU/B3w/PtgtdMHX+hTXH2vyzoez9cLMxHIOpDxby6zeF4D50bAjgCBLDta1EUAAQQQQAABBOIkoHmdNDhkBVsiHYYuD9TZQfpkPc9AlWd/VlLlOnXqeO72u+1vuaHfigF2WufwfIqYZ9XatWuL5texZkp4Hvvjjz9EZ5t55uLxPK4J2vUJhH369DGzOPSY5r/R5VW6z7N4zm7TJzxqIEsTvmtOLf3yqkVzD4Uq+oS4m2++2VSrVauWfPXVV2ZZle6wvkzr+T2LJuT+z3/+Y8bluZ9tBMIV0N8fnXGlueA8iwawNKCjn2+dnaQ/nkX/DmjRvy++RYM5voGlr7/+2vQV6HfOsw8NeunDGAYPHiy33nqr5yG/256zFv1WCLBTA0z6d+L11193L33W398bb7zR/M7qUsFwijWz1Er27ttGA9E6m81OTkDfPniPAALRESCQFR1HekEAAQQQQAABBGIqoLOOdDlP8eLFM3UefXKeLu0LFMTSznUpmxbf/FZmp88/OrtJl+G89NJLctddd/kcDf+t56wPz1Y6E0pnUfk7bgXcPOv7bv/vf//z2vXAAw+Y6x85cqTXfs839evXN19WH374YdHcWJ988ok53LBhQ89qXttqpknrdTmg9dRC3xlWml/HX9FlVxQEIhXQALe/WXs6U0tnOfnOdJo1a5b7SYNWwOfpp592L8ENNg7Pp3MGq3fDDTeYINadd94p+hTDcIomno+kaAJ5/T3Va9EnherSa10CqYGs0aNHh9Wl5hDUALQuKbaeHOrb8NChQ15PJ/U9znsEEMg6AQJZWWfNmRBAAAEEEEAAgUwJ6LKg3r17Z6oPnQEVaPaT1fEPP/xgNvULcDhFg2uZCWLpOYItO9IvpsGOBxqjztbSGSiaX8paDqTBL80DdMEFF7ib6Rd+/ZKqATktOtvkvPPOk48//ljGjBkjr7zyijs45W7ksaEzuLSeluHDh4sGwvwl4tcnyfnLLaT5gSgIRFtAlxrq7CHPWVj6OdXPq+aZ0vxwuoz2jTfekK5du5pZmuHkqAo1Tn3qp85qeuKJJ8JayqhLH3VpZKRFc2Dp01D12jRwpkWDW+EGsXQWW6lSp54qu3LlStNeg29Dhgwx2/qPzjzV2W0Nzk+cvGfuwbGBQDYUIJCVDW86l4wAAggggAACzhfQZTTWcqJgV6NfzML9Qmf1o3mwtOiXwVBFA0PlypULVS3kcX8zSrSR9l2wYEHRL7u+ZcGCBX5zAln1dHaFfsG1lg1Om/adydvlGWTS2V6///67dOnSxWpmXr/77jspUaKEDBo0SPRJi7qMMVBRX30amy670iDYnDlz/FbVc+l56tWrZ87pW8kKtln7dfaLtfTL2pdVr688MUyGTQ29HCyrxhOv85R8u3O8Th3xeXVJrOaFypcvn/uJojqz8d5775WXX35Z7rnnHhNwtU7w888/S8uWLU2wWJfXaaAr0nL99debIJa2f+qpp8xPqL7090F/l8MpGszXfH36FETfokFi/R3UWZj6+6sPevAtGtTTBz3o7CsN1OvDHayZltbvrwb7dTblihUrTDBb+9Cgn/6N6urzd8K3fye+f6BrP7l7ZVcnDp0xJ7CA/vfuzJkz3cv6oz1UAlnRFqU/BBBAAAEEEEAgCwR0BtHjjz8e1pnsBrJ0mVxxVxDHWiIX6CQa4NFAkX5hjrRYSwZ1Zoi/ooEy/eLp77hv/h7f9p5J8fWLaZ06U1w5st6Vnj17uqs+//zz5smKOpPKs+gsM31K4bBhw8wSS00UH6yEysOjX5i1dO/e3R3EsmaA+etXn8gW6pz+2kVrX+srLpUuPepHqzvH9jNQvnDU2F977TW54447zMMJNKClRXM7aR4p/bzp0zk1d5WWFi1amECXLjXUZa/6eb/pppvMZ14DS+E8rMF09P//aDBsxowZcu2118oLL7xgHgqhS5l1uW2gpcw60ylQENvqW6/D+hujwbFwiy719Vc0gKVPEtUyadIk8zpx4kRp3/7Uk/s0yb0GkXVJsea807+H1t/Qdu3amfrJ9E+PO66XlgVPz5GWTNfItWS9gC7t1Ye5fPjhhzE5OYGsmLDSKQIIIIAAAggg4C2w6eA/Uj5/ZDlgvHvyfhfsS6Aujbv66qu9G4R4t3XrVtF8MR2aNfOqqTM6fMuqVavMLk3mrF9ItaSl2fuflxqQ69Wrl7u96cTjH+v6rP49DpmZVvrFUvsIVfRLqibK9wxi6TVpHqwLL7zQ7wyPq666Sn788UezHNB3tlSo8/ke15kk+mVel3RpXjEt1nIm37rW+8wm9rf6ieT1nPq1pW9j/8HFSPpzapuB7yR+IEt/N3TZ6i233GIeUKABnAkTJoguEdaHHWgwRpfKap69YsWKmVuhydd1toQ+wGDDhg3m8//TTz+ZGVt33323CWJrYEsDRzqDMdhnUZPC64MNdPanLu3TWV9adMls48aNzQwqsyPCf/T6dIaZFuvvQaCu2rZta2Zj+at3KphdRzR4bSVs1+WDOkNNZ19aRRO66wxL/ZvxzTffmFmhW7ZskWgsu7TOkUivjVo3lb61vGekJtL4GIszBTSQFcti739pxHIk9I0AAggggAACCCSxwKaDO2ISyIo2mfXEvXHjxnl17W/2UP369UwdXS6neaF09oW269Gjh1mOpzMxQhU9n3VOf3V1maMuLdRkzpEWnaVizU7RxNj6lMCHHnrILPHTL8karPItmg9Hl2Jp0UCALn/S5UWRFJ21psuWGjRoEFYC/UjOEazNmn1bgx32e6xqwdDLSv02ZGeWC2jQpVOnTua8GozSwOyoUaPk9ttvNwEbnVFkPR1UK11xxRWieaX69+9vZl/pPg3UaFBXn+p53XXXmZxV+nuheeb27dsXNJClv1P6wAJd7mz9LmuQW3PPaQA3GkUDVJktVl4839mdnkEsz3Po0kQ1VEst1pJrzzpsI4BAfARS43NazooAAggggAACCDhXIF9aHtuD/2X7X7bbhNNAZwoF+rE7G0tzbn3xxRcmN5Y1c8MagwaqdJZD69atza5rrrlGjh49ZmZ+aO6nzp1P5RLSc+qyPF2qpEt0ghXtK9DYrf36BVtz1VjvA70GO4/OPtGxayDqkksukYEDB5r+NO+VLsPSPj3Ljh07RJf2aVJ4XdaoX/A1j1afPn08q4W9rbNe9Pzx+iJ84uTps+lCDb5ByciTb4fqm+PRFdAlqPq7q0t9NYil5bbbbjMBWv3dtIJYGozWuhrEGjFihDuIpfX1YQrvvvuumcGpD0fQmZkafF27dq0JJGsd3/L++++b3x0NYmlydyuIpfWscWi+Kn2SoO+PjkOXO4ZbMvuQC31gg47TWkoY7nl1tqnO3qpataqUL1/eq5k1S1WNKAggkLUCBLKy1puzIYAAAggggEASCLSvFP4XMOtyp28ML5mxVT/Uq85QWLdunSuYdDTojyY9DqdooOXcc0/lSfn0008DNtEvy7rM6KOPPjKJ0HU2li6Z03xdeky/MGruqosuukj0qWnab6Ci+adCjV8TO+uX3mD1Zs+eHegUXvt1WZ9em2dy+pEjR5ovqlYOHJ2JpUv+dLmiLsXS3DzPPPOMmXGms8KsJU5eHQd5owGFuXPnmgCaBgicUhqVOtspQ2WcLoGSJUueNttPfwetoktq9XdJZ2/pTEldPmgVnfGoueh05qL+XltFl9YF+rxrsnXNhaVFf9/1qYeepWPHjuatzkb0/dHgtM7Y0iBRqKJ/T7To0sjMFA1K68/ll19uqxs9rwas/OXA0wDXsWPHJNy/P7ZObLPy0t3rbLagOgLOFiCQ5ez7x+gRQAABBBBAIA4Cnas2tX3WH7cukZOu/0SraNBJv0xqUCnYjy4N8iyB8klpsOV816Pl9Ytr06b/Xp/O6NCZVbpESBMg65dB3af5d4YOHerZtZmdoTOcNOikX3I1Z45+2fNN0Kz9zZ8/3zw1TPPoBPvRc+nyv2B1dKbEmtWrTZ4grwF5vNEZKw888IAZoy4z1JxCGmTTZVd6vfpFXwNrGmzSGVqatFpnYVjlt99+M0myNXG21vH3RDSd0aIz0dRAi84A0VlfmjdMk2z7lkCzy3xniPm2s/O+7w/P2alu6ubKkWa7TbI2KJEn8uDj0t1r48ry7LPPmllP+nnSANWAAQPM75IGtLTokkH9fdfgrQZyNcdWsKJ/O7QP7U/zaumMKv0d0uTpvkWXKOox/T3y/dFZkVp0llaook8NjUbRJzHq76Odorn7NOinv8+efws8+9Df7UCJ7D3rxXr7t/9j7z7goyq6Bg6fhCT03jtSpIhUKSpVRJpiARQEVFT0tWJBQSkiKIhiQ/QTCyhVmqKIoKCigDQRpffee68Bvj2Dd91stt3NJtlk//P+lt29d2bu3OfGV3KcOXNgfdCXaFq0ZtBtaYhAagnwb6nUkue6CCCAAAIIIJBmBZoVryXRjl/mLvmYbeTp5nRW1s3Fgv+lYY0jV1MwxT0wYv0i6dqXzt7wFJyJi4szMxK0bsaMGeXTTz8V/aXQV9HAmubK6tOnj5nlpUEwzTdlzUjS5UY6M8pKuOyrLz2nMz50dpe/ogEv9xlguqxKkzxrUQfNDzR16lRnV3pex6p5fnR2hf5Sqr+8ekrErsEoXTK1cOFC80u/BrVciy7L1CVWWjQ4pkmjPeXf0uCZFvexmoP//qFj1RlhSSkaOJ25Y4ntLj6sfyU3mO2G6bBBh3I3yQcrvgnqzsZumC2v1/b9z0pQHQfYSGdZ6e6DGqTVZYCu5aeffhLdKEH/Gdy0aZPZ0MD1vKfPOjtRg1L6s/nmm2+aHFue6vk7pjsauv9/kqc2OhNKN55wD8Z7qhvKY/rPpc4o0/8/1CWX1qywUF4j1H3tO30k6C4r5C4RdFsaIpBaAszISi15rosAAggggAACaVrgFkcwy265d/ZrdpskqK95a4IpmrxZiyYs16V0+ktsoEV37dKt6vUXYl0i5C+I5dqvBp80ODRy5EhnEEvPazBMZ1rpuVC+PAWGNLeV7hKoQTWdgeIaxLLGqrNSdPcy9dEE1Z6CWFZdnbmmAS33IJae1xldulvcZkdgwNdyo82O2WP+iibvTupyqs/WTJf4Sxf9XSrB+QxR0dK8uP2lswk6SUdfnqyccMmcnVv7futCO9VDXnfQoEFmBpZrEEv/edZ/HjSIpTOqNB9c6dKlA762zqbUZYGaKD6YYs2KCiTf3ODBg02w13UZZDDXtNNGZ5rp/x9oEEtnoCY1mGzn2sHWPXT2uMRftvfPebDXoh0C4SIQ5fgXfujmuIfLXTEOBBBAAAEEEEAgBQQKfnGn7cWC3aq0kV41ruSWSYEhcokIFTh/8YIUG3237bvvdPXN8s4NV5ZG2m6cDhvor0pFRrWVi0EkzFeOFXd/LgWz5EkVGQ0W66wsTfKuSwJ1xqAWzaf1+++/S4UKFZJtXHptT0vuNICmgXQNjGvg2FvR2ZU6s1OLnV9XGzZsaO7NThu9hi43btSokQnS6XfdoMFTXiw9517GjRsn1o6Ibdu2NRtD6KxOawmne/1Qf39/xRR5femYoLptW6ahfMQMzKDsaORbQGdd6uYv48eP910xyLPMyAoSjmYIIIAAAggggMCzVdvZRnh/+RTZeeqA7XY0QMCOQL2p/yXzttOOIFZCLf1l7J6yNyU8aOPb8wv+z0btpFetW7eumVGoeas0f5PuIKozizSI9cADD8iaNWvMDofJGcTSu9ANGjRgprMKNbikS3I1qbwGsXQZr68glra3clINHTpUv/osOntRlz3rSwN0WbNm9Vnf9aQG+vLly2dmqelMMw2+TZ8+PeAglvalu5GWLVvWvHQGqG4mobueplR5c9lXQV+qR7UOQbelIQKpKUAgKzX1uTYCCCCAAAIIpGmBntXvlayxmW3fw3WT/yf7zgSf08T2BWkQUQJPz/tAtp6wtww1yiH0c+t3Isop0Jt978bgZ6j9tONPOXzueKCXSnI9nUWkeaU0mKPBovfee88kc9cZSrrEN7kDWNYN6OwmXbaomx1ocEnzymlQsGXLlnLkiP//79Mlfjrmp556yurS6/vEiRMlW7ZsUqhQIdEZUZq8PtCieft0N1LdxEKXUOtMMB2jnaKbXuiOqJpXS3OI6eyuQPP/2bmOp7ovLhwuFy7Fezrl91jOuKxSMnvKBdz8DogKCNgQYGmhDSyqIoAAAggggAAC7gLnHEu4rhrbwXYuorgMsbLwzg+lWLb87l3yHYGgBe76sa/M23Mlub2dTp6+9i7pXbOznSYRVXf46u+kz+KRQd1znkw5ZPU9Ix0bRETWHAKd7WQt8dOND3TGFCV0AmuPbpeGU7vZXt5ujWB75wmSKUOc9ZV3BEIqwNLCkHLSGQIIIIAAAgggEFqBjI6A1O+3v2+7U81hVGPyI/L5mh9st6UBAu4Ce04fkhKj7wkqiPVwxZYEsdxB3b53rXibFA0y6HzYkYy75Q893XpM/191tpMuI9QXQazQPu/T8WelQRKCWM9WbUsQK7SPhN5SWCCy/rNACuNyOQQQQAABBBCIDIGyOYvK2g5fSkxUBts3/NKiT6X8+M6y/NAm221pgIAK6CysahMflrMXz9sGebzy7TKwTlfb7SKtQbRjWdz8O/zna/Lm8teBDXLbjJe9neY4AgELnLhwWip99UDA9d0rlspRSF6q3tH9MN8RSFMCLC1MU4+LwSKAAAIIIIBAuAu0csy8WLJ/XVDDjI2OkQcrtJCWJetImRxFpEDm3EH1Q6P0KxB/6aJsObFH/nT8jA1b+Y1sOLYrqJvN4FjmNr5pH2lUpFpQ7SO10fqjO6Xht92C3sWwkGMHw7l3vC8547JFKiH3nQSBRfvXyG0/BB8Q1SCWLmmPtGWuSSCnaZACyb20kEBWkA+GZggggAACCCCAgDeBdUd3SP0gd41z71ODWxQEVOCy438ayEpqub3UDfJRg2eFn63gJPecPixVJz4UXGNHKw0iDqvfTdqUbhB0HzSMPIEW03vI0gPrg77xAplzyT93f25+/oLuhIYIBChAICtAKKohgAACCCCAAALhJvDjjiXy9j8T5e+DG8NtaIwnwgSyOXbX7Hx1U3m1VpcIu/Pkud2j507KTdOek50nDwR9gVwZs0m/6+6XdmUaEVQMWjF9N9Tcd+8vnyIj1s5I0o12ccz0HVz3kST1QWME7AgQyLKjRV0EEEAAAQQQQCAMBXQmzdn48zJ05dfyx96VsmDv6jAcZfgO6fzag5IhfxbJkDdL+A4yzEamsy8aFqkqD5RvLjXzl3csJYoKsxGmj+F8tma6vLzosyTfTFx0rPSq2VEeu+b2JPdFB2lbYNepg9J78efyw/ZFzl0fg70jnf23rN2noktaKQikpACBrJTU5loIIIAAAggggAACYSegfyEeMGCA9O7dO+zGxoAQOOfYgVQDD1+u+xEMBMJCQGdgDqzzsLQve1NYjIdBRJ5AcgeySLoQeT9T3DECCCCAAAIIIIAAAgiESCBjhlh56/r/mdcvu/6Sh+cMkdPxZ+XS5cshugLdIOBfQHPeVcxdQibd0k9yZ8zuvwE1EEjDAgSy0vDDY+gIIIAAAggggAACCCAQPgI3Fa0hmzuOMwPacGynrDmyTdY73nedPCgHzh4Nn4Gm0ZFM/fQrqVCzslSoUTmN3kHohl0mR1G5yrELYclsBR0BrJIsHwwdLT2lAQECWWngITFEBBBAAAEEEEAAAQQQSFsC5XIWE31RQicQdXNvaV2pnfRt0it0ndITAgikOYHoNDdiBowAAggggAACCCCAAAIIIIAAAgggEJECBLIi8rFz0wgggAACCCCAAAIIIIAAAggggEDaEyCQlfaeGSNGAAEEEEAAAQQQQAABBBBAAAEEIlKAQFZEPnZuGgEEEEAAAQQQQAABBBBAAAEEEEh7AgSy0t4zY8QIIIAAAggggAACCCCAAAIIIIBARAqwa2FEPnZuGgEEEEAAAQQQQCAQgWPnT8nyQ5tk56kDgVSnToAC2WIymx39KuQuEWALqiGAAAIIIHBFgEAWPwkIIIAAAggggAACCLgJ/LLrL3l4zhA5eeGM2xm+hlIgJiqD1ClUUb5pNiCU3dIXAggggEA6FiCQlY4fLreGAAIIIIAAAgggYE9AZ2Dd+sNLsu7oDtOwafHr5PZSN0rtAhXsdURtnwK7Th2Unx3Bwgkbf5X5e1ZKgS/ulPfrPSkdyjbx2Y6TCCCAAAIIEMjiZwABBBBAAAEEEEAAAYfAmfhzUvGr+yX+0kW5sdA18nXzARLl+B8l9AKlshdyGFeWvjXvk60n9krtKY9Jt3nD5OCZY/LUtXeF/oL0iAACCCCQbgRI9p5uHiU3ggACCCCAAAIIIJAUgbLjOpkg1icNn5dvmr9GECspmDbaalBrS8dxki9zLhmwdLSMXDfTRmuqIoAAAghEmgCBrEh74twvAggggAACCCCAQCKBe2a9KhcuxcuH9bvJHVfVS3SeA8krkDU2syxv95lkyhAnPRYMl6PnTibvBekdAQQQQCDNChDISrOPjoEjgAACCCCAAAIIhEJA82L9uutvKZYtv7Qr0ygUXdJHEAIx0RlkUrN+puULCz8OogeaIIAAAghEggCBrEh4ytwjAggggAACCCCAgFeBd/6ZaM5NdeTEoqSuQJ0CFSU2Oka+3TI/dQfC1RFAAAEEwlaAQFbYPhoGhgACCCCAAAIIIJASAv+36jtzmRLZCqbE5biGH4Gh9Z4yNTYf3+OnJqcRQAABBCJRgEBWJD517hkBBBBAAAEEEEAggUDlPFcl+M6X1BPQWVlaZmxflHqD4MoIIIAAAmErEBO2I2NgCCCAAAIIIIAAAgikkECpHIVsXemnn36SAQMGyNy5cwNq99xzz8nBgwdl1KhRCerffvvt0qBBA3n++ecTHNcvy5YtkwcffFB27Ngh8fHxkiNHDqlRo4ZMmjRJYmNjE9X3dOCee+6R3bt3y5w5cyRDhgyeqsisWbOkf//+Hs95O9i8eXPp1atXgtPt2rWTxYsXy7FjxyRTpkxy9dVXy4wZMyRr1qwJ6vn7kikmzlTZffqQv6qcRwABBBCIQAFmZEXgQ+eWEUAAAQQQQAABBJImsH//fpk3b17AnaxatcoEptwbaOBn8+bN7odl4MCBUqtWLWnSpImsXbtWjh49KmPHjpVdu3ZJXFycbNy4MVEb9wPnzp2TKVOmyNKlS2X16tXup53ftb88efIkeq1fv17WrFmT6LjWdQ1O/f333xIdHS179uyRadOmmbH++OOPJpiVLVs2MwbnxfiAAAIIIIBAEgWYkZVEQJojgAACCCCAAAIIIBBKgb1795nZThp8qljxyjI77b9+/fqyZMkS0dlQ+lkDR77KxIkT5eLFi2a2VZ06deT06dMeqzds2FD05V5atmxp2nz77bfupxJ8v+6662To0KHy5JNPOo9XrVpVdNba8OHDpW3btnL58mXnOT4ggAACCCCQFAFmZCVFj7YIIIAAAggggAACCIRY4L333pW8efMmCGK5XmLmzJmyd+9es9zQ9bj7Zw0sffzxx9KlSxc5e/asWdroXiep30eMGCFZsmSRJ554wmNXDz/8sJlBNn78eI/nOYgAAggggIBdAQJZdsWojwACCCCAAAIIIIBAMgqsW7cuwdI9T5c6efKkxMR4X1xx6tQpOX78uNx7770mKJYzZ07bebA8Xdf9WNly5eSFF16QqKgo91Pmu+blKl26tK1lmB474iACCCCAAAL/ChDI4kcBAQQQQAABBBBAAIEwEsiePbucP3/e54hcc1R5qti6dWvRJX/alxadxfXpp596qpqkYw0cSxz79Onjsw/N1VWwYEGfdTiJAAIIIIBAoAIEsgKVoh4CCCCAAAIIIIAAAikgoDsZ6tJBTfAeTNEdDn/55Rf54IMPnM01R5YuL9y6davzWEp8uHDhgmzZskW6du2aEpfjGggggAACESBAICsCHjK3iAACCCCAAAIIIJB2BNq0aWNmMJUqVUr++OMP2wPXnQO11K1bN0HbRx99VKpXr57gWHJ/0WTvunNh4cKFk/tS9I8AAgggECEC3hfWRwgAt4kAAggggAACCCCAQLAC9erVC6jpqlWrpFixYgHV1Uo6I6tVq1ai/euOf0899ZS89tprkiNHDr99dO7cWfr165eonuay0sCS5s/ytzQxUeMgDqxfv96MW3dapCCAAAIIIBAqAQJZoZKkHwQQQAABBBBAAIGIE7jxxhsDuuddu3YFVM+10vTp00XzS40bN05ef/11s1Qwd+7c8s4778gDDzzgWtX5+eDBgyZQpYEv91KmTBlz6I033pABAwa4nw7p98OHD0uVKlVk2LBhJldXSDunMwQQQACBiBYgkBXRj5+bRwABBBBAAAEEEEiKwODBgwNq/vfff8vu3bsDqutaKWPGjNKlSxfz0uPPPvusPPjgg/Ljjz/K+PHjXauaz4888ohUrFhR8uTJk+icHpgyZYro0sXkDGStXLlSrr32WnONJ554wuM4OIgAAggggECwAgSygpWjHQIIIIAAAggggAACKSzw7rvvStu2bc2Sw9GjR0tMzH9/ndfE6t9/P03KlCkrmjDeU9Flilq2bdsuJUuW8FQlScc0yXyTJk3MDokPP/xwkvqiMQIIIIAAAp4E/vs3n6ezHEMAAQQQQAABBBBAAIGwEtDljDlz5pRevXqJ64ywZcuWyYUL8dK0aVOf461UqZI0bNgg5DsYfvrpp6IzwiZNmmSCbT4HwUkEEEAAAQSCFCCQFSQczRBAAAEEEEAAAQQQSC0B3ZFw0aJFCS6vM6Eee+wxGTp0aILj7l8WLlwoN9xwgxw/fjyg5PHu7T19//nnn00Qa86cOY4gWUNPVTiGAAIIIIBASASiQ9ILnSCAAAIIIIAAAggggECSBXTpX758+eTMmTM++zpy5IiUKPHf0kBNrn7y5Enp3r27z3Z6UoNgep0vvvjCb91AKugOizoLbMiQIQSxAgGjDgIIIIBAkgQIZCWJj8YIIIAAAggggAACCIROICoqypHjqoxJyO6r18WLF8trr73mrPL8889L/vz5pXTp0s5jvj5o2xdeeMFXlYDPVa1aVapVqyY6BgoCCCCAAALJLUAgK7mF6R8BBBBAAAEEEEAAARsCw4cPl5kzZ4oGqzyVFi1aSN68eZ0zsi5duiRjxoyRQYMGearu8Zjufnj+/HlH0vdtHs8HelCXFB48eFDmz58faBPqIYAAAgggkCQBcmQliY/GCCCAAAIIIIAAAgiEVkBnN02ZMkXq1KkjpUqVkmHDhpnk7lOnTpWPPvrILDvUpYVWWb16tcTHx8tDDz1kHfL7niVLFqlZs6a0atVKVq5c6be+twr333+/6CyyYsWKeatijhcpUkRWrFjhsw4nEUAAAQQQCESAQFYgStRBAAEEEEAAAQQQSFaBHTt2SPHixYO6xrp166R8+fJBtQ22kQaZdOZUoKVbt25y+vTpRNXfeustE6xyP3HnnXeanFfvvPOOfPjhh3LixAkpXLiwfPLJJ9KxY0cTPLLaaCDr66+/tr4G/D5q1ChZsGCB1/pPPfWUCZB5reA48cYbb3i8L/c22bJlcz/EdwQQQAABBIISIJAVFBuNEEAAAQQQQAABBEIp8NVXX8mLL75ogkNdu3ZNEKjxdJ1jx46ZGUsaxNLE5SldypUrJ/oKtLRs2dJj1U6dOnk8rgezZs0qffr08XreOnH33XdbH229V6pUSfTlregSRn/F1/j9teU8AggggAACwQiQIysYNdoggAACCCCAAAIIhFRAE49rUOXRRx+V6Ohos7Pe5MmTE1xj586d8r///U/i4uIkV65cokEs3a0vFGXPqUOh6IY+QiBw4VK86SV7bOYQ9EYXCCCAAALpTYAZWentiXI/CCCAAAIIIIBAGhVYtWqVxMTEyMWLF2XRokXSrl07553ozCT32UmDBw+W3LlzO+sk5cPSA+uT0py2IRRYdXir6a11qRtD2CtdIYAAAgikFwFmZKWXJ8l9IIAAAggggAAC6UBg4sSJAd2FBrB0KWIoyt1lGplujp0/FYru6COJAk/Mfd/0UCl3yST2RHMEEEAAgfQoQCArPT5V7gkBBBBAAAEEEEijAnfddZfkzZvX5+h1l7w1a9b4rGPn5Ku1upjqLab3sNOMuskgsPXEXjly7oTULlAhGXqnSwQQQACB9CBAICs9PEXuAQEEEEAAAQQQSEcCuoOhr9K6dWspWLCgryq2zuXNlENq5C8nG4/tklk7/7TVlsqhE7h4+ZK0+qGn6fDjhs+FrmN6QgABBBBIVwIEstLV4+RmEEAAAQQQQACBtC+QOXNmuffee73eyNSpU72eC/bE1OavS4aoaOk4+3VZ+W+OpmD7op19gUuOIFbtKY/JgTPH5JFKt0mxrPntd0ILBBBAAIGIECCQFRGPmZtEAAEEEEAAAQTSlsAnn3ziccB9+/b1eDypBzNliJX5d35gumny3bMyaNm4pHZJ+wAFTlw4I5UmdJEdJ/dLs+K15LXaDwbYkmoIIIAAApEowK6FkfjUuWcEEEAAAQQQQCDMBbJmzSo333yzzJ492znS2NgY6dEj+fJYlc5RRFbeM0LqTX1a3v1nkgxdPkV61uggjYvUkKJZ8znHwYekC5yOPytrj26X15aOkTVHtpkOH6rYUgbV6Zr0zukBAQQQQCBdCxDIStePl5tDAAEEEEAAAQTSrsC0adNElxlapU2btpIlSxbra7K8F8icW9a0/1LGrp8l3Rd8LK8vHWteyXIxOjUChbPklV9avyOaq4yCAAIIIICAPwECWf6EOI8AAggggAACCCCQKgKZMmWS5s2by8yZM831x48fnyLj0FxZ95VvZl66i97Xm3+XnacOpsi1I+UiGR1LORsUriItStSJlFvmPhFAAAEEQiRAICtEkHSDAAIIIIAAAgggEHqBkSNHSuHChaVhw4ah7zyAHktlLyTPVb07gJpUQQABBBBAAIGUECDZe0oocw0EEEAAAQQQQACBoAQKFSokcXFxMnTo0KDa0wgBBBBAAAEE0pcAgaz09Ty5GwQQQAABBBBAIN0JLFiwQKpUqZLu7osbQgABBBBAAAH7AgSy7JvRAgEEEEAAAQQQQCAFBWrUqJGCV+NSCCCAAAIIIBDOAgSywvnpMDYEEEAAAQQQQAABBBBAAAEEEEAAAacAgSwnBR8QQAABBBBAAAEEEEAAAQQQQAABBMJZgEBWOD8dxoYAAggggAACCCCAAAIIIIAAAggg4BQgkOWk4AMCCCCAAAIIIIAAAggggAACCCCAQDgLxITz4BgbAggggAACCCAQDgLxly7KzlMHZP+ZI7L5+B45dv5UOAyLMSCQIgLZYjNL2ZxFpWDm3FIsa36Jic6QItflIggggAACCHgSIJDlSYVjCCCAAAIIIICAQ2DU+h/lgxXfyLYT+/BAAAGHQHRUlAlmPXZNa3moYitMEEAAAQQQSHEBAlkpTs4FEUAAAQQQQCCcBS5cipc3lo0zAaxwHidjQyA1BC5dvizbT+6XlxZ9Zl7dqtwlL1RtL3EZYlNjOFwTAQQQQCACBQhkReBD55YRQAABBBBAwLPA2iPb5ObvX5DzFy94rhDA0TalG8gTle+QfJlymtkr/IIfABpVUlzgbPx5c82j50/Khyu/kQkb5wQ1hveXfy0fr5omU5sPkJr5ywfVB40QQAABBBCwI0Agy44WdRFAAAEEEEAg3Qr0WPiJjFw7I6j7a1ikqgy5/jEpmb1gUO1phECKC8RduWKhLHnkg3rdzEvzwHVf8LH8svMvW8M55wj8tpjeUx6s0ELeqPuIrbZURgABBBBAwK4AgSy7YtRHAAEEEEAAgXQnUPfrx00Sd7s3ltGxnGp9h9GSOSaj3abURyDsBDSR+1c395Ez8eek/Pj75OzFK7O2Ah3oCEcgeN7elTLvjqGBNqEeAggggAACtgWibbegAQIIIIAAAgggkI4Euv42JKgg1p1X1ZMdnScSxEpHPwvcyhUBDcxu7zxBWpWsa5tk/dEd0vW3t223owECCCCAAAKBChDIClSKeggggAACCCCQ7gSGr/5Ovt0y3/Z9dSzXRIY3fN52OxogkJYERjbuIbo7od3y7ZZ5MmnTHLvNqI8AAggggEBAAgSyAmKiEgIIIIAAAgikN4F9Z47IK0u+sH1bzUvUlndvfNJ2u3BqsGTJErl06VKShtSnTx/Jly+f/PDDD0nqx1/jCRMmSP369eWZZ57xV9X2+U6dOsngwYP9tuvevbu0bdtWZswILoea3wuEoMJPP/0Ugl4Sd/FqrS7SwJEDzm55cu5Q2Xf6sN1m1EcAAQQQQMCvAIEsv0RUQAABBBBAAIH0KHDHzN5y6fJlW7eWIy6rfNG4p602nirnyZNHOnfuLAsWLPB0OtmP1a5dWzJkyCBnz54N6loaNHnttdfkwoULctVVVzn7eO+992Tp0qXO76H4kCVLFpk3u2NYNgAAQABJREFUb548/PDDXrvbvGmT13O+TowdO1beeecdX1XMuXPnzsmUKVOkRYsWfutaFbRNUstlx8+n9qPv/kr79u0lNjZWVq1a5a+q7fOTbukn2WIz22p3WS5Lp58H2mpDZQQQQAABBAIRINl7IErUQQABBBBAAIF0JbDj5H7ZdGy37Xua0uxViY6K8thOgzoLFi6UKtdeK7ly5fJYxzp45MgRGTNmjIwePdo6lKLvFSpUkLVr10qmTJlsX7d///7yyiuvSOvWreXbb79N0P7dd9+VZ599VoYMGSLPPx+apZdlypQx14iJ8f7X1jJly0rVqlXl999/lxw5ciQYk78v1113nb8qUrp0ab913CsEY+veh/U9Pj7eBB6t7+7vJ0+eFP2Z0hlyOXPmdD8t9913n+zdu1cKFvS8q6a2jY6Olu+++y5RWz2gP/HfNB8gTad193je28F/Dm2So+dOSq6M2bxV4TgCCCCAAAK2Bbz/jcB2VzRAAAEEEEAAAQTShkDnIGaKFMqSW6rmvRJU8XSXulSvYYMGUrhwYdm923+QrHz58p668XvswIEDkjmz99kxp06d8hqw8Nu5jwp6fxq80qWEGsjq169fotrbtm2TBg4DXYqngZO33norUR1fBzZv3ixxcXFmZpFV7+jRo+bjoUOHZN++febz2bM6S+mSlCpVyhm40uCcvyDW66+/LiVKlDBBL6v/EydOyPLly62vHt/37Nljjlv1NmzYIDt27PC73LFWrVry4YcfeuwzkIO9evWSOXPm+AxiaT/33HOP6W7r1q2SNWvWRF0fO3ZMZs2a5TUgt2vXLvNzm6ihywH92c8el0VOnD/tctT/x1tnvMwuhv6ZqIEAAgggYEOAQJYNLKoigAACCCCAQNoXOHvxvKw9ut32jYxt0ttnm4wZM5rzrVq18lkvqScLFCjgt4tAlqL57cSlwsGDB6VOnTqigaZ//vlHqlSp4nI24UedFfX444+bWVn79++XL7/8MmEFH98qVqwo58+f91ijXr16CY7r8kgN4GggSmccBXIdXQ7pvpxy7ty5CQJbCS7i9kVnfVlFg4n+8nZlz55dNJjlqei9Hj58WJ5++mnRgJWnoktQA5nZpcHFG264wRnEunjxoulOl4+6lk1elmDWrVvXGSR0re/+eXrLQdJgajf3wz6/bzi2U85dvCAZM8T6rMdJBBBAAAEEAhUgR1agUtRDAAEEEEAAgXQhsOrwVtu5sTJERcs1eUoFdP/uwYOAGtmopMsRly1b5vEVGxsjZR3L7EJZ7r//fsmfP78JYmkAS4NGUY7llb5e//d//2eGMGrUKGnatGnAw9EgkwbhXF+6BFLLmjVrEhxXB12+WLRo0YCCWNrHmTNnEvShx1q2bJngmOu1rc9WHi3ru76fPm1vZpJey7VoPisN9CV1CaYVBBsxYoSzew0m6lLMmTNnOo+F4kPZHEUdS2vt/fqgVssObgjF5ekDAQQQQAABI8CMLH4QEEAAAQQQQCCiBCZtmmP7fsvnKm77F3jbF/m3gS4N9LQ8zOpPd9rzVi5duux1BpC3NtZxzbOULVviXEbdunUTDUjVrFnTvGrUqCE602jSpElmJpF+1qCWttUgniZn1yCKzljSZXVPPvmkCYIFkmdK+wmk6Fh1dpTmg9LljEkp27dvl08//dRnFwsduc9CXTTvlRoFMuPK17V118Wrr75aXJeqduzY0TT5+++/pVmzZr6a2zoXE53BBHRXHNpsq92M7YulbsFKttpQGQEEEEAAAW8CBLK8yXAcAQQQQAABBNKlwKydf9q+rwq5S9huE0yDxYsXiy6h06TdGmDxluBcdwd0X9amu9vpkrLq1aubPFW6ZM5fcQ0c3XbbbR6TfWvgSmfVuBb9rsESTQ6uuZduuukm19POz0888YTceuutUrJkSeexUHyoVKmSWSKoS+WSOgNu/fr1Xpf2WWPVmVyhLhrI8hQ4tHMdnR2nz3zdunXOZjrLS3N61a9fX3r2TPoOm86O//1QMVcJsRvI0n/mXq31gHtXfEcAAQQQQCAoAQJZQbHRCAEEEEAAAQTSqsCOkwdsD71eoWttt7HboH379jJhwgTTTAMRulufp9lGGuzSnQH/+OMPmThxovMyK1euNJ81qKSvQoUKO4I8npeBaUJ2TVhuJTHXHRc1mXqgxcr7pInnNY+Tr+IriKXLAzVPlO4c6C0gpQE9LZqbSxO/P/bYYybR+ueff26CfdZ51zFon7ok8ZFHHvEbLLr55ptl+vTprs0TfdbdGJ977rlExwM5oAniNWG75vRyLXovOpvNfbaXBgn1GetMOF/ld0egUv00H5lrsWZgad6s5CilchSy3e3GY7tst6EBAggggAAC3gQIZHmT4TgCCCCAAAIIIPCvQGx04H9l0txJuguce9Fd7jSptmvRoMW4cePEWi6oy+V+/vlnyZs3r2u1BJ81INK2bVuztG/BggVy/fXXm/MaLNGiSwD9FStoVKjQf0GJ4sWLO5vpDoA6y+eqq67yOCtMg2C6hND9fpwdePiggTINMOmYrXaa60uDRIEUDfS5loceesj1q8fPDzzwgMfjrgc1WPjRRx+5Hkr0ef78+YmOBXpAd2/0FpTSQKD1/Nz789bGqtfk31lwOnb38fft29djAM91Bp7Vj/WuO0AGUsrn/O/nJJD6yVlHg5mB/Bwk5xjoGwEEEEAg5QUC/1tZyo+NKyKAAAIIIIAAAmlOQGfJ6MtTuXTpksknped27twputOhzobSd51BFGgwQWdiRUdHy4033ijap5YxY8aYd/c/tH9NLG6naI4undnjKSg2cOBAcw/uSxu1/19//dUEql5++eVEl9Og3bx58xIcf+utt8zuhnov/kqbNm3k66+/lhdeeEHefPNNf9XNkjsrYOer8qpVq0SXQCZX0WT3uvzP9R71WeuuhSNHjhRPwTZr10FfY3rxxRdl2rRpJgharVo1s2uhzvDSAOOrr77qsam3BPUNGzYUDaqlpaLBUM27RiArLT01xooAAgiERoBAVmgc6QUBBBBAAAEEEDACjz76qHz88ceJNLZu2eIMYulJTequAYi3337ba46pRJ38e0Bn1uiSOg186S/0ujxNE3u7BjD0elc5ftHv2rWrfPLJJ9668nh86dKliY6fP39eChQoYGZonThxwpmk/KuvvjJ5uTTZuNbRHQ6//PJLsyzSXyDJ33lrEA8++KAJYmnAKZAglrYLtG/dtTA5lxbqs3KfCWXtgqjLJDUnmvtOk4GM/fXXXxd9WcXqU5cleiuaXN5TcQ2yeTofTsc0p5maaeDN0z9n4TRWxoIAAgggkDwC/v/zV/Jcl14RQAABBBBAAIGIEijlWKbnWjTwo0vrvCVKd63r6bMuBezevbssWrRIunTpYqr06NHDWVWvlzt3brMjnzVry3nS5gedTaU5u44dO2YCaNZOe7r8sEOHDlK5cmXRHF1xcXFmptnu3btN7ixtl9Ry7733mplLmgtKg36a1N7bSxPP6ywnT0WTq6uD60vr6Rhdj3n6bN2H+zmrT0/X83VMd0ksVqyY8SpXrlyimWq+2no6p+N4/vnnTa6xa665xlOVNH9M7e+8806zO6MGsWJiMphAcJq/MW4AAQQQQMC2AIEs22Q0QAABBBBAAAEEwkNg8ODBUqJECfniiy+kSJEiZomi68g2btxovnpaIuhaz9fngwcPml0U9+7dY5KsFy5c2FR/6aWXRHNp3XXXXWZ5pAazNDeYLm/TpXM640zr6uytYIvuyjd+/HjTXPNAaQDN1+uWW26Rp59+2uPldHmlznRyfWnFGTNmJDjmet76rEEiLdZ36137/MJhb6e84XhmWjTvlu4wWLBgQbPDoPuySzt9ap4tHcuSJUvsNEszdTWPWsaMcTJ16lTnmB999H/Oz3xAAAEEEIgsAQJZkfW8uVsEEEAAAQQQSGcCVm4snbHiXnRHQc11pcsOdUmWnaKzkL755huzVPDMmTNy/PgJM4tIc3vpUjld4jdkyBCZMmWK6bZ///7m/OzZs+Xqq6+WI0eOmBlcOXLkMDv+6SwqO0V3E9RcY5rYXsei/WvRnRb1u7eXt8CZ7vLo3kbNdBaZBt/cz7l+1+vqEk7XY/pZA3a33nqrng6oqONLPXuK3psGIDU3miaD1yWb9evXl99//z2gflwrjRo1Sv78888EyyP1vtRBn5VrOX78uOM5Jn4FkpPLtZ+U+Ky+v/zyi1nKqjtGxsdfTHDZYcOGJfjOFwQQQACByBEgkBU5z5o7RQABBBBAAIF0KHDbbbeZu9KAiJUnyfU2J0yYYL42atTI9bDXz5rnql+/fiYopbOtGjduLFsc+ba0b83JpUsadfma7sJozVTSXE2vvPKKCcZYux9qcEh3KdQAkM6o0ZlUGsD5/vvvvV5bT2hyel1up7s36uyqSZMmmfrfffed2c3RdadFnx25nfS0O6DOKNP71Xuxiu6EV7Ro0QQ7DQ4aNMjkIXPNQab1dXmoBqECLRrg0+CVLoF0LZrvLDY2xiwz1c+BFk28f//995uZYh988IFJzq+z4HTGmAYQ9ZxryZkzp3h6aSAsnIouIdUgbJMmTUyifPexaRCQggACCCAQuQIEsiL32XPnCCCAAAIIIJDGBXr16mVmPc2ZM0euvfZaE1g6efJkgrvSwIWe04BSIEVnKOkMLs1DNHnyZDMrRpe/vfHGGyaosHr1apMPS5cy6qwZ3UWwd+/eooEynVGkwR2dfaWJxXUW2IIFC8zyPd0JUcfpK6Cm19QAmC6J1B0N33//fTNknV2kwRbNx+Wt2J1VpLnJdHy//fabCe5Y/WqwTnN8WUE6Pd7TMYuqXbt2JsDXvn17x+ygeKt6QO9Hjx41M7B0NpmnmXEa3Dp//oKZ6abX1wBgIKVPnz6mmt677mC4YcMG4647JaqdFQS0+nKfUWZ9r1OnjlUl1d41EKs7EOpsP839pmbeigb7rCT6vF/ZTCBSHLz9THAcAQQiS4BdCyPreXO3CCCAAAIIIJBOBDRooTOFNAjRsGFDE3DS2UE6i0UTwLuWv/76yyzRcj3m67PmItIlaDqrxyr79u2TLFmyWF/N0rUaNWqYoNNrr70mGlSziubkOnv2rOhug5q3qXnz5qa+zuzKli2bVS3B+/Dhw0UTuuuyON2F0TW4UqtWLVNXl9GNGzcuQTv9ooEuDeYEEszShPVVqlQxSet/nv2zNGjQIEF/efPmNd81uORaJk6cKH379pUBAwaILp/87LPP5I477nCt4vHze++9J88++6w5p8sbfc0m0mBUixYtzKw1zQ/mr+iy0datW5uZcLrzofuY/bUPp/O6cYAuJaSkH4GKFSua3G2hviMNrFMQQCCyBQhkRfbz5+4RQAABBBBAIACBMxft5Xdy71JnkIwdO1Y0QXqgRXNP6S5t0dGJJ9DrjB1dpqaBJQ36aMmXL59Ziqczcf755x+pWrWq81IxMfb/yucaxNKOrCCWLsPToJXmr9KglF5LA0NaNJCks7/WrFkjzzzzjFlSaE44/tAZI6VLl7a+Ot919pMGrTSfk87a2rp1q7kXZwXHBw1wPPHEEyYgpjO93IsuoWvTpo374QTf1Uxnjv3f//2fOa7J1bXP/Pnzm0T5VmXN7aVFlzVauzPq9+XLl8u2bdvMbDRdpqjPRou+a8J3dy9z0vGHOugsNe3L0/JGq56+a8Cvx4svSiBBLK3/ww8/6FuKlnXH/luGGcoLazBWA506m093qtRgqqe8b3pNXXrqaWZbKMdDXwgggAAC4Stg/2814XsvjAwBBBBAAAEEEPArUCRrPtl96qDfeq4V5u1ZIQ+Ub+56KODPuhRNZ/N8+OGHAbfRiprkXAM77ksFdaZUsWLFTF86i8W16OwfDWRdd911JteU67mkftaAjQZ/dBdDLTobTJfcuZaSJUuanQt15pJ7PinXevr59OnT0rJlS7O0T7/Xrl1bdMaS5ndyL7qMURPPeyrWzoyaI8pb0VlOM2fONKc1/9WqVavMckINTumsMit4pRU0IbsWtXUNAOpxraf5wdRA711zf+k9ewtimY4cf+j1Ay3WroaB1vdUT39mdBmmBhg1f1koy6Zju213VyZnkYDb6KwyDeLqrpe6vNTTz5HORqQggAACCESuAIGsyH323DkCCCCAAAIRKdC61A3y8arvbN37+mM7bdXXZXW63M4KImiwxM7udps3bzbXs5bUWRfXpWe6lEyLzsSyAlrWeX3X3f10N71QF52BpUGgHj16mHxZrv1roE5n0eisK00uf/fdd7ue9vhZZ3hp0E3vUQMW3bp181jP30EdjxZNcu6tzJgxw8z60jxXmn/JKp5m/Gh+sOrVq8uPP/4o3pYwaR4xTX6vwTxfy/l0hpEmwQ+2rFy5MuCmOqNN7TWIqEFCLbq0M9Rl7dHttrtsWSKw/GyuHWsQVzcd0FfHjh1l/PjxJiebVUfv09rJ0jrGOwIIIIBAZAhEOZI8Xo6MW+UuEUAAAQQQQAABkb8PbZRbpr1giyLaEaDZdd9kyRCVeJmf1ZEuidLlY/oLuM7e0SCJBkKWL1/h2Nkuv1XNvOtSOl1Cp3mnPBWd/aRLq/SXd53RpUWTX2sgSYMUmqDcPbeT1Y/+1U4DSr6K5q7RYFdS/xo4ZswYk9dKc1TpDoCaD8tbDixv49FdCmNjY72d9ntcg0qaH0qT0IeiWIEsTT7uLZAVyHX8PYNA+tA6mvxeZ+F5KpqMX4NpOkNJn4FVRo4cKbrjpDVT7Pbbbxfd9dHb89aNAPRnUQNvvsrFy5ekyJdt5bLjf3bK9y0HSe0CFew0SVRXDapVq+Yco86W058dCgIIIIBA+AnovwP17y/695jkKMzISg5V+kQAAQQQQACBsBWolKukRDsCUpccv5QHWi45gkMrDm2WavnKem1iJfHWJVE6y0gTk2twx1PRQJXmy6pXr55ZqmblfdI8TjrrSoNWGqCxgljaR65cucxyq8WLF5tleJ761WOeAig6Q0xnI5UpU8bscqhBLGu83vpxP75r1y4TfNNdCDWAYiWU19lmGjix8mS5t/P3PZAg1lZHgKWII4inJq5FgzUazLCTe2zFihWyadMmExR07cv6bOVe0oBWnjx5rMPOdw0GaV4vfc46U8hX0TxbOuss2KLPX2dZeSqap2zgwIHmlP786LV0GZ7+nGhZtmyZWTZpvvz7h6efDU/ndXacLlN1L+uP7rAdxNJ/1qr7+OfG/RrevmtQTmcqaoBXXTRwrAE8zZdFQQABBBCILAFmZEXW8+ZuEUAAAQQQQMAhcNO052TlId+zT9yhcsZllQ33jnE/7Pw+Z84cady4sWNmy/5EM7Cclf79oLO1dHaVzvrxVG644QYz68o1R5OnenaOaRJ2a6laXFysHDp02O/sKU1SrzmgPJUXHUnJdQc/9+CSp7pJPaZBQU3orvmzrOT38fHxzhlG3mYaebqu5ip78sknPZ2ydcxfwnENGunujX/++aetfl0rf/755yZ406dPnwSJ57WOBnE04b8GJfXdPUilM5j058fycu3X12e1VGdPz7Xwl21EZ2XZKcWzFZClbYfbaeK3rm4qoLtLakDr448/9lufCggggAACKSug/07S/49OrhlZBLJS9nlyNQQQQAABBBAIA4F9Z47ItRPs5w/68da3vM4u0eBUvOMX7LgkLJNLThqdYaR5qXTnQDsBshtvvNEEDTQoU79+fbOk0U77UNyTLnnT5ZA6C0eL5qXS4I0mxNedCO0EazQI4imhvN1x6lh85cey21+411+0f43c9sPLtoe5pv0XkjdTTtvtAmmgM/F0aSUFAQQQQCC8BAhkhdfzYDQIIIAAAgggkE4EGn37jKw+ss3W3eSIy+KYlTVWfGegstUllREIewHNiVVmbEc5eeHKjo6BDrhK3tIy+7a3A61OPQQQQACBdCKQ3IEs7xlL0wkgt4EAAggggAACCHgSmNTsVZMry9M5b8eOnz8t984e4O00xxFIlwK3/vCS7SBWlCPc+1XTvunSg5tCAAEEEEhdAQJZqevP1RFAAAEEEEAglQTyO5Y7Dahtf3nhzzv/kn5/fpFKo+ayCKSswLN/fChL9q+zfdEP6j8l+ZJpSaHtwdAAAQQQQCBdCRDISlePk5tBAAEEEEAAATsCXSu2krZlGtppYup+tPJbue+XKzvG2W5MAwTSiECnn1+Xsetn2x7t3WUayd1lGttuRwMEEEAAAQQCESCQFYgSdRBAAAEEEEAg3Qp8VP8Zub5QJdv3N3P7Eik//j7Zc/qw7bY0QCCcBXaeOiBlxnWUn3bY33FR82INq98tnG+PsSGAAAIIpHEBAllp/AEyfAQQQAABBBBIusC3zV+XRyrdZrujI+dOSNWJD0mrH3rKobPHbbenAQLhJKA/z61n9JIakx6RE458cHbLY9e0Jrm7XTTqI4AAAgjYFoi67Ci2W9EAAQQQQAABBBBIhwIrDm92/CLfW07Z3J3NlaLj1TdLyxJ1pHCWvJItNrPrKT4jEFYCJy6clv2nj8g3W+fJxI1zgh5b5piM8n3LgXJtntJB90FDBBBAAIH0I5DcuxYSyEo/PyvcCQIIIIAAAgiEQOD8xQvyxt/jZdiKb0LQG10gkL4FetfsJI9dc7vERsek7xvl7hBAAAEEAhYgkBUwFRURQAABBBBAAIHQCny57kcZuXaGrD6yLbQd0xsCaVigQu4Scn/5ZvJQhZZp+C4YOgIIIIBAcgkkdyCL/3SSXE+OfhFAAAEEEEAgzQvoL+v6ir98UY6dOyVnL56XPw+sS/P3lZZuYGC33vLnvEXy9dJZaWnY6W6s1+UvL7qEMGdcFskQlSHd3R83hAACCCCQdgQIZKWdZ8VIEUAAAQQQQCCVBGIcv7jnzZTDXL1o1nypNIrIvOynF7PKpcNn5PZSN0YmAHeNAAIIIIAAAgkE2LUwAQdfEEAAAQQQQAABBBBAAAEEEEAAAQTCVYBAVrg+GcaFAAIIIIAAAggggAACCCCAAAIIIJBAgEBWAg6+IIAAAggggAACCCCAAAIIIIAAAgiEqwCBrHB9MowLAQQQQAABBBBAAAEEEEAAAQQQQCCBAIGsBBx8QQABBBBAAAEEEEAAAQQQQAABBBAIVwF2LQzXJ8O4EEAAAQQQQAABBFJVYNuJfdJ/6Zey6vA2OXb+ZKqOJRIvHhsdI2VzFpUHyjeX1qVuiEQC7hkBBBBAwIMAgSwPKBxCAAEEEEAAAQQQiFyBzcf3yM3TnpeTF84YhLgMsZIrLlvkgqTSnZ+JPyfz9qwwLx3C541ekNsIaKXS0+CyCCCAQPgIEMgKn2fBSBBAAAEEEEAAAQRSWWDIPxPkzWVfmVG0L9tYXqjWXopnK5DKo4rcyx89d1K+3TpfXlwwXB6a85aUz1Vc5t4xNHJBuHMEEEAAASFHFj8ECCCAAAIIIIAAAgg4BN5dPskEsXJlzCYb7h0tQ+s9TRArlX8y9FncX76Z7Hvga2lQpIqsO7pDGn7bLZVHxeURQAABBFJTgEBWaupzbQQQQAABBBBAAIGwEFi4b7UM+mucZMoQJyvvGSk5WUoYFs/FdRCTb3nVLC1cc2S7dPl1sOspPiOAAAIIRJAAgawIetjcKgIIIIAAAggggEBigcuXL8sDjsBIhqho+avdJxLnSDJOCU8BzZNVLFt+mb5toWw/uS88B8moEEAAAQSSVYBAVrLy0jkCCCCAAAIIIIBAuAusP7ZTDp89Lm3KNJB8mXKG+3AjfnyTbulnDHovHhHxFgAggAACkShAICsSnzr3jAACCCCAAAIIIOAU6PLrG+bzsHrkXnKihPGHMjmKmNHN3L44jEfJ0BBAAAEEkkuAQFZyydIvAggggAACCCCAQJoQ2Hhsd5oYJ4P8T6BblTb/feETAggggEBECRDIiqjHzc0igAACCCCAAAIIeBJoUqyGp8N+j8XHx8tvv/0mI0aMkMmTJ8vOnTv9tgm2wtq1a+XOO+8MtnmKtZs+fbo0b948Wa/Xvmxj0/+6o9uT9Tp0jgACCCAQfgJksgy/Z8KIEEAAAQQQQAABBFJYIHNMRttXvO+++2T06NGSOXNmiYmJkUuXLsmZM2fM+7FjxyRHjhy2+/TV4MSJE7JgwQJfVcLi3N69e2X+/PnJOpZiWfOb/k9cOJOs16FzBBBAAIHwE2BGVvg9E0aEAAIIIIAAAgggEOYCzzzzjEyYMEG2bt0qp0+fluPHj8vJkyfl7Nmz0rhxYylRokTI76BatWry999/h7zfUHfYoUMHWb9+fai7pT8EEEAAAQSMAIEsfhAQQAABBBBAAAEEELAp8P7778vs2bOlZMmSCVrGxsbKL7/8YgJausTOtWzZskWioqJcD9n6rH0XKlTIVpvkqlyzZk0ZM2aMx+6zZMkihQsX9niOgwgggAACCCRVgEBWUgVpjwACCCCAAAIIIBBRArt3X0kOX7t2ba/33b9/f9m+PWH+Jp25lV6KLp2kIIAAAgggkBoC5MhKDXWuiQACCCCAAAIIIJBmBTRXlRadIeWtvPjii85Tly9fNssO16xZY45Z7fVLpkyZnP3o8ezZs5s6mmtr3bp1osnkq1evLhkyZJCLFy+aHFzZsmUzdaw/XNtpnq6NGzeKBpri4uKkdOnSzj6t+p7eNei2f/9+c0pnfRUrVsx81mtqAM4a16lTp0wOML2mLqN0vRerzoULF8w567v79bTPrY7ZaYePHDH3pdcrUqSIezW+I4AAAggg4FGAGVkeWTiIAAIIIIAAAggggIBngfLly5sTq1ev9lzB7agGiDTxe7t27cwZ/Wy9pkyZ4qxtJYefNWuW6PK8O+64Qzp27Gjyb2mlv/76S8qWLeusb33QdocOHZJVq1ZJrly5pHLlyvLII4+I5tTSc/369bOqJnrXHF/58uUzAa+33npL3nvvPSlTpoxZMqkBqa+++kry57+SWF0b161b1/Sp99S1a1fnfVhj1zqjRo3yGpgaOXKkaCCubLlyZoy33XabFC1a1FxT21IQQAABBBDwJ0Agy58Q5xFAAAEEEEAAAQQQcBPQ4EvTpk1FZyj5KwULFhSdlTVixAhTVT9br/bt2zubx8bGyMGDB6Vz587mvAaZdFZW7ty5nXW8fVi7dq1o3ioNZp0/f16WLVtm+tDg16uvviqegm7at87Y+uijj8zML01er3mvzp07JxpM09li+/btk+jo/35lWLFihelXx6Q7Nlr3oe/+il7n8ccfN4ngtb6OcdeuXaaPChUqSMaMGc21/fXDeQQQQACByBb4799Kke3A3SOAAAIIIIAAAgggELDApk2bzPI5Dejcf//9AbfzVbFo0WLyyiuvyO+//+6rmsdzrVq1kj179kjx4sUTnNdliY8++qgJciU44fjSoEEDE1i6++673U/J1VdfLRoce/nllxOdC+aALpV8+umnZenSpYnGqP1pYnwNwGnQjYIAAggggIAvAQJZvnQ4hwACCCCAAAIIIICABwGdPXTEkeNp+PDh8scff5jdCHU54MCBA01+Kg9NAjr02WefmSBSQJVdKulyQG8zt3R5ouazci06dl0eOGzYMNfDCT6Xcyz/85UHLEFlP1/mzJljcnZVqlTJa83JkyfL22+/7fU8JxBAAAEEEFABAln8HCCAAAIIIIAAAgggEKRAly5dZMOGDSbp+dChQ6VXr14mT9WgQYOC6rFevXpBtdOcWN5KmTKJ82qNHz9e8uTJ462J83jLli2dn5PyYciQIeJp5pdrnzfddJOZleV6jM8IIIAAAgi4C7BrobsI3xFAAAEEEEAAAQQQsCmgCcwffvhh89JZRd27d5fGjRub5Oh2utJgTjDF2mXQU9uoqMRHdSmf5tTyV3SJYSjK/PnzRYNi7777rtfudGkhBQEEEEAAAX8CBLL8CXEeAQQQQAABBBBAAAEbAs8//7wsWLBAdHZVfHy8jZYpV/Xo0aNSoEABvxeMiQnNrwuaQF7zZOmSRl+lT58+vk5zDgEEEEAAAQnNv5mARAABBBBAAAEEEEAAAafAgw8+KF9//bXze7h90J0UDxw44HdYuotiKEqRIkWkdu3aJHMPBSZ9IIAAAhEuQI6sCP8B4PYRQAABBBBAAAEE7Ano7CLNi+Wr5MiRw9fpVD935513yrx58/yOY8mSJX7rBFJBd1X89ttvA6lKHQQQQAABBHwKEMjyycNJBBBAAAEEEEAAAQQSCvTt21caNmyY8KDbt7///tvsZOh2OGy+3nbbbQGNZdGiRQHV81epc+fO8s8///isdvHixbBdiulz4JxEAAEEEEhRAQJZKcrNxRBAAAEEEEAAAQTcBTR3UrDl0qVLwTYNut2rr74qe/bskRUrVnjto3fv3vLss896PZ/aJ3LlyiUlS5aU+vXrex1K69atpWLFil7PX7Zhf8MNN0jGjBnl5Zdf9tpfkyZNRK9JQQABBBBAwJcAgSxfOpxDAAEEEEAAAQQQSHaBHTt2SLVq1WTKlCkBX2vnzp1yxx13yGOPPRZwm1BVzJQpkwwcOFBq1Kgus2bNStCt5p3Snf5iY2NlyJAhCc7deOONCb6n9pc//vjDLC9UR/fSqVMnWb58udxzzz3up8z3woULy5ixYz2e83QwQ4YMMnv2bBk0aJA899xziaroUked/TV58uRE5ziAAAIIIICAqwCBLFcNPiOAAAIIIIAAAgikuIAGfh555BFp27atWY6n+ZRWr16daBw6C6p///6mTvHixWXlypUyfPjwRPVS4sBLL70kX345Su69914znqioKPOuSc01yOMpkbre5/XXX5+gfo8ePZzDzZYtm5m15Dzg9kGDQVrHvWg+Ll+7C0ZFRYunnF061sOHD8uaNWsSjElnTului1u3bnW/lPP7jz/+aIJg1n3ru1U0iJc9e3brq/Ndd3HUZzZp0qQE19O26qUz87JkyeKszwcEEEAAAQQ8CURddhRPJziGAAIIIIAAAggggEBKCuhSt+3btzsvmTlzZomLi5Njx46ZZXDbtm1zntMPR48elZw5cyY4FsyXAl/cKbeWul5GNHoxmOZy/PhxOXLkiGigSYND0dG+/1ux7gR46tQp0eV9oRh/UIN2a6Tj0XG538MLL7wgc+fOlYULF7q1ENGcVrt27TJtChQoYGahJark5YDr9YoVK+allvfD5y6el+Kj75EfWr0h1+Uv770iZxBAAAEEUlxA/wNF+/btZfz48cly7Zhk6ZVOEUAAAQQQQAABBBCwKaCBKp1ZpAESLTpDx8qf5R7E0iVo4RIE0tlOnmY8ebv9fPnyib5Ss+h/y9aE9NWrVzfDyJo1q+jLvejMK/clklYdDXqVKFHC+mrr3dv1Au3kjCOQRUEAAQQQiEwB3/+5KDJNuGsEEEAAAQQQQACBVBIYOnSo3yuXLl1a7rrrLr/17FRYvG+Nnerpoq4u9RswYIDXezlx4oSsX79ebrnlFq91UuvE5E2/mUszGyu1ngDXRQABBFJPgEBW6tlzZQQQQAABBBBAAAE3gccff1w0mbqv8ttvv5kcS77q2DmXPS6L7D9z1E6TNF9Xl33orLa+ffuavGMatLLK6dOn5bPPPjMz3hYvXmwdDqv3AUtHhdV4GAwCCCCAQMoJEMhKOWuuhAACCCCAAAIIIBCAwKZNm7zWatKkiQSTU8lrh44TH9R7ypz+auMvvqqlu3MtWrSQ3bt3y+jRo83SSM1Hpi9d9qdBLs1jVaVKlbC77xMXTsuZ+PNSJW/psBsbA0IAAQQQSH4BAlnJb8wVEEAAAQQQQAABBGwIaML0SpUqJWqhSdQnTpyY6HhSD9xc7DqJic4gPRZ+IucuXkhqd2mqve6wuGHDBtGcWefPnzcv/Txz5kzRZPvhWLr8OtgMa1CdruE4PMaEAAIIIJDMAgSykhmY7hFAAAEEEEAAAQTsC3z55ZeJGjVq1Ejy5MmT6HhSD8RFx8jLNTo6Zvmckwbfdktqd7RPRoEpm3+X33cvl3yZckitAhWS8Up0jQACCCAQrgIEssL1yTAuBBBAAAEEEEAgggWuu+46yZUrVwKBGTNmJPgeyi9PVr5T6he+VrYc3yO3znhZ4i9d2TkxlNegr6QJfLzqO3ns93cla0wmWd0+caAzab3TGgEEEEAgrQgQyEorT4pxIoAAAggggAACESbwzz//OO+4WbNmJn+T80AyfJjSrL/Ju6Q7GBYZ1VaWHbyy5C4ZLkWXNgQOnj0mpcZ0kL5LRkqsY/bc2g6jbLSmKgIIIIBAehOIcqyBv5zebor7QQABBBBAAAEEEEj7AvrXVM3htG/fPlm1apXHvFnJcZefrvleei8aIZcd/9OiS9jK5yrm+BRlvvNHygjsOnVAFu9fK6cunDUXbFGitoxs3EOio/hv8SnzBLgKAgggEJyA7ozbvn17GT9+fHAd+GlFIMsPEKcRQAABBBBAAAEEUk+gf//+MmzYMNm/f3+KD2LIPxPk8zU/yJFzJ+QS/+03xf31gtliM0ttRyDxy5tekowZYlNlDFwUAQQQQMCeQHIHsmLsDYfaCCCAAAIIIIAAAgiknECvXr2kVKlSKXdBlyt1r3qP6EvLobPHXc7wMSUE8joSulMQQAABBBBwFyCQ5S7CdwQQQAABBBBAAIGwEciQIYPcd999qT4egiqp/ggYAAIIIIAAAkaABeb8ICCAAAIIIIAAAggggAACCCCAAAIIpAkBAllp4jExSAQQQAABBBBAAAEEEEAAAQQQQAABAln8DCCAAAIIIIAAAggggAACCCCAAAIIpAkBAllp4jExSAQQQAABBBBAAAEEEEAAAQQQQAABAln8DCCAAAIIIIAAAggggAACCCCAAAIIpAkBdi1ME4+JQSKAAAIIIIBAWhQ4deGsjN/4s0ze/Jv8dWBDWrwFxpzGBfJmyiltSjeQe8vdJJVyl0rjd8PwEUAAAQQQECGQxU8BAggggAACCCCQDAKVJ3SR/WeOJkPPdIlA4AKHzh6TT1ZPM68oiZI/2w6X4tnyB94BNRFAAAEEEAgzAQJZYfZAGA4CCCCAAAIIpG2Bp+YNlQkbf03STTQpVkOq5i0jWWIyJqkfGqc/gbVHt8v8vatkz6lDtm/uslyWmpMfcQSyCsjMVoMlf+ZctvugAQIIIIAAAqktQCArtZ8A10cAAQQQQACBdCFw/PwpqfDV/RJ/6aLt+4mOipY7St0oHzd8znZbGkSuwNQt86Tb/GFyJv6cLYQdJ/fLNY4Zgx/W7ybtyjSy1ZbKCCCAAAIIpLYAyd5T+wlwfQQQQAABBBBI8wJL9q+TsuM6BRXEeqBCc9nReSJBrDT/U5DyN3DHVfVkW6ev5MubekrGDLG2B/DE3PflpUWf2m5HAwQQQAABBFJTgEBWaupzbQQQQAABBBBI8wIHHTmIWv3Q0/Z9xDkCD4vb/J+8WfdRiY3OYLs9DRCwBFqUqGOCoaVzFLYOBfz++Zof5J1/JgZcn4oIIIAAAgiktgCBrNR+AlwfAQQQQAABBNKswOn4s1Lpqwdsjz/GEbhafvdnUip7IdttaYCAN4EFd30ozUrU9nba6/E3lo1Pcl43r51zAgEEEEAAgRALEMgKMSjdIYAAAggggEDkCNz6w8u2bzY2OkZ23zdZ8mTMYbutNjhz5oycOHEioLYLFy6Uo0fT7s6J3377rSxbtkz27NkT0P0mV6XTp0/b6lrr7969W86d85676uDBg3Ly5Elb/fqrrLsSjr7pJamYu4S/qonO6yYFR8+FdjyJLsIBBBBAAAEEQiBAICsEiHSBAAIIIIAAApEn8OuuZbLy8BbbN/5N8/6227g20OBOjhw5pG7duq6HPX6+/vrrJXfu3PL99997PO/roAbLKlWqJNWrV5f69esH9KpZs6ZUqVLFV7e2zs2bN09q1Kgh2bJls9UuFJU1GNW7d28pXry4FCpUSC5fvmyr26JFi8oHH3zgtc2DDz5onuPNN9/stU6wJ2bf9rZki81su3mz6S/YbkMDBBBAAAEEUlqAXQtTWpzrIYAAAggggEC6EOj48+u276N6vrJSu0BF2+1cG3z33Xfm6/jx410Pe/3coEEDufXWW72e93Xi0qVLkiVLFtH3QMpff/0lmTJlCqRqQHUyZLiSOyx79uwB1fdWacGCBZInT55EpzU4dfjwYdHZUWvWrJHFixfLjBkzzKw3q7Jeu0iRIlKnTh1z3jru613NtHTv3t1rtfnz55sxzZ4922udYE/orL9vmg+QptO8X99T31uO75U1R7YHNaPLU38cQwABBBBAIDkECGQlhyp9IoAAAggggEC6Fvhh+8Kgdiic2erNJLtoACtv3rxy1VVX+exr79695nzXrl191vN2UgM4a9eu9Xba4/GoqChp3769x3OpefCjjz6SMWPG+B1CgQIF5P7775dOnTpJyZIlzWy2rFmz+m1nt8LWLVtMAK1nz552mwZcv2reMnKVI/n7luP2lmU+M/8D+fHWtwK+DhURQAABBBBIaQECWSktzvUQQAABBBBAIM0LvPn3BNv30LR4TdFATyjKm2/6D4itWLHCXKp8+fKhuGTAfbRp0ybguilVcfTo0XLttddKuXLlJDo6Wq6++mqJi4uTMmXKmCFs27ZNSpUqJfv27UuRIb32+pXZfIMGDUrW633a8Hm52easrGUHN4puYpAlJnQz65L1JukcAQQQQCDiBAhkRdwj54YRQAABBBBAIKkCqw9vtd3Fs1Xa2W6jDXLlymWCL7rMLj4+3vTx/PPPS48ePcznCxcuyMWLF83sqVKlSjqCZVdSoFrLAW+44YZEATSd0RVIAvURI0bI//73P4mNjTXXCuSPa665JpBqKV7nxRdfTPFrervg559/LjfeeKPo8kJv5Y8//pAdO3bI0KFDvVXxe7yKY1ZWlpiMjsCU96TznjpZ5fj5rlWggqdTHEMAAQQQQCDVBQhkpfojYAAIIIAAAgggkJYE9p4+HNRwr8sf3MyoypUrm4TjetFZs2aZnFXNmzd3jkEDWTqjSBOiDxv2oZQuXdqc69Onj/zzzz9i5dRyNnB82Llzp+tXr5+1Lw2a6Wwlf2X69Okybdo0KViwoL+qMnnyZGnfob2ULFHSZ13NX6XFmjnlrbIG+DToYwXvtN4Wx/I9y8JbO/fjgc6Y01lurssuNTG+rzxemotLx6gBwY4dO5rLahCrXr167kNI8F2XNyYlkKWdFcuWX9YfDex5Wxd/5c8v5IeWb1hfeUcAAQQQQCCsBAhkhdXjYDAIIIAAAgggEO4CU7fOS9Eh6s59WjRIo7OyunXrJu+9957HMTz66KPO4/o5Z86c0rRpU+cxux8aNWok+gqk6G6KOnvMSnTuq43WeejBh0wSdW/1+vXr5zy1efNm6dy5s8+A1m+//easrx8KFy4sx44dMzsDJjjh4Yu1tDDQnQl1tpRr0dlV1lJO1+OugbG///7bjGncuHHSoUMH0XdfRduGIj/XA+Wby8uLPvN1qUTn/ty/LtExDiCAAAIIIBAuAgSywuVJMA4EEEAAAQQQSBMCM7Yvsj3O0o6k20ktmzZtMl1ofixN+F60aFGzk17GjBkTda1BL52R9MADDyQ6l1wHtm7d6jMw5Xrdli1bir68laVLl4oGsipUqGBmPuk9/vnnnzJq1ChvTRId190TXXdQPHnypJm1lqhigAfOnDkjmTNnNrV1uaZrGTx4cIKAmQYPtb4VhNy/f78UK1bMObPNXxDLte+kfq6Rv1xSu6A9AggggAACYSVAICusHgeDQQABBBBAAIFwF9h2Yr/tIebJlMN2G/cGjRs3lkKFCpkk5ZokfOXKlSbPlS7lmzBhgvz111/OJlYuLX23cmk5T/77QZfG6Swqq+gyN185m6x6/t5dZyFZdTWoFsjyRKt+7dq1zeyz22+/3QSypkyZIrfeeqtZnhcTE9xfX999913p27evdQmP757GblXUWWHedops0aKFVc3MAtMglhadqWWVOnXqiAbTvvrqK3NI85rpvRQvXly2b99uVQv5e418V4e8TzpEAAEEEEAgNQWC+5tAao6YayOAAAIIIIAAAhEmcOrUKdm1a5eMHTvW3LnODNIAiJWPShO3f/rpp1KgQAFz/uDBg+Z9yZIlXqWsGV5WhWeeeUa6d+8unmZ4WXWsd51NpYGlxx9/3Drk9X3v3r1miaPXCm4nNNCjM8qGDBkiBw4cMGeb3nKLCeDdc889okGtYIq1e+Pu3bsTNdecYRo883ROKxcpUsSZpyxRY7cDH3/8sfOIzprTgKHmz/rxxx/NPek9aBkwYIB5//XXX827pz9KlCjh6TDHEEAAAQQQiGgBAlkR/fi5eQQQQAABBBBICwKPPPKImaHUrt1/Ox9qviyraBBKX1bRmUUakHJNSG6d8/betm3bBKf8JTDXIIvrTCTXxrt27XYsfSzieijgz9ZySE0y37NnT9MuzpEkvVOnTqK7KPobl78Lae4s93L+/HlzyNM597r+vuuYNT/Z8OHD5dChQ2bJoebq0vxhr732mrP5yJEjTYDMVyJ7TeBPQQABBBBAAIGEAgSyEnrwDQEEEEAAAQQQCCsBzaekr2uuucbseudtcBo0yZs3r/P0U0895fxs98PcuXOlQYMGorOLXBPIu/ajOas8FV32+PLLL8vixYulVq1anqp4Pfbggw/KuXPnTFv3Sp988okJZOlMMPfE7u51fX3v1atXotMaaNLi6Vyiyj4OWEs1dRmjBrKOHz9uZsnpc9Hlg1agTHNm6XcNzFlFE837Wtpo1eMdAQQQQACBSBcgkBXpPwHcPwIIIIAAAgiEtYDOxtKyatWqRIEO18CH7mSoOxpqwEfLww8/bN6D+aN+/fpSuXJl+d///mcSrjds2DBRNxqoWr9+vVx99X85mHR5owaxNMm6zhD75ZdfAlqqqJ3rzoE6S6lq1aoeA2A6A02DQxpY0x0Aq1WrlmhMgRyYNm1aomrWjCxP5xJV9nLgwoUL0rFjR2nVqpUzKXxcXJzs27fP7D6oyzatpaEDBw40M+y6dOkimiRfc29Nnz7dZwJ8L5flMAIIIIAAAhEnQCAr4h45N4wAAggggAACaUlAAzw6YyjWsbzOKq1btzbL1qzk7BqIyZHjSkJ5awaV7pznrWTJkkXWrFmTKDDmWl+Tx2sOriZNmojOIMqTJ4/rafNZg05WYvO7775bJk2aZBKc//zzzwEHsKxOa9SoYT7+/vvv1qFE7w899JCZNaW7Bh51mOiSQ7tl+fLliZqosSaj93ROK7sGDBM1/vfAiy++KJrLTHeUdC26xHPLlq2OXQuLOg+///77MnnyZPNdr6uz7TQAprOyKAgggAACCCDgW4BAlm8fziKAAAIIIIAAAqkqoMvSXJcM6mB0po+145374Pr06WN2NNTgiHvRpWya0HzhwoV+gzMaONOE8BrA0iDV7NmzZfXq1VK9enXT7X333SejRo0SXQ74008/mWT0b7/9tjz33HPul/X7XXNtHT58WGbOnOkMyHlqpLOyFi1aJJpXqrLj/nRGWDgUDSjqjLj27dubxO7uYypevJjzkM7C0ufZpk0b57GpU6dKuXLlTDJ4nblllUqVKlkfeUcAAQQQQACBfwUIZPGjgAACCCCAAAIIpAOBm266yeyM179/f693o8nGdYZVnTp1vNZxPZE7d27HbKItZraSLnHUpYPXX3+9LFiwQDQRuc4+6tChg/mss7by58/v2jygz7p7nwaw7rjjDmnWrJnfNqVLlzY7/mnA7vbbbxcrL5W/hrrroxZfs6t8ndN8V55mpelsLl16qYFFDez5KrqD45dffmkCja71ypYtK/rSZZmugSzXOnxGAAEEEEAAgSsC0UAggAACCCCAAAIIpD2B06dPywsvvGBmMGkA5tdff5XoaO9/tdPleDrLSmf/2Ck6+6tQoUImSKNLB//44w9nc52BpIGxkydPmoCX80SAHz7//HPp27evlCxZUr755psAW4n07t1brr32Wvnuu+9MUO7ixYt+297pCJTFx8eb5Xu6hM/1pXmqtLgec/2s+a8uXbpk6rj/oWPXJYUajHNd/uleb+PGjSbZu/arOzPqkkN9bvqKickgeg19aYJ9CgIIIIAAAgh4F2BGlncbziCAAAIIIIAAAmEl8Jsjf9R9nTvLzp07TWBlyJAhkjNnTpkwYYJJFK5L73TXP93Zb9asWc6xb9m82cyiGjp0qJk95Tzh58Mrr7xiZj9pIOv4iRMec1LpdTQ/l87y0sDSbbfd5qfXK6c1Gb0GsnTW12bH+HS5nfahM5usonm8tGhOMKto0EiTveuyQs3RpUnn8+XLJ0eOHLGqeHwv5UioHmzRMek1vBUNSmlAz1fRGVdWKVCggMyZM8ck1Ne2GizUUrt2bdHdJjXJvpYKFSqY96T8cfLCmaQ0py0CCCCAAAJhJ+D9P9uF3VAZEAIIIIAAAgggkPoCNxRKnHvK36j+3L/OXxWv52+++WYz00dn7jRyLGHTXfCyZ88uxYsXNzOIjh49anJY6VI/LRoI0XxWWbNmlXnz5plj1Rx5rTR4oucCKTp7SJfw6TLFYcOGmbxa3hKr67h0DBqE0oBTu3btzMwib9fR8etOhxrE0jHpcjudSaaBohOOYJkGpKzX2bNnTTfWd33XxPbaTttoMEsd9Po6Dk247q3oeW+vUo6E61q8nbeOm0pJ+EOXIeqMrO+//94s0dTnaAWxtNsvvvgigZ2vGXaBDmPRvtWBVqUeAggggAACaUKAQFaaeEwMEgEEEEAAAQTCRaBd6UYpOhRdNqdL4ipXrmxmW2lwp3z58glmLrkO6JNPPjHBHl0KV79+fTMDS/M7aZJ0f0WDLHfddZdJPH7gwAGzZPDxxx/310x0JpgmkH/iiSfMbnwanNGk79qfe9FldRs2bDD5tDSoZQVy1q1bJ3Pnzk3w6tixo2nuflxnaulMLt19cfv27XLdddeZeo0bN3a/nPP7qlWrvC4d9Le0UO/DquPsMIgPJUqU8NnKSu6uM+606D0mtUzZMjepXdAeAQQQQACBsBIgkBVWj4PBIIAAAggggEC4CzQuWi2oIZ64cDqodjNmzBANXq1YscIZ9PHXkeZqOnPmjPTr18/kb9KlcTrLylfR+joDSHNVaQBJZ0fprC47RWdv6VI/nR327rvvmv5q1KhhZnRZ/ej9jB49WjQ5fKjKkiVLzEw13f3QW7GCRN7O+zuuubBSqtx7773mUhUrVkzyJefs+tt2H92r3WO7DQ0QQAABBBBIKYGYlLoQ10EAAQQQQAABBNKLQLRjmdolD7ONfN3fF2tnylPX3uWrisdzmTJl8ng8kIOa40oTwhcsWFCaNm0qdevWld8debY8JSXPnDmzWe6ndVu1apWo+0OHDomOZenSpeacLrfzVGrVqmWCYLqr4ODBg81Oh0WKFElQtVOnTgm+h+KLLjd0LZqAftq0aWbMrsc9fdbZZ1oCTTi/du1aeemllzx1ZfuYJnfX3GU6+0rHobPVtJQrV84sm7TdoUsDzY918OwxlyOBfbzv6lsCq0gtBBBAAAEEUkEgyjFVOvGc71QYCJdEAAEEEEAAAQTSisCrf34pH660t/tfjrissvHeMSG5Rc1HpfmWNL9UIEWXJ3bt2lVGjhwpzZo1MzvsBdLOtU7NmjXlr7/+ch7SmVcatPJVdBc+T0EzX21cz/Xs2dMEw4L566rO+NKgXHIVf2PSQJ+/OtbYXIOC+llzk+nOjEktw1Z+I/3/HGWrG/053dBhtMkXZqshlRFAAAEEEPhXQP9dpjsbjx8/PllMmJGVLKx0igACCCCAAALpWeDxa263Hcg6fv6U/HVgvdTIf3WSaXT2lO5WGGjRHFYjRoyQtm3bmplZgbZzrdehQ2EUj30AAEAASURBVAeTp0uX7+lfTgMpSQliaf9JWX6oM7QCDSQFci926mg+svz58wfcZNmyZVKtWnBLVr1dRGcM2g1iaV/3l29GEMsbKscRQAABBMJCgBlZYfEYGAQCCCCAAAIIpDWBpt93l38ObrI97F33TZLYaP5bYiBwK1euNMsUr7/++kCqU8dFoMPsAfLzzv9m0Lmc8vlx/wPf+DzPSQQQQAABBPwJJPeMLJK9+3sCnEcAAQQQQAABBDwIzLp1iGSIsv9Xqc4/D/TQG4c8CehOjQSxPMn4PvbH3lVBBbE+bfS87445iwACCCCAQBgI2P/bVxgMmiEggAACCCCAAALhIDC03lO2h/HLrmXy7B8f2m5HAwQCEdh6Yq/cMdN+fq2rcxWT1qVuDOQS1EEAAQQQQCBVBQhkpSo/F0cAAQQQQACBtCzQrkwjaVKshu1bGLt+try06FPb7WiAgC+BPw+sk9pTHvNVxeO5zDEZZd4dH0iU438UBBBAAAEEwl2AQFa4PyHGhwACCCCAAAJhLTD+5j5SM4gE7p+v+UGqT+oqZy+eD+v7Y3BpQ6Dnwk+k5fSetgcb58jXtvKeEbbb0QABBBBAAIHUEiCQlVryXBcBBBBAAAEE0o3AjFaDpVXJurbvZ9epg1Ji9D3Se/HnBLRs69FABWZsX2R+hkasnWEbJH/mXLKx4zjJHpvFdlsaIIAAAgggkFoC7FqYWvJcFwEEEEAAAQTSncC0rX/IQ3PeCvq+8mfOKYPqPOLIVXRD0H3QMP0L7Dl9WJ6dP0zm7lkhFy7FB3XD1xUoL9+3GCjRQWxYENQFaYQAAgggEDECyb1rIYGsiPlR4kYRQAABBBBAICUETsefk66/vSWzdixNictxDQRsCeSIyyrjbu4ltQtUtNWOyggggAACCAQqkNyBrJhAB0I9BBBAAAEEEEAAAf8CWRyJs8c2ubJrXJdfB8sP2xbJZcf/KAikpkCujNlk1q1DpGT2gqk5DK6NAAIIIIBAkgUIZCWZkA4QQAABBBBAAAHPAiMb9zAntp3cJ/Mcy8CWH9okW07s9VyZowkEfvrxJ6lVu5bkzp07wXG+BCZQOEseqZznKrk2T2mpW7BSYI2ohQACCCCAQBoQYGlhGnhIDBEBBBBAAAEEEIg0AV2WMHfuXKlXr16k3Tr3iwACCCCAQJoWSO6lhexamKZ/PBg8AggggAACCCCAAAIIIIAAAgggEDkCBLIi51lzpwgggAACCCCAAAIIIIAAAggggECaFiCQlaYfH4NHAAEEEEAAAQQQQAABBBBAAAEEIkeAQFbkPGvuFAEEEEAAAQQQQAABBBBAAAEEEEjTAgSy0vTjY/AIIIAAAv/P3nnAR1F1bfykkJCE3kOv0gUBEQVBEawgRZCoiGBF7KCCBQvNQvMFK1ZEijQLxUIVERCQIop0kC69hRJSvnnGb+JkM7s7e3c32dk8x9+6u3fuueU/ZGfm3HPOJQESIAESIAESIAESIAESIIG8Q4CGrLxzrjlTEiABEiABEiABEiABEiABEiABEiABEnA0ARqyHH36OHgSIAESIAESIAESIAESIAESIAESIAESyDsEaMjKO+eaMyUBEiABEiABEiABEiABEiABEiABEiABRxOgIcvRp4+DJwESIAESIAESIAESIAESIAESIAESIIG8Q4CGrLxzrjlTEiABEiABEiABEiABEiABEiABEiABEnA0ARqyHH36OHgSIAESIAESIAESIAESIAESIAESIAESyDsEaMjKO+eaMyUBEiABEiABEiABEiABEiABEiABEiABRxOgIcvRp4+DJwESIAESIAESIAESIAESIAESIAESIIG8Q4CGrLxzrjlTEiABEiABEiABEiABEiABEiABEiABEnA0gWhHj56DJwESIAESIAESIAESIAESIAEbBJKTk23UcnaVYMyxVKlSzobC0ZMACYQdARqywu6UckIkQAIkQALhQKB///7hMA3LORw+fFgOHjxoeSycCo8ePRpO07Gcy7FjxyzLA1V4xx13SP78+QPVnFI7J06ckPT0dCVdpyilpKTImTNnnDJcjjOHCWRkZORwj+yOBEiABDwToCHLMx8eJQESIAESIIFcIfDmm2/mSr/slAR8IVCkSBFfqvtUF23DuJLbBpaEhATJly+fT2N3WuWoqCipXr2604bt83iLFi3qs47TFOrWrSvR0YF5xJsyZUqeWHRw2jnmeEmABEQC8ytHkiRAAiRAAiRAAkEhsG/fvqC0m5uNRkZGSUJCfG4OIUf6LliwYI70w05IgARIIBgEli9fTkNWMMCyTRIgAb8J0JDlN0I2QAIkQAIkQALBI1C2bNngNc6WSYAESIAESIAESIAESMBhBLhrocNOGIdLAiRAAiRAAiRAAiRAAiRAAiRAAiRAAnmVAA1ZefXMc94kQAIkQAIkQAIkQAIkQAIkQAIkQAIk4DACNGQ57IRxuCRAAiRAAiRAAiRAAiRAAiRAAiRAAiSQVwnQkJVXzzznTQIkQAIkQAIkQAIkQAIkQAIkQAIkQAIOI0BDlsNOGIdLAiRAAiRAAiRAAiRAAiRAAiRAAiRAAnmVAA1ZefXMc94kQAIkQAIkQAIkQAIkQAIkQAIkQAIk4DACNGQ57IRxuCRAAiRAAiRAAiRAAiRAAiRAAiRAAiSQVwnQkJVXzzznTQIkQAIkQAIkQAIkQAIkQAIkQAIkQAIOI0BDlsNOGIdLAiRAAiRAAiRAAiRAAiRAAiRAAiRAAnmVAA1ZefXMc94kQAIkQAIkQAIkQAIkQAIkQAIkQAIk4DACNGQ57IRxuCRAAiRAAiRAAiRAAiRAAiRAAiRAAiSQVwnQkJVXzzznTQIkQAIkQAIkQAIkQAIkQAIkQAIkQAIOI0BDlsNOGIdLAiRAAiRAAiRAAiRAAiRAAiRAAiRAAnmVAA1ZefXMc94kQAIkQAKOJnDhwgVHj5+DJwESIAESIAESIAESIAEVAjRkqVCjDgmQAAmQAAkEgMCvv/4qxYsXlzFjxsjp06e9tnjmzBl56623JD4+XpYuXeq1PiuQAAmQAAmQgCcC586d83TY47GUlBSPx3mQBEiABIJFgIasYJFluyRAAiRAAiTghcAVV1whzz//vDzxxBNSqFAh3UC1YMGCbFqLFy/WjxUsWFCeeuop/XXddddlq8cCEiABEiABEvCFwPHjxyUuLk4++eQT22p79uyRokWLygsvvGBbhxVJgARIIJAEaMgKJE22RQIkQAIkQAI+EujXr580aNBA18LKeJs2bSQiIiKzFXy+9tprxVg1r169ugwdOjTzOD+QAAmQAAmQgCqBsmXLyvjx4+W+++7Trz0tW7aUWbNmZWtuy5Ytep3o6CipWLGilCxZUoYPH56tHgtIgARIICcIRGRokhMdsQ8SIAESIAESIAFrAufPn9dXxK2PZi3dv3+/JCYmZi3kNxIgARIgARLwg0D79u1l9uzZtlrAAguuWzExMbbqsxIJkEDeI4DfiaSkJJk8eXJQJk+PrKBgZaMkQAIkQAIkYJ9A/vz5ba1s9+7dm0Ys+1hZkwRIgARIwCaBqVOnSmSkvUfDzz77jEYsm1xZjQRIIDgE6JEVHK5slQRIgARIgAR8IgAHaeTJQkJ3K4mOjtZXwKOioqwOs4wESIAESIAE/CKADUiaNWvmsY0CBQrY2pzEYyM8SAIkEPYE6JEV9qeYEyQBEiABEiAB0XOTTJo0yS0K7FZII5ZbPDxAAiRAAiTgJwFsQFK3bl2PrWzatMnjcR4kARIggZwgYM9/NCdGwj5IgARIgARIII8TQI6ShISEbBSioiLlkUceyVbOAhIgARIgARIIJIHp06e7ba5t27ZSrlw5t8d5gARIgARyigANWTlFmv2QAAmQAAmQgA0CK1euzFZrxoyZ2cpYQAIkQAIkQAKBJlCrVi2pV6+eZbMzZ/JaZAmGhSRAAjlOgIasHEfODkmABEiABEjAPYE6depI5cqVMysU1PJmwVOLQgIkQAIkQAI5QcBqQaV79+6C/FgUEiABEggFAjRkhcJZ4BhIgARIgARIwERg1KhRmd/69e1reyepTCV+IAESIAESIAFFAnFxcdKyZcss2iNH/nddynKAX0iABEggFwhw18JcgM4uSYAESIAESMAbAez2AsFuhhQSIAESIAESyEkCW7ZskZo1a+pdNm7cWFavXp2T3bMvEiABhxMI9q6F0Q7nw+GTAAmQAAmQQFgSgFfWwoULw3JunBQJkAAJkEBoE7jkkksyB/jdd99lfuYHEiABEggFAgwtDIWzwDGQAAmQAAmQgAuBe++9V0aOHOlSyq8kQAIkQAIkkDMEli9fLoW0PI0lS5bMmQ7ZCwmQAAnYJECPLJugWI0ESIAESIAEcpJA4cKFBS8KCZAACQSTQOqe3XKg5eXB7IJtO5RAOW3cG4rEyp4qpR06Aw47GATKLl8rUWXKBqNptkkCtgnQkGUbFSuSAAmQAAmQAAmQAAmQQBgSSE+X6Go1JKoUDRZheHY5JRIICIG0vXskdc/fWvLOgDTHRkjALwI0ZPmFj8okQAIkQAIkQAIkQAIk4HwChfo8Lgldkpw/Ec6ABEggKAROvT1aTg4fFpS22SgJ+EqAObJ8Jcb6JEACJEACJEACJEACJEACJEACJEACJEACuUKAhqxcwc5OSYAESIAESIAESIAESIAESIAESIAESIAEfCVAQ5avxFifBEiABEiABEiABEiABEiABEiABEiABEggVwjQkJUr2NkpCZAACZAACZAACZAACZAACZAACZAACZCArwSY7N1XYqwfEALnUi/I1O2LZOG+tbL/7FFJz0gPSLtsJPwJREikVChQUtpXulJurtRM8kfFhP+kc2iGSw9ukDl/r5A/j++S5IvncqhXdkMCziRQoUApuaHC5XJr5eaSEJ3fmZPgqEkgRAhc3PiHnJ07Wy78tlIyTp0MkVFxGCQQmgQiixWX/K1aS/xN7SSqXPnQHCRHRQJBJkBDVpABs/n/CGw4ukMGr5kgi/et+6+Qn0hAgcDvR7frBhdD9ZpyDeXFRt3l0uLVjCK+2yBw8Owxmbh1vryxdrKN2qxCAiRgJrDh6E6Z+/ev8sTSt/XiNuUby4DL7uDvkBkSP5OAGwIZFy7Iue9my/GB/SWdhis3lFhMAu4JnF+ySE4MHqhXiK5cVYq9PkpiLr9CIqL5eO+eGo+EEwH+Sw+nsxmic5n993Lpt+xdOX7hTIiOkMNyOgEYR/EqFJMg/2v+qNyieWpR3BNIvnherp/9jGw9udd9JR4hARLwicD8vb8JXvgdGnnVw9JB89SikAAJZCdw5IEecm7eDyL0xs8OhyUkoEAgddcOOZTUUSJiYiX+9juk2NDhCq1QhQScRYCGLGedL0eNdveZf+TmOQPk0LkTfo27YsHScm3ZhtKz5o1St1hlv9qicugSWHtkq0zfsUR+2L1Sdp85pDTQUynJ0mvRGxIXHSuLbh0lVQuVVWonXJUupqfJIz+/JV/vXOrXFBHOeV35RnJb1ZbSTgvxpJBAuBBYfXizfLXzZ1mwd43sOHVAaVr4HXpg8QjpF/OufHPjUF63lChSKRwJnP7wXTkx5GX/pqZ5m8Q2ulziO94mcTe1l6hixfxrj9okECIEUvftlbOzvpZzs7+WlA3rlUaVkXJBkr/4TH+VGPeZxN1wi1I7VCIBJxCIyNDECQPlGJ1FYOyGmTL4twl+DfrWylfJ6OaPSMF88X61Q2XnETh98ay88OtHMmXbIuXBR2iaT17aRZ5rdJdyG+GkuDf5sFwxo49cTE9VnlaZ+GKyoP1IKZG/sEREgDCFBMKXwBktT9wLKz+SyVsXKk8SfyWP1u8sAxvfrdwGFUkg2ARS9+yWAy0aS7GRYyWhS1LAu8u4eFEOXN1E0g7sV287Op+UnjFb8tWrr4VO5VNvh5ok4AACCL1NnjZFjr/wtF+jzVe/gZSZPd+vNszKp94eLSeHD5OyK9ZLVCIXi81s+Dk7ATwrJCUlyeTJwUlhwl0LszNniZ8E4BHjjxHrqjJ1Zc/dU+Wja56hEcvPc+FUdRgvx7R4XLbe+YXg34OKwEI/+vfp0nPhayrqYaXzw55V0mjag8pGrKKxBWX2zcPk99s/lpJxRWjECqt/HZyMOwIF8sVpocqPye67v9Q9EN3V81SO3yEs7HSbN0jb1ITrhp5Y8Vh4EkjduV32Vi+rbsTSjFbF3nhLKmzfLzENG9GIFZ7/TDgrFwIRsbFSoPs9UuHvw1LwgT4uR+1/vah5du1vWl8yznEDH/vUWNMpBGjIcsqZcsg4b5rTP0sSbl+H/fWNg+XrG4dIbBRX23xlF471C2u5ZvDvYXzrAcrTm6uFKrad5d+KlnLnIaCIUKm7FwxTHknDEtVl0x3jpWmp2sptUJEEnEwAobST2wzUf4tU57FI26G39pQequrUIwFHEsDD84Fr1cPPI+LipcKWPZKQRM9qR/4D4KADQqDIi69KuT92SEQ+tWejtH8Oyt66VQIyFjZCAqFEgIasUDobDh/LU8vekd8Ob1GexXwtZOmqMvWU9akYvgRuqniFrOk6TqIi1H6y1mu7HGLDgbwmv2s7hSJPnaogNPPHdsMlQvuPQgJ5nQC8Q1d0fkcZAzY86b1klLI+FUnASQQyks/I3loVtYTuap6I+WrWlvIbd4pERTlp2hxriBM4ffp0iI/QeniRBQtKuU1/S2RRxZxwaWlyoHlj5b9H61GxlARyl4DaU2Hujpm9hyCBn/avl4lb1GOwt905UduyvGoIzoxDChUC5RNK6sYs1fFM2DJPlhz4XVXdcXpp2m5QN855Vnncj9brKM+HeH6xn3/+WQ9zLFeunNd5Ik4/WksSnJ6e7rVuqFXo3r27Ps/nnnsuR4a2cuVKvb/ISN4iuALHBhJruoxzLbb9feaOn2XTid2267MiCTiVwD8db1IeenTlqlLmxyUiIfobdEHLX5SQkCBHjx5VmiP0h79pf1c5XL/wOn78uMf+mjVrptebOnWqx3qhchBpmpOTkwU8XKVAgQKyevVqzQ6qZgh1bQ/fx48fL4UKFZJ33nknoO1a9RWMMuSGK/fbRomIT1BqPnXvbjn+XD8lXSqRQCgS4K6FoXhWHDimJC3/h6qMat5H266cCd1V+eUlvcT44vLJtc/KvYveVJp29/lDZcudEwShQuEu+JtM1XYpVJGaRSrIS03uUVHNUZ1i/79b1c6d2qq9F4nSVvXvvfde7bnInnFmwYIFeosVKlTw0rLnw1u3bpXSpUtLkyZNPFf0cLRevX89VQcPHuyhludD+/btk3bt2snatWs9V9SOGobBF1980WtddxW2b98u33//vVSuXNldFY/lOKePPvqoxzq5dbB8gZIype1ASZqndj5afv2E7O8xXaIj6WmSW+eQ/QaXwNlvZsrFLZuUOomIiZUy8zQjVgjLqVOn9GtJqVKlZNGiRdKyZUtbo507d64MHTpUli1bptf/fcPvMmHCBFu6ZcuWlaJFi3qsi/FAbrvtNo/1jIMnT56UJUuWSM2aNY0ipfdzWgjpli1bpGvXrj7pwzgHgxV+68eOHZupi7Zg4HryySflhx9+0I2GmQf9+NCgQQPdkIX+3nrrLVm/fr3Exzvs+UO7l0lcslL2N1HLH3tm8gQpcH9vyVf9Ej9IUpUEQoMADVmhcR4cPYqHfhop8P5QkURtF7TuNdqqqFInjxJoV+lKqVesivxxzLvxwhXR+bQUGfLbFzKk6b2uh8LqO0KY4CWpKj93HKOqmqN6dev+eyMXE+PdMAlvrLi4ONvjmzdvnrzxxhu263uq+MUXX7g1ZKVp7v4wstkRzEFVRo4cKevWrZMnnnhC/ve//9lqpnr16rbqWVWCkREPCyVLltQ94azquCs7cuSIwIAYqoYsjLt1uUbSIrG+LD2wwd00PJa/tOpTGXbF/R7r8CAJOJKA5vV69ImHlYee+MtvAmNWKAt+1xCihmtKq1atBF6sl19+eZYhw5No165dsnDhQunXr5/AaASBsemFF16QIUOGZKnv7UuVKt5zHJUvX15vxu41BdefW2+91VvXto97856C4QoCFvCMMqRjx47GR/397rv/3eX1u+++C5gRCw03bNhQ7/vOO+/Ud1GDV92xY8e8GgizDC4EvkSVLCVFh7wpx19U87o/2vteKTN/aQjMhEMgAf8IRPunTu28TiAlPVVm/71cGcPPnf5bgVFuJJcUcRPy1Vdfyf79+wU3A0WKFJFLLrlEXn755Ww3NK5D/OOPP6Rv376yadMmOX/+vH4RxQUW7s4lSpRwrS7ffPONTJw4MVu5a4E3d/IVK1bIqFH/5mjxVte17VD6/s1NQ6TaRLXkr+M2zgp7Q1afn0crn64XGndX1g22Iv4Ghg0bJsWLF8/iWXXNNdd47fqitv37jBkz9BVYVD58+LA888wz0rNnT0vdGjVq6OXubswRCoFVaPzdexLcuGO87gR/8zAu4cHInZw9e1Y/ZKy2W9XDOGEAcjde/N3PnDlTxowZI23bttW9s6zaMZfBA0BVDM8BhH/6utrftGnTzIc+1f5zQu+Dln2l7pe9lLr66K85NGQpkaNSqBM4M+lzLQ+P2uJmTL1LJapU6ZCbIu7x3nvvPUlMTJRatWpljg8LHh988IHu1fPnn3/KiRMn9HvCihUr6kaTqlWr6nU7deokffr0kebNm9taUKlUqZLuqWS+LuC+0du1Dh7AEKMergnwbHLntWxcv+Dt684DF/ep5jnrHbj8D9c5u97LV1xxRRYjlktTevgkQgqxcINQSVfBuUBIJzzJateuneXwmTNnZM6cOWJ4MWc5aPoCQyIYwRsO9/B4WcnGjRt1wyOMlaEmBe7sISdee1UytPPrq1zculnST56QyMKe7198bZf1SSCnCdCQldPEw6y/pVrOoYuK4UtNStWUQvkc5tKrnT94VxirRWXKlNFvbHDBRe4ChNLgIooHQLhGY7XHVaCLNvBwe7n2wFZJu+HBat7XX38lMC7Bjfr666/PorZ582aZNm2aFNSSPfojcNNetWqVnicID8eOc6n+/8kX1P7dVC9cTrad3KeE44ut88LWEzAtI00W7F2jxCVSuxntXSdwq7NKg/CgFK3lh4DA+GsWw9BjLnP9DANPamqqGHVx4+3Jk8vbijb+vi+99FKB55G3PCmePKnq16+vPwgZK9Wu48Z3/K7ACIWQFE+CMAlPgocZhHFgBR6GPE8GNrSTT3GHJPMYvD0AmeuaP9vxPjDXz43PJeOKSGJCcTmQrJYnZ8aOJXJbVXshSbkxP/ZJAioETrw2SEVN1yk6dLiybjAV0zQvs8cee8xtF7inMwu8XmGwgTzwwAMybpxvefVwbwZvL+N6hXZgwDF/R5mr4BoHMeqhHSziuBM7ofaGsei3336TRo0auWvK4/XUrNS6dWvz12yfH3roIf0eFdzcyZo1ayR//vzZDuP6lpSUlK3cU4E3o9fkyZM9qefeMc2Tu/CTz8qJoS8rjeFwrzul9My5SrpUIoFQIUBDVqicCYeO49XVnyuP/OG6ofvA7G5Szz77rAwfPlzgvv3LL78IVt3MgodleIxgZQt1XBNz4kYANzzIVTNr1iyzqn6zgYe+m2++WV8dsvK+QF4GVcGNza+//ir9+/eXESNG6J4oTvbKervF41oy8/5KOD7f/GPYGrI2Hd+txARKFQqUktiof41Fyo0EUbFbt9sFL7PAAARDsDfBTW+3bt1sh9V5a8/wMpoyZYq3qh6PX3vttYKXJ4GhDIYsTzf2nvSNY2AFD6nGjRvrK9YHDhwwDmV5N0JgshQqfsG4K1eu7JM2jP3Gg5hPirlQedGto6TW5HuUen7u1w/DwpCFB2x4bRihvkowqBQ2BDLOnFabi/b7FNPQvaFErdHAaOXTFiu9haAhLxXC0bFAYGVk8WUkf/31V5bq+O1GfqelS5dmKXf9Aq8veI7ZuSa66nr77smI5U3X7nFcn7Boe91118n777+vqx06dEj3irLbBupBFwYxfwXcjVyc/rYVDP2CD/ZRNmSl/LYqGENimySQowRoyMpR3OHX2V/H/1aeVPtKVynr5obinj17Mo1Yf/+tbYEbGZltGLjowWUZHhgDBgyQhx9+WL+pMCq+/fbb+keEOLkKvB9g6EJIDgxNb76pltDctV3j+0cffaR/fP311/WHWXiO4QHEm+eJoR9q77WLVlIe0oajO/QQLJwvVYF3CzzurAyOqm0GQu+1teqrh33qdgjEEHK8Ddzge5OUlBRvVXw6Di9JCEJNAiHw8IqNjbX0ujSMOtu2bXPbFUId7RgS8DCCpPfw8kJoJIzvrp6ZCM+AILzFSmDoKly4sNWhbGVIHO+unWyV/7/Ak6ecO53cKi8WW0i569Mp/4aMKjcQAorIAVStWjXLXcdCYHgcQg4TOL9ovnKPUWXLK+sGWxH3Crg3Q6gePPERqv34449ndovdcJECAjmdZs+aLa2v8+x1lKnowwfkOPR2rcOmHsEQ/I0HW7Dwi0Ud3AsjbQcEm4YgVyPC75GcnZKdQIS2SJfh4qWevZZ1Sdqhf0IylNd6tCwlgewEaMjKzoQlJGBJoEWLFno58hRYGbHMSvDcwsMnDFlmgUcUxN2DGvIV4MJd3s+d0sx9Gp9xI2DkvEFenssuu0zfwcyf3dSMtnPjPS46Vgrki5MzF8/53D02Jzh98ay2W2b20E87jSFMoHfv3rr7u536OVnnxz3qq2x3X5I1pDUnx+1PX8g74k2QvySQsnfvXr25QITfoSHDw8vTGI28XVZ1kFsP4YJ25MMPP9QNWDBiG16mMKIZIZB4KIPAMOZq7EW+FYi7XFz6Qe1/O3bs0D8a4TVGud13J4QWGnNJ0H6HkhV/hw6fOyEIUXSi4EEeizM4V8a/HSfOg2MOHIHkmdOUGyv0eF9l3ZxShLcVPOqRpgHGnVtuuUXv+rPPPtMXBv/6a5NmuM/qqR+osSG1hLdrHfJGeQt1VxmPkfNQRdeuDhaFsLgKbyojjQYYP/jgg7onNRaPYCi0I3avhXbaCvU6+Vu2lnM/qoUIXlj2s8R37BLqU+T4SMAtARqy3KLhARLISmD37t16InY7ngh4+Hv11VezNqB9s6NrJAfNpuxHATy9IEj0DEFieQhy5bhLcqlXCPH/FdYMUSqGLEwLOxgWkgSfZgjjJFzekTQ/lHdU82lSpsrRkfZ2zzOphMTHd9991+s4PvnkE6913FWoU6eOwLPIvMsSPDQhTz31VLbkvfitgPeUa2ixu/ZRDs8Wd55L8KJ87rnnPBqP4NFlV8yGeCS8hYeB2XD0008/6Q8Ornlf0D68uNwlDjb3j98xb8Yuc30nfy6XUEK2nPj334Ov8zhw9qjjDFkwCt9www1ieH/Au49CAiBw4ddlyiDirr5GWTenFHFv9/XXX+u70MKghXyNWATAomWPHj2CZsTC/GDU8XatQ2ih6qINvMxgkLNaMDl48KAgdNIsmDuuBUiI7osgosFK0N7vv/+u5540H0cyfaTVQBg/8sf++OOP5sNZPsNjDrkrXRdgslTy4Uvp0qX1a7lr3lofmgh61Xy1aisbslK180chAScToCHLyWcvl8f+57FduTyCnOt++fLlemcIG/RHunfvrhtBsIqdk4YQ5OyC9wV2zjEED8avvfaa8TXPvadrIVW+CFYJcc6wYgiBJwslNAhY7fTpOrKUlAuuRba/I18JVqSNED8oIicQ/qYQZueaUwrfzXXtdOTOiGVHF3WwY6qKICcfXmZZpe0YBTH/XpiPu/uMBzp33qbudOyUI1kxHhqnT59up3qO1ymev2CO95lbHV511VViXA+NMVg9+BrH+E4CdglElQvd0ELkPkWC8SuvvFKfzu233y7YXRX3cvPnzxeErmPjjpEjR+p/H8g/iDyqEBiH3CUMhx48YD0lZNcb0f4Hj35v1zrDY9bQ8fUdYeUwWhmChQsIogXM5cZxXAd9FSz0uAqul0ipgZ2E4Y2FyAdzDlrwQyoH7FzsKSUG+BibnuD+FsY5X72mcS6QFwseYFZzdh27k7+nnzvr5OFz7CQgNGTxH4EygQzxzRCg3FEIKMJDAYIbF3/k/vvv1y/U2P3mn3/+0b0sXPPT+NO+lS4u+lgxxwOI2RMDRhlc6J9++mn9BsJKl2UiCxYskDvuuCNb2JbdrabJMPgEjF1EPfU0duxYT4c9HnP1LML3wtqNPYxbixcv9vlGGZ3B2IWVbGyv7i0xsGEoM8IZPQ0WubLgZXn11Vfr1fD3jYcrs2DcSFzsTpZqCXdVBP0gn0kwxM6DXjD6ZZuiP2Qj5yMeCl3lwQAkVHZtk99JINQInDhxQs+BZaSHMMYHTyG8sLkPdiqE4PpgeCviOzxezQtfuP+DB2zfvv+GUiKdhB1BPk4Y0DzJwoULda8mT3XcHcN4jDEZdV555RU9BQX+9tu2bWsUK7+7XkthwEK4IIx9X375pW6og1cVPsOoZRbkeTVyvZrL3X0GL2xsgp0MXWXevHl6kdWccM9sLFi66vE7CZBAaBGgISu0zgdHE6IEjFUnPHT6I/BYwIoXLqxDhgyRoUOH6m7pMDS1atXKa9PQcSfIgWXkFTDXwQ0CBLvBmAX5smCMgds2VsIoWQngQb9y5cpy+nT2HZiwMxEldAiMHj3a62Cwk1OgBGGFp7WHF/zLiI+P0x70U31uGm3AuOyL+GI8NR4YsFMjdjs0QgcR8ocQDk/i+lvhqa75mNnLFL9V+N3ETqwqgsUDGMYQJkLJPQIdOnTQdtj9Vns4tx7DY9qCCIUEwp0ArvlWG/AghQSMPUaouRUH3DeafxthyIJxy1xmpedaht9wb9c6hBYiPC9QYhiOEFo3d+5cuemmmwLVtN4OFnIRqYC8Xu3bt9eNhTCaYQEG98fwbIuLi1Pq87777hO8rAT5H3GNDFUvX6sxs4wESCA7ARqysjNhCQn4TAD5bYzkxmblKG33wlYtW5qLdK8orEKtWrVKNyBNnTpVkKcGMf146IThCQYvKxk4cKBVsV7Wq1cvS0MWvMCQ28fsjWU0gpuiLl26CFy9zW7cxvG8+I78F/369bM8nwYPHKfkLAEYXJFQ2jDImHvHKrQ3QfgGHjbMdbGtNwyWuPn3RYxcIQg9qFevnh52AW8pq5Vfd+3Ccwk36XigcSdY/W/WrJke+oddRvEbgTlg9d9V0L9Rbn6ouvzyy7NURRvufl9Q0dD99ttvdY+xjz/+OJtHV5YG3XxBTjH8XmGHRCuZMOFzbZv6EtnCGo26CNdRfYAx2uC7GoGlS5fqOR5xDrwJjfreCDnjeMbZZDl39LTEjH1Xor+ZozzoF0+fkXhl7dBVDFTOJW8zhHfXpEmT9I15XK8n8Mw1X7+s2jI8wcz1UlNT9d91hEUi36NdwbUR7WG3QNwXIQQdRibkhfRXMKaXX35ZELKJ0D/kvTK8o3B/hd0Lb7zxRn1HXSz4wIjoLdG9v2OiPgmQgPMI0JDlvHPGEecCAcMI5C68BfH7zz//fLaRwUMKNyZWggdMuE/jhRsGXKyRzHLatGm6jlXIoeFlYdWeVZmRhNOdJ5fxQI6+7YQtWfURDmXIUzF8+HBBLjE7Eio7dN155516zgg7Y3Z6HeQow0qz6wMF8lQhAT/Kjb9T17nCiIW/HRhn8DILbqJ9MWThYWK1lkMKuVGQlwp/u9jEAX/r+HdkNx8Hwgk9GbGQKB5GLBidYMSCYI4wDLkmu0UoIby1kLsIOr54bplZ4DPCp9EPHlqwQxfmi/bd5Xhx1Te+QxcCQ5iVwICP3ErujvuTnN+qP5bZI4B/29gExO5GBVYbAtjribVCksASeG5n9d72ZZzPVEkMS0MWGHz66af6QkqjRo0ykSCUG2K+z4NHK6458DCCILzNrsADHInjcV0zC74jbxSuda7HzPUQEofroGtycowH3ke+GLKwaIR7HXj744WduxF6iPtgc6ikuX9vn7GI+8gjj+gLtqiLtA0w3LkKGGOh6auvvpKkpG5636iD3baxAIv7Z3DAy9P9GNrHfTV2l5w9e7ZrN/xOAiTgcAI0ZDn8BHL4OUMAD4e4iUHiR6sbASROx8ssuOGA15UdQWJJhOHgoQD5fnATglVxfwUu75BvvvlGT0iqf3H5H1b9sOqGmxO7D+EuTTj+K3Iy4EUJXQJr1661HFznzp31m13c5Bt/m9gVyZw8HTe+uAFHmETPnj0t27FTCGMYbqTx94qHDQj+frZu3So1a9YU5OTAtt+ebqzt9IPwY4wfbZsNzAgRHDduXJa/1aNHjwnCBXFDP2jQID38w04fVnXAGL9xD2l5j9Aewj0MAzt2p8Junb4KPLOsBEmJ4XHm7riVDsuCT6BJkya6cRbGS3jUeTIoavZOzXh70e9/78GfFXvwRiB1z2450KKxFBs5VhK6JHmr7vb4/qb1Je2f/5KFu63owAPuvEsxFdcdqRE+iJ09fRX8HlotWGJREt6/Rvgd2sW1xpzuAkYwJDtPTEzUdxN0XfTxZSxIqg7jnJEfFrow0CEFRv/+/fV+PPEw+oKhD6kzsGCLXFjINQbBQgfGimunq9ewoWu8X3ppA8HO2whzhmcYIhgMgXEKRip3gusW7mtxD+wquM66M27hfhA7D7tbBHZti99JgARyh0Bk7nTLXknAWQRglILMmDEjqANHrgAkYjZ2u/G3M3h3waMDN0Ewqlm9sBMMxCr/g7/9O0Uf+cJg7MAN5IQJE/RQTE9jh1s86ub2CzebeVkQ8oAV28+0cFzDiAUelbXcZuabeIRCwNCE8FtjRyNfueFc40Z6lxZGDEOZ2fsLhiTsbIibdNw0+5MoFkZleHfhoQS/B+YHJMPr88knn9SHj7mUKFFcf5jBv0nkMFEVGLKxCo55wfsNAmOWEd6Id2PHLl/6wHysXvjdueKKKyyPoT4ldwngNxHecvh3j5B3/FtwFe2Q/nvpWs7vJBCOBIzrveHhi+/GYqFxzHgfM2aM4DcZAuOwPwKjP3I64TfTbJDBfSKuc0Z4L64bS5Ys0a9P8BY2+ve1b2xEhGsPPDNbmlJjoC+0jxB25J6ye73BdRcevbjGYDEG/JDyAtcbeOWaX/AIhYHJXIbP8A7DtR58YWRHm0h878mIhXnjuoV7aqvfLywSde3a1fKFhSrk6KKQAAmENgEaskL7/HB0IUKgWrVq+kjefffdoI8IHiaBkFmzZunNrFy5Ur/w4+Jv9YIHBsIYkfuAIvoNHMKpFmvJpnEDZCXwzqPkLgEk2YWBCjec99xzT7bBwHBlFng8Yie/hg0byuOPP24+5PUzHiRgKMPfFML8XHOXoAHkvDIS48KLSUU+/PBDPVcdctpZCby00DZ+h/BAgLkgxx0Ma/4ItliH4QJiZehDyCI8ReGRhS3m/THU+TNO6uYOAYTmwDvDKpwIXoAUEshLBPC7a4R7m+eNBQbjGoBy/K5CsNChKjAqwXMJ1xx4yJrF2EUbHlKGYHHghx9+0L2JcL3AvYwvgrxVCHlHO2ajmbkNXEtxzwjvMIT/eRIspP7555+yYcMG3UAFj2IYxF5//XU9pBBhheYX2oJxylyGz+adHeFxBk9ReHnZkZdeesmyGjYiwTly94LRjEICJBDaBGjICu3zE9KjK5dQIqTHF+jBPfjgg3qT8P5QFVzA4fnjSbzdGHjSNR8zVtHt7Pp111136eEkeGCn/EsASfqR/wg3c66GCxgRKLlDADfmWJ3GSjhueN0Zl60SmmM1GWEJY8eO1T2PcIPs7UYfea8QWoybd+RR87RrE1apsRKO8fkiMDBDD78x8HryNCaswmNueGDCSjy8Ls3eYb70i7p4QMBDCUIpsEsgwles5PPPP5eOHTvqeVoqax5v3gQeahD85lm9sOqOUBWrYyiDYOXeCZKeBx548G8E/95wjTBfU+ChSCGBvEIA4WbI1QjvIFeDPvL+4d7AKDfu5dq0aeMzHvz2TZnypW5UiomJERi08G4Wd6kgkJoCY8T9S5EiRfTrJELsvAk8vBFKB8OZpzByeIbBOIXxoH1vAsOTcV1J0byycG2w8tI1PHFxbbA6jjDELVu2eOsu87iR7kOFf2Yj/EACJBDSBGjICunTE9qDKxpbMLQHGODRIYwJ7sm4UcFuY54ELt1Wng3QQa4eTwKvD39368LDBVaZ4EVhRwxjAPIfOEnSMtQfdGOj8tmaKtzrEeaF828WY3c3cxk/B48AjDvYxQg3zgiVxYosVkxh9IDnnPmFUeBG21yGz6iLm9tly5bpujDgorynh7xZuFnHajKMLtgS3JtgJ0NPeYXM+shxAiMZ8qLgJh2efnZy4yH8AoIcRsbDkrldO5/Pnz+vJyGGJxkEDzHefpvw8AZDG0IyvHmBIaGvEWZj9Q7jMDzkrI6hDB5AxtjszCc36+xLVs+vVzCfs/Z4g0EL1zbzg67ZIyQ3zwP7zn0CkcXVFzgvrPgl9yfgZQT4/cNGHVhIcA1XM3auNsLc7VwvrLrDRiLIt3jHHUn6byCuEzAeoV/zNQ0hdxBzmXGdg7EZixPw2kIIILzC4OnrKdwQ10PkmrRzTamsLWbgHsjVuGY1H3PZEW0u4IPwRKsX6mKHYqtjWOzxZcdEeH1BwAJhjeEq6W42lLIz3+jyFexUYx0SCFkC0SE7Mg6MBEKMAIxLeJhFaA/CcOCZBUOR2RsCD2C4aWjXrp0+evPNPgrgCg1PKewIBtd0w/MAx3CDgTAhiOvOanqhD/977bXX9NpGTh1vqkhOjYdGJNR0StJ3LUOVHD3vm9u8mUNCdH7zV6+fjZ17ateurXvnwHvF1bjltZEcqFA4JkFOpqh51q07sk0alvjXsJEDQ/WpiwYNGujGE4Q9ICk53vH3Aw8pJF83C27IYRwy/g6MY1ilxgMCQkOw4g3DDQw4+Fv2JtixKZCChxWEOOI3A397S5f+IqVLl/LYBQwIMHbh3x08qfAgU7p0aUFIInKOeBPsGAUPM/yNwxiP3Q/hPYbfLPNOXJ7agREQRixzMn3X+vASw4o6HjzcCX7vsDOeuzwrMMTD+8EJRpK9Zw67m6bX8goFPJ9zrw3kUgWEHuHfbtu2bXWvSCNPTy4Nh92GCIH4dh3l5MY/lEaTPHO6xDZrrqSbE0owjMA4hIUNK4GhCTtBwxiE31j8tmFzEF8EIfPwNsZ9JcJ2sVgBeUHbUbmOdu9hFhj7EVr/zjvvmIt1j178RsP4hRxRa9as0fNdYddCbxuR4P7GrsBzy1dBcnpce3HtxnUchnFzGgCU9+vXT0aMGJHZNK7nuO7BaGbHyAZFw+CFxZdOnTrp9wMwNLp612d24uAPF5b9rDz6fHXqKetSkQRCgQANWaFwFvLoGA6dOy6l4qxzEIUqEqzG4WKICy+8OOCdhQszQn3g4YCLLNzKcbHEQxgeMs2C5JQwFiGxOnTwMIibHzy07d69W7/5eeGFF8SdK7TZ8GVu1/iM/Aa4CTLyNBgrdsZxT+9IbAkjG0KIECIV6rI/+ahcTE9TGmZifHGJsemR5doB3OLHjx+vhYE9EJKGrKcbdpOBKz9xHbat76N+nyaft866+6YtxRyoBC8s3JRiO23DeOzOkwo3vvDcuvPOO7OMzPwdf0sI84VB0pO4/g17quvLsUcffVT/nYDBDcYAT4LflubNm+sPJEaCf6yww/OyYsWK+u8QPM2woxPqWQk2rFi4cGHmIegj5AM6do1YhrInIxbqwGPMzuYReODzlqzXCYYsg4uv7/mjYiQ6MspXtZCqP2/ePJk5c6Zu3EfOGUreJlDw/t5y8s0hShCSp06SYm96Tr2g1HAAlJBrFAuDWFAxwuSsmsXO07inMxZRXI1MVjrmMtzDwdgEA5V5gWbI4MHmavpneGqhnvm6lq2SVoDfd/Put1Z1YKRDyH2wxRwOiQVf5GhFyL+76xbC2ZHeAUYsGLOwEOVN4N2MxR78HkEfoftYfC5atIg888yzMmzYMG9NOOr4xS2blMcb2/hyZV0qkkAoEKAhKxTOgoPH8FSDLjJ6/XSlGYxY96W8eWVvJd3cVMLuKfBqWLBggX5hxUUTWwzDFRoXTSTErewhhwxWrvFw9qK2wgYPC+QcwUUWF3UYoaxyDmDnGDsXX3iNwCiGPAcwuvkiMLLBy8Pbip0vbQaz7pRtC5SbvyrRtxxGrh0huTg8WXDusOoZStLjkuuVDVnLDv4ZSlPJMhas3MJAFWgxjGLu2jV2CHR33Fs5Hn5giLISd4Y4oy5W3GEsh2EaDwBIWgtDniEVKlTQDefYBh3GVcNrzDBoox5yo8DjC6vgAwYMyHzAWrRokf4QhN8JtN2nTx991R4GLjxAuSacxwMHBLlaYLCHR9dmLV/J49o2867GPvzGefPQwQ5b8FbAQ4yTZcR6ewmHrebYIrG+VbHjygK1QYnjJs4BZyMQoS3QKYuWKiDj3FmJiAu9cNvyWggWvPFdQ7/h1WoWGLEOHTqsG73gNezrfRjawmJmTgs8m31d0DCPEdc5pGDwReC1m5SUpF+3kArACMk02kCaDRixsFu43d8YnB/cL+M+2sjTiAUbeNLBWAYDo2FkxHULC7c4TzCQGQvFKMd1DgLPYSTZx32CuwVmY7y58Z66a4d6t9H5kMRSXZ+aJBACBCI013BuyxACJ8KpQ9ibfFgaTfs3Cbqvc4iKiJT990wXLRWwr6qsTwJS+rPOWnCh2s/X1ju/EITghavU/bKXHD53Qml6C9qPlPrFqyrp5pQSPIKQC8TYTdS1X3iIFC5cWOCFZCUwPuNGdd269ZpXUhmrKvqDCG54/b1E4uYYq/S+GOG+1m7eO2lGcUOwlTsMTa45WYzjeD9x4oR+Aw+DE15mAx3CRRBqYWxYYdZDQmCEwyxevNhcbPuzmQ+8OuGJZccYjrBCzMfVYObaMdpHmI6vD0mu7QTre+L4LpKWoeYZur+HFurjcI+sYHFluzlLIHXPbjnQorEUGzlWErok+dX5kYfvk3Nzv1Vqo9BTz0rhJ59R0s1JJfyu44XfJxjlsegAwaImFrfgmY9FRRi2XAV6MHAhTNuTwMv2My3s3d0uuOgLKSrcGXmw4ArvWITWGXlQXfvD7zAWLnCtw0KHqmBOEPP1wNxWr1699JQZVjm1cC02FkNw7QI/MDWMScYxc3uY2zPPPJNlzLhGvvfee3o1GK6KFy9uVtHHBqMUvKHt7nhoNACPcF/CLg29YL8fbNNCLm7drNRN8bEfSPytnX3WPfX2aDk5fJiUXbFeohL/3e3Y50aokGcI4LcBBuvJkycHZc70yAoK1rzTaPmEkpKYUFwOaGFevgoSdU/cMl+6X+I5rMbXdlk//Am8/cdXykasEvkLh7URC2f/+UZ3yVO/ZM2bYfdfxR3zB8sf3T61Wz1X6sGDCBdHd5suGKvg7o4j9Bc38Bnab5A7wQpt165d3R22VQ4DzDbNaFbUJYeXN+U2mgEOhijkvUIuLXM4hjtdrEAjB5iVGCvTVsfwEAPvLAjCoZFPBWEorqEo8Dg1HsoQFo3vMBaaBSHX8EiFkTGQYmfHrUD2Z7etSVvnKxuxKhUsTSOWXdCs5ygCRZ4bqGzIOjX6TUcYspC7CsYNeMFiYwtDYJyHxzZCxo3fS+OY+X358uXmr24/Izeru+sYlHCt83QcxhxPCyDwOMJ1Diky/BFc5zwJjFHXaDsGexqLJ33XYxi363UGnlVgjuugqxEL+rhnQF6vKVOm6C+jze3adW+/5mGMHJKISoDAg9lI3o/voWjESt2rpSNRNGKJ5o0Vd/OtmBqFBBxNgB5Zjj59oTH4Uylnpfok9ZCf3Xd/KcgVQiEBOwTOp6VIxQnd7FS1rPPrbe9KlYKJlsfCqbDUZ52UpzOmxWOSVL21sj4V/SeAG2mzV5X/LbKFQBPw52/s25uGSrPSdQI9JLZHAkoEAumRhQHsa1hL0o/7vsAJ3ZhLG0rpWfPwMSzF8FoyvJjCcpK5NCmwzStc99apKhnJvoVzGqel4AN9pMiLrxpffXqnR5ZPuPJ8Zfw9BtMjKzLPEyYAvwkUiomXdpWaKbfT+tu+yrpUzHsELp+hnlcNOWnyghEL/yoW3aqeNPeJX96Wf7TNGCi5R4BGrNxjb6fnZjP/88KwU99cp37xKjRimYHwc9gRKLduk/KcUn5fJ+e+n62sH+qKeLDLK8aWnD4XeYXrsf59lY1YETGxykasnD6f7I8EvBGgIcsbIR63ReCTa/sre1VtO7lPrvn2KVv9sFLeJtDuu+fln7NqBpaoiCiZecOgPAOwbrHK0r6ybwn/DThY1az/5b2SknbRKOI7CZDA/xNoN/c52XFqvxIP5MSa336Uki6VSMBJBIq/85HycI881Esu/mEdKq3cKBVJIAwInJ0xVZKnTFCbiWZETfzlNzVdapFACBKgISsET4pTh/T77R8rD33jsV1y/ezQT/CpPEEq+k0AD48r//lLqR08PK7p+oGSrpOVPr7mWalVtKLyFGpO7iEHzx5T1qciCYQTgXQtp9otcwfIykPq3ibLOr3N7U3C6R8F5+KWQHy7DlLoUfVFyoPt2mieWXPcts8DJJDXCJx4fbAc7avuDVz8f+9LVKnSeQ0b5xvGBGjICuOTm9NTKxJbQFZ0fle523VHtknZz7vI7jOHlNugYvgROKSFuJX/vKvywyM8sbBLYWJ81h1swo+U9YyWdPifVCuktrNMcup5uXTqfTJRS2pNIYG8TODI+ZNSZvxtsuqQ2g5R2KV3TdcPpXLBMnkZI+eexwgUfuZ5ibupndqsNc/gIw/1lMMP9BBtG0C1NqhFAmFAIENLRH+g1RVy+r0xirPREt2//4nEd+isqE81EghNAjRkheZ5ceyoqhZKlG2a0aCgljdLRVLT06TJ9Iek27xBcubiOZUmqBNGBO5aMETqIcQtPVVpVvkio2Vt13GSEJ19C2ylBh2qtLzzO9K2QmPl0WMHxIbT7pffj/67o49yQ1QkAYcRuKCF1969YJjUmdLTr5H/ett7Uj6hhF9tUJkEnEigxPufSpEX1BJLY77nf/xO9tarJmcmKYZTOREax0wC/0/g5IjXZG/9apK6a4cyk5ITp2kG5fbK+lQkgVAlQENWqJ4ZB4+rUEyCbL9zolxeqqbyLBbtWytVJ94pLb9+QtZqnlrnUlOU26KicwjgoXHD0R1yrZYzDTuCzdujHst/ZZm6sq/HNCkTX8w5AII40onXvSgvNekhkVqOBBXZn3xU2sx6Wkp/1lmmbFsoxy6o7Zaj0jd1SCAnCeB36E8t3P2mOc9KhQm3yw97Vil337hkDTl4zwypWKCUchtUJAGnEyj4YB8pPXu+RMSpLXJmnE2W48/1lT2VSsqpMSMFuyxSSCBcCaTu2C7Hnujz77/3sVpOxVS1xdyokqWk3IZtkr9Fq3BFxXnlcQIRWlLfjDzOgNMPIgGEC3b4/oWAGKLKJhSXknFFpFaRilIwn9rNUBCnyqYVCZxKSZZtp/bJvuQjyonczV3HR8fKnJtfFyQ7p2QncFLjnaR5PP52eEv2gz6WwPOyQoGSUip/EaleuLyP2qxOAqFD4PTFs7LlxF45cPZoQPLCxUXHyIzrB0kTPxZ0QocORxLuBGAYOtCisRQbOVYSuiQFbboZ2gP5Kc3D5JRyiNR/Q8Pua1HlK0hUiZKSr279/w7wEwk4jcDFFEnZtFHSDx/610ibnu7nDCKk2Ij/SULXO/xsJ7v6qbdHy8nhw6TsivUSlaiWtiJ7qywJVwLYSTQpKUkmT54clCnSkBUUrGzUlcDSAxtkwK/j9AcF12P8TgKBIFCjcDkZ1PReua5co0A0F/ZtHD1/Sh74aYSsOLhRUjOYfySUT3jG+VTJSE2XyAIxoTwLyTQOAABAAElEQVRMjk0jUEMz6A7Wfodal7uMPEjAMQRyypCVCUTLeXV80IuSPONLyThN795MLvxAAn4QiCpTVgre+4AUfOhRP1rxrOqPIStN+7uPiory3AGPhhWBYBuyosOKFicTsgRaJNaXpR3HCrxvVmueIIN/+1wP3QjZAXNgjiBQs0gF/aGxUYkagpBWin0CxfMXkpk3DBLkpdt1+qC88+fXMnELk7rbJ5hzNU+PXycXVuyVkp92zLlO2ZNtAnWKVpJnL0uSqxMvpbewbWqsmKcJaA+zRV99TYq+MkzSDh6QMxM+lVPvvJWnkXDyJKBCILJIUSk8YKDEtblRokqWVGkiR3TWr18vmzdvlttvvz1H+mMneYMADVl54zyHzCxhbMBKtdVq9c7TB/SH6pAZLAcSUgQitE3rq2teV5TAEoiOjNK5jr7qEcHLLMcunBJ4blFyl0C/uY/JLM2Q9Uunsbk7EPauE4DXFYUESCAABLSwE4QnFX72Bf1lbjEj9aKk/b3LXMTPJJDnCURXq+E4Bv3795fhw4dLSgrzHTvu5IX4gGnICvETlJeGV6VgYl6aLudKAiFPoFhsIcGLkrsEjJyANKDk7nlg7yRAAjlHICI6nzjxoT3nCLEnEghtAkePHpUqVarIaS18ODExUaKjaXYI7TPmvNFx10LnnTOOmARIgARIgARIgARIgARIgARIgARCisDZs2elV69eUqJECd2IhcH98ssvITVGDiY8CNA0Gh7nkbMgARIgARIgARIgARIgARIgARIggVwh8N5770mfPn2y9Q3PLAoJBJoAPbICTZTtkQAJkAAJkAAJkAAJkAAJkAAJkECYE0hPT5cRI0ZIbGyMpRGrR48eYU6A08stAvTIyi3y7JcESIAESIAESIAESIAESIAESIAEHEbg/PnzMmjQIHnttdc8jvzRRx+Vc+fOeazDgySgQoCGLBVq1CEBEiABEiABEiABEiABEiABEiCBPERg28U0uaNde/llzRpbs27atKmteqxEAr4SoCHLV2KsTwIkQAIkQAIkQAIkQAIkQAIkQAJ5jED1fFHyw4xpclOPnrJ8+XJJTU31SOCOO+6QqKgoj3V4MDwJfPHFF0GdGA1ZQcXLxkmABEiABEiABEiABEiABEiABEggPAjkj80vS5YskQsXLsjnn38uDz/8sKSlpVlOrlWrVvLQQw9ZHmNheBMItiGLyd7D+98PZ0cCJEACJEACJEACJEACJEACJEACASUQGxsrDzzwgO6VNXToUImLi8vW/ltvvZWtjAUkEAgCNGQFgiLbIAESIAESIAESIAESIAESIAESIIE8SOD555+X06dPyxtvvJFl9ps2bcrynV9IIFAEaMgKFEm2QwIkQAIkQAIkQAIkQAIkQAIkQAJ5kAByYT377LOSkZEhzZs3zyQAIxeFBAJNgIasQBNleyRAAiRAAiRAAiRAAiRAAiRAAiSQRwksXbpU1q1bp89+5MiReZQCpx1MAkz2Hky6bJsESIAESIAESIAESIAESMAjgYyLKZK6bZukHtgn6UcOe6zLgySQpwlER0tU6UTJV7WaRCWWDWkUDRo0kOTkZGnSpIls2LBB6tevH9Lj5eCcRYCGLGedL46WBEiABEiABEiABEiABBxPIP3kCTnS535J+W2VZJw76/j5cAIkkOMEoqIlskABKfrSEInv0i3Hu7fTYXx8vGzcuFFWr15tpzrrkIBtAgwttI2KFUmABEiABEiABEiABEiABPwhcGbCp7L3kgqy79IacmHpTzRi+QOTunmbQFqqwCB8tN+jsqdSSTly392SdmB/SDKBVxaFBAJJgB5ZgaTJtkiABEiABEiABEiABEiABLIRuLj5Lzl4fcts5SoF+WrXk8L9+ktc2xtV1KlDAiFFIHXnDoGB9/Sn40TS05XHdm7+94JX/quulpKTZyq3Q0UScAIBemQ54SxxjCRAAiRAAiRAAiRAAiTgRAJpaXL47tv9M2JFRkmBex+SssvXSYW/D0uZ7xfRiOXEfwscsyWB6CpVpchLg6XCzn+kwo6DUvydjySqXAXLunYKzy/7WfZUKysXVv9qpzrrkIAjCdCQ5cjTxkGTAAmQAAmQAAmQAAmQQGgTyLhwQfZULSPnlyxSG2hEhMTf2ll7wD8oRV8eIlFly6m1Qy0ScAqBqCiJb9dByi5bI+XWb5GI/HFqI0+9KIduayenxo5W06cWCYQ4ARqyQvwEcXgkQAIkQAIkQAIkQAIk4DQC2IlwX+M6ysOOiImVxMUrpPjYD5TboCIJOJlAZJGiUn7zbinQ417laZwcMUxOjn5TWZ+KJBCqBGjICtUzw3GRAAmQAAmQAAmQAAmQgAMJwBNrb/VyknH6lNLooytUlHJ/7ZLoylWV9KlEAuFEoOjgN6T42x8qT+nUW8Pl9HtjlfWpSAKhSICGrFA8KxwTCZAACZAACZAACZAACTiUwD+dblIeeb4aNSVx6W8SEZ0ze1K9+eabMmjQIPntt988jvngwYPSqlUrGTBggMd6uXlw69attrs/fPiwTJgwQXzRMTf+xRdfyPz5881F2T6PHj1aTp48ma3c14JDhw65VcFueLfeeqtgPoGS8ePHB6qpgLUT376jlPh0knJ7J94YLKm7dirrU5EEQo0ADVmhdkY4HhIgARIgARIgARIgARJwKIHk6VPk4p8b1EYfnU9Kf79YTVdRa+/evfLyyy9LmTJlPLYQpeUuWrJkiZw7d85jPfNBX+qa9aw+p6SkWBVnKYOhLULLKzZy5Mgs5VZfkpOTpUePHtK8eXNJTU21quKx7MCBA9K2bVuPdTCOYsWKyYcfqnsTHTt2TEqXLi2VKlWSNG3jAFeBAXLx4sVSsmRJ/dDu3buV5mO0e/78eenZs6fO8ddfsyZLB9uEhARtY0H1nQWNflTe41q3lUIPP66iKpKRIQdaNVXTpRYJhCABGrJC8KRwSCRAAiRAAiRAAiRAAiTgNAIZFy/KsacVH7S1ySLBdU55YhlsL7vsMv1j0aJFjSLL9/j4eL3cqG9ZyaWwd+/eEhMTI4ULF/brFRkZKR984D1XGIxLlStXlkcffdRlJNm/FipUSC8cNWqURAfB++3o0aOyb98+uf766+WBBx7IPgCbJTfccINec/Xq1QJjopUkJSVlFteoUUOKFCkix48fzyzz5cOYMWP06n379pUrrrgiiyo43XbbbYLzkVtSeMBAiSqTqNz9idcHK+tSkQRCiUDO+OyG0ow5FhIgARIgARIgARIgARIggYATOP3he7rnh0rD+Vu0kqjSnr2iVNp11ZkzZ45c1AxuMFzBMGKE1i1fvlxiY2Ndq2d+h6cOBPWXLl2qewfBWFKvXj2pXr16Zj3zhypVquh9IYRPVU6cOCEwiHkztPXq1UvvYs2aNR7n4ToOw0DnWu7v97lz5+pN2DHAeeoL86latWqmx5VVXRgLDfnkk0+ke/fuuocdwg0Ng51x3Nt7//799X8XVl5t+Pfi7Tx4az8Qx0vNmCMHmjdSaur0uHelyLMviGaNU9KnEgmECgEaskLlTHAcJEACJEACJEACJEACJOBgAidHvKY8+qLDhivr+qL4zbffyofjxmVTadOmTbYyq4Jhw4YJXobMnj3brSGrXLlyerVu3boZ1bO8//TTT9KpUyc9XG3Pnj1Zjhlf4GUFQxbC69wJQu4mTZokV199dUgYWjDO++67T59XxYoV3Q3ba/msWbP0ML7XX3/da12jwl133SUNGjSQ+vXr68Yv5NeCR5wdGTFihF7N8Mqyo5MbdaLLV9A3QkjdtcP37tNSJWXNaolpwjBD3+FRI5QI0JAVSmeDYyEBEiABEiABEiABEiABBxLIOHtWRHtIVhIt91B0pSpKqr4qjdNC9PAy5NNPP5V7771XkDPKk3cSjhcoUEBQv2fPnoa6X+/oD15dr776ql/tjNMMc8ihBW8zQ1q0aCEbNmyQH3/8UV555RU5cuSIlC1b1jise4rhC4xErsnN4cm0bds28ZRkPbMhiw/wboPXW4cOHeSZZ56xqPFv0ZYtW6R27dr6GKwq9evXTy/u2rWr1WG3ZfCSmz59unTt2kUWLlyoGwvdVv7/AxlaDqmBAwdKXFyc9OnTx1v1bMd37twpH3/8sQwZMiTbsWAUFH19pBxO6qTU9OF775Jyv9vfGECpEyqRQJAJ0JAVZMBsngRIgARIgARIgARIgATCncDJ0W8qT7FAj/uUdQOlaDe0MFD9oR0YxyCXXHKJ/q76v0ceeURP3F6wYEG9CRi1li1bpuX3zpA6deroxjKETSJvlSFGgvfTp0/rebyMcrwjB5TrLoAYKxKduxMYrvLly6cf7tixo/4OY5I3gdHJSjAuI+zT6ri3MuSy2rXrb7HrEQYvO4SPfvXVV96atjyOfFpghlxe33//vWWdQBbmv7KFcnPpJ08o61KRBEKFAA1ZoXImOA4SIAESIAESIAESIAEScCiBs19NUx554X4DlHUDpWg3tDBQ/aEdGH8gJUqU0N9V/vfwww/rhqj3338/U33QoEG6EWvatGkC49aKFSsyjxkfsBtg8eLFZejQodK5c2ej2O07wiRPnjyZ7Th28jMEhjOE58GTa9OmTVKzZk3jkOU7dN0lTocBzpC///5bfvnlF7dGKYRfIm+ZlWAXw3/++UcuXLggd955p1UV2b//gLz44ov6MU8hnJbKWuE999yjG7FuvPHGLF5x7uqHQnn6qZMSWcheyGUojJdjIAFXAjRkuRLhdxIgARIgARIgARIgARIgAZ8IpP9/MnSflP6/cqTNHEYqbdvVsRtaaLc913rz58/X8jZdquVt+s9oBQMNBMaT9PT0LCqrVq3SPZKuu+66LOXmL0giDwMWQuHgUYbwwY0bN+rGKRiJunTpYq7u12cknTcLDFAwXOFlCOaDUMJLL70004iF42Zjl1HX0/uSJUtk7969mVV27NghyH3lTmbOnCl4eRLkzHJnyGrRorknVY/HEJb5+eefCxL7f/fddx7rBvpgdPWakrpts1KzKevXSv6rr1HSpRIJhAIBGrJC4SxwDCRAAiRAAiRAAiRAAiTgZAIuhhinTeWjjz7KDI2zGjvC9fwRJHU/c+aMZRMVKlSwLG/atKl4MmS1bNlS13v33XcFLxjEjHBFeCkFS5CE3WzAQj8Iy6tVq5a+49+8efP0rrHz39NPP63vIujLzo3wbIKUL19eN2ghib1rf3oF7X8wkiG08u233zaKLN/PIoebhQwYMECQ3+qhhx4SX3dYhJcY8qWVKVNGzylm0XxQi2K0kFRVQ1ZQB8bGSSAHCNCQlQOQ2QUJkAAJkAAJeCKAbcqxqo6VXbtbe587d04mTpwon332mduQCk998hgJkAAJkMB/BJ5//vn/vgThE3I+uUqpUqV045Y7IwvqezJIVapUKYuBB15d2KHvhhtuyLLLIQxo6MPIYYV2jTBBHEPCeUOQOwuJ3q+88kqjKNt73759M8tgSELYXv78+QXXJXglYV4QGAfhuYUE+e4Eyd7NglxTaAdJ6KEPiY72/siKcWP+MTEx5uYyP1sl8seOk2+88YYUKlRIN4T5Ysjavn27IKE+wjM9naPMAfADCZBAQAlEBrQ1NkYCJEACJEACJOAzgZtvvllPyFusWDHdkPXUU0/pq9tWDX3xxRdy2WWX6btrPf7447JgwQKraiwjARIgARLwgQDyOsGo4+6FPEuBFiQHh9HGyM/kb/ujRo3Sxz9jxowsTcHQAm8tXGOMV9WqVfU6yO9klOEdRihPO+/B8wqGLlx/DMECDOYBuemmm/R3GLe2bt0it99+uy1DFJQ+/PBDWblypT4eeHLZFXhE/fDDD4KE9q1bt7al9vPPP0v79u31uuvWrbOlY1Rau3atHjoJwyAMWhQSIIGcJ0BDVs4zZ48kQAIkQAIkkI0AVp+xuxLykLz11lv6FuDYIerPP//U6zZr1kwPobj77rvFuOnGgxdu3CkkQAIkQALeCSCHlCfvJ+8tZK8BAw4Sp/sqSUlJugpyPyHhOr67C5+z0zYMTMhPhcUO190Fa9SoobeN9u285syZ47ZLXIuQnB5hfxC0B68rJJUHX0MWL14saWnpMnnyZL1oy5YtxiG377/++qve1tdff62HKLqt6HIAnlFIRg/xFmKIOvv379e91vB50qRJen4rfLYjyF3WqFEjfb4IN4UHHIUESCDnCdCQlfPM2SMJkAAJkAAJWBLADbJZ8MC1fv16vQg3+GZ57rnnpECBAuYifiYBEiABEvBAoGTJkrqRB+Fwxuvee+/VNWD8Mcqs3o3f2169emWph5A1hJf5ItitcOrUqdKhQwfd8ASPrC+//FJuvfVWX5rJUheeugg1dJfQPEtlxS9YWME1ybxDIppCkve0tDQ915TR9G233SbwNoZgrtjB8I8//jAOW74jlBALNMiJZUfWrFmjV6tWrXpm9fw2FnfKli0rp06d0sMX77jjjkxdOx+QVB//Vg4ePGinOuuQAAkEiYD3gOMgdcxmSYAESIAESIAEshJASMfAgQNl8ODBWQ+4fEO+kGHDhrmU8isJkAAJkIAnAsjVhN3lkBPJLAjJgycTcg5ixz0rQcgaPGaXLVum54My6iA3k+E5a5R5e+/Ro4fuyQQDDwS/+TBuIV8TEp0jzxSMaXYF141NmzbJX3/9JXv27BGEQWKXxLFjx+reR2gHoX52PHiRZwoeVlZy+eWX623ASDV8+PDMKghJREim4QmGkHd4qhm5sRBe+PDDD2u7NtbX552paPHBF6Pgm2++qXPCTpBHj/7nDWbRbLYiXEf79++frdyqAPnNYFwDQyS0B2cKCZBA7hKgISt3+bN3EiABEiABEshC4OWXX9YfPly3OjdXMrZsN5fxMwmQAAmQgGcC2GHOVeBhAyMWdr5DvihDsLCAELqNGzfqRciFBCMLQgB37NiRJfQNBh67MmXKFMEL/ZoTkyO8HAYoGNMwFuxCaEcQTjhixAi9qmvidLN+kyZNdI8oVyOeuQ4MNXhZhTjCkAfj1O+//25WyfxsGLFQAEYwdhlJ31EG4xwSuSN/F44ZgtxdqvLTTz8J5oxE88ESnIcnnnhCYLCEXH/99cHqiu2SAAn4QICGLB9gsSoJkAAJkAAJBJtAVFSUfKo9yHTq2NGyKzyMICyCQgIkQAIk4B+BFStWyFVXXSUwRLnmVkIiduReMgReR8hP2LBhQz0/EoxZSDLui4wZM0Y3isBghlxTrgIPJoTfvffee1K3bl3doOVax/U7vLkQloj61113nbRt21YaNGjgWk0fMwrHjRuX7ZhRMHPmTD0M0PhuvMO7a+nSpbpXEryqPMnIkSM1z7Xjme0gBA/J5sEThjt4ZsGQhYTx/gj4o+1nn33Wn2YsdeGBhdxejz32mCAPFgyaa9aslRo1/gthtFRkIQmQQI4RoCErx1CzIxIgARIgARKwR6CjljcFq9vJycnZFJAEl0ICJEACJOAfgZdeekkP6UNeKRi0rMTVWwgGoq1bt+rhZUh23rt372wGMKt2kFwchiZ42iLxOryu3Ak8tZBAHAng+/Tp465aZjm8kXbv3p353duHbt26ua2CuRnhjuZKbdq0ERh33IUcGnVfffVVeeWVVwS7+SF3mLGTIY5jZ0N4an3++ed6GCRC+/wRI/8WvKUCLUhcDw4wYuEcIETT29wDPQa2RwIk4JmAf78gntvmURIgARIgARIgAUUC2BocOyOZpVq1apk7M5nL+ZkESIAEcptARFSkZOT2IGz0D+8i5Gw6fvy43HLLLbrBpaPmAYtk5K4CoxJC9wxBgnDkoEJ4HZLEv/POO/oL3lXYgMNdsnZ40cIrqX379vLjjz8azVm+w8CDkDl4PvmSJ8uysQAW2smvhdD4QYMGybXXXquHaXbu3Dlb2N+3334rCPFEOCfEHH5od7jYGGXz5s26d1uwDEw4TzjXMHT6IhibL6GmvrTtWjfFxk6QrjrG94i4eOMj30nAkQRoyHLkaeOgSYAESIAEwp0AdqCqWLFilpX21atXh/u0OT8SIAGHEojIrz0Ya4YeFUk/fUoiC2ZNwK7SjiedadOmSffu3XUvG9QbP368IOk6krtv2LBBZs2alU0dO/QZO8eaDyI5PLy4sJssjFj4DKOYJ4Hn1Lx58zxVyTyGEHJ/5YcffpCuXbvqu/P525Yv+vBiQoi8O0E4IIxiS5YscVfFYzlyVbVq1UrvA8ne7Qo8wXC+7QoMZL4asbDTcNOmTXXjHPKdBVtSt21R7iKmbj1lXSqSQCgQoCErFM4Cx0ACJEACJEACFgSQJ8V4OIJhq0iRIha1WEQCJEACuU8gIekuOTVmpNJATgx+SYq9+ZaSrl0lGHXg4YQcTt9//70evgddd8nLURehg/gddidIXo7E6EgE78l489prr7lrwms5QvrsyLFjxwTGOuTZgoENgrxeOS2eOGAshmcXdn+E+LJLIerjWoiQRXh0mZPl45gn6du3r9x333367pCe6vlzDHnAIFbeff60615X3QeSHlnuqfKIMwjQkOWM88RRkgAJkAAJ5EECRg4QTB1JgikkQAIkEKoECvcboGzISp46KeiGLHDr0qWL/go0Q4R9e5IXX3zR02HlY8jdhLYR8mgIPImGDx8uTz/9tFGU5f2aa67J8t38JVg74sLYZw6TvHjxoh6KGRcX59PmJbVq1dJDCrGD4l133WUeeubnIlouLldBGOnRo0cDYmDylKQeifchvnh+uY7V7vcLy5farZqtXmTBwtnKWEACTiNAQ5bTzhjHSwIkQAIkkKcIwHugX79+WXbPylMAOFkSIAHHEIjIHycZ58/5Pl7N0JG6Y7tEV/VsEPK9YWsNhKfNmTNHD98uVMh9SCMMRPC2shLkT8Lr7rvvtjqsl+3du1d/T0tLc1vH2wHk1kKOLezS5yrIufX4448LDEJIXo/cU952UjQ8olzbwnd/E7BbtYkyJJg3EurDc8zYyGTKlCnuVLKU79u3T98t8siRI/r84FHnKobHMlghv2SFChX084NE+NCHzJgxw1Ut2/fz589nKzMKKleuLHPnztXzfsGohoT2kEOHDsnOnTslPT1dz2N5//33GypBez/2jHqS+5ITpwVtXGyYBHKKAA1ZOUWa/ZAACZAACZCAAoFevXrpOxgqqFKFBEiABHKUQOG+z8qJYa8q9Xns+ael1JSvlHR9VYJHEBK8e5NJkyYJXp7EkyELRjBfwt+s+jmvhdF16tRJN1a5HodhBfm96tXznu8IXlEQ5M5yJ9hxEDsP2hFfjHMff/yxwGAIryzkCkPo3aJFiyQxMdFjV8aYy5UrJ9glEiGFMOxZCVjAE+qbb77Rw0URMor+wB/5JpG4H0Yub7J27Vo9Wb1VvU2bNunJ/ydMmJAlfyXqIkQS4YsDBgywUg1oWerO7ZK6x/5OlVk61/KXxdRvkKWIX0jAiQQitB8I9eBaJ86YYyYBEiABEiABhxHApdocluGw4XO4JEACIUwAD8QHWjSWYiPHSkKXJL9GmqEZiPbWKCda4iildsr88JPkq1VHSdcXJXjOwIvGm/eStzaRuNzfNrz1EajjSG4Pueeee9w2CWMPvNBuuOEGt3WMA8j7tXLlSvnqK3vGR4T3FbUI+zPas3o3rnvG4yrOW7B2KYRhDmGayHtmx8hpNd6cKtvXqLakHz2i1F3hp/pLoSetw069NXjq7dFycvgwKbtivUQlejcKemuPx8ObAP5+k5KSZPLkyUGZKD2ygoKVjZIACZCA8wicSDkjx8+flq0n98nRCydl7ZFtzpsER0wCQSZQNLaAVC5YRpqUrCmFYhKkeGwhiY6MCnKvbJ4EnEEgIl8+KfbWu3LsiYeVBnzwluuk/J87JULz2gmmwBgSCANUINoI5jzNbXsyYBn1rrzySuOj1/fnnnvOax1zBV+NWNA1DFhGO8EyYqF9JKn3Jym/McZgvx8f9KKyEQt/V6pGrGDPi+2TgK8EaMjylRjrkwAJkEAYEVh56C8ZumairD+yXc6mus8LEUZT5lRIIKAEIrUVx+qFy0unKi2kX4PbA9o2GyMBJxJI6NhFzoz/WFLWrPZ9+FruqgPXNpOyy9f5rksNEghzAskzvpQzH3+gPMsyC5cr61KRBEKNQGSoDYjjIQESIAESCC6BtIw0+WDjLCn1WSdpN/d5WX7wTxqxgoucrYcxgXQthGrLiT3yxtrJ//839ZzsPvNPGM+YUyMB7wRKf/WdRMT9mwjbe+2sNdL275N9l9VSSxqftSl+I4GwIYCdPY/1fVR5PkUGDpbocuWV9alIAqFGgB5ZoXZGOB4SIAESCCKBSVsXyDPL35OL6eo7KGF4kRGR0rPmDXJ79WulaEwByR8dE8RRs2kSCC6BtIx0OZ1yVn4+sEE+3jRXdp6yTiZsZxQrD22SJtN7y1Vl6srXNw6xo8I6JBCWBMqt2yx761YVSb3o8/zSjx3VjFm1JXHhMubi8ZkeFcKNwOG7u8r5JYuVp1X4qWel4P29lfWpSAKhSICGrFA8KxwTCZAACQSYAMIGr/u2n2w/tV+55TjNWJVUvbUMbXo/cwIpU6RiyBJIEKldtJI8WKedPsSF+9bIgBUfyq7TB5WGvEzzdEwcf5vMvHGQXFm6rlIbVCIBJxNAPp7yf+3SEsk3kbR/fDcOZ5xNlv3NGkhCt7ukyEuDJbJAQSfj4NhJwGcCF1Ysk8P3JPnlnVj4+Zel0EPqnlw+D5oKJJBDBBhamEOg2Q0JkAAJ5BaBs6kXpNbke/wyYg1pep9sv3OSvNHsIRqxcutEst8cJdC6XCNZedt7srzzOxIblU+pb3h6dfjuRRm5fqqSPpVIwOkEImJitB3O1kn+VtcqTyX5y4myr34NOdT5Zsm4wFyOyiCp6BgCyV9Pl32Xav/mu3VQN2JpnvNlFvxCI5ZjzjoH6isBemT5Soz1SYAESMBBBA6ePaaFOT0kKempSqNOjC8m89uPlJJxRZT0qUQCTidQrVBZ2XP3VOm37F2ZsGWe0nSQPys59Zy81Nj9tvdKDVOJBJxAQNshsOTnU+XC6l/lyL3dJf3kCd9HrYXDX/htley9pIKum/+66yWuzQ0SXb6iRBYt6nt71CCBUCGQliape3ZLyvq1cva72ZK2d7ffI0vofLsUG/2O3+2wARIIZQI0ZIXy2eHYSIAESMBPAg2n3S9IRq0i9YpVkQW3jpQI7T8KCeR1AiOv6iMtyzaQBxaPUELx9oavpUT+ItKnbgclfSqRgNMJxDa5Qsqt3yIXVq3QPE06iqSnK0/p/IIfBS8KCZDAfwTyt2glJT6dKBExsf8V8hMJhCkBhhaG6YnltEiABPI2gXQtpKnR9AeVjVhNS9eWhbeOyhEj1vvvvy8//PCDnD59OttJS9W2Yj916lS2cqPguuuukw0bNhhfld+bNm0qPXv2lJ07dyq34Y/ili1b/FFX0r1w4YKSnjulZ555RkaPHu3usK3y8+fPy6JFi+Sff0Jz178OlZvLJ9c+a2suVpVeWfWZ/HPuuNUhlpFA3iAQESGxTa+UCjv/kcSfVkqBXg9KVMlSeWPunCUJBJpAZJTEXtVCir35llTYdUhKTpxOI1agGbO9kCUQkaFJyI6OAyMBEiABElAiMGbDDBny2xdKuoViEmTbnWq6Kh1effXVsnTpUrG6HEVoDz2QdG3l3vhs7gNlUVFRujGrdu3a5kM+fUY7eKEff2XdunXSpEljzTB3RuLi4rw2B8NN69atZcyYMfLYY495ra9SAWwxN7xefvllGTlyhKSkXJSvvvpKOnbUPCN8kCZNmsgDDzwgDz74YJZzgvMQo+XDOXfunA+tZa165swZKViwoFxzzTW6QSvrUc/fMMfdu3dLnTp1ZP/+/VK4cGHPCn4cfXr5u/L5ZrUwQ3R7qOdXfvROVRIILAGENR1o0ViKjRwrCV2SAtu4j62l7v5b0g7skwu/LvdRk9VJIPwJRFepKlGlSkvsFVflymRPvT1aTg4fpuW9W8/dRHPlDDirU9xXJyUlyeTJk4MycIYWBgUrGyUBEiCB3COA5O6qRiyM+ueOY3J08CVKlHDb3++//y6XXnqpXHLJJbJ582aJ1HKtGDJo0CD9I7y2AiENGjQIRDPy888/S1pausTHx8vQoUPl+eefd9suxt6mTRvJly9aihcv7rae+cCCBQukUqVK5qLMz9u3b5e9e/fK0aNHZevWrfL333/Lpk2bZM+ePZl1jA+xsbFy1113SXJyslHk9R0eU+vXr5P+/fvL9ddfL1WqVMnUwbybN28ux48fl6KKOWswJki7dv/uHJjZuPYB7e7atUs3dJ04cUKfIzzo/vjjD/nll18EBkRDihQpohuzEhMTjaKAvo+4so8s3LtO9iYfVmr3w7/myAO1b1HSpRIJhDOB6IqVBK/celAPZ7acGwmQAAmEEwEassLpbHIuJEACJKAReHHlR8oc7qjRWpDgPVSkfv36ujHohRdekN69e8u4ceP0ocH7ZsiQIdK2bdtQGWrmOOBV9eijj0rNmjUF437vvfcEBiZ4K7nKww8/rHtJwTgFLyQ70rlzZ4/hljD2GZ5lMORcddVVOit4fZUvX95OF27rLFy4UFJT0+Tbb7/NYsSCAvqJjo6Whg0b6gY0t414OGCEO5YsWTJbLRjHihXL+m8TTGH8wqt9+/by+OOP64bBbMpBKPis9QBpM6ufUssv/PoRDVlK5KhEAiRAAiRAAiRAAiI0ZPFfAQmQAAmEEQHkxpqybZHyjAY27qGsGyxFeDR988038uGHH+o5mBISEmTatGly8eJFmTJlSrC69atduFMj79UHH3ygG+AKFSqkh72VKvVfLhjk9vroo490Y5ddIxYGBaMXckjBiFO6dGl9nHjPnz+/HtZXrVo1OXv2rNx00026AatRo0Z+zcWs3KVLFz1kr2XLlubizM+jRo3SjUmYO7zogiEHDx7UmzXmHow+7LR5afGqEhuVTy6kXbRTPVud1Yc3S5OSNbOVs4AESIAESIAESIAESMAzARqyPPPhURIgARJwFIHjF85IqrZNuYrAE6tE/uDlFfJ1TEgcXqZMGalXr55uwEI42Y4dO/RmunXrJrfccovs27dPf23btk2OHTsm9913X5ZuYPCJjs6nGXn+DVnLctDlC7yYvIXZpaSkaB5JqWLlMeTSnP71oYce0j2F4JllNmLB0AQD05VXXqkbm6x03ZUhR5WVIPSyVq1auncSwgvLlSuXrdpTTz0lM2bMEPCy8hDLpmAqmDhxom4oQxifO4E3Wr9+/aRVq1Zy4MABd9X8Ks9tA5Z58FPaviSdvh9oLrL9+f7Fw2VdV3XvSdsdsSIJkAAJkAAJkAAJhBkBGrLC7IRyOiRAAnmbwMBVHysD6H7J9cq6vihWrFhRN7YYOobBo0aNGnoRwsuQtLtv375GFcv3OXPmCF6GILzM1ZAFr6S1a9caVTy+Ix9XgQIFPNbBQSSV37hxo9d6RoWyZcvKp59+anzV39EGDGI//fRTlnLVL2+88YY899xzurEMubHgAeYqyGk1b96/CcphWBs+fLhrFbff4f0Goxy8vS677DK39XAARjLk8EJ45dtvv+2xLkJEwSFfvnwe6x05ckQ85VLzqBzEg83L1FNu/fC5k8q6VCQBEiABEiABEiCBvEyAhqy8fPY5dxIggbAjMH37EuU53Vf7JmVdXxTr1q2rew4ZOm+99Zb+0UjwjQTlEBg5XOWvv/7Sd6WD95Gd0LVPPvlEz9nk2o7xHcnCq1atqn+FhxI8rhC65s7rB0a2P//801DP8o4cTbNnz85S5u2LJ68oq/m7toek7kgWj0TnMNrNnTvXtYpgJ0B4f8HAde211wryXPkqHTp00L3VEA7pTWCovP/+++Wdd97R834hHNGdwIhlxeCee+4RvAz53//+p4csGt9D6T0qIlLStJBeX+VieqqcSkkW7BJKIYFQIHCs32OCF4UESIAESIAEQp1AhHajnP1JIdRHzfGRAAmQAAlYEij1WSfLcjuFh3p+ZadaQOvAswmGLYidy5Gvhixvg0XycOyGB0GSchiEevXqJTCA+Sow8njzLIInFsIiX3nlFY/NHz58WK6++mqPderUqSPgAcGuhw0b/uspBcMVWJ47d07PIwaPN3yH99rNN9/ssU2rgzBIwbtqwoQJ0r17d6sqlmUIpcQ84I3Ws2dPyzoYF7zvDG7gj5BRGDe7du2aqQNvO+zqiNxjdv6dZCrmwIdG0x+UvWcOK/W08NZRUq/Yfzs/KjVCJRLwk0C69ptx9psZfrZCdRIggbxCIKFTF4mI5yJMXjnfqvPEPVtSUpJMnjxZtQmPevTI8oiHB0mABEiABIJJAJ47hqxatUouv/xy42vQ3//44w/diPXkk0/qhhN0+PTTT8uIESOUDFnYYdGOFClSJItHmpUOcl15k/379+tVYOCBB1lcXJzEx8dL5cqVBeGMX3zxhcBjC20tW7ZMsOufrzJ16lTdiIWcV74YsdDPnj179BxnMAzu2rXL0niHmxyEIRpiJJFfvXq1PPHEE0ZxlncYx+wI8pCZ27ajo1KnQoGSyoYsbM5AIYHcJhCphVQXuOs/D8jcHg/7JwESIAESIAFvBGjI8kaIx0mABEiABIJGYM2aNZltX3HFFbrBpVmzZpllwfyAcLnIyEgZOnRopiFr4MCBuiHr5ZdflldffTWY3fvdNgxFMF5FR2e9lB86dEgPuzx58qS+CobVMAiS5cPIhaTt8HryJpg/PMeQcH/8+PG6IQz92RHk1ELYIIxtMK6hrY8//lgPb8TuilYCD7Lt27frh2CEw7xcc4vhoDlpvlU75rK0tLT/Y+8s4KQquz9+2IWlu7u7paQ7RRqkQ5FUFBBJgxAUUEKJF9A/HQpSIh3S3SUg3Q1LLvWf3+N7552dvVN3ZncnfsfPOHeefr532Z35zTnnUffYsozXJEACJEACJEACJEACvk0g/Ltf394LV08CJEACJOBDBDZt2iTIOQUvnM2bNytvLJziZxmKBo8dPcudO3e44hw5ciiRJFyhnRc7d+5UJyDCGwtCi2ZIkl6mTBlB8vRBgwaZQ960ek88FytWzBPDSMKECcONgxMa33//fZUnC+GLCAXUQvbQEHuDcIdcXkiAX7hw4XD9tRdIrI57grDFtGnTqtA/lNWsWVMQiglDfzCESKbn6YUwRvSB8IVQR+Qzw0mKeI08XsjnZW3NmjVT64UIVrJkSZk+fbokTpzYLDJq7ZEfzdratGkjp06dkl27dpmrEDJq6+fH3IgXJEACJEACJEACJEACPkeAQpbP3TIumARIgAT8g0CDBg2UGKOJIxBGIIogFA1CBnJArVmzRiw9tCBiIPwQnlwQrzTbtm2bdunUM8Qq2JgxYyK0h6gGbyAIK4sXL45Q720F8GRCfi8kc0+ZMqXyvIIAZG0QsSB2Ibk6kr/DW0nPnj17JuBcqFAhlTMMYhC8subPn29uDqEP92vu3Lm6YhEESYT2weLHj69ELHiBTZ06VdKnT28eR7uA6IRE+RAxcf+7d++uqpDkHcJb1apVtaa6Sf4hRmJ/zhwAYB6IFyRAAiRAAiRAAiRAAj5JgEKWT942LpoESIAEfJsA8mEh9A25kIYNG6Y2A8EE4W/I+QRvohEjRkj16tXDbRSiCAzPlh5JtWrVCtfO3gucooeE4bZO7wsODpY+ffrIqFGj5NChQzY9lyznyJ49uxoToXuO7IcffnCY+BLhgeCD8EFre/jwoSxdulR27NihhCS0AzuESkKgGj9+vMpJhX44lREG7yh4RiFnFuz169fKQ+vKlSvhOKIuQ4YMNkUu1MPOnj2rnm15PMHTztLQTu9ERa1N1qxZlfcX7g2ELBi8qyC64VRGiGL4maGRAAmQAAmQAAmQAAmQAIUs/gyQAAmQAAlEKQGISAgti2cSo/TC7CCu2Mqj5O5C9+3bJ4sWLVLiVOXKlW0ON3LkSIE3EPJ2wePJlmCjDYA9WXqIaeWWz1py9pMnT0pYWJhA/LJlSNZ+5swZ3WqECLZt29ZcB08krA/hfHjgNQxiEjy0kKQdXm/lTeGCsKIm763Dhw+rUxExT2hoqCp35X9IHu/ILEM27bVt2bKlEu22bNkSoRk88uDBhZBEeMrRSIAESIAESIAESIAESIBCFn8GSIAESIAEopRAz549lWfQhAkTdOeNLBHrwoULKiwRHl8HDx7UnduyEN5iCK/Lnz+/HD9+3LIqwrXmoRShwqIAJ//Fjh1bhenBO2rVqlVm0cmimVOXCxcuFJySaC+UDkIShDh4gMGQowreVrBy5cqpPGAQkYwYTnzESYm27Pr16+Hyc9lqh5xeOJYZYabYD7hYWqVKlcwvp0yZYr7mBQmQAAmQAAmQAAmQQOAS+Pdr28DdP3dOAiRAAiQQhQTWr1+vPJ2Cg4OkW7duNmdGrqRjx44JvLMsHwi5gyHXk2U5ruFlNHbsWN0xkUA8iynsD55TSGLujEFYgeiG9vXq1XOmi8028OqCR1HZsmVVyBz28fnnn9ts76iicePGZhELOa0SJEigTgi01Q9heRkzZpS8efMKWMAwvyZs2eqnV3737l1VrAlkem3A2ZFHFkIkIRDC28qZXGQQx+x5semtg2UkQAIkQAIkQAIkQAL+R4AeWf53T7kjEiABEvBaAkjajbxPermfLBcNTx17hlP1bBlOIrQ0iEZa2B9CCxFu56xBrIHIsnz5cuWZhZxZSATvqjVq1Eh1gScVEtpjf99//70K70NuK6OGXFc4wfHx48fSqlUr2bhxo+5QSJDfv39/lXcM8+OEP4QVGjGEKsLq1q1rsztEpyRJktisRwVCJJEw3lbSecvOCH+EAFenTh3LYl6TAAmQAAmQAAmQAAkEIAF6ZAXgTeeWSYAESCA6CcALCKfa2TN49Og9tBA/nKqnV48yS4NXF0LgIIRMmjRJVq5cqfJJIaeU5QN9EG5oWaZdI2F62rRplfdQrFixzInOLeexdz1jxgwVRjhw4EAlYqHtzz//rMZESJ22J3tj2KqDiHXx4kXl5WZLxNL6Dh8+XHC6Izy4kHcKHmyuGpLFgyFCFiFE2TOcPOmMIbm+I5szZ45qYjQU0tH47tRfenTLcPfgGI73bnhwdiQBEiABEiABEiABPyXg+tfKfgqC2yIBEiCBQCdw5fFtSR8/hd9ggKfTsmXL1H6Q4B1eUTjpDzmZ4JVkaTj1EGFr1nm7NLEHYlaePHnUaYBohyT1yKHlyCZPnixdu3ZVXlNDhw4N1xwCFAQy5OAaMGCAfPPNN+HqHb1AniskhP/666+lR48ejpqr+jJlygi8pXBKYBFT0neccPjRRx851ReN0Ae2du1a9az3Py10ESKbp6xfv35qqLfffttTQ3psnKumfzdGLWfi9Ea7sh8JkAAJkAAJkAAJBCwBClkBe+u5cRIgAX8k0L1AA5lwdImhrf145Hf59u1Ohvp6YyeITTjFD55K5cuXV0uEJ5gtb7CECRNKzZo1w21Fe40k7RCzmjVrphLVI9eXPUNOrKZNm6r5CxcurJtcHiGKt27dUgnl4S01ceJEwcl9BQoUsDe0yg+GUEkkRv/444/lq6++stveujJFihTKQw0hluh/5MgRgeAGDzRbhhBGJKtHwnjkIQMrW6bl0HI3r5g2Pu7fgwcP5IsvvtCKvOr5tZUXoLOLCwmKKSHBsZxtznYkQAIkQAIkQAIkQAL/JcDQQv4okAAJkIAfEehZqKnh3Sy/sMNwX2/s+OWXX8r9+/fNIpYn1vjrr7+KIxGrffv2SuiBiNa5c2c5cOCA3anh9YWwR6wVCeaRlP23337T7TNr1iyV2woiFkIW4VFly16+fGmrSpUjQT7ELEenRD5//lyyZcsmW7duldq1a0fw/rIM50ToopaPzJEgZ3dx/62EIFirVk11AiI8z7zNVl/aY3hJmROmMdyXHUmABEiABEiABEggkAlQyArku8+9kwAJ+B2BhCFxJU5wiKF93Xp6Xy4++vdUQEMDeGEnnOYXFTZ16lQVrgevJghMyB+FnFuOPJ20tXXp0kUlM4e3GLye4PmFsSpXrqw1Uc9t2rSRKVOmKO+wtm3bhqvDCy2vF54R4le8ePEIbbSCkJAQQSL8cePG6XpjQejq1KmTErouXLggTZo0kT///DNCW4RravMi3BEiG8Y0YhhHMwhxuXLlkrCwF/Kf//xHgoK87y3LBxtHast1+fnXGl+63IcdSIAESIAESIAESIAERLzvXSHvCgmQAAmQgGECphTm0iFPbcP9O/012nDfqOgIDx1vNJzGeP78ebW0mSYhC+F1CCl0xRBquH37drl69ZogIX7cuHFVYnXrMT744APJkiWLdbF63bFjR3N5r169BF5pRg3rgUAHW7p0qU0vMeTdgiF/1cyZM5VnmbM5u1RHi/9pQtaJEycEohhEvZw5c0qHDh0sWnnH5c4bxyXstX2vN1srRUhh+vjOn55paxyWkwAJkAAJkAAJkEAgEmCOrEC869wzCZCAXxMYXKK9TDq21NAe9986LQdun5GiKXIY6m+kEzyXnDUt/xK8heCt40lDHiajhtC7vzZvlgr/zcVldBz0S5s2jVy6dMnQEBCeNPHJ0AAWnXDa48OHD1VYn6PwQ8vwQoshXL589eqVlChRQpCTbOfOnfLXX38pQcvRQEWLFpUkSZI4aubR+tbrhxseb3TpLob7siMJkAAJkAAJkAAJBDqBGKY3n+HPKg90Itw/CZAACfgBgRWmfFcdDIY9xQoKlnOt5psSUQfOdx0QUGDBwcF+cPe5hcgmUH/VINlx/ZjhaW62X2y4LzuSAAmQAAmQAAmQgLcTgJd98+bN1WnhkbFWhhZGBlWOSQIkQALRTOCdzKWlQLKshlbx4vUreXtxN0N9fbUTBCyKWL5696J23WMO/+aWiHWh9fyoXTBnIwESIAESIAESIAE/I0Ahy89uKLdDAiRAAhqBDfV+kKAYxn7NX350Swos6CAvTaIWjQRI4F8CI/bPkRH75xrGMavqAIkbM7bh/uxIAiRAAiRAAiRAAiTAZO/8GSABEiABvyZwqsUsSRArrqE93jSdYph5dnOVM8vQAOxEAn5EoMmar2TM4YWGdzS+3MdSM2MJw/3ZkQRIgARIgARIgARI4F8Cxr6qJz0SIAESIAGfIJAoJJ6cbTVX4hsUs16YTmWr+UcfabdhhDx5+cwn9sxFkoCnCLyRN7L1+lFJNb2hbL562PCwkyv0lOY5qhjuz44kQAIkQAIkQAIkQAL/I0Ah638seEUCJEACfksAnlkNspYzvL+VF3dLltktpPm6IXIx9IbhcdiRBHyBQJhJwP32wFzJObe1NFr1heElJ4wVTw40nSqNslUwPAY7kgAJkAAJkAAJkAAJhCfAUwvD8+ArEiABEvBrAkfvnpOGpg/mD8Ieu73PbInSSoc8taVM6vwmj684bo/HAUggughAuNp/67Ssv7JPlp/f4fYygkwn9XyYr64MLfG+22NxABIgARIgARIgARLwNQKRfWohhSxf+4ngekmABEjAAwQ2Xjkg760d4oGROAQJkIAlgW4F6kvvwu9JQoPhvJZj8ZoESIAESIAESIAEfJFAZAtZMX0RCtdMAiRAAiTgHoHK6YvKzfaL5dGLp/LFnl9U/p9Lj266Nyh7k0AAEkgcEl/yJs0sfYu2kLJpCgQgAW6ZBEiABEiABEiABKKWAIWsqOXN2UiABEjAqwjgRMMxZbqrNb1+80buPHsgD188licvnnvVOgN5MQP69peVf6yQA8eMJxsPZH6RsfegoCBJZMp/lTR2QsOngkbGujgmCZAACZAACfgKgeXnt8uEY0vk1tMH8vxVmK8s2y/WGS9mHEkRN7EMKd5eiqfK45N7opDlk7eNiyYBEiABzxNAXp+UcZOoh+dH54hGCSR6GlNe3XgsBZNnMzoE+5EACZAACZAACZBAtBN4+eaVDNz1s/zfyZXmteD9Z9LYicyveRHZBN7I+dDr6lHnz/4SFCNIRrz9oXTIXSuyJ/bo+BSyPIqTg5EACZAACZAACZAACZAACZAACZAACVgSQDqLvPPbmbyvXqji32p8LSVN3kBxY8a2bMbrKCIQ+uKJ/Hlxl3y8Zbz03fEfGXd4kexpPFliBQVH0QrcmybIve7sTQIkQAIkQAIkQAIkQAIkQAIkQAIkQAL6BC6a8rBmm9NSiViDS7RXeVorpitMEUsfV5SUJjSlSHgve2W53m6RNM1eSa4+vm26Ry3MQmOULMKNSShkuQGPXUmABEiABEiABEiABEiABEiABEiABPQJvDHlYC23+GNVuaLOCOmav75+Q5ZGCwGEFk4o/4l8WbyNErHq/Nk3Wtbh6qQMLXSVGNuTAAmQAAmQgB8QuPr4jgza87P8cX6HH+yGWwg0AmXS5JdBxdpI8ZS5A23r3C8JkAAJ+BSBT7dPkGemZO5DS74vJXw0sbhPATe42I8KNJLVl/bKrhsnZN+tU1IsZS6DI0VNNwpZUcOZs5AACZAACZCAVxB4I2+k2ZrB8tfVQ2o9IUExpXL6olI/a1nJED+lV6yRiyABPQK3Taeqbrl2ROaeXifbrx+TOiv6Sc4kGWRz/bESHMM3cnro7YtlJEACJOCvBPCeY97p9RLfdEpe53zv+us2/WZfy2sPl1TTG0rtFX1V+Kc3b4xCljffHa6NBEiABEiABDxI4MXrl5J/QQe5//yRZEmYRmZXHSC5kmT04AwcigQil0DdzKXlu7c7CUStLpvHyGaTIJtpVnPZ3XiSpI+fInIn5+gkQAIkQAIuEZh/ZoNqP7pMV5f6sXH0EWifp5ZMP7lKLj26JRkTeO8XnMyRFX0/I5yZBEiABEiABKKUQMlFXZWI1a1AffXBnyJWlOLnZB4kkCJOYlloOvFqUoWeAoG2lOln+7UpDwuNBEiABEjAewho3t+1M5X0nkVxJXYJNM1WUdWvvbzXbrvorqSQFd13gPOTAAmQAAmQQBQQ6LltglwxnUjzfp7a8nXx9lEwI6cggcgn0DhbBZla6TMJM4lZby38MPIn5AwkQAIkQAJOEzh05x+JaQr9jmcKLYwuu3Tpshw/flwePXoUXUvwqXkLJMum1nv07jmvXjeFLK++PVwcCZAACZAACbhP4OnLMJljyiuUPE4i+dYUluVJu3jxoieH41gk4DKB+lnKSvm0BU1Hh9+R/aYEtTQSIAESIAHvIPD81QuJESNGlC9m69atEi9ePDV3jhzZ5e2335bEiROr14UKFZLr16+7tCbsIXbs2IITGG3ZZ599psZHW2cf48aNMw+HPhMnTjS/tr54+fKlJEyYUCpUqGBd5dHXcWOGqPFemr4g8majkOXNd4drIwESIAESIAEPEBh/ZJEa5T8Ve3tgtPBD5MiRQ7p06RK+MBpePX/+3NCs06ZNk1u3bhnqy07eQ0D72R62f7b3LIorIQESIAESiHICTZs2lfLly8tXX30lV69eFbw/ePjwobx69UpOnTolyZIlk3Tp0smqVaucWtuhQ4ckJCREwsLCZN26dTb79O/fX/75558Ijzx58gjWpFfXvn17m+NZV1SqVEkJaZs2bbKuCsjXTPYekLedmyYBEiABEggkAjNPrVHfDlZIW8ij296xY4e8ePFCJk+e7NFxHQ2GN6Tnz5+XnTt3yqRJk+TgwYOqy/Tp06Vdu3aOupvr8ab0k08+kfnz58vatWsVI3MlL3yKAHJmwbaaTjWkkQAJkAAJBCYB/E1funSpnDt3TrJkyRIBQs6cOQVC0IgRI6R27dpy+/ZtSZ48eYR2lgVvvfWW9O3bV+AR1bt3bzl8+LBltfka4+iNBREMnlTZsmUzt3X1Au9tjh07JnfvoQBSEwAAQABJREFU3pWgIPoigR+FLFd/itieBEiABEiABHyMwK2n9yVmULDHVz106FD55ZdfPDLutWvXZNmyZeHGevr0qXrjduTIEblz547Kb/HgwQNBeXBwsFSpUkU6dOggZcuWlaRJk0qcOK7l4OjVq5ckSJDA7jes4RbEF15NoHWu6jL71FqvXiMXRwIkQAIkEDkEHj9+LD/++KPs2bNHV8SynBXeU+vXr1eeW8ifZcsgHL1+/Vp69PhEEiVKKKNGjbLVNNLKEX44c+ZMJbpBFKP9S4BCFn8SSIAESIAESCAACJROnc+lXSLXA7ye7NnKlSuVu/2KFSvsNQtXB5f+KVOmhCvDi7Rp08rgwYMlRYoUkipVKuX6j3wWmTNnVt+awjU/f/78dvNTRBjUTsHff/8tEyZMkDp16kiTJk3stNSvCg0NlUuXLqkEsvotIpbOnTs3QmHMmDElU6ZMkjt3biXGRWhgVQBvtD/++MOqNOLLatWqKY6WNXv37lX5N3bv3q2+0UXOkPfff1/lDrFsF53XCPP86aefZOHChepeFyxYUD7++GMpV66cw2U1zFqOQpZDSmxAAiRAAv5JoEePHpIyZUopVqyYUxu0FyaoDQDhKiQklqRJk1oVFShQQLp162Y3l5XW1xPPq1evFnzphrBEPW8vT8zhq2NQyPLVO8d1kwAJkAAJkEAkEhgwYIDKJ2Frik8//VSQr2Hq1Km2muiWI5mpLUMui6iwJ0+eSJEiRZRY4k7SVFfzcrVq1cru9iDcjR07VuzlzLhy5YpgnNKlS9sdK1++fOGErDJlyghCQfv16yfLly9XIaHwqMM4uXLlEgh70W0IE+3evbv6EPLrr7+qxLxIfItcJwgRQagIjQRIgARIgAT0CMBDHF9QedIgZO3fv988ZJ8+faJMyMKXZQh/xJeG7oQlmhfvZxcUsvzshnI7JEACJEACJOAJAvCcsmU4whoeMzixEN9+umPbt29X4X325rMc//Lly5Yvda+R+wrhAMWLF49Qj5xeEEW+/vprady4cYT6yC5Ajg2ERVob1ozwAXzTC7HpxIkTdj20wM1ZGz16tCBZLcIyEyVKZO42a9YsGTlylKRPn06FiMI7K7oMoSDYOz4wFC1a1LyM4cOHCz444OcD4imEPhoJkAAJkAAJ6BFAqgFPmZYLC57BmrVt21bl4kSOTng1R5bduXNXeWvj73fNmjUjaxqfHpdClk/fPi6eBEiABEiABKKeALxm8MYqdep/Xe2NrgDHWLv6pjNjxoxOTYd2ENosDbm1IIg0atRIatSooY7SdjVpKtaM047Onj1rObTb18h7AcEGiWThIYU5IBjqiV6uTgavps6dO4cTsbQx0qZNo7zqMHd0ClkQFXGqk6WIpa0R+c+QjL969eoUsjQofCYBEiABEjATwN93WJo0acxl7l5UrVpVWrRoEeEgmPr166u/1du2bXN3Ct3+yMmVIUN69TcR7wlo+gQoZOlzYSkJkAAJkAAJkIAOAZyaM2/ePOXxpFOtW4Q3ZXqCEcIMIQw5a662txz3yy+/FITSDRs2TAYOHKjWD7HLmRwZluMgP9WcOXMsizx6DU5nzpyR7NmzS6lSpQR5rdw1hOTZC2v84IMPpESJEu5O41b/QoUKyaBBg2yOUbhwYZt1rCABEiABEghsAgi7h7n7BZtGEV7dOGTmm2++0YrMzxMnTlKezOYCD1/gZMVnz57ZPB3Rw9P57HAUsnz21nHhJEACJEACJBC1BCBIQVyB+ORs0lGEzCH/EryMHBlyV6F97NixbTbVvnW1boA1wYMJieL1bMiQISqhuibowDMrVqxYKsxQr72tMmdCKbFGjI1E7kZt0aJFyjsJpzDFjx/f6DCqHwRAvMm3lwAXQpKe4Z7jKHN4bCHZLHJqQRDEiZG28p3hXkCM69Kli2zYsEGQHHfkyJFSq1Yt1Qe5urKYwjuR4F8zRwns9YRQrS+fSYAESIAESMAeAXhP/fnnn7pNkBPU+u/stGnT1N8rHMZibenSpVVe03379pXvvvvOutqt1/B4xyE32t9+eFQj7J4WkYDxd1gRx2IJCZAACZAACZCAHxOAiIU3V/BIatmypVM7hdgRL148p9riJECEBbzzzjs22yP8TM9u3rypvIrsJXrVRCyt/71791wOVTtw4IDW3eYz9vvDDz9Iz549bbZxVIFk9HHjxlVHiSNnljsGbybkBKtXr55Lw5w+fVogcKE/vKUQ4gcxq3nz5ko01MuRBjERp0tCeIL327fffqvaLlu2TOUkQ0gmDgmAcGUpZDlaGBO9OyLEehIgARIIXAJa2gF4Uunl3ER+SnxZZm3Iu4j8i9ZCFjy3cTCKLYO4hL/znhay8D4L+bdgM2bMUPm4kPA9a9astpYSsOUUsgL21nPjJEACJEACJOA8gXfffVeF40GEiGyz5Z0DUcxWHb5pXbFihctLs+VVZGsgZ9rD28gyqbqtsRyV582bV4U+uitkTZ8+XZ3SiG+PESbhjKcY3vTDiw6eYcgpZmk4CjxHjhxKODx//rxllTpZCWER1rlDKleuLN+ZvLKymd6Mw+vOmTVYDoz+H330kWURr0mABEiABEhAEdA8uS9cuKArZFWsWFHwsDa9A0ROnTol+Bto70s1bZyTJ09Knjx5tJduPyOZvGa4/vHHH+Wtt95SYY70TNbI/PtMISs8D74iARIgARIgARKwIoCQMJwWCG8cCAr+YvAw+uSTT1zazoIFC1SopL1OnvIeqlu3rsydO1d3quPHj+uWozBx4sSm/B3pzfXwqNq4caNKcD9mzA+mRP21ZMSIESrkz9zI6qJ9+/bKs8paxNKa4Y0+EtEjh4gWZgqR8f79+yqcUGtn+RxiCrds166d4CRCVwyhjPhQgWPQaSRAAiRAAiRgi8CWLVt0Dw2x1V6vHIeP4HCR2bNn61Wby/A3Gn/Tdu3aZS7z9AVC8ZGq4L333pPffvvN08P79HgUsnz69nHxJEACJEACJBB5BB48eKDCyvAtoOUpfT///LP89ddfkTaxPa8ne3Wu5JFAIlUtf5crG7l27Zorzd1qixBFrFHP8CbbljVr1kzGjBkTrhqedBhr5cqV6rQliFvIf4XTDMeNGxchLxm82xYvXhxuDMsX+JkoWbKk8pJC8n8YQgnLly8fYSzLfki674qQhRxbCItEzq04ceJYDsVrEiABEiABEjATwN89eB736NHDXObqBd73HD16VGbNmmUz56Y25tSpU5W3s60DbbR27jzDe/nw4cPqvRg8z+vUqePOcH7Vl0KWX91OboYESIAESIAEPEMAyb1Hjx6tvHhWr14dblAcSY2cDc7YlClTnGkWro2tkwwhYtmqczW0ECFxBQsWVJ5JmHzmzJkqkTnC4hyZFsLgqJ279fDsgteYnmknNOnV2SvDfcMDQh7ESOQcgzCJhPzZsmVTXZGsHp5VEL/sGcQwJILXDGKnI5HKFXZIcotwws2bNzM/iAaZzyRAAiRAAroEunbtqnJTLlmyRBo0aKDbxlEh/h7CkKfSkeE9RMKECVUuSCSMjyzDPPhb2LBhQ/W3GfkzaSIUsvhTQAIkQAIkQAIkEIEAPGGQANXaswcNkQOqaNGiEfr4UgFyWuDNLgx5KDJkyBAhr1N07wdhjAjrjAyDd1PNmjXl4cOHKul62bJlRfM20xLi2vN+09ZkmVT31q1bUrx4ca3KrWcIqUikC3EMP280EiABEiABErBHAF+U4As4hAaeOHHC7mnJ+FIMYYEQovDQrHfv3oIvUZwxeCYj5G/8+PHSv39/myf5OjOWozaYA+H7ONEQh9vQKGTxZ4AESIAESIAESECHwL59+3RK/a8I4Yg4mQi5nrzNICjZCyH01HqRHFfPU+r69esOp4iM5LP169cXnHJ49epVl042dLhYNiABEiABEvBrAhCi8DcNh6XgtN3BgwdH2O+hQ4eUtzm+rMEXMNrfP3gmw6xPOI4wgEUBRK9p06apv1eWuSktmnjscv/+/SqRPcLt8Qh0o0dWoP8EcP8kQAIkQAIk4CIB5JC4ceOGi70cN0eeCeRdqlGjhs3GtuqQDNzV46kRhjB58mSBm366dOlszqlV4FtQeCAhrE9746vVefp5zZo1KqdVmzZtPD10hPFCQkLClSE3Fyx16tThyh29QJJ5fBBwJiTD1li4J9h7aGioJEiQwFYzlpMACZAACZCALgF4LzVp0kQ6duwoQ4YMkfjx40umTJnU+5a7d++qkH3k0sLD0iBgIWTelVOHkYgdXlLw7F6/fr3lcB6/TpIkifLKwmmKH3/cw3TQSjKPz+FLA1LI8qW7xbWSAAmQAAmQgBcQgBeTK4nVnV1y2rRp7Z7+g29PIXK4a/B0QmghxKvu3bvLf/7zHzlw4IBd7x+8Gf7qq6+iRMTC/uCVhBwfeJPsjt2+fVsd3X3x4kWnh4Gwh8eiRb+bQjQaOd0vY8aMgnBIhFrYMuTmsmVIGg9h8fTp0xSxbEHy8/JXb17JrFNrZdHZLfLPgyvy6s1rP98xt0cCxgmEBMeUYilzyfu5a0uFdIWND+SHPStUqCA4XRd/7x89eqROvoUHMUQtfEmiFzq/fft2MeJljBOd8WWaLdu7d6/ufNbt8fcRyd3tGZK9o52Rddob1xfr7JPyxR1xzSRAAiRAAiRAApFKYM6cOdKyZUun5tB7s2ir45EjR5QXkj1PoMuXL9vqrkSmfPnyhct3YdkYOTMgSP36668q95d2shHyaUCE+eyzz1TSVss+r169khYtWiihC2+II9sTC2+GixUrpt5sL1y40HIphq6x3kuXLsnjx4/VmHqDIE+WteH0wYEDB9gVspDDCjlGkidPrrrDe2zEiBEqIb+t+/7FF19YT6Ve40RF/EwheXyOHDl027DQPwlsuLJfxh5eJDtvHPfPDXJXJBCJBP68sEvwgMUJDpGO+epIB5OwlTFBqkic1XeGhoex5mXsaNXW3smO2mv1wcHBgoctc/YLKWffXzjbztZ6/KU8yF82wn2QAAmQAAmQAAn4NoFJkyapZOEQlfQe2J1euVb29ttvKzHLFgWcAIgk9hBNNBELbStXrqzKkJcJbziRMwOmCVdoDy+hyD4p6ODBg4Ik7DhqG2GM9t4YqwU68T8ksa1YsaIUKlTIZmsIUY0ahfe8goiGMEGcbKhnyCmGXCSWyd4///xzdaLS0KFD9booxraS6CIcEScz1atXT7cvC/2PwMqLuyTNjEbSfO1Qilj+d3u5o2gg8OxVmPx0ZIkUW9hZss5pIXeeRfySIqqXlSF+SpNn5auonpbzuUHg2pN/c4Z6uxhKjyw3bjK7kgAJkAAJkAAJeI4ARA5bQgdmgZcPThoyamnSpLGZ2wtu+sePH5fVq1erXFvZsmUTeIjBe6tp06YuTYl1wlupZ8+eEfrBg8nSWwn7OXnypGjJ9dFn1KhRDsMGkMTWnkEE05Lcrl27VrKYTv5DjhCITOXLlZMXJs+vjRs3ypdffikpUqRQIYGW40EA++2336RSpUoqzBEhmPCUQhLdqVOnyty5c2XLli3h9oL+x44dUzmykCsEx5HnypVLkDR+5syZMmXKFEEIhnUuMwiH8JZDThNH+8Lx4/BYo/kugcN3/pFGq7+Uh2FP3NpEriQZpFXOalIpXRHJmzSzW2OxMwl4C4FHL57KvlunZPmF7bLgzEZ5/uqFoaU9fvFM8s5vJ9UzFpefK/VR3lqGBnKzU9k0BZRQffjOWSmUPJubo7F7VBBYb/KShRVPmTsqpjM8B4Usw+jYkQRIgARIgARIwJ8IPH/+XIk7CMNDCCPc95s1a6YEIYQdwiPLUoSytXfksLAWa9AW5ffu3YvQDfmwVqxY4VRydeT2wDjI6WXPLPNswMsMCeoXLVok7du3lxcv/v1ghPIpU6aaQieb6w4FYQlCW9WqVZWYhWT8EMiQcN+WoIjQTniwIb8XRCetDxLhIkxTz7Ae7AkecI72hbwnNN8kAAm61/YJMufUOsMbCDKJxC1yVJUxZbsbHoMdScCbCSSIFVcqmvJd4TG6dFd5EPZIivz6oTx+aTu/oL39rL20VzLNek9ONJ8hyeMkstc0UuqaZKsg3x/6VSYeWyKTK/SKlDk4qGcJDN4zUw1YOX1Rzw7s4dEoZHkYKIcjARIgARIggUAmAIHj6tVrkj59OkGoHMxeUtLZs2cLThhCondnDKKPI4OQglMV4eXkSHg6f+6cLDB5XSHR+PHjx0ynGPVTYX0pU6ZU08ArC55ESBALK168uBQtWlQgqOAae4PXkaVBlNIzW+V6bW2VIYzS6DjIBYaHq2bkJKYlS5Y4PQ2S7hvdk9OTsGG0E6izoq/yNDG6kMamD8Rjy34ksYPdOwDB6PzsRwLRQSBxSAI513qeHDJ5MjZ2w5MR3lkzqvST2plKRek2sidOr7zBfjcd4IB/v8jjRfNeApuvHVbiaa1MJbx3kf9dGYUsr79FXCAJkAAJkAAJuE/gtodyZUCoQg4nW8neIRxVq1ZVzp8/r/I9vfvuu+p0QFs7qF69uvL2QSibJw3hetYi1h9//KHWHRoaqqZCPfJmlS5dWnCqkKUXk7YW5G368ccf1QNlELUQNogcUg8ePFCnHyKcjhb9BLZf532I/rsQcQX4nVFh6Sfy9/1LESudKIkhMWRRrcFSLk1BJ1qzCQn4J4HCybPLmZZzpPX6b2SNycvKiLXb8K3MrNpfamUsaaS74T5/t5gpmWc3lwILOsjJ5jMlZpDtxOiGJ2FHtwk8CHss760ZLMExguSXyn3dHi+yB6CQFdmEOT4JkAAJkAAJeAGBUwY/RFovffHixeLoZB/kO3LW7J1Q6OwYeu3y5MkTofidd96RDz74QPLnz6+8qtBG87SK0NhGQadOnQQPzRAOR/MOAgv+2egdC+EqwhFos2G4YREL3lc7G02U9PFThBuTL0ggUAnMrjpQfjq6WIbs/Tf8y1UObdePkN2NJ0mWhGlc7Wq4fdyYseWjgg1NiegXS+nF3WVP48mGx2LHyCFw//kjKfxbR1Ni/tcyp9pAiRnD+8XGoMhBwVFJgARIgARIgAS8hUCFdIXUm5PQF+6LLvBgclX88RYO8MAaM2aMdOzYUSUM98Q+nD3W21sY+PM6Lj+6xbAVL7vBc0+vN+w9gnxYh5v9HBAi1rBhw1T+ORzAEFmGXHSJEiUy5cRrIS9Nhz1EhiEnnp7BMxe/f23V6/XRK4M37J49e+TRo0d61U6VubsGpyaJ5EYfFWgonfLVNTxLyUVdDSeRNzrpl8XaSk1TuNqF0BvqtNKNVw7Ia5NoQoteAjhMYNqJFZJrXht59vK5TCj/iVTPUDx6F+Xk7PTIchIUm5EACZAACZCArxLomq+ebL56WIbtmyXfvd3ZV7fBdfsJgSJFigiS1nvSFp39Sw3X762WnhyWY7lB4MXrl/LZjkmGR5hX7QtJGtuzIceGFxPJHcuZThKFwFKlShUpX768OnQCByt40pDPDwc1zJ8/X41/zpQfEAdYeNJwOungIUNkyODB0qZNG/PQOI0Vod04odQdL1zkMvz66691D80wT2bjAmHhI0aMkJw5c8qaNWtstPKd4mElPxCcBLjzxnFDi/5g00iBd1dU2qwqA2T1pd3SxuQV9t7aIRInZojkSZJJSqTKIwWSZY3KpQT0XBAQD9w+Y8pZ+LecvHdRfdEJIBvqjZH8ybL4DJsYprh1HCJCIwESIAESIAES8EICrVq1krlz59o8Jc7ZJaeb2URevn4VbScXObtOtiMBVwng5xo/37ArbRdKLOZfcRVhpLTv/Nf3svjcVkNjF02RQ1bXHWWor692wqmeEJo2bNigQqCnTZsWKVtBeDgOfYCwdePGTUmePJnH5sFBGDggA3kUcYKppSEkHQdjHD161LLYpeuaNWuq8a9evRqh37hx45RIhQqs4fr164KDKnBtaUmSJFFeaRMnTrQs9snrxy+eSY65rcxChKubuNB6viDsL6oNQsqQfTNl4T+b5ebTiCf5RvV6Anm+LInSSLf89aV97loexwAvzObNm6vDdDw+uGlAClmRQZVjkgAJkAAJkICHCHhKyEL+A7iOh5hyzpxoPl0SxornoRVyGBKIXgL5TQmEbz29L3/UGSElTd/s07yDQKrpDQ0v5KpJkPSnhNALFiyQ/v37OxWWffr0acmePbvN016fPn2qvLfOnj1rmO+pU6cEOQNxKIanPL8Q7odDO5o0aSK//fZbhLV999130q9fP3VIBkIcjViJEiVMp+JelStXrkTojg/N1oZTXqtWrSoQwN4uVUrSmE7HjRMnjnUzn3494sBcGXMoIm9nNpUufnI52DRyBFNn5kebp6ZwNqQ9ePYqzNkubOcBAvFixpFEpveBeE8YWRbZQhZDCyPrznFcEiABEiABEvAiAkliJ5DhpTrKgF3TJO+8drK09jdSLGUuL1ohl0ICrhE4H3pdavzRRyDSts5VjSKWa/gitfXUE38YHr9mxhJ+JWIBBHILIpQPHleOLF26dHab7N69W8LC9D/064k59gbTO6nVuv3NmzclZcqU1sURXmuhhHoiFhr37t1bBg4cqE6ORZhhZFifPn1k5MiRkTG0147Zv2hLw0LW1cd3BCHAsYKiTxKAR1h0eIV57Q3lwpwmEH0/tU4vkQ1JgARIgARIgAQ8QaBj3nekaIqcUntFX/XASWDLTIJWxgSpPDE8xyCBKCFw+9kDabBqkJy6f1nNN6hYa+lRsHGUzM1JnCMw7/QG5xrqtOpWoIFOqW8XJUv2b/je6tWrI2xk0aJFKtTPugKnv+bNm9e6WMqWLSvHjh2LUI6Ca9eu2TxVFp5MBQsWlDt37pj7Fi9eXOXJ2rJli7nM8gIJ4pMnT25ZpHt9//59WbJkiXzyySe69SiEaLZ06VKpW7euXL58WTJkyGCzLStcI4AcU3tunnSt039b/3lxl9TPUtZQX3YigegkQCErOulzbhIgARIgARKIYgLwwjr23v/J+6ZEr7tunJBiC5n8PYpvAafzEIGsidLKjCr9VLJgDw3JYTxE4Ojdc4ZGgkeRP4aHPnv2TJfH1q1bVShe4cKFBZ5WyCMFmzx5snTt2lWqVasmv//+uwrZsxwAApOepUmTJlzxw4cP1UmFKHzy5N9TazVRDWUIK8RDK9u1a5eUMoXguWq1atVSa0f4oD1DOGOBAgUkc+bMAk8vRyLZ1KlTBTmtNLt3754gtNLS6wshjR06dNCaBORzq5xVDQtZKylkBeTPjD9smkKWP9xF7oEESIAESIAEXCCQMm4SWV57uDr6+td/NqnTDG+acgzRSMDbCSSIFVc+L9pcPsxbV4JjBHn7crk+FwnECQ7xy/uqiUi3b9+WFClSKCoPHjxQJxRCvJs+fbpZxEJl586dZfv27TJr1ixJnDixLF++XOW0Qh28mWwJWai3NAhbhQoVkp07d1oW616vW7dOqlevbjPHlW4nU+GMGTMEAtihQ4ckdmzHicMh2MWLF0+JWRCh7FmnTp10q5s1a2YuRwL5QBeyCiXPZubh6sW+W6dc7cL2JOAVBChkecVt4CJIgARIgARIIOoJBJmEgOY5qqhH1M/OGUmABEggPIHozNUTfiWefYXcWJYHxa9du1YlII8bN66cP39eUqUKH94NcWvmzJny7bffSsWKFVU4XoUKFeSvv/6SCxcuOLW4zz77THkvwcMKApojg/dXu3btlDDVqFEj5QnmqA/Etvbt2yvxC4KZM4Y979u3T4oVK6Y8siDMoUzPLJlBvIPHGnKIWSZ7f/36tV7XgCpzJz3AhdAbbrFatmyZuicIU6WRQFQS4FdZUUmbc5EACZAACZAACZAACZAACQQkAYgurVu3VknfY8WKJQiV00QsiFd4DBs2TLFBcniINjjFsEWLFrJ582ZVj5A8R7Zy5Ur5/vvvlcA0btw4sxeYo37wDIMAtnjxYochhsi5hXxdEJfmzp0bTqizNw/EKYheI0aMkLt37yrvrMePH9vrouomTZqknq9fv24KS7xlbh8U9L+Ps8+fPxfk63L0uHXrls08Y+aBfegicUiCKF8t7iN+LuEdRxEryvFzQhOB//3LJw4SIAESIAESIAESIAESIAESIAGPE0CuK+SEmjNnjrz99tuCvFl6oXiDBg1S4lW2bNkEuadgEIqQKB22f/9+9Wzrf0geX6dOHUmfPn24XFK22luXjxo1SrAGhAA2bqx/iMIvv/yikrUnTJhQIB5BzIKgpIlx9p7RDiIeEs//9NNPavoECRJIjx49rJcS7rWWSB5iYPr06eTGjYieROPHj1cnROKUSHsPiIdTpkwJNz5fOE8AYaT4WZ4/f74Kj3W+J1uSgOcIMLTQcyw5EgmQAAmQAAmQAAmQAAmQAAlEIICk6vA86t+/vwwfPjxCvWVBzpw5ZcyYMdKrVy8lyMA7q169eoK8WokSJbJsGu4a3leffvqpEhkuXrwYrm7Hjh3hXuMFRKFXr15FKB86dKjg1ESEQIaGhpqTzUO0QrL2M2fOKPEKnk0wCEglS5ZU1/CGggAHLx1NqFIV//3fgQMHVCJ7iElI/o5E8y1btpQff/xRjhw5Ihs3brRsrq6RKwyGthDCIAJmypRJncAIEUyzPn36yMiRI7WX6vnkyZPq9Me///5bkE+LZpwAcr3h53D9+vXmQWbPnmO+5gUJRCUBCllRSZtzkQAJkAAJkAAJkAAJkAAJBByB+vXrKyHKVj4oayAQpMqVKyclSpRQ3lUQweyJWOiPUwox/qVLl5TgYzlmxowZZciQIZZF0r17d3n58mW4Mu3FwoULVVJ5eE9phutu3boJvLb++ecfs0fZxx9/rDURTdwqU6aMbngiRDlY2rRp1TPC0+ChhhBK5BLTsy5duiihDMIbQhohhmE/WbJkcSr/l96YLHONAO4xwjsthU94FKZOHT6/m2ujsjUJGCdAIcs4O/YkARIgARIgARIgARIgARIgAbsEkNcqTpw4DoWo/PnzhxsHXk1I1I4QPkuDYIVwPoxpaV988YXgAUN431tvvWVZra6XLFkSoWzBggUqrxTmgteXZpYiFsrgDdWzZ0/10NpYP2v5rjQPLet67cRFjKVZ1qxZBQ89QxJ6eGDhZESIerAMGTLI2LFjlffZ6NGjVV4vlMPrjeY5AvDAA+d+/frpDtq3r365bmMWkoCHCVDI8jBQDkcCJEACJEACvkJg6flt8sOh3+TqY9OHlzDHyXZ9ZV9cp/8SiB8rjqSJl1za5qouXfPX99+Ncmd+RSB16tRO7efYsWNKgHKmMRK6azm09NoXKVJEChcurHJqIadRhw4d9JqpMghZCBvTvKlsNnSiAqF8MHig6RkSvMOQyN6RTZw4UYWx/fDDDxGawkMoc+bM0qBBA3MdTmikuU8gLCxM2rZtq06u1IRHvVG7dOmsV8wyEogSAhSyogQzJyEBEiABEiAB7yGw4cp+ab52qHlB6eOnkByJ05tf84IEvJXA7WcP5OyDK/LVnunq8U2pD6Rj3nfEdN6bty6Z6yIBmTBhgvImsvag0tBA/MHpb506dVJJyBHy17mzbZHg6NGjkttBvieE38EQjgePLpxEeOfOnQghh/AWm246rRD5qlKkSKEtyfDzd999p/pa5q6yHAzeZM4Y1gQOCKeEF5i1waNLE7E2b9miqsuXr2DdjK9dIHDhwgX1cwBB1RlzRox0Zhy2IQEjBChkGaHGPiRAAiRAAiTgowTeWztENl759wPO2LLdpX6WshI/Vlwf3Q2XHYgEwl6/lN03TkjTNV/LwF0/y4SjS+Rg02mBiIJ79hECyCtlzzSPI+TFguAE4UsvUbo2Bk78c9Yg+OzcuVMKFSokpUuXViF6ln2LFi0qb968Ud43luVGrzdt2qRC/+z1twwrtNWufPnypvxLqeX8+fO2mpjLJ5k8t2Dx4vFvmRmKgQt4uK1evVpat24tuI+ODEIjjQRsEcDvscg0ClmRSZdjkwAJkAAJkIAXEei8+QclYuVJmkk21x/nRSvjUkjAeQIhQTGlXNqCcq3dImmxbqisv7xfKi3rKZvqjXF+ELYkAS8hgOTZs2fPVqcT5s2bV3aZRKds2bMr0UnvpEEjy4bw9ccff0jdunWVZ9jWrVsF+a/Kli2rkqcj9BA5t9y133//XQ0xdepUm0M5I0yhc3YTg+vXr9scx7ICp+ilTJlSJbq3LA+U69dvXntsq+nTpzefHPnZZ5+pHFmWCd4tJ2rYsKFUrVrVsojXJGAmENlC1v+y7Jmn5AUJkAAJkAAJkIC/Edhx45gsPrtFksZOKH/VG+tv2+N+ApTAvGpfSLGUueT43fPSbsO3AUrBf7b9Rt74z2ac3Am8X3ByoCYCZc2WTd59913lRTVmjOfEWYQOQszau3evJE6cWIoVK6bmQDJveGu5a/Dq6tixo8krKp7UrFnT7nBIRO8pu3LlisrtFciCyo2n9wzjTBE3ic2+SKT/9OlT+frrr3XbaAcL6FaykAQimQCFrEgGzOFJgARIgARIILoJvDJ9W1t/5SAJjhEkf7eY6XQy4eheN+cnAWcIrHznO0Get5UXd8nd587l33FmXLaJegLPXj6P+kmjcUacIDh//nxBYvZKlSqZV7Js2TLJlCmT9OrVS0aMGGEud/cCYtaqVasEp9EdPHhQDedKmKK9+du3by/37t2TuXPn2v0bg/xezoQW2pvLsm7AgAHqJUSXQLUT9y4a3nreJBnt9oXn3ldffaXCT7t06RKurac8BsMNyhck4CQBCllOgmIzEiABEiABEvBVAjP+XqWWPrpMV1/dQqStG9/m03yfwKQK/yaD/nrPDN/fjB/sIGFIPEO7ePH6lVwxnaIaCDZr1ixBaFbMmDHVyYLWe0bibXhOQajB6YOesGrVqplPOtS8veDJBGFp1KhRhqfo2rWrzJw5U6pXr27ztEJt8N27d0vWrFm1l24/Y14ks0dIXKDa2st7DW+9RsYSTvedNGmSIMwwQ4YM5j5z5swxX/OCBKKSAIWsqKTNuUiABEiABEggGghM/3u1OtOteY4q0TB75EyJMBZ8Gzxg4ECV8wWhKnv27HF5MoTUZDOF8uBkL5rvEng7dT61+N/+2eS7m/CjldfLUsbwbhad3Wy4ry90PHz4sArla9u2reDUt0ePHtn0YLp//75UqVJF0AeCF07vu33bNaEPYn27du3UHMglhQTdL168ECSWx+9R5LHBCYOff/65agNRCLm0+vXrp05QXLdunU2sWB+Ssk+ePFly5MghK1euDNcWa50yZYp6fP/992axCSGO7hp+Z2NOGHJ8BbLNPmX7Hjni8m7m0o6ahKuH6Hnp0iWZNm2aBAcHS//+/cPV8wUJRBUBJnuPKtKchwRIgARIgASiicBJU9gBwgrxMGL4QIOTrZD7xIht27ZNHSsPwciW4Vvex48fR6hG7ph9+/bJhg0bZIvpiHWMBUO4Ax6xY8dWSZHHjRunjpaPMICdAnyTj6PgcSQ9zfcJlDclgN9y7Yjvb8QPdtA9fwOZY/DD9bB9s6RHwUZ+QOHfLSCMLzQ0VL799luBmKMZBKDNmx2LdhCf1q5dKwgLRD4rPGBIbn7z5k1tOPUMYerZs2cqZ9RAk8iPJPKaQTRDonX83rQ0nKiIB34PlipVSuAJtmLFCvVAuz///NOyubrG7+saNWqo38sowBcCemJSihQp1NiWycJbtGghOXPmjDCmMwVaSCL2Wbt2bfnnn3+UF5gnPbycWYc3tTkfel2evwoztCRkKktnCss2Yh988IHgET9+fFNS/huSJk1qI8OwDwkYJkAhyzA6diQBEiABEiAB3yFQPFVuw4uFtxM+iOGhZ3379pXvvvtOr0qV4Rt+RyIYPpggjEYzHAOeLFkyyZgxo+TKlUty586tPggivwpOs4oTJ47W1NAzPuzBS6FHjx6GQmrgRXH1ylWZOs326VyGFmagU6dOnSRt2rQyePBgA7090wXeEadPn44wGDw9oirkp0XOqhSyItyB6CnIkTi9xAkOkWcGP2D/fOJP+SBvnehZvIdnvXbtWrhQuhIlSsiMGTMEJxQ6awjZQ9JthHH16dNHdcO41gZPK3gpXb161VwFsWHo0KHqd4S5UOciefLkcubMGVWDLw+QfB7PEIysDZ44efLkUUIWvLE6d+5s3cT8evHixWo9WBdOSXTndzd+z+B3NxLWQzjD34w1a9aY59K7CAv7V+SxFNP02vlqWbXlnxle+tLa3xjuq3V88OCBnDhxgkKWBoTPUUaAQlaUoeZEJEACJEACJBB9BEKCjP/Jt5dsGB5TP/74ozqtyp3dIWwGYpY9+/DDDyV//vz2mjhVhw808A5r1qyZYc+AuHHjyrlz55yaL7IbIcEyvhWPTsOHbHywxYdhS8PPBz7oJEqUSH3wzJIli2W1R69Tx03q0fE4mHsEdjeeJIV+/cDQIAN3T5PmOatI/JjuCdaGJvdwJ/zMw8sJIpQ7YVgQjxCOiIctCwkJEYQSQiz75ZdfxGgid5xoiIc9Q0giHo4MJzB6ykqXLq28v7C/69dNnkgmbzdHBjEdf6OSJvW/3w9IG/AwLKInsyMmqE9kymOnhWQ7095WG/ztNvpzZmtMlpOAMwSMv6t1ZnS2IQESIAESIAES8GsCSNwbmeJEZMCrWLGilDN5BixYsCAyhg/oMfXy9zx58kR9qEb4DzxDBg0aFNCMAmXzaeIlk+oZisnay/tc3vJrk6hdfkkP2d9kist9vbEDTiB0R8RydU9G8gW6Okd0tB8/fny4aRFa7sjwpcVHH33kqJnP1V9/ckc+3zHZ8Lp/q/G14b7sSALeQIBCljfcBa6BBEiABEiABHyUwKZNmwwLWfDAQs4TeOs4a5bhh/b6oN3FixfDNYF3ELwMMGc/U4JaHCXu6jfJ8H6CJ9bPP/8cbmy+sE0AYaX4IFmpUiXFG0ml4TlC838Cc6oNkkyz3jMUYnj50S2puryXrK07WoIM5vfzf8LcYSASuPc8VIov7Gp4681yVJaiKYzlKTM8KTuSgIcJUMjyMFAORwIkQAIkQAKBRACJgN977z1DW0buLUfhhJYDoz3C1IwYBLd69eoJvLGWL1+uQn1WrVolrVu3dmk4JJ0/fvy4S33Y+F8CBQoUUKIn8pIhrw4tMAjsa/IfFWL46o3rJ4MeuXNOqi3vLRvqjQkMWNwlCTggcC70mpT+/SN5beDfE4YulDy7/FjuYwezsJoEvJ8AhSzvv0dcIQmQAAmQAAl4LQEkeX3rrbc8sj4kKsZx7jiNy1VDjiaceohTsvQMubWQMHnRokWqGsnkkeeqXLlyes1tliH/jPUR8zYb26jASVuHDx9WCXJxkljJkiUlX758Nlr/W4zTFXft2iUIGYI3U4UKFVQ/u53+W3n27FmVtBnJ2BHiVLZMGcn63xMkz5nqsphC/iASWhsSK+/YsUN27typctHgPoMXcs4YtSJFiggERFrgEEgZN4msr/eDVF3WS4yIWUfvnpfMs5vLmrqjJHeSjIEDjjslASsC006skAG7plmVOv8ShzCse3e08x3YkgS8mECQF6+NSyMBEiABEiABEvByAhCPcGS7JwzHv6dKlUqJKhBWrB+Yw7pMe43wNXs5aCCOaSKWJ9ZqbwysacwYfQ+SLKbEzzi9a/To0YJTx8aNG6cS2COPi3a6lvXY/fr1U4mKcVoZTnJE2GSHDh2UaAfhz57BCwqnPOLksAwZMsjJkyclr0k0q1atmuqW3bQWCFbWBvEKp01CuIJYibW2aNFCldnjbD2O9WuEZqZJk8a6mK/9nEC+pJnl2Hv/p04yNLLVpy+fq5xZtVb0NeyJYmRe9iEBbyDwz4OrknNua7dErNqZSsrWBj96w3a4BhLwCAF6ZHkEIwchARIgARIgAf8iADHGWYsVK5azTaVu3boqtE+vgzanrXBD1NuqQ4jjihUr9Ia1WXb58mWpU6eOzXq9Cgg6jo6Ph1Cjd4pg7ty5JWPGjHL+/PkIQ8NTCd5SOInL0nDa1siRI+XSpcuSPn06cxVOcESuLniW1ahRw1yuXYBToUKFlNeZNbNhw4bJ999/r3KEoU7jrvW9evWq4HSwpUuXqnBMrRxrgVdX3rx5pWjRourUR63OmWcIZtu2bZPVq1c705xt/IxAsjiJ5GKbBdJi3VBZf3m/od3tv3VK0sxoLEVS5JBehZpK5fRFJHYw860ZgslOXk3g8uNbsvjsFhl5cIE8fxVmeK0xg4JlfLmPpEm2SobHYEcS8EYCFLK88a5wTSRAAiRAAiQQzQQQ5odjte3Z2LFjZd68eSrkbciQIYITpPr27WuviyDhurcYPJQggLliOOkQ+7ZnELusbf369cqr6e+//7auUq+3b9+uxK/NmzersEGt0SeffCIQ3BCCaG04BXDq1KnKUwp5pyxt7969cvToUZvCX+/evW2GcMI7bPjw4eFELG3snDlzKhEM3lnNmjXTip16Rn4yiJ5VqlRxqj0b+SeBedW+kCuPb5vy/HQ3lAQeVA7ePiNtN4xQgOLGjG0Ss2JJqdR5/RMYdxUwBG48uSdnH14TeCC+eO3+38oK6QrL3KoDJcT074NGAv5GwP47VH/bLfdDAiRAAiRAAiTgFAFHIhYGGTx4sOzevdup8bRGzoyr52Gk9bdVd/u26YOxyYvIW6158+bSrVs3m8tDaCS8sr755huzkAWPKIT36YlY2kAQk/SS7SOHVq9evbRmus9HjhyVtGnDh/lBwHz+/Ll07txZtw8Ku3fvLp9++qlKem+d28v6pMhHjx7J1q1b1c/Ks2fPdL3RbE7ECr8lkD5+CuWdtfX6ERmyd6YSpoxuFh/68Vh9cY/RIdjPAYHQ/zsgzzZfkJT/18BBS1ZHNwH4UrfMVU0GF+8giULiRfdyOD8JRBoBClmRhpYDkwAJkAAJkID/EggNDVWJ2eG942lbs2aN7pAIgbNV52po4f79+1W+KOuwOt2JrQqtxRurat2XSNbuyBOpbNmyAs8tzSAWIUG9I9NLjg/RqGHDhna7pkmTOkI9ErFDVEMuLlumiZHHjh2LkKQeoY7WhjKEfUKoo5GAJYFyaQqqJO4o23XjhHy2Y5L8ff+SZRNekwAJOEGgafZKMqJUR5N4Fd+J1mxCAr5PgEKW799D7oAESIAESIAEopwAkoB37NhRgoODo3xuT0yIE/i03FHIFzVo0CCBOKeJNJ6Yw3IMJHJHjqn/+7//sywOd43TBeFZphmS3yNRuyPLlSuXbhPk3HLVkAz+1atXKlzRUd9LlyIKDhpT9IVnF/KJTZgwgSKWI5isV6GBWxqMD0fiiilPEC36CfT5q5fMM3lkHWg6JfoXwxUoAkliJ5T4MeOQBgkELAEKWQF767lxEiABEiABEjBG4MyZM3L48GE5dOiQsQEc9EJ4my2zVQfxxYjt2rVL5fV68vSp0yKWXoJ0Z+Zu06aNKWF7ertNrYU0Z4TC1KkjelZhEmf66i0G4tNHH32kV2UuQz1ydNkz5EybPHmySvDvTM41e2OxLjAJpI+fMjA37mW71gQT3g8vuzFcDgkEMAEKWQF887l1EiABEiABEjBCACFwEydONNLVbh9NpAoJsX0Kmb262rVr2x3funLWrFnSrl07dbJfZie9l+C1deHCBUmePLn1cHZfQ6DCiYWu5PEKCgqSW7cce6TAi0rP+woeXY6EM+tFIwE+ThfEPfaEIddWv3791MmKGzZs8MSQHIMESIAESIAESCDACVDICvAfAG6fBEiABEiABFwhgNPqkIC8a9eurnRzqi1EFMvQNOtOyGdlr966va3XODkR3lFr165VoXsI5zt16pTal60+mzZtkqpVqwqSmbsqYmHMuHHjqsT4rghZ1apVUycP2lqTVn78+HElFGmvtWeckFioUCHtZYRnvRMkS5UsqUIs4eFm1KPLeqJ79+4JRDkcDFDSND6NBEiABEiABEiABNwhEOROZ/YlARIgARIgARIIHAI///yzzJ8/33BIYf/+/WXHjh3RCmzs2LGSIkUKJYjduHFDTp8+rUILEyVKpBKS6y1uzJgxUqdOHUEOK1c9nLTxypcvL9OmTdNe6j7jdD9LQ26pnTt3WhZFuL57926EMhSUKFFCRo8erVunFUKUtLZs/83JBZHPnm3cuNFedYS6gQMHSpkypUXzuovQgAUkQAIkQAIkQAIk4CQBCllOgmIzEiABEiABEghUAgg16927t+AUvdu370j8+MZORZozZ47yyrHFsVu3bgJBKUmSJLoP9LNVh3J4iiHMzpZBSPvqq6/k999/V4Kc5nGE0Lfr16+rMMNKlSrJo0eP1BBPnjyRmjVrCsQvXOudyKc314MHD1Sic8s6nNp39OhR2bt3r2Wx+Rpz4oRCy1MLkfsK+9ITnNARXlPwuILnlrVt3rxZscbJgnqGRO0rV67Uq1L5sXDioa28YxDkwMUVGzp0qCkHWSxp1qyZK93YlgRIgARIgARIgAQiEKCQFQEJC0iABEiABEiABDQCEDyyZMki8+bNk5s3b5rC6pJpVS49P3v2TK5evSoff/yxzX7Iu/Xw4UO5f/++7gMdbdWhHPmr8uTJY3P8ESNGqP5VqlSJ0AaiEcSsGjVqSNKkSaVx48bKcwsnAp47dy5Ce3sFEJ/0coj98MMPylPqs88+C9cdIleaNGmUgITwRUvbs2ePEt3q1q1rWaxEMZxoOGzYMNU3XKXpBRK29+rVSwldEOIsDZ5e6AsPMz1D+1SpUknKlCnDedDBm6pVq1by4YcfyuXLl/W62i3Dz9KSJUvElrhmtzMrSYAESIAESIAESOC/BChk8UeBBEiABEiABEggAgF49OTPn18lEW/UqJESoZDnyZYhmfn58+d1q5F0HLmREKKHXEnRacizZcuwhwoVKkhikxC1Zs0a5VV14sQJ5dmkl0/K1ji5c+eWZMkiCn49e/ZUoYJ//vmnYB3aA+UI2xw1alSEIXPkyKEEOuTx0trjGffkp59+kvbt2yu2165di9D3+++/V8LR+PHjzX2xR4iSV65cUWJVhE6mAniqIaF969at5d133zX3TZAggRKwcD8hdFka7iv2bc8gjEHIRH4yePnRSIAESIAESIAESMAIASZ7N0KNfUiABEiABEjAzwkgRxI8k5CoGx5GjgzheRC6Zs6cqZ7R/unTp/Ly5QsJC3shAwYM0PXGWrRokSxbtkx5KjmaA/UQbxwZwvQOHjyoPJkctUU9vLk6duwoq1atMoW/xZQtW7ZIwYIF1frBAaF72EvatGkF3lw4ic/eqX72whtLlSolSM6OpPUYE6cwYk57BgEJubJs9YE4ZMvTDUIUHmFhYaZ78VLixYtnb6pwdRDA8IA3HYQne31x7+3tWxsY49FIgARIgARIgARIwB0C9t85uTMy+5IACZAACZAACXgNgbDXL11aC3IauWLwyHn+/LkrXVRbiGUIc4Oo48hGjhzpVDt4FFl7DGHsM2fOyKxZs1T4Ijyttm/frryd4HmGcDl4KsWKFcu8DIgz9erVUzmzkC9qwYIF6vHee+8pjyY0xDxIGu+qwavKnjCkN54rfY4cOaJOYkSIJAyCGR6WduPGTSVSOvKSQ5iiL9iNp/d8YZlcIwmQAAmQAAmQgJsEKGS5CZDdSYAESIAESMAXCOy9+bdXLhMeTno5qyJjsdmyZVPhexkyZFDJ63ECI7ydHHlEYS0Qx1q2bKkeeI18UfBUciQCoW10GBLfN23a1G4IX758eWXKlCnRsbxImXPe6Q2RMi4HJQESIAESIAES8C4C0ZuowrtYcDUkQAIkQAIk4JcE8ifLIq/fvJZXpkcgG0QnnD546tQpFR6IkElnRCw9ZvDcglhk9ARHvTE9WZbFlKC/du3aygsLpwwikT0M+a3mzZsvEPPgbQaxy19sy7XDEhyDb2395X5yHyRAAiRAAiRgiwA9smyRYTkJkAAJkAAJ+AmB1rmqS/+dU2XBmQ3SMmc1P9kVt+GIAE5DRD6ucuXKSadOnVSOLYQnIik7coilSJHC0RA+U7/zxnG11qbZK/nMmrlQEiABEiABEiABYwT4tZUxbuxFAiRAAiRAAj5DoH3uWmqtvbdP8pk1c6GeIZAvXz65e/euCjFEsngkbUd+MH8SsUCq6+YxCtjXJdp5BhxHIQESIAESIAES8FoCFLK89tZwYSRAAiRAAiTgGQIIt1pSa5gKLcw9r63yzPHMyByFBKKfQO0VfeXK49tSO1NJSRY7UfQviCsgARIgARIgARKIVAIUsiIVLwcnARIgARIgAccEFi5cKIcOHXLc0KrFy5cvZeDAgVal+i/LpMkvDbOWl3vPQ6Xisk/1G7GUBHyMQIt1Q2XfrVOSL2lmmVGlv4+tnsslARIgARIgARIwQoBClhFq7EMCJEACJEACHiTQpEkTqVy5siB/Ud++feXGjRs2R8dJeevWrVOJxkNCQlTuI5uNrSr+U7GXVE5fRE7euyippjeUuafXy+MXz6xa8SUJeDeBsNcvZdv1o5J2RmNZf3m/pI2fXDbVH+vdi+bqSIAESIAESIAEPEaAyd49hpIDkQAJkAAJkIBxAjdv3pR48eLKyJEj1SNjxozy4Ycfmgf866+/pF+/frJz505z2dy5cyVz5szm185cLKj+lay/sl9arB0qn277ST3Sx0+hxABn+rMNCUQngVtP78vF0Bvy5r+L+KbUB9Ix7zvRuSTOTQIkQAIkQAIkEMUEYpgSf2rvBaJ4ak5HAiRAAiRAAiRgSQDCVKtWrSyLbF4XL15c9uzZY7PemYql57fJD4d+lauP78iDsMfOdGEbEohWAvFjxpH0CVKYTt+sKt3yN4jWtXByEggUAvhSZdq0acyvGCg3nPskAQ8QQJRB8+bNZd68eR4YLeIQ9MiKyIQlJEACJEACJBAtBFq2bCnDhw+XY8eOOZx/w4YNDts4alA/S1nBg0YCJEACJEACJEACJEACvkKAObJ85U5xnSRAAiRAAgFBYMeOHRIUZP/P8xdffKFyZAUEEG6SBEiABEiABEiABEiABCwI2H+nbNGQlyRAAiRAAiRAApFPIGHChNKuXTubEyVIkECGDBlis54VJEACJEACJEACJEACJODPBChk+fPd5d5IgARIgAR8ksAvv/xic92TJ0+2WccKEiABEiABEiABEiABEvB3AhSy/P0Oc38kQAIkQAI+SWDs2LG663Y2GbxuZxaSAAmQAAmQAAmQAAmQgI8ToJDl4zeQyycBEiABEvBPAl26dJE4ceKE29zevXvDveYLEiABEiABEiABEiABEgg0AhSyAu2Oc78kQAIkQAI+QSB27NgCMUsz5MYqVqyY9pLPJEACJEACJEACJEACJBCQBChkBeRt56ZJgARIgAR8gcCYMWPMyxw8eLD5mhckQAIkQAIkQAIkQAIkEKgEKGQF6p3nvkmABEiABHyCwDvvvKPW2atXL59YLxdJAiRAAiRAAiRAAiRAApFJIGZkDs6xSYAESIAESIAE3CMwevRoiRcvnnuDsDcJkAAJkAAJkAAJkAAJ+AkBemT5yY3kNkiABEiABPyTQJ48eWTGjBn+uTnuigRIgARIgARIgARIgARcJEAhy0VgbE4CJEACJEACUU0gbty4UT0l5yMBEiABEgggAtu3b5ePPvpIwl68cGnXO3bskMaNG7vUh41JgARIwF0CFLLcJcj+JEACJEACJEACJEACJEACJODDBMqUKSP379+X2CEhkiRJElm+fLk8efJEd0enT5+W1q1bS4wYMQT9pk2bptuOhSRAAiQQWQSYIyuyyHJcEiABEiABEiABEiABEiABEvARArNnz5YtW7bIxYsXpV69ekqoyps3ryRPnlzt4NNPP5U5c+bI7du3zTvat/ERGlYAAEAASURBVG+fJE2a1PyaFyRAAiQQFQQoZEUFZc5BAiRAAiRAAiRAAiRAAiRAAl5OYNu2bZIxY0a1yjdv3sjx48fNKx43bpz5Ghe1a9eWt956K1wZX5AACZBAVBBgaGFUUOYcJEACJEACJEACJEACJEACJODlBDJkyCB9+/Z1apVLlixxqh0bkQAJkICnCVDI8jRRjkcCJEACJEACJEACJEACJEACPkpg+PDhKk+WveVPnz5dQkz5tGgkQAIkEB0EKGRFB3XOSQIkQAIkQAIkQAIkQAIkQAJeSCAoKEh++eUXmytLnTq1tG3b1mY9K0iABEggsgkwR1ZkE+b4EQg8f/VCtl47LH+ZHsfunpPzoTfk0qObEdqxgAT0CGRMkEoyJEgphZJlkwrpCkmldEUkVhB/lemxcqXs6cvnsuHKAdl6/YgcuXtWrj2+y3+XrgBk24AiEBIcSzKZfhflTpJR3k6dTyqkLSR5k2YOKAbcLAmQgH8TaNiwoSRMmFBCQ0MjbBSnFOLEQhoJkAAJRBeBGKYkfm+ia3LOGzgE8GO25vJeab/hW3n15nXgbJw7jTICM6r0k1qZSkoM03805wi8Nv27nHVqjfTZMdm5DmxFAiRgl0DOxBlkZd3vJFGseHbbsZIESIAEfIEATi/MnDm8SA9vrVevXvnC8rlGEiCBaCQAsbt58+Yyb968SFkF3RgiBSsHtSTwzf7ZMuHIEnn5xnN/9NLESyZxghmXb8nZF6/xM3H50S2PLL2dSSSFdcn/rgwp8b5HxvTnQXrvmCSz/l7j0S1mNHnKBccI9uiYHIwEooLAlce35MVr9/9GnX5wWXLMaSWp4yWVnyt9LiVT5YmK5XMOEiABEogUApkyZZKsWbPKuXPnzOPv37/ffM0LEiABEoguAvTIii7yATDviXsXpeLST9zaaZBJyUUo2fdluqnQDbcGY2evJ7D75gnpsnmMXH18R1676bm3qu5IeStFTq/fc1QvcMWFndJh43duTRszKFhyJckgP5btIQWTZ3NrLHYmAW8j8EbeyPD9c+SXEysl9MUTt5aHv1/bG/4ksU2hiDQSIAES8EUCS5culQYNGqilp0qVSm7cuOGL2+CaSYAEophAZHtkUciK4hsaKNN9+NdoWXpum+HtBscIku9Kd5aWOaoKPjTTAovAS5NnxO/ntkjPbT+55SVRK1MJmVllQGDBs7FbhPQ2XPWF7Lxx3EYLx8VxY4bIpAq9pFbGEhJk+jdKIwF/J3DBlMNx2P5Zbv09w9+w32p8LWXTFPB3XNwfCZCAnxLQ8mH99NNP0r17dz/dJbdFAiTgSQIUsjxJk2NFOgGEiuWZ11Yehhn/FrtlzqoytuxHkb5WTuAbBNwVReERsafxpIAWXsJev1ThTs9ehRm66fCM7FOkufQu3MxQf3YiAV8ncO95qJRb0kNuPb1veCu/VP5c6mYubbg/O5IACZBAdBGYOHGiErCYWjm67gDnJQHfIxDZQha/Uve9nwmvXnHFJZ+4JWJtbTCeIpZX3+GoX9zUip/JpvpjDE+MEzGL/tbJcH9f74hTQgv9+r4YFbGw/z2NJ1PE8vUfBK7fLQJJYyeUo81+kba5axge5/2NI2XBmY2G+7MjCZAACUQXgTZt2kj79u2ja3rOSwIkQAIRCFDIioCEBUYJVFv+mZx+cMVQd4RenG4525R3J6Oh/uzk3wTyJc0iV9r+JolC4hva6LUnd6Tx6i8N9fX1TiUWdZW7zyIene3MvlLGTWLivlDlqXOmPdsYJ/Do0SPjndkzSgjgm8XRpbvKwGKtDc/38dbxcj70uuH+7EgCJEAC0UEgYcKEMm3atOiYmnOSAAmQgC4Bnlqoi4WFrhL47Z9NcvjOP652M7f/p+UciRsztvk1L2wTmDx5svTp00e2bdsmhQoVst3QQU2rVq0kZsyY6hu2ypUrO2gd/dWxgmLK7sYTTaGr7QwtZsu1I/LT0cXyUYGGhvr7Yqd+O6fIdZOIZ9QONJkisaI4R139+vUFiWXt2ePHj+XDDz+UOXPmiJa3w1776Krr0aOHzJgxQ0aMGCHdunWzuwx8SMiWLZv884/x36N2J4iCykGDBsmYMWME98cdw++mFy9eqDCWihUrujNUpPT9pGBjCTN5Oo46uMDQ+CVN4vJlkzAfYvqdRiMBEtAncMj0nvLcw2tuH7igPzpLScD3CRRIllXyJs3MU9x9/1ZyBwYJMNm7QXDs9j8CSMydbmaT/xW4ePV7rSFSLk1BF3v5f/PTp09Lrly5BO7c06dPl6Cgfx0ow8LCJHbs2ErMGjlypGEQGHf27Nniar6Ds2fPyu+//y79+vUTnF5z9epVw2sw0vHEvQum0zA/NdLVlCcrhpwxiaYJYsU11N+XOt169kDyz29vaMkxJIbsbzpF0sdPYai/0U4rV66UOnXqKIF27969EiuW/klv+HeBfx/vvfeezJ8/3+npcubMKWfOnHG6vXXDJUuWCIQ2Zw3CzjfffCOhoaGSIEECu90gyK1atUpq1qxpt51WOW7cOMmePbvDcbX2tp7v3LkjSZMmlSpVqthqEqH86NGjUrBgQSXOTZgwIVw99jFs2DAZOHBguHJXXtSqVUtWr16txCyI7c4ajodfvny5fP755/L8+XN58uSJxI0bef/W6/zZT/be/NvZ5YVr926W0vJzpc/DlfEFCQQqAZxU/Pu5zTLp2DK38tAFKj/umwRAoEr6otK9QAMpn9b4l9wkSQKeJID3hM2bN5d58+Z5cljzWM6/QzR34QUJhCfw3trB4QtceFUoeXaKWDZ4jR8/XtX07NnTLGKhICQkRIoVKyY//PCDuCNkJUqUyMbMoj4glypVStXv3LlTXr9+rT6MI/wJQppm165dE4zz8OFDrSjSn/HtU7UMb8m6y/tdnuv1mzfSa/tEmVKxt8t9fa1DlWU9DS+5Va5qUS5iYbG1a9eW48ePS758+SRJElNY45Ur6tlyI7t27VIi1tdffy1fffWVZZXDa03Imjt3rsO21g1atmwpKVK4JuylSZNGDeNIxNLmihcvnnbp8Bleaxs3eibf0syZMx3OZ9mgc+fO6mUv0+8maytRooTbQhZ+p+D+64lY8Fp7++231bT43fTq1SslWD18+MD0u+lFuOXkyJFD/QyFK/Tgi8U1h0qmWc3kjYExl5/fYaAXu5CAfxE4ePuMtFw3TG6bvnihkQAJuEdgw5UDggfStVTPUExmVOnv3oDsTQJeToAeWV5+g7x9eU9ePpOss1ua3sgbeSsvcqnNrxI7WN/rIjL3XrduXd3hixcvrjwuihYtqlsPz6iFCxdGqMMHJny4atSokRKarBvAI6NFixaCEL7evZ0TUaBiZ82aVeABZW0PHjxQH/R++eUX6dChg3W1U6/teWRh7jhx4kiyZMnUh3d4bKRNm1by5s0rRYoUUd4bzn44d2oxLjbCKXwZZjZ1sdf/mt9sv/h/L/zw6u7zh4ZDMIEjuvnAaypPnjzy98mTkt30b0szhJvh5w5ixokTJ7Rip5/h7QWvL1e9EDEB/k046od/2xCY8e8W3mT379+XmzdvKs9KR4s8deqUZMyYUXkQvXz5Uv27h1caRGs9Gzx4sEDMs7UmeFrBay1LliyiCWrW49y4cUPVHTx4UAoXLmxdrfsaXk4Ig8TvsnXr1kVos2PHDilTpoxL3mXWg8Aja/fu3XL37l3rKsX2woUL6vdRypQp1e+o5MmTC35n4/c3QhHhsRpVNmz/LBl/+HdD0xVKnk3Wvfu9ob7sRAK+TODYvfPSaNWXgtNA3bVSqfMKQqxKpMojiWLFk6yJ0ro7JPuTQJQTCDWd9n7z2X0VTnvg9mnZfv2YKTVExL+Bri4MHlpfFW/naje2JwGPEMB7Z3pkeQQlB4kMAhuuHDQsYsEFNjpELHBYsWKFLg6U4wNi4sSJ1YdQ60YnTR+sbfVFqA/+wX733Xcq7M+yLz6Aox8EIWds1KhRqtmWLVt0m2N9FSpUkK5duxoWsnQHtiisXr26LFu2zKLEey6RW6ZS+iKyyfTzZ8QmHlsi3fI3MNLVJ/oM3TvL8Do/LtjQcF9XO0JogTgaM1jHOTiGSP78BcIN+fLVS+WBc/bsPxIndpxwda9MIc74dxadBsHonXfeMeeu27dvn6xZs0YaN27scFnIo1WpUiXJkCGDart/v+seh5aTwLMNvyMQMrh+/XrLKreuR48erTw0EQapZ6VLl1ZemviyILLuR/z48SPV00pvX7bKBr3VxrCQdfTuOVvDspwE/JZAh43fyYoLO93aX7r4yWVjvTGSJCSBV+dJdGuT7BzwBPCl7bLz26Tb5rGGWUw4ukSmnlghe02nT6eJl8zwOOxIAt5IQOfTgzcuk2vyVgKD9043vLSPCzYy3NcTHQsUKCBHjhyJMNSsWbOkbdu2pnC+GCYx64H6UGbdCCFP6dKlC1d87dp1U36bGio/CzwxkBvHiCG3y5dffqk8vNKnT29zCIhMCL+BZxXWHGg2uHgHqXjlE0Pbnn9mo18LWX9e3GWICzq1zlndcF9XO0KQ7d+/v/KysdUXnkXIeYR/T7Y8i9DXlVxtH3zwga3p7JbjgIWyZcvabINDGPDQ7KefflJC1vDhw7Uim88QspDAvnz58jbbuFIBb0qYFgboSl9bbSFMIZwTnqd6YX9aP3iRIgyze/fuYp1DS2vjT89FU+aUA7dOu7wlhDr/dfWQVEznnDecyxOwAwl4EYEXpg/l5Zd8ImcfGs+rWT1jcfmxXA9JFjuhF+2MSyGByCGAL22bZKuoHr+f2yK9tk2QJy+fuzwZDicp9OsH8n2ZrtImVw2X+7MDCXgrAQpZ3npnfGRdF0JvGF5p2TThvS0MD+ThjhCGEDrTsGFD6du3r0yaNMmpGdKmTSOHDh1SXlfffvut+sCHfFauGrysnj17JgjRsWcQAXAiWrt27VTSa1vhktoYNWrUEC3vFcqwVtgXX3yhnvE/eIBt2rTJ/NqbL7K7ET5w8t5Ft7eG0KeSJUu6PY6nB8CHBaPhGjg5NCrDMnBYwNChQ+0iQAghhKwBAwbYbedKJU47dNXwbxleThCykJcpODjY6SHgqRnVpoXlIRTYU1atWjUlYDnih1A//B6bOHGi8hhFyJ8969Spk6ROndrcBJ56T58+Dfe7CQnmFy/2zpDgOplKGRKysGHkM6GQZb71vPBTAq/evFbh7qEvnhjaYQzTASRbGoyTXEkyGurPTiTw/+ydB5wTVdfGz1Z6kd6r9K5iVxCkSS8iRQEpiqBgAwsWkFdEQEVEBCsIqHQp0rsISq8iTXrvHZb2zXP5JmaTSTKZZDfJ7HP8xSR3bv3Pkpk595RIJ9Ck8COCV53f3pA1x7dbWs5ry7+STPHppEEhzxtyljpmIxIIEQEqskIEnsOGN4FGjW67nSEmlllFFlaEB9bu3bvLBx98IAhK7a91BeL3/PDDDwI3RTMCpdsnn3yi4notX748kaLKtf28efMEL1dBhrFIlHgtttod2q6sVaXNOS0eQcZ488G1nRm99NJLggDZiFUWbgJFllXBDU4oBMkC4C5mpBwy+pt1niMUNshM5092OiiKA5G0adPIt99+p6whzfQzeLBvt4CXX37ZTFem6+gJGGC1GQxBbMClS5cq60/Ez/MlUGIhuymCv2/ZskUF8PfUBr97Bw4ccDscKb9N9+co5TZ3swV/HHG3CjbblvVIIFIIlPylrVhVYmVLnUn+bDpMxb+KlPVyniSQVARm1f1YRm6bJT1XfG1piI6LB2mWWRdpmWWJHhuFGwEqssLtjETQfDwFGY6gJficqpUHXj2jFtwP/RFkAEQw6uLFi0u3bt1MNYXiDJZVeIjHuIir4ylQvev50q1EXMtNDRwmldJqFkRWFVlIVOCvIuv06dPKpRR/F3CJC0fBzrdVSR+XxmrTgNpB4eEraYH+92o0EKwIEeTbl3jrw1db/fj+/ftVdrzx48ebVmRBue1LAlFkeVuXs6WT8xzgHghlkxmBJdqTTz6pfmOefvppM01UnV27dikL1TJlygiC2SNrpJGAqS7IkIpg7bCK1a3K9GPh+p47nX/ZLJ3Xsf3Mf2t3LudnErALgWZz35ezVy9YWg6shP9uMdJSWzZKHgKwnoXFstFGlD6DBM0tfe6cOeLLc0Cvb/SOe12E9IDburdrnlFbu5W1K1FHMmiJDV6wGDsLlll1C96vuehmtBsarieFEaAiK4Wd8GAuF1lnKO4Ejhw5ogqRQt6swJUGCiw8wC1btsxsM0c9WGMhyPJdd90lb775piDejjdxjqmFz7DschXMyWycL8TLgRumnQVZJ8eNG+fIEheI4sHOnKysDQHSN27cKHA1dBXExYKF5PDhw10Pqe+IoYWMmmbknnsqy8yZM5XVo65wNtMOdaCYRnY/WAlFR0drFlnfmm3qNbaX6U68VGzYsKEg5p+zfP3113L8+HHp1auXc7H6jCyqZn+foIAqV66cqo/A9f4IrOwQVwwuuPh9Q6B4X1lb4VKNrI1QGv/8888q26vrmAkJCaZ/m+CaOmbMGNcuwub7FS12CYUE7EoAmdeWHtpoaXmx0TGysbn531lLg7BRwATgRo4wF/BEcA5V4dxx7Vq1ZNGiRSoUBjwdrAjiwiJ+LNz7je6TcZ/gLZs2NkZmzJihrt9Wxg+3Nk212FnLjmyWsdvnW5pa2XHt5VAb9yzsljpjIxIIEQEqskIEnsOGNwE8REGQ9ctfgbIDUr58eVNNlyxZorKVQRm0e/duw4d5Xx3BugIXaWRFRHyu77//XtatW+cWkB79wALLOd4QAttDEYD4N86yc+cO1ZdzGdpevHhR4FrkHOz5wQcftKUiC9Yhv/zyi7Ru3doZg9p5NFK6JKrEL6YJZM+eXfByFd1SB0pDT5ZFnspd+8L3Xr3e1oKPD5X27dsbHTZVhn9jcHf0Z9zevXv77BsPA1bl119/dWuqK6ERnD0uLs7tOAqOHj1qWK4Xwn0WMfjSpk2r3GjxNw/lmD8Cq689e/bKnXcWlddff10GDBigkmx4+vdTS3vg0aVVq1Zq5x2pm50FQefxO+cqFy5cUHOFolEXlIWzIkufJ99JwG4EcL/QaPY7lpc18rE3tHg+6S23Z8PkIQAlFpKLeFJiYRYLFy4UxGlFXVxDpk+f7rdCCfe0sMSCQsxI5s+fr/o0urYcO3ZMxbZ0vjYY9RFpZZ892FXm7l8txy+f8Xvq17VMz8ho2LVsI7/bsgEJhAsBKrLC5UxwHmFFQHdTQtYxf2T16tUyRzOfLlq0qOTLl89n04cfflhZLKAiYsTg4RjWVTCd1i+4d955p+pn586dbv1dunRJKcxg7YCHTVysMS7eO3fuLNjBchX0j7GgpEPMGwRirlGjhrrReOyxxxzV69R5wq39iRMnlMIByh1YgegChY/dBOceCj9Yr7jKpEmTXIv43U8C+NvE36m3eEuwesK/Ayh4daWWt2Gg4EBwc0/utXB/wN8w4kfB6scfgeLWrBWTa7/4t+hLAlFkufaNhwZd4IoBt2VnxbN+zNM7Yr9BOQ2XQriL6Oxnz54tSDKhC36bYK3lKQg7jhcsWFB7FVBZJQsUKKDOOTI7Ylfe1T0ECkIoypGtVX+HJSR+TxFrSxdYehn9u0R/iE3obJ3m73nWx+A7CZBAYAS++2em5Q5KaEHda+b/79+85Y7YMEkJfPrpp6p/3RPB22Cw6EUIAfz2I5xAs2bNvFV3O7ZgwQIVRsPTxgx+/9EnNnJdBZtX+iaz67FI/z6h5vtSdeorlpbRf91PVGRZIsdG4UKAiqxwOROcR7ITgHsKHpB1wYMT3FrwQImsZLAcwEOakezbt0+uXv0vBS52mODSh50iuEIZKZ2M+kH2LyizEAxZf0iGi6Cr4CEUD3OuoltHlCxZUh3CQyYe8OA+hXhbRoLx4OqDh0oI1gxz7GrVqsmZM2cSPagatTcq05VuRsciqQzWG3BnQhY1b1K/fn1vh3nMBAEoW7788ksVC8moOpSjUKhAQfvqq68aVXErw98+bpI9KbL0Bvi3NmHCBGnevLl06tRJ4IZnJMhcCmsnBCOvXbu2URVHGayNoLQpXbq0owxueRDcgJuRNWvWaPG3EhxVERMEcabAyR/B3y/WCHdIWLrhxh/WV0Y71Ub94ncEO+Z16tSRbdu2OarAddlVoHQy+m3S2+nB5jEPnB+4+hn9ruJ8P/XUU1KhQgX1G4qsoMhUiN8m/F79+++/Urhw4US/u65zMfrujwLPqD3LSIAErBH4eN3P1hpqrYY9+rLltuHa0FVx7zrPF198UblfI8SEq+htUeeLL75wPWz4HW1+++03j/eCeiPc7+q/k/369TMd/xO/2XBdxz2lkXIJ5UbXBlybcH3BSxdc6+C67yxIfKTfp6IcG1CwznW+nmKTBd4E2MC144aqMw9Pn0vfUUhyp8sqhy+e9FTFY/lVzbV93YkdUilbMY91eIAEwpkAFVnhfHY4tyQlgIfMIkWKuI0BRRQUUrpyyK2CVmCkbEI9xAjwJwg4Hnx1awejcfSy6tWr6x9NvXtSYukuOrCs0APK4wYGlhe44YA1GR7uU5rAYgUP7Xhwxk2dL9Efzn3VS+rjCMD93XffJfUwSdL/wIEDxVs2PyhIoMiCctXoJtnTpMwmL4BVD8STEgvH9JtwX0os1MVNt6fg5K5uu6hvJK+8Yryr6o8iC0pxKL+w+wwl0O7deyR//nxSqFAhgQWnWcFvo66MMmqD2GQQ/IaZFfzWGCmx0B5B5OHSDWtRuErr8vvvv6vYf7DgQ9B8/Fv1FgdFb8d3EiCB0BI4m3DR0gQQ4L1cFvd7M0udhVkjhHJwdYuGlXDPnj0FVuCwQsZGqZGrPZaCOlA2IRlGsARZmCFwD8Q12ew9LCzzkfgGm0K6wB0dmbShmMJG6z///CNNmzbVD6t3/T5UL8QmBeq7ilEIAIyJl7MgPAcUWUh6BJbYEHIVlNtZvq7ymtSf+balJTac9Y7se+Z2SBRLHbARCYSQABVZIYTPoUNLAO4nmzZtsjQJWDrAZSepBa5SkC5duhgOpWdVhBWDL8GDNh5u4daDOD/OgodWWHFBmaMLXLRSiiBGGCxzECTfTLZJ513CUDKCC2qkijflFG5gDx06pP4mvdUzWru+c41jUEriu5HF4COPPGLUPFEZlNqeBC5r+i426uiKHef6GB8PHJgDLD4h2DVGdlEolvTzp7tbwNXXzLycx3D+jDnBVRiuxrpCOleunEohmDVrVsUBikHd+tO5rb+f9+zZo5p4UvLh/EEwri+BKwgsId955x1lgedcH9Z1+O1q166doziQzFeOTviBBEggyQiM2THPct/35SxluW24N4SFsWtyEnyH1a8eL/Xuu+9WyizXtUDZBUUTLGZxb+gtS6BrW0/fcT1CDEFYTyGuIsJq4Fqlb/R4aodyxA7FpqnzdRIxFTGvn376STXFhtSIESO8daMUYYhv5SrOm1K4psGqGJtbngTzdrX08lTXbuX35bD+b+bKjf+swO3GheuxPwEqsux/jrnCCCagm5BXrVrVcBVmrIfQEJnWEIgTO1ZwmTQSXYmFHTQIbqZSknTt2lXwgiILFnfeLOVgAu+sxEhJnJJ6rVCMwDIQO8/636TVMffu3ausqnCuXM+XfpOMfxOeRI+v5FoHDxH4t6f34ak9lFJITa7/m0I9KNUQ7wnKY7ggQ8kFRQ1iO+EhAln+PFl8ehpHL4e1E+bmuruNhyco7YsVK6YU8HChDVSg+IZ4UioZxbAyGhMxVpDJEA9Offr0MaqSSImFCh06dDCsx0ISIIHwIBCIW+Er5f2LnRQeKw58Fvj9R1xBT6EpcI1AfE6ENoBSC5ZPgQqsl/BbjU0EPbkRMvr62uTtpdWHTJ061TEFWGNBEK4C1zhPv+eOBn58gJUxPB68CSx6vcXcxMYvrtnOm13e+ou0Y6li4gSuglbk8CUt+3Na35tOVvpmGxJISgJUZCUlXfZNAgESwI0KHkI9mZHf+P+A1b6sp+CyZOZGANNFemKIJxcgddDG/8MOIkz7EYgcO45GO4W9e/dWykEbY0j2pZ08eUrbFX7IofRBLBC8zAiUVLr1onN9WANBSWQUGwoubM8//7x6MHBu4/wZDw2wFjIK7g93CE8CJRdShOPBY+LEiVKiRIlEVeEad9999yW6oYZ7L+ohyDpcO6B8NrIkS9TR/3+BJRey/eFGHe6xRjfzeECCRSbiUEGJ5m3+RmO4lmH3Pj4+zk1BqNfTlWW+LLLw2wRF38cff+xzvfqDkllXTX0ufCcBEkheAicue7ac8TWTB3KW8VXFtsdxbwE3a1jtusYkxMYKNg5ggY8NAISH8Me12wiabu2vZ4uFJe/48ePVRo0niy9cR/ppv/+479ST/uzYsUPFnMV1zTkxh9GY/pYhCQgsx+ACicQpsLqC+zk2eocMGaIUf2avlfrYmC/ih9lJymYpLGuOb7e0pH0XjlGRZYkcG4WaABVZoT4DETx+6TvMx0aJ4GWGbOp40IZ7TseOHRM98DpP6IpTwHnnctfPsHbAA70ZQQD6uLhYw/hhZtrbpQ6UH7iBgisW4i/ormFYHx7ioWigBIcAsmbqCkNk1TQK1g6rKLhVQPnkLNhh9RTkFS4Yzi5pzu10dwdP8eRQF8oliLc6qoLT/+D6kD17Nk2xdl0phevWret01PtHxKTCgwFcXBFDDAotX7vQWD+UQFBi/fnnn1KmjOeHQDykIP35I1rG0kAELh5IdoF4Lp7EjIsu2mJ33FucMuf+g5nZ0blffiYBEggugVtyK7gdppDedJdsb3EAYRGO303EcYXFbyCCTNsIq6ALLPehyMJ1wihGFerpoSwwD2y0woJLt9CFNZazbNy40eNmh17Pl2Xz+++/r6rCJR4ukLh2Q4EFgeWYt+uQqpRC/pcpPp3llR68cFwkAPdEywOzIQkESCA6wPZsnoIJREfxzycpT7/+8Pz55597HMas+47HDgwO4OakRInbWRANDodVkVUzaiwidWy8qbUgsDusS2CV4xyvCTdo4SjRYv3f5aXrV5JlSbCegutg+fLl1Q05lFhwKURWIrjVwaLI9YWJgb9rORRcZuJ5uC4MN8euLoOudcx+x3qmTJmilEj4e4mPT6Wy80HZiQcO15eeHdO1HN/xIAEe8fHx0rdvX9XWmwsJ2mBnGVZZ2A33JcjC+OYbb/iq5vE4lIaIw4XMWrBY9CR6YHk9DpinembL0R8e2jzF5DLbT1LUO3XlnOVuS2TOb7ktG5IACdiLgL5BhphQ3gTu99i8gIWSVdFd/3RFEfpB7FhYOMMyzJNAgQblE15whdcVYdgExfXIWVB3p2b95O21S3OxR5ZaTwLlGKybIXp8V32cb775xjEXHEcgfX1uzu+4buBa5FyG+hQSIIHIJmD9iSey183Zk0BYE4AVBnaajIIfO08cFkPBFASdhixbtiyY3SZJX9jvPXHFuvtC+ljPsZGMJgxT9oSEBIH1EMRbxj2j9slVFhcdY3koq1mm/B0QCincqONvHAoRZBRCsFtPLrT+9u+rPpQisCpCbKZgCSy/YMGFOFRQVOEG/quvvkp046zfRGO3vWXLlm7HEOy3cOHCgiylsACERRYyPJmZp9kg8c7KWCtrx28SrEXx8GPkwqj3ieyJ2K0PlugPKG+/bS0zU7DmYdQP0pdblYdylbXalO1IgARsRAC/bdjM0RVD3pZWs2ZNZbkM6yRP2XK9tccxZMNFKAW8nAUbKIgRiuuVGYE7PCzYW7Vq5VYdGzKFtGuar5cnd0RYe0Fp5em424AsIAESSFEE6FqYok538BebPi6NXLhmzbR5+5n9Upy70W4nBW5CeEgsWrSoT7ci1IUiIBgCFzqYk+fPn19lxQlGn0nZx7/nbmdFszJGoQy5JNaiwmfu3LlK6dKgQX0VP8nK+EnZJl4L+JlWS19+6fpVv4e5eO2KHL98RrKnyex3W38b4EYc1n+6m4K/7QOpr8enevXVVwPpxtEWyiGkGkfgXOdA7b5i1zk6+P8PerBdvRxp1n0JbvKTSxDPCgpc8POWoh1WW1CyI517sAQPVxCzCrtgjWumn9n7V5mpZlinSh7fGWcNG7KQBEgg4ggg/iY2bZwFLuG//PKLbN++XQVcHz58uPNhj59hpQQL4EKFCqmsuf5sUiBmKq5Z2GxxlTfffFP9vuMa7WuzFJufiN1lpExDJl9cnxDLy4zAXV13+Ud9zBFrxMYPFFoQPWuhbn0MF3ZsrOgCt3w9SZJehnfMxZu7pnNdfiYBEogcAlRkRc65CsuZvlSusXy09idLc/tkw3gZUSV4FhH+TAJxeKxYC7zwQhcVw8Zfdxn49mNMb+3gJgj/f7iswTLFNXMNLvK6NQJuHL777jtltfHZZ5/5s3SPdfEAjh24CRMmeKwTTge+2vJfthx/51Uj/z3+NklUH9n0Lly4qG6qEIcp3KRm/sry625rVnUz9q6QZ0vWSZYl6Uos3JyaUcjAlQI71p4E/y7wb801Q6FeH+0R7ww3tXDh0N0U9OOBvGPn2VmJFUhf/rTF74pVwcMHggcjLot+Loz6wvkpVaqUHD58WD004cHLVXSrMdTFbxMEAYkDFSjF9HT1sKILR1l0cJ3laVGRZRkdG5JAxBFALCk9npQ++djYGO03Lo9K1OEtxqFeX3+H4gp9Ias1FEpjxozRD/l81+MNenJNhPv44sWL1T2hp2vz7NmzZeTIkW5ZcpHsBIHicZ2F/Pzzz+r6DstrhAGASz+somF1nD17dlUHGQcLFCigPuv/w2YukpTg9z9XrlyqGNcgxJLUg9zrMcX0NtjoqFatmv7V8Y44jBifQgIkYC8CVGTZ63wm+2ralqhlWZE1fc8K+fKRG5YtYwJZrNUHzoIFC2gX0MQXWzPzwIO1pzFx0Uc8LFj6QOBytWHDBrduYXmFwJyIhaMLgnGa3e3S2+jvOXPm1D8qVyZkDsNNgL7T5TgYph9+3Habl5Xp9brLc2wfs/3hfATLGs7smGbrvVahuWVF1nurfkg2RZa+HrjlIXaTL4GyRFeYeKoLRbBrxk3c/L7++usqax/+vT2vxRXp1auXpy4CLodbIVwtPO2QI9bTwoUL1b87o8GQMRMKu7179xodVmVwQ4R4+l1RB338Tw/I7ryj7dwEDxrIZoU4KBC41eq/U8718BnWaPqc8L1Hjx7q4Qqf/RXnLJNINQ8emIdzub99JlX9qXtus7HSfw7N8jFtbGorTdmGBEggAglAceRsBYXEOvDgg6WWFalSpYo0bdpUEJ8KWf3M3r/B0goxKvWEJq5jw/Ud95uIv4jNDldZ+vvvgg29YcOGqY2j0aNHCxRb6A+/086ZfmFZhQ0mKLAQlwuW0LCwxWf8tkMwF6PA9cgu6Cz6fBCQ3kiwGQzLYVfBdYuKLFcq/E4CkU+AiqzIP4chXUGWVBml1B0FZOtp/y/C12/dkAHrf5G3g6BUCCmEAAfHztWAAQNkwYIFKlAlHrg9CXbIsAPnTyY0T33p1g24eYAlVtasWRM9iBq1gxIAAuuwUEqvlZ6zpfmaV8nMBWz/8IgA0mk098LLFtwLEUB/1LbZ0rZEbV8og3YcO7be4i35MxACr7tKs2bNlEVkTEy0fKQFgzUb7FxX4Lj25+s7/p14S8SgK9qM3DHQN34TYOHlTbBbjVcggtgo3uKgYPcccVTg1oGgukgL70lghYWHsYceesjn3D31oZfj4QY79BBYA+BvAw9JZkQPMm+mbqB1cA3rvMS61dnCBsGxpg10HWxPAiQQGgKnTp1WSh5YHWHDxYrALRHWxdhogBWUpw0UvW89eQg2fXxZgCEmoqsiC5bNj1Wtqrrr0qWL3q1yJYeFevfu3ZXbouNAMn5AfMojR464jYj4phQSIAH7EaAiy37nNNlXNOOJj6ToWGsWLoM3TpQ2xWtKvvS3zYuTffJhMiDcenBz4MklSp8mHuqCocRCf9i9e+aZZ9QuGaxDcAPgyYRcHx83KatWrVLuWXpZcr+fvnpevv17puVhx9e8ncrZcgcR0nB+/UHy0JSXLM32rb++laZFqghi4CWHBEuJhbka3cT/ru0eP/fcc0pR7M2913WtuCHXXTBcj3n77rqL7K2u1WNQLCWH4LcJllnR0dFehwuGYk0fAMkusGsPheCMGTNMK87x21RIixeTXPL68q/kxq2bloYrn7WIwCKLQgIkkHIJIIwErjGw0oKVUfPmzf2GgftG3MPde++9KvSFq+uia4cIR4FNCl9WYE8++aTq17U9rteIn/X444+rmF5w19fdv/W6iFWVHDJ58mQVJmDt2rVqOIQM0DM/uo7vz7XftS2/kwAJhCcB73em4TlnzirMCGSISytdyja0PKuq09zNgC13FsENfSmxgr003PTgZkQXM4EwcQOD2Al6vAK9bXK9w1qoxM9tREv8bGnI5kWrSq60wQtAbWkSydSoWKZ88kjucpZGu37zhjw45UVLbcOxEZQw3377rdcYdUbzRuwR538jRnVSQpkvJVawGei/TbBMg5h14cVvU3I9rPx1dKv8tGOB5aX/UuM9y23ZkATCn0BU+E8xTGaou+c99dRTKnC6lWkhqx82JhFIHhs3ngTudXApb9y4sbKgQkIOT69p06apbjp27OjWHcaBmz/GdVViobIezxWfsQGKTVJs1qINPr/33ntqowKf8UIGY18C7wG4KUKgiEM7uFWuW/dfjEI9uy0sjZ1ftWsnn4W5r3XwOAmQQPAIUJEVPJYpuqf37m5j2XrjXMJFKakpJygk4I0AlFeBKD2hwBr6SHdvQ9ju2ISavS2v6cilU1JzRg/L7dmQBOxKYP2JndJg1tuWl/dDtTckW+pMltuzIQmEOwGqsfw7Qzu0jIUQ3e3cv9a3a3///ffKTRGbL0Yu9qjVps3te23U9SVQFiEYO1z/zQhiLbZu3VqQARuiK49gLYWMjNiQQLZbfIa1MzYq8BkvxIZ1lYMHD6nEIYj7lSdPHpWgCe0gCAKPee3evVvoNuhKzv/vudJm9b8RW5BAGBCgIisMToIdphAdFS3/tv5JMqdKb2k5pzR3sYoTOsq5hEuW2rORvQmcuXpBCo1pIbvOHrS00NQx8bKi8VBLbSO5Ef5dbnnqB0kVE2dpGXhgv3fSC5ZibVkakI1IIMwJIBsoFLzWbEJFiz1XS+oWuJ1KPsyXyumRgGUC6eKsJzHYafE6b3myYdCwUOHCyi0QSXdg7WRFYNWPjLKwfGrYsKFhF+gbroBGLvhGDbp27aoyDK5YscJxGJlkkVUbcQt79uypLPRhHZU/f34VwxUWXOgfFmYQuJ0XK1ZMWVDBYhafEZMVgs94GVndVqpUUdAXgs6j7yFDhihXc7RDQqQWLVpIIc2V3GgtiLO4efNmFQoDbpeIP4a4lQiOj/lgvnaTtScSB8b3Z32FM97OCulPG9YlgXAgQEVWOJwFG81hY/PvRDMUtrSiQxdPam5jz8jvhzdaas9G9iSw5vh2KTOunaZMsR6sc1vLHyVdMsV7CrezkF2Lw/N3i5GWp7Xn/BEprv27xDuFBFIygTq/vSHPLfnEMoKa+e+RgQ90ttyeDUkgUgh0KPWE5al+vN6cBZDlAcK0oZ7pr3599yyBZqdcqlQpFXPLSBk2atQo1Q1iZJkVBHuHIKaqLoU1pRuUT8haOHDgQKXogqvgoUOHBPEhEbcKCjAj5ZTeh5n3RYsWyZ49e1SMxL/++ivRHPT2n3/+uSADd+bMt+MNvvnmm0pJhTJYt8FNvXr16krxhSRFyPqNMBpIYGI3wYavVclNiyyr6NguxASoyArxCbDb8LB8OdpushTNmMfS0hA4t+mc9+Wuic/JmuPbLPXBRvYgsOnkv1JlanfBw+M1LWaTFSmQIafsefoXlcHPSnu7tEEcu380ZZ5Vi0nEJoNlVq0ZPSUl7pbb5e+A6/CfAOLFff/PTMk1qol2Tbrt/uN/LyK97m4tY6r3stKUbUgg4gi8VclaAiAsdP7+NRG3XjMTRpZYXeFiVB+udohvlStXbhXDyrkO2sLNz4x88cUXStGENs6JVKDIgmVT/fr1zXSj6mBOZcuWTZQJEBlq27ZtqyylEIfq3Llz0qdPHxUrC/2jzEhZBksxJBWCwKLLlyCjYsGCBb0mQbrrrruUsgrxwZCNccyYMSoD+L///usWIwvWYJgbrLmcLcx8zSMSjh+4eNzyNOOjmffNMjw2DDmBKO0ftVUL+ZBPnhMIXwKIZ/T+qpEyfMvtYJFWZxqn/cC+VvFJebW8/5lcrI7JdqElgEyWA9eP05RX1wOaSOcy9eWDyu0D6sNujfHvstPiQTJtz/KAloYbn/4PPCdPF6sRUD9sTALhSgAx4p5e0E82n/pXbgZwmxQbFSObnvpesqbOGK5L5bxIIEkI5BvdXBK0TRArsrLpV1IoA92drLALVRsolRB4HRkYO3furGJYtWrVSs6ePatidyFuFxKHQDkG90Q8fuIzypG9EUowXxl/f/vtN6lXr55q6886YT0GF8Xjx60rfPwZL7nrVhjfUQ5fOmlp2O+q9pD6hR601JaNSMAXAbjxwg3YbKw9X/25Hqca1pUIvweFANwLP6j8rDxfur50WDxA1h635rsNZUb/tT+rFyaWL312yZ8+hxTQXpTIJ4Abmf3aThLc1g5rrqXBkPtyllKWD5ni0wWjO1v1gX+X32o3Lf+eOyyt5vdV71YWmKD9u3z1j2Hqhfb4d1lQs37Ll87cjrGVMdmGBJKSwIVrlwWxGjee3CUXr10JeKgYLT5dz0ot5ZXyzQLuix2QQCQS6FauiQzSNqWsyIvLtHhIdfpZaco2ISKAoO5wK2zSpInhDJxjWemZhDt16uSoC6WXL9mkxb2yIlBgQXlmR0FYliMWlVjgQSWWHf8qUs6aqMhKOec6JCvNmy6bzK47QI0NF7F1WvDom5r7oFU5cOG44LVCtljtgu1sSCBa0/hXyHqnzKrbXxDgnOKdQJGMueXPJsNUpUc1981tp/drtlrWjXP1f5feR+VRqwTOjVgtV/88INl/aGS1C7ZLJgKwIh78UFd5smjVZBqRw5BAeBLoWbGFZUXWyqNb5bSmWL4jVYbwXBxnZUjAWYm1detWFSfr0qXLyiLLtUG7du2kd+/eKvbV888/79XtUm+7YP58lb1Q/272Ha6Hds1u2Gzu+5bv3uC5QCGBSCZA18JIPnsROnfEvpp3YI0sPLhOkBWNQgJWCJS8o4DUzl9ZauSrLPfkKK7ZGllLMmBlbLu1gRJr+ZEtMnf/Kll0aL38c3qf3ZYY0euhIit8Tx/iQlbJU0Fqab9FdQrcRxfC8D1VnFkICCDLp9UECWliUwkSteDfGIUESMCdwLAtv0rvVbeD+Lsf9V1yqO1Egfs7hQSSikBSuxZSkZVUZ479kgAJkAAJkEAQCLRu3Vp++uknv+OCBGFodkECJEACARF4aMpLsuPsAUt95NGs+tc1+1plorPUARuRgE0JrDy2VerNfNvy6lY3G8EwLZbpsaFZAkmtyKIPjtkzwXokQAIkQAIkQAIkQAIkQAKmCcyvP8h0XdeKhy6ekId+fSmgkBSuffI7CUQ6AVjPB6LEQvw6xhqO9L8Czh8EqMji3wEJkAAJkAAJkAAJkAAJkEDQCcBF8N/WP0mqmDhLfe88e1ByjWoqxy6fttSejUjATgTgToiMulblsbyV5J27n7HanO1IIKwIUJEVVqeDkyEBEiABEiABEiABEiAB+xBIH5dGNjX/PqAFlRvXQXquGB5QH2xMApFK4PjlM1JhfIeAYmJ1Kl1XfqnxbqQi4LxJwI0AFVluSFhAAiRAAiRAAiRAAiRAAiQQLAKZU6WXI20nSaVsd1rqEklJRm6bIzlGNpZ+a8fKiStnLfXDRiQQKQSQ5X3diR1y3+QuUmbcs3L40ilLU4+NjpFR1d6UD+/tyMRIlgiyUbgSiA3XiXFeJEACJEACJEACJEACJEAC9iAQHRUtc+oNlMVadtwW8z7QYl/dsrSwwRsnCl5ZU2eUu7MXl2ZFqkjtAvcyw6ElmmwUTgS2nNojs/evlEn/LpW954/KtZvXA5pehWxF5dda/5N0cakD6oeNSSAcCVCRFY5nhXMiARIgARIgARIgARIgARsSqJqnomadNVk+0iyrhm2ZKldvXLO0ypNXzsnc/avVy1IHbEQCNiVQUbN8HPHoq1I4Y26brpDLIgERKrL4V0ACJEACJEACJEACJEACJJCsBN66q7XgdeDicXn1jy81S60NyTo+ByMBuxH4+P7npPmdj0m6WFpg2e3ccj3uBKjIcmfCEhIgARIgARIgARIgARIggWQgkC9ddhlfs7caCXGB/jy6Vbac3q1cq/CdQgIk4E4gb7pskjNtFqmU9U4pmimvewWWkIDNCVCRZfMTzOWRAAmQAAmQAAmQAAmQQCQQQBytB3OVUa9ImC/nSAIkQAIkEBoCzFoYGu4clQRIgARIgARIgARIgARIgARIgARIgARIwE8CVGT5CYzVSYAESIAESIAESIAESIAESIAESIAESIAEQkOAiqzQcOeoJEACJEACJEACJEACJEACJEACJEACJEACfhKgIstPYKxOAiRAAiRAAiRAAiRAAiRAAiRAAiRAAiQQGgJUZIWGO0clARIgARIgARIgARIgARIgARIgARIgARLwkwAVWX4CY3USIAESIAESIAESIAESIAESIAESIAESIIHQEKAiKzTcOSoJkAAJkAAJkAAJkAAJkAAJkAAJkAAJkICfBKjI8hMYq5MACZAACZAACZAACZAACZAACZAACZAACYSGABVZoeHOUUmABEiABEiABEiABEiABEiABEiABEiABPwkQEWWn8BYnQRIgARIgARIgARIgARIgARIgARIgARIIDQEqMgKDXeOSgIkQAIkQAIkQAIkQAIkQAIkQAIkQAIk4CcBKrL8BMbqJEACJEACJEACJEACJEACJEACJEACJEACoSFARVZouHNUEiABEiABEiABEiABEiABEiABEiABEiABPwlQkeUnMFYnARIgARIgARIgARIgARIgARIgARIgARIIDQEqskLDnaOSAAmQAAmQAAmQAAmQAAmQAAmQAAmQAAn4SYCKLD+BsToJkAAJkAAJkAAJkAAJkAAJkAAJkAAJkEBoCFCRFRruHJUESIAESIAESIAESIAESIAESIAESIAESMBPAlRk+QmM1UmABEiABEiABEiABEiABEiABEiABEiABEJDgIqs0HDnqCRAAiRAAiRAAiRAAiRAAiRAAiRAAiRAAn4SoCLLT2CsTgIkQAIkQAIkQAIkQAIkQAIkQAIkQAIkEBoCVGSFhjtHJQESIAESIAEHgUmTJkmXLl1kx44djjJfHy5cuCA///yzPPHEE76q8jgJkAAJkAAJkAAJkAAJ2IZArG1WwoWQAAmQAAmQQIQSaNq0qSxbtkyKFy8uWbJkkWeffVYGDRpkuJqlS5dKhw4dZNeuXRIfHy/nz583rMdCEiABEiABEiABEogUAgk3r0vvVT/I7P2r5PL1q3JJe1GSj0Da2FSSKT6ddCvfVFrdWT35BrY4UtQtTSy2ZTMSIAESIAESIIEgEcDluFChQrJv3z5Hj1BspU+fXtauXStNmjSRyZMnO47hw4kTJyRr1qyJyviFBEiABEiABEiABCKFwLHLZ+SpeX1ky6k9jinnSJNZsqXJ5PjOD0lP4PDFU3L66n+bo69XbC49K7a0PHBUVJS0aNFCeQ9Y7sRLQyqyvMDhIRIgARIgARJITgKnTp0yrZjq2bOnfPzxx8k5PY5FAiRAAiRAAiRAAkEj8OfRv6XR7Hfl5q2bUjRTHvntiY80q6D0EhPFCEhBg+xHRwk3rskK7Zw0n9tHbmn/ZYhLK1tbjpL4aP8d+ZJakcW/ED9OLKuSAAmQAAmQQFISgFthjx49TA1BJZYpTKxEAiRAAiRAAiQQhgT+OLJZGszqJXHRMTK73gBZ0fhLyZIqI5VYITxX8TFxUiVPBTnabrJ0KlVXzl+7JKV+aRvCGXkemoosz2x4hARIgARIgASSnUD//v0lbdq0XseFSyGFBEiABEiABEiABCKVQGPNEgvyT4sf5a5sxSJ1Gbad94f3dZQB9z8v5xMuSblx7cNunVRkhd0p4YRIgARIgARSMoHo6GgZNWqURwQVK1Y07X7osRMeIAESIAESIAESIIEQEXh8+mtq5Hn1B0m6uNQhmgWH9UWgXcnaUi1vJTl6+bQsObTBV/VkPU5FVrLi5mAkQAIkQAIk4JtAs2bNJC4uzrCia8B3w0osJAESIAESIAESIIEwJHDiylnZePJfKZe1sFTIWjQMZ8gpORP4pcZ76mubhf2ci0P+mYqskJ8CToAESIAESIAE3AksX77crbBo0aJSuHBht3IWkAAJkAAJkAAJkEAkEJiye5ma5tCHu0fCdDlHjQDiZl2+nhBWLKjICqvTwcmQAAmQAAmQwG0C99xzj+TNmzcRjjVr1iT6zi8kQAIkQAIkQAIkEEkEhm+ZpqZb6o6CkTTtFD3XTx/sqtY/a99fYcOBiqywORWcCAmQAAmQAAkkJvDll186CsqXLy+ZMmVyfOcHEiABEiABEiABEog0AvsvHIu0KYf1fA8ePCjjx49Xr927dyfJXNPHpVH9hlOcLCqykuRUs1MSIAESIAESCJxAw4YNBcHfIYMHDw68Q/ZAAiRAAiRAAiRAAimQQFRUlOB14MABv1dfp04d1XbmzJk+2165ckXVTZ3aexD7ggULqnr6vMy8Hz161DH+xo0bVfvSpUtLnz591KtChQqqbM6cOY56wfgQrXGDXL91IxjdBaUPKrKCgpGdkAAJkAAJkEDSEPj4449Vx4899ljSDMBeSYAESIAESIAESCAFEKhZs6b06tXL75XOnj3bdJuBAwdKTEyM3Lx5U44d82x9tmnTJjlz5ozbCwONHDnSrRx1c+TI4ZhHpUqVZOzYsXL69GnZsmWLep09e1amTJkitWvXlh07djjq2vFDrB0XxTWRAAmQAAmQgF0ItGvXTjJmzGiX5XAdJEACJEACJEACJBASAq+++qpS8owaNcr0+LCIf+CBB2TFihWm2gwYMEB+++035ep33333iSd3P2/3dmnTpvUaTqJixYryyCOPSKtWrRLNCVZdjRo1kpdfflnN+cSJE4mO2+kLLbLsdDa5FhIgARIgAdsRyJYtm3Tq1Ml26+KCSIAESIAESIAESCC5CeTJk0fGjBljelgov/r27Wuq/vnz5+XChQtSq1Yt+eCDD2Tv3r1y6dIlU239qQS3wtatW3ts8sILLwiUaHYWWmTZ+exybSRAAiTgB4Hz1y7LtjP75MilU4LPO8/6H0PAj+FYlQQikkDutFklnRb0NG+6bFIic37JmeaOiFwHJ00CJEACJEACdiQAl75Vq1Ypl7uqVauKa6yqfv36SceOHeXpp5/2ufxly5bJrVu3pHr16j7rogJiVDVo0EDVRebp2NhY+fHHH6Vz586m2vtTKU2a2wHYjdoUL15cWYUZHbNLGRVZdjmTXAcJkAAJWCBw7PJpaTGvr6a0OihXbiRY6IFNSCBlE4iJipaM8enk7btaS9sStVI2DK6eBEiABEiABEJAAK52HTp0UAqqLFmyCAKuQ7Zv3y7FihVLNKM2bdoIwjasW7dOEGfKm7z//vvyv//9z1sVx7GEhATZs2e3/Prrr46ySZMmSZMmTYKuyIIL4cKFC00p4xyTsdkHuhba7IRyOSRAAiRghsCXm6dIjpGNpey49rL51G4qscxAYx0SMCBw49ZNOX31vPRYMVz9m2q7sL/sOX/EoCaLSIAESIAESIAEkoJA+vQr06DQAABAAElEQVTp5fDhw1KqVClZvXq1sqKCJZWrEgtjQwkEq6mePXv6nAqURW+//bbPeqgwbNgwbVyR8uXLO+ojuPz169dl3759jrJgfJg6dar88MMPsmHDhmB0F5F90CIrIk8bJ00CJEAC1ggsPrRems/tY62xS6tqeSvJKxWelMrZS8rtpLwuFfiVBCKEgHbfKQcvHpeR22bLF5umBDTrWfv+Erzuy1lKptfpF1BfbEwCJEACJEACJOCbQK5cueSPP/6Qzz77TMqUKeOzwbhx48Sbax46QMB0uCZC8WVGXnnlFRk6dGiiqqlSpZLHH39c6tatK8hSGCypV6+ePPHEEwJLNCjv/v7772B1HTH9UJEVMaeKEyUBEiAB6wSu3rgm9Wa9JRtO7LLcCVyoupRtKF3LNpIsqZhFzzJINgw7ArhFzZ8+h7x7dxv1wgSn7P5d+qweJYcunrQ037+ObpX8o5+SGU/0kwpZi1rqg41IgARIgARIgATMEYAiCxZUZgRxs8qWLStdu3aVL7/80rDJ119/LYsWLTI85lp47NgxVfTcc8+5HhJkMaxcubJcvnzZp/LMrbGXAmRGXLt2rUCBBmVbXFyctGzZUl5//XUpV66cl5b2OETXQnucR66CBEiABDwSuKrFvso/urllJVaUZm/1QpkGcrjtJPWQTyWWR9Q8YCMCjQs/Iuuf/FZWNR0u8TFxllaGf3s1pr8u32ydYak9G5EACZAACZAACZgjkDlzZomJiTFXWavVV4t9NXLkSOWG6Npo6dKlKs6W2cx/cCGsVq2aUia59oU4XAhAP23aNNdDAX+/6667ZMmSJWoNs2bNUvG54NoIqzSMaWehIsvOZ5drIwESSPEETlw5K8V+esYyh0xaEOs1T46QPpWftdwHG5JAJBMomCGnHHhmvLQraT2Qe6+/vpN3Vn4fyRg4dxIgARIgARIIawJw4/NHGjVsKJcuXZLFixe7NevWrZubm6Bbpf8vgKXV5s2bBdkQPQmssoystTzVt1KOzIpnz56Vbdu2ya5du+Shhx6y0k3EtKFrYcScKk6UBEiABPwjcPn6VSn9Szv/GjnVLpOlkCxq8JlTCT/6QwBBRl3jKty4cUOio6Pdyv3pl3VDQ2DA/Z2lWKb80uuvby1N4Ou/p2vt8zKzoSV6bEQCJEACJEACwSfQq1cvef7551V2Q713WDJt3LhR2rdvrxd5fR8/frzg/u7+++/3Wg8HT5w4IdmyZfNZL5AKxYsXV1ZamA8CzcfG2lPlQ4usQP5K2JYESIAEwpQAlCiPTu1ueXbltZg+KUGJderUKWV+fejQIcusPDV84IEHpH79+nLmzBlHFcRIQGDOc+fOOcqS8gN25Zo1ayarVq0KaJj9+/cLXildOpWqK8MefdkyBmQ2vHDtsuX2bEgCJEACJEACJBA8Am+++abs2LFDxa/Se4XlVJUqVQRxtMwIrLd69+7tyJSIe3CjV+nSpaVVq1Zmugy4DlwiETPLyNos4M7DpAMqssLkRHAaJEACJBBMAkO3/Cp7zx+11CXcCefUG2CpbaQ1GjhwoLqByZs3r7zxxhtqRy0Ya7h69ar89ddfsmbNGkmXLp2jS9zsbN26VTJlymTaZN3R2MsH7B4iHsL69esTxUTInz+/TJ48Wb766isvrX0fwo5egQIFZMoU/zP6Xbx4USZOnCi5c+cOGl/fM066Gs2KVJGni9ewPECRsa3kJvJzU0iABEiABEiABEJKIH369IKNx4aamyEE91O//PKLDB482NS8Tp8+rTYnkeHQl/Tv318Fo8c9VSBy7do1U1kKYYkFt0e7ChVZdj2zXBcJkECKJYAMhX1X/2h5/csbDxVkKEwJ8tFHHymLKdzAIH4B0jdfuXIl4KUj+CZk9+7diQJ/tmvXTmAFVrJkSXnppZekdevWAY+FDvbt26duap555hnBDY4uadOmlTvvvFNGjx6tF1l6j4+PV+0aN27s1h5xIXTZvn27Ut7hBrBWrVpSqFAhwU3ik08+KUeOHJE7ixXTq0b0+6cPdpHcabNaXsPIbbMst2VDEiABEiABEiCB4BEYOnSoslyCe+Cff/4p2ICrUKGCqQGaNGmiNhKxQelLYKWPMRCcPRBBHCxsXl64cMFjNzgGJRY8Aewq9nSYtOvZ4rpIgARIwASBdwMIKt2g0IOSPU1mE6NERpWmTZsqiyuYcyM2lSeBwgcWR7Ck8hYTAUqb1157Tdq2beupKxVk8++//1ZpnT/55BPDelA4ffjhh+pGxDU4KMzRkU550qRJhm2NChs1aqSKN23a5HZ43bp1Spk0b948qVHDmiVRQkKCW796wXvvvWdoqZUjRw7FFDEasN66devqTWzx/mP1t1RGQiuLeXflD9K+5BNWmrINCZAACZAACZBAEAlg8xH3XlAwde3aVb791lwsTNwz/v77Us3y3by1eufOnVXYCQSZtyqIsQVrf7hFQglnJLDEh0UWNmjtKlRk2fXMcl0kQAIpkgAuxKO3z7O89n73dbLcNhwbwvIJrnXIZONNkYW56xd7ZHoxEuyiQVFUqlQpo8OOMj1LDG4gpk6d6ijXP8DdECmiy5Yta3gc9aDIMiuwINuwYYNyjTRqg5sdmM3Xrl07SV37jh8/rm6aYL0FxaDdpYIWRy5VTJzAAtJfuXbzuvx77pAUyZjH36asTwK2J3A24aLM3Pen/Hn0b7mkJS3ZcmqP7dfMBZKAPwRw7SlzRyHJnS6LPJ73Hrkvp/f7En/6Tql1f/jhB2UlD+txs3Gs5s6dq91X3ZQGDRqYxvbWW2/J8OHDlXV+lixZTLdzrXj48GHJmDGjuq9zDR+BDca+ffuqgPWu7ez0nYosO51NroUESCDFEzh+5azcuHXDEofcabNIDhtZYwECrKwgy5YtU8os9cXi/2DKrSugPHVRs2ZNOXnypDo8ffp0yZcvn1vVDBkyCOr99NNPbsesFDRv3lwpkN555x2PzceNG6dY9OjRQxAXLCkkqbPwJMWcA+1zXI33pdFsz9y99f/UvL6yqmlgscu89c9jJBApBI5fPiPjdi2SIZsmy5mrnl1lImU9nCcJJAcBXcH7+cbJjuHuzaGFLSjXRKrlvUviomMc5fzgmwBcBBH+4bHHHpM0adL4bqDVgLU5AsP7I7gvzZMnjwovMXbsWH+aJqqLe0mEr0BoDNcM2YiPijit5cqVS9TGbl+oyLLbGeV6SIAEUjSBvmusx8Z6unhN27Fzjh+AHSvshLle8H0tGpZYcBXETQME7oX33nuvWzPE2IL7Hm6ERo4cKatXr5a9e/e61UMgUVgv/fHHH27H/vnnH4FLHuIomJHz588LFGbYfUMsKk+Cmxq4RA4aNEjV1dfiqT7LzRF4MFcZcxUNah26eMKglEUkkHIIQIH1yNRucurK+ZSzaK6UBJKQwMpj/8gzC/qpOKdNiz4qQx/unoSjhVfXSCrjS+C14ElgSe4rCLtre+es1J76NSo/ePCgUbGjzHUcxwGXD4hDCot8uDjqQd3hgWBWEefSXcR9pSIr4k4ZJ0wCJEACngmM27nI80EfR54tWdtHjcg7DDc+CC7yhQsXFlgvmQnI6bzS/fv3O1IwP/jgg3Ls2DHnw+ozYh6MGDFCKaCeffZZpchCnIWYGPcdUdxsLF++XFq2bOnWD9wEe/Xq5VZuVIAbLii9cubMKX369DGqkqgMlljjx4+XrFmzyp49e9SOYKIKTl/ghjhnzhynktsfXZWAZm+23DqyUQESI9y4ddPvFcG98FzCJckYb383TL/hsIGtCZzTXAfbLPxIlh/ZEvA6H893tzyWt6I8mLOs3Jkpr3L3DbhTdkACISKw/8Ix2Xp6r3Krnb1/lew8613h4WmauCaN37lYvfre+6w8X9q865unPlkevgSgvMIrpQkVWSntjHO9JEACJOCBQLbUvjOueGgatsVw39Nd+KCcwSsQMbKi+vnnn+W7776T4sWLy7Rp02Tp0qVqCJh1e3IthMWVPi+r88FaoPj6999/TXUBJdS2bdtU/Kq8efOqwKaeGs6alTirHrIOIvg8rMkoiQnkTpdVDlw4nrjQ5Lc95w9LeS3WFoUEUgoBxL1qMMucst4Tkwya8ndNsxGSOd6zFaqntiwngXAmkD99DsGrZv7K8t49t5PK/LJzoXRb9oXlaSO5SP91P8vu1j9b7oMNSeDitdsZvcPpnoWKLP5dkgAJkAAJpBgCqVLFS0KCf8G5R40aJW3atPHICJZVeF27lrjf33//XbJnz+7WDq6KCCY6f/58t2MnTpwQBEtHrAZvggyACxYsEMRXyJ07t7eqiY7B3Hz79u1K6RYXF6dl2/ldkFXQVVwtr/QMigsXLpTq1au7VvfrOyzc4OpoF8mfPrtlRZZdGHAdJGCGwHurfpDhW6aZqWpYJ0+6bDKuxntSIrN9fj8MF8pCEnAi0OLOavLUnY/JqG1zpOeKEU5HzH+EEiLvj0/K8sZDpWCGnOYbJlHNzmUaqN+C01fPyx2pbodtSKKh2G2QCHy9dbrqqWnhR4PUY+DdUJEVOEP2QAIkQAIkEDEEolQgTyhkzAgUOmaVLlAMOUv79u0NMyXCtRBWW7DYMhIosTwpsuDKh6yIK1askG7dusmwYcNUlh2jfjyVISg7XBvhJolshk2bNhUEgzdyg0QfzqmdH3/8cRX76+6773br3lX55VbBqYAuiU4w+JEEUgCBV5cPkzEBZNTtUrah9L6nXQogxSWSgDuBKImSdiVqS+tij0uFCR3lxOWz7pV8lMCdvfKkzkqZBTfcUApCWUCp3W3ZEBldPTALzVCuI6WMfUtuybDNU7W/wihJF5c6bJZNRVbYnApOhARIgARIwE4EduzYEVTXwo0bNyrl08WLFwVxuD7//HPp3r27VKhQQdKlS6fQ6RkJkZ3QSHAcFl9QYK1cuVK9w9oKKZxhJeYaBB4KJ2RDvOOOO+T06dNSvnx5ueeee2Tt2rVSqVKlREOgzFWqVasmCEb6/fffOw5hHAoJkEDKITB085SAlFgTa/WWR3NXSDnAuFIS8EAgLjpW/n5qpDw1r48sOrjeQy3vxVWnviw7Wo2RNLGhi6lUOENuyaVlyp67f42c0qyystAqy/tJC/HRj9aOVTP4+AH/MjQm9bSpyEpqwuyfBEiABEggrAgsWrTIr8yFVuNC7dq1S6B0chUoh86dO6fiVbke079v3bpVBah/6qmn9CKV5fDSpUsqZfOQIUNUOZRZzqIrspBB0VUwLo5DiQWpXLmymgcUYZs2bXIEtHduB7fKs2fPqjhcRYoUUQosBMu/6667BG6QCByvi6tiC+Ww8kI2RaNjeju+kwAJ2JcAAld/sNp6Nt1pdT6U+3OWti8gbWVIRoJNhCVLljh+n4O94K+//lqee87zQyiuVaNHjxYkLvFX3n77bWXZC+tlJCAJpcBdHtbKyBrsycrYzPwQDzNPnjwCC2bXDR4z7ZO6zrga70vNGT1k/Ymdfg+VoFlmFRzTQo62nezXvZDfA/loMKlWH3loykty14ROsrPVWImNdk+O46MLHk4GAogBOnjjJM0SK42yCkyGIU0PQUWWaVSsSAIkQAIkEOkEevfuLaVLm38ogrLG1WXQLIOqVat6rPrbb78JXt4EDxTOiqwXXnhBGjRoIAjUHixBumlYjhkJLLBg+fXKK684DuPBAEovKLVgaXX+/HnlpuiowA8kQAIk8P8EbmqZ0+rOfMsyj96V29leiQU4+K2F1SvcveFWrscktAzOpSHc2J9//nnB9Q8xErG54CoFChSQU6dOSWxsrHTs2NH1sNfv2Fj56KOPlFWv14pBPogEKx9++KEgGYkujzzyiKxfv15ZEmNOVgVu+0jIcujQYb8VWYcPH1YKQWxmbd682eoUfLabW2+glPqlrZy8cs5nXaMK7676Xv53bwejQ8lSVixTPnmjUkv5WAtEf6/m8vhX068EFmeU8CGw9PBGaTbnfTWhFVp8tXAT/rWE2xnhfEiABEiABIJOAAHG4T7XpUsXS33jQQPWUGaUSFDuQGBVVbJkyUTj7d27V7nm1ahRQ+1++7tjbGZ83MgbiR6XCg9LZgQKP8zv008/ld27dzuaFC5cWO3sDxo0SJXBmsBsHDFHJ/xAAiRgewLfbp0pF65dtrTOfFoShS5lGlpqa6bRzp07pVixYmaqWqqj/96aaZwrVy45evSo1KpVSyZPnqxc0vfs2aOUSmba+6pz3333qbiKsMZFAhK4d8OyVpfXX39dKbEQe9Eo+Ydez9M7rHsXL14sOXMmXxDxwYMHq02YmTNnJlJkYY6wGO7fv79Srnmas69yWGOlSpVKS6aSy60qrLV0frBYhoU1rOlw7lw3hnBO58yZ49ZHsArm1R8kd094XotgdMvvLr/+e4b01RRZUX63DF6D1yo0l+1n9suU3ctUMPohD78kzYpWkdgoWmcFj7L/PR27fFoQ13Du/tUqLtbc+gOVK6j/PSVtCyqykpYveycBEiABEggDAthtDlSQKXDGjBmG3Rw8eEhTcuVRxxAQ/cyZMwJrJ1eBMg1WXnXq1DHl9oC4WIhLZUagbIN4cg3x58EKCjM87GBn20hGjPgvcxKC18M9kUICJEACzgTeWfmd81e/Pi9u8Jlf9f2tDEUFFDdG1kn+9IWYgQ0bNpR3333X0QzKDSsye/ZsefPNN2XWrFmGiUJ89blt2za14WJUD0qZKb/+Ki1btFDKFn0TZdmyZfLJJ5+oF+qsW7fOrTksjJ544gm3cl8FyOaL653rho5Ru5MnT6oNE5wTM4I5Z86cWb77zv1v7IsvvlBJUWD1jOu2FTl06JBHa+x27doJFKGugk0eXH8bNWokJUqUENx3REdHu1YL6vd86bJLlbwVZLHFeFkNZr0t0+v0C+qc/O1sRJXXpJUWxB5xv7ot+0K9CmfMLTnSZJYydxTytzvWD4DAupM75fDFk3Lk0inVC87DfE1ZmiHO/X42gGGC1pSKrKChZEckQAIkQALhSgA36HCtcI0ppc8XGfdwc/rDDz/oRYnecbyMF5fEYsXuFCh0zEqbNm0ELzNiVgEFFwvIo48+6rVbXzvuyOiI3WZYbvlSUMEVBRZZ2JGnkAAJkIBOYMru3/WPfr8Xy5xPMsbfTmDhd2OTDbDR4Ou30ExXuDYgVmDZsmW9Vvcnqys60hVNnjqFy3tCQkKiw4gP1alTp0RlRl+Mfq9fe+01o6qOMrPXIUcD7QM2Qw4cOCCwiIZA+XPjxg2l5FEFTv+DEs6s/Pvvv6pfxHA0UhTh2oVrGFwkoYRLKrHCJCnmMl6Ll5VjZGNLXf91dKuldsFuVCVPBTmixewavX2ufLP1N2WltfvcYQmX+QV7veHcH2JhPZy7nPSt3F7KZCkUzlMVKrLC+vRwciRAAiRAAuFCIJvmkuFJcKOeJk0aT4dVnAw8NMGt49ixYyr4OXa+EZS9a9euHtv5oxzDzjRcVPLly2fYn9mbbmQa/Pvvv+X69euG/TgX4sEJ0rixtZto5774mQRIwD4EvvtnluXF4AHKbjJu3DiPGwNw30Yw9n/++cexbCibYO311VdfOcqcPyCYuatgcwRxDX0pwVzb+fp+5coVX1UMjyOxirPASgkxupzXqR/3R9FXsWJF1czbZhAsqpDNt2fPnuo6q49j13coHLac2mNpeUsObRAoksJBnileU/BCfL0rN65pr6vhMK0UM4c0MalCms3SX9BUZPlLjPVJgARIgAQikgDcAvdocUc8CSyR4CJiRZyz97m2HzNmjDzzzDNSrlw5FUcjS5Ys0qtXL1mwYIG6ycbu8tChQw0fPozcE137x3e4pMCdEQ9DvsRsBkEE/fUlffv2VVXMxt3y1V8kHt+vZfSxKrEMbGsVHduFOYGVAVh6PJTLu3VTmC/dcHrNmzdPVI6NAv03FtcECBQ9usDSCG6PehliaDnHoNLL9fp4j4+Pd3xF3CvXeE2Og9oHWNLiugFBZl5XyyYolh5++GHBZkXq1KlVPV//Qz+YJ6ygYIkFQYKSYAqup4hD6aokcx0D184OHToIYjnC2tpXkpfly5cn2oyCtTHW4+xqCfd9bPSEozxdvIa89ec3lqY2Z//KsFFk6QuIjoqWtLGp1Esv4zsJuBLwfZfq2oLfSYAESIAEbEngqBbcMWeaO2y5NiwK1k2Iw+FJsOvs7bindt7KEVz3zz//lNq1awuC0kLZpAuyIiEwe6tWrWTkyJHqxtyqq4sev8SbW4lukeXNckyfm9n3NWvWmIp/Yra/SKx38MIJy9MumvF2XDXLHbAhCdiMQBrt4TVVTFyyr2r48OEq091DDz1kODYCfEMZhd/tYAgULfPmzZMqVar47A5ZDJs1aya/ajGuzG62QAkzbdo0tVniOgAUMt9885/SA1kNobRC3whYrotRvMWVK1eqeFnXrl1Tih6Mo1sOu1qCdevWLaiKLLhStm3bVimlvGUF1uePNcJSGS7ymK83efrppxMlNdHrInC8s+jXUeeycPhcIWtRy9NYcHCt5bZsSAKhJEBFVijpc2wSIAESCDKB50rXE2SisSKDN06Sj+7raKVpRLRBim5vMbKgDPIWI8ufRcId5JVXXlHueRMmTFAPIUbtEQwXbnlQeOGFh5tXX31V7SQXKlTIqEmisgTt5jyvFrQY4ivGCB4qgin6zjR2slOyWMkWBV7xmjVWKB7YU/K54trDn0BciKwUkeACGxlGmxlQ1qDcVxwss3RhpQTFyk8//aQy7Plqh+QgOXLkUEHE0QbXDbPy8ccfu1WFpZazIguWX1gjrJ2cBclJXAUB1hF/CgoeBDcvWLCgDBkyRLkMIrutr+sW4lVaEViwYVxYjm3ZssVUF7Aqw3kDO2zgIGswPhsJsi46J4XJnTu3XLhwQVl/6fW9WXTrdUL1XiC98brMzGf3uSNmqrEOCYQdASqywu6UcEIkQAIkYJ3AW5VaWVZkzdiz3NaKLOyk+tpN9XXc25lB2+eee06+/fZbVQ0pz2GN5UvgtgH3BcTOwo30//73P/VCO1hsLV261LALZErMly+vOoZd9OLFiyeq57wW7PzD4gAPa8EQZFOEawdildxxh32t+HyxmrN/la8qHo/nSnvbnchjBR4gARJINgLZsmVTYyGLn6tcvHgx4OyGep/Y2Jg+fboKRO6c/VU/bvSODQ647OH3Gxa8yIpoZC1l1Naf2FMYx5fgOrNr165E1SZOnKgUWb6UWIiPBcsvK4LYj7CaNoqv5a0/uG1CSYVrKVwzMYdixYq5NXFWYiHTIgLVQw4ePOi4brquz/ka69ahS4E/58GlqamvOcLAmn706NEqjIKpCbMSCQSBQNLmBA3CBNkFCZAACZCAeQJpY1Nrlh7W3DLgWnjgovV4P+ZnGZqaSMmN3VyjF2YE9z6jYyjzJXioQD0ose6++24V3N2MEsu5X+wU40YdQXxr1KihArcbKbE2bdqkHgagxMLNMW4ejYKtV61a1bGeWrVqaXVF5s6d6zykpc+4ydezGc6fv8BSH3Zp1GHRAMtLmVjrA8tt2ZAESCDyCMDNDe6J+P10togyu5J9+/ZJHs0C94UXXpCpU6eaagaXSNcXAs+HSu69916/hoZFFayjoMiDEhAugMjYCMWTmReukUM+/9wRUwuKOG9B4jG5xx9/3DFHKNCg/DIST/cLRuVG7e1ShphoiBPaokULuyyJ64gQArTIipATxWmSAAmQgBkCuGlrV7KWZausLksHy7Q6H5oZKuLqwLXOk2uhr8WAKx4GevToYVgV1k7IXIiYJK5xQpwb6LFEkBWwadOmzoccn6EI86ZwWrt2rZoLds9xA2nk/oHOlixZItiNRpD57t27S5MmTRxjWP0AS4AiRYqo5mPHjtVuXn1bFfmza211XqFo99exrZJw03dmR6O5xUTFSKEMOY0OsYwESMCGBD777DPlNg6lzPr16xOt0MgKDL+bcPdzFlxbYCEE9z4kEDl37pzzYcPPRtZH3q5Rhp0EsVB3SffVJdY/Z84cgVslBIlMECcMmzvOgfPfe+89dc19//33DbtE1sIiRYsKNnbgGlhU+4zNn/HjxwsCurtaoeEat2HDBkfgd7gkIrA+FGp6UH59IKNrG+4VYAHmHPvMzHnS+4ykd6wfG4S4v4BlNhSMFBJITgJUZCUnbY5FAiRAAslAoE/ldpYVWX8e/VvWn9ghFbMVS4aZJt8QyNAESyKrgiC4eADxJr/99pu3w+oYdi3hRogHEauCYLdwkUAAeV+CG/VgyPHjx1VQdyjicFMO6zW4uPgSuJEghood5en51hW+nzzY2Y5IuCYSIAEDAsiyh/hTuXLlElhVuQoy6rlmvn3ssccMXeDQFpsmGTJkcO3G8LunmFDOlXVFC4LAJ7WrOFz8zAgUQnC3h8AVs169euoz4nE5y4cffqiuh542maDI0jM84lqEzR+UwSJOzxrp3F/NmjWVG2ndunUF13Qov7BZhHOH82glxpenzSbncSPt824t23JtTcmoW6uNGjUq0pbA+dqAABVZNjiJXAIJkAAJOBOAtcewR18WWFdZkQaz3pFdrcdKqILuWpmzrzZGO6e+2jgfR7aoYAhughFXKlAxo8QKdAzn9nAH2bp1q6MI6czNSLC4mRkrOeu0nN9XziZctDRkmth4aVXsP9cVS52wEQmQQMQQgNIJGV4hcA3v2LGjVK5c2TF/WLLAhe3FF190lOE7Ng5QduDAAWWdBYtfiFklFuoaXfsQ7N05piIyNaIeNj4uXbok2PgJtsBKCeJNEaS7rKuK2v/gAujLDRAWVFAEmpXs2bN7TOqCTSZkZcT7wIEDVZdgDQtpKLiwoTV79mzZuXOn2eFsVw/x4lq3bp3ItRVKR/ChkEByE6AiK7mJczwSIAESSAYCTYs8KkM2TZZ/Trvv/voa/sqNBHlgSldZ3XSEr6o8TgIpjsCwLVNlwQHr6cq3tuDOdYr7o+GCScCJwL+aNQuUVJs3b1YKJLh/e5KtW//Wst/eUAomT3XMlkNhBctkWIUhyYirwEW+V69eqhhxnlA/EIHSI126dKoLZOONi4uV+Pj4QLpM1BbufhBPiixkHYT4sqZGnT1axkVkYsSaXTebELMS7ozOscUeffRRNEsxgiybUCrCJdPV5RVKUW8KyhQDiQtNdgJUZCU7cg5IAiRAAklPIEqiZGnDz6XA6KcEiil/Zd/5Y0qZhT7sZJnlLwfWJwFnAsO3TJPeq0Y6F/n1+atHXxEkZKCQAAmEFwHd9RzKDFdxfXB3Pe7Pdyit4KoNQWY8KFngbvfll1+6dQO3LbjFwYILsZr8EbR76aWXEjWBoqpTp04C9/Q33ngj0TF8adu2nXK9g1tdIFa/N27ckE8//VStCa55+A6L3urVH1cJStwGtliwd+9e1dJTkPFjWoB4MwJXzcJa7EdYFs2YMcOwibMSCxXq169vWM9uhXA3RfwxxMLyJD/99JOnQywngSQlQEVWkuJl5yRAAiQQWgKbnvpeyo1rb0mZtevsISn+0zOyoMEnUiRjntAuhKOTQIgJNJjVSxBDzqoMevAFgaUkhQRIIPwIIB4Tsr+6BvTWZwqXNLjdBVMQd+nNN9+U/v37KysgKJmcBYk/ICNG+GcdvWjRIhX/Ca56yJToLPoYiHNoJLBGQkB5ZOAtWbKkypBrVM9T2eTJk6V9+/YCl78nnnhCVUOsKWTk1a29PLUtW7asp0OG5b1791blzlkGjSoipqQ3gWUXskEiCLyv+JV6oP7nnnvOW5cRfwwJaeBCqK/X24KcXWK91eMxEgg2ASqygk2U/ZEACZBAGBHIFJ9OtrcaLZUmdJKTV3xnOHKd+sXrV+T+yV2lTYma8kHl9po1SSrXKvxOArYmMP/AGmm7sL9cs5ihEHAGP/SiFheruq05cXEkEMkEOnToIHglt3z00UdKWQDFCOJU4R0WTFBCXbp0UVlIwc3PH0EcrnfffdfQjQ9xsGB55C2oOyzQUE+PyeVrbD3+FdwIoexDpsRVq1Y5gtXDLQ+B1ZH8w5v4u04EgXeNq+Xc/y7NhROC9XoTXXnnrY5+7IUXXlAfdZdJvdxO7xs3blTWfMjeaEZWrFhhphrrpEACUAwPGDAgyVZORVaSoWXHJEACJBAeBFLHxMum5t9Lk7nvyZ9HrFmU/LhtrozdPl8eyFVGRld7W9LF0T0qPM4uZ5FUBIZuniKfbZgo569Zt8JIFRMnK5t+JbnTZk2qabJfEiCBCCcwa9YsZQ32/PPPqyDjUGjt2rVLZc2D1Za/0q1bN8HLVRCXK23atPLggw/KH3/84XrY8X23Fi+qiOZqZya21KFDhxztYHW1fPlyeeCBBxxlDRo0UMHjYeETTNEtopAN0peYydzoqw/9OALBQ1EXExOjF4XF++FLt+OFWZlMvHadcpby5cvLkiVLBDHO4PJq5IbqXD/YlorOffNz5BPw1y3anxVTkeUPLdYlARIggQglEBsdI9Nqfyi/H94oTy/oJ5ev+5+V6Matm7Ls8CYpPLalFoFL5LF8leTxvHdLgQw5JGeaLBFKhtMmAZEL1y7LwYvH5a+jW2XG3j/l9NXzAWFBjDpYMQ58oHNA/bAxCaQ0AlctxHS0A6MpU6ZI165dZdiwYWo5cLO7//77g7q0Dz74QPU3duxYr/1CkQXJmsX3dR0ued27dxfEwnLNUvu///1PYDUFi6xSpUp5HRMHvVlXOTdG1sVvvvlG1ffmjqhn2s2aNTgbCVgLMjq+/PLLztMJi8+7zx22PI/yWYsYtoXVWc+ePdULCq0ePXqoJAWulaGA/fHHH12L+Z0EkpwAFVlJjpgDkAAJkED4EHgkd3nZ8/TPsvDgOmk5r6/lid3SWi48sE69LHfChiRgQwKNCz8sQx7uJrDGopAACfhH4OqNa3I24YJkik/vX8MIr92oUSOZOnWqWgUUOnDrypYtm+TNm1fgupUvX76AVrhmzRoViwvxpAoVKuS1LyilILk1JZUZGTx4sFs1BIyfOXOmFC1aVH755Re3484FeqB9xCHzJYjfhUD2EKzJm8ydO1e5VwYro16TJk3UcLp7obexk/vY8qNbLA9ZJXcFn22hZO3SpYuMGjVKnn322UT1XRWYiQ7yCwkkIQH/nK6TcCLsmgRIgARIIHkIwFqket675Fi7KbK88VDpWKqu5Erre+c1eWbHUUggsghAYVUz/z0ystqb6t/UiCqvUYkVWaeQs00CAg0LP2S511n7Vlpum5wNDxw4oIKYWx0TAdFfeeUVFcMJSixkJ7x+/bqKmQWFDYLPY4z8+fOrOnAJREwtBFSHa+C+fftMDQ3LqHvuuUdKly4ts2fP9tkG1k7x8XGSOrX/IQQQaD5TpkxKiYVg9ci86BqjCmtctmyZes2ZM0f0TJHOLolGk4QSBQo9xNJCHDBX9z69T8TsgjscgsybsQQzGsu1DEoczBvZ+1zX41o3FN9/+Mf3efU0r/qF/nMF9VQH5Vh3u3btBDHUdNdOlJ8/f162bLGuSEMfFBKwQiBK88PGxjqFBEiABEiABBQBBHjfcGInaYSYwEO5y6kZ/KG5c1LCi0CGuLRSzoM7RnjNlLMhgdAQWHXsH6k78y1Lg6eJjZe9T4+z1DYpGy1cuFCqV6/uNgQUJnqGPreDTgV45IIS4OOPP06UwQ8xZM6cOWMYnB3NoTyBwgtB4J1l5cqVUrlyZeci1T8KdEWYbrX0zjvvSN++7lbYcAmDxRKsoebNm6fmhnm+9dZb0q9fv0R9e/uCWFmwHtMFFmZwl/QkhQsXVu6I+nFwnT9/vv410TviUunKLihTwCpjxoyJ6uDLo48+Kr///rujPDo6SmN20/Hdnw/I2Idg91DSgEvNmjVVRktkOPQmmB8UaVWqVPFWLajHbsktyTnytrWYlY6xqWlF4GaJvxswgtIVClYKCSQnAboWJidtjkUCJEACEUAgXWxqeTCXf2mwI2BZETtFnouIPXWcOAmkWAKVc5S0vPbL1xNk2ZFN8nCu28p8yx0FuWHVqlUlQ4YM6sEdXcP177333jOlxELcKbjEXbt2zTErxI6Csgjud97kpZdeUlnkjh8/rtwPYZlUsGBBNyUW+ihevLgKFK/3h7hGUGB5cq9r06ZNIgsjKNX69+9vGCxe79PoHbGy4JKItYwePVpatmxpVM1Rtnr1ahVz6d5775X69esnUoI5Kv3/h7Vr16pPlSpVUsouIyUWKnz11VeCOGDlypVTGRJxvqwKsiwiOD4UdLBCgmDO4Sj3TepieVq9K7e13BZ/U+fOnVNKT/zNUEgguQnQIiu5iXM8EiABEiABEjBBQHdfoOG0CVisQgIkEHYEtp3ZL4/86p49z8xEsaGyq/VYiY6yTxSUnTt3KqshBM6GBUtSyP79+5Vy7NNPPxWz2cLWr18vFStWTIrpBK1PWP94UsYFbRCnjlq1aiWwwMM5S58+vVJoQVnnSxBHq3379lKvXj1fVYNyfPmRzdJo9ruW+orR/m0dbjvJUlvXRshKuXfvXqlTp47rIX4ngSQjQEVWkqFlxyRAAiRAAiRgnQAVWdbZsSUJkEB4EKgy9WXZenqvpckg9tyY6r0stWUjErA7gSs3EqTwmJaCjNJW5MtHusuTRataaco2JBAWBOyzzREWODkJEiABEiABEiABEiABEiABEJhTb6BlEHP3r5Y+q0dabs+GJGBXAsjuWWbcs5aVWEUz5aESy65/HCloXVRkpaCTzaWSAAmQAAmQAAmQAAmQQHIRSK1l9Zxff5Dl4b7cPFVeWf6l5fZsSAJ2IwBLrAoTOsr5hEuWlpYjzR2yrNEXltqyEQmEEwEqssLpbHAuJEACJEACJEACJEACJGAjAuWzFpXvH+tpeUVjt8+Xx6a9IniAp5BASiawUssGCnfCU1fOWcKQMT6drGk2QhAfi0ICkU6AMbIi/Qxy/iRAAiRAArYkwBhZtjytXBQJpFgCeAivN/Mty+tH4PeeFZ+SVys0t9wHG5JAJBK4dvO6Cuq+Svs3ZFXypMsqq5oOl7joWKtdsB0JhBUBKrLC6nRwMiRAAiRAAiRwmwAVWfxLIAESsBuBswkX5dGp3eXwxZMBLa2HptBqWay65EuXPaB+2JgEwpXATS2I+5rj27U4caMESuBApMWd1WTIwy8F0gXbkkDYEaAiK+xOCSdEAiRAAiRAAiJUZPGvgARIwI4Ebt66JaO3z5UeK4YHvLx0caklW+pMUrfg/fJAzjLqc8CdsgMSCBGBDSd3yqJD62X9iV1y8spZuX7zRkAzSR0TL6ubDRfExaKQgN0IUJFltzPK9ZAACZAACdiCABVZtjiNXAQJkIAHAtdv3ZAP14yWUdvmyoVrlz3UYjEJkIC/BErdUVD6Vn5WHs1Twd+mrE8CEUOAiqyIOVWcKAmQAAmQQEoiQEVWSjrbXCsJpFwCt+SWpsi6Im/+OUIm7FqSckFw5SQQIIHBD70oTYo8IrDEopCA3QlQkWX3M8z1kQAJkAAJRCQBKrIi8rRx0iRAAkEgcOrqedl2Zl/ArlVBmAq7IIGwJZAtdWYpnjkfsxCG7RnixJKSABVZSUmXfZMACZAACZCARQJUZFkEx2YkQAIkQAIkQAIkQAK2JhBt69VxcSRAAiRAAiRAAiRAAiRAAiRAAiRAAiRAArYhQEWWbU4lF0ICJEACJEACJEACJEACJEACJEACJEAC9iZARZa9zy9XRwIkQAIkQAIkQAIkQAIkQAIkQAIkQAK2IUBFlm1OJRdCAiRAAiRAAiRAAiRAAiRAAiRAAiRAAvYmQEWWvc8vV0cCJEACJEACJEACJEACJEACJEACJEACtiEQa5uVcCEkQAIkQAJJSuDMmTNJ2n9ydn7r1i05e/Zscg5peaw9e/b4bHv69GmfdSKpgp3+1rZt2yaXL1+OJPxe57phwwavx0N5sHHjxtKwYcNQToFjkwAJkAAJkAAJJAMBKrKSATKHIAES8I9AxowZ/WsQprWvXbsmV65cCdPZcVqRQqBw4cKRMlXOkwRCSqBIkSJUZIX0DHBwEiABEiABEkgeAlRkJQ9njkICJOAHgfPnz6vapUuX9qNV+FWNj4+XTJkyhd/ELM4oa9asEhMTY7G1tWYTJkxQDZ988klrHURwq9jYWClevHgEryC4U+/bt6/kzp1b5syZE9yOk7i3vHnzSubMmZN4FHYfFRVFCCRAAiRAAiRAAimEABVZKeREc5kkEIkEtmzZEonT5pyDSEB/OB0/fnwQe2VXkUigX78PJS4uTsqUKROJ0+ecSYAESIAESIAESIAEgkSAwd6DBJLdkAAJkAAJkAAJkAAJkAAJkAAJkAAJkAAJJC0BKrKSli97JwESIAESIAESIAESIAESIAESIAESIAESCBIBKrKCBJLdkAAJkAAJkAAJkAAJkAAJkAAJkAAJkAAJJC0BKrKSli97JwESIAESIAESIAESIAESIAESIAESIAESCBIBKrKCBJLdkAAJkAAJkAAJkAAJkAAJkAAJkAAJkAAJJC0BKrKSli97JwESIAESIAESIAESIAESIAESIAESIAESCBIBKrKCBJLdkAAJkAAJkAAJJB2BqKhoOXr0aNINwJ5JgARIgARIgARIgAQiggAVWRFxmjhJEiABEiABEkjZBKKiouTy5cspGwJXTwIkQAIkQAIkQAIkIFRk8Y+ABEiABEiABEiABEiABEiABEiABEiABEggIghQkRURp4mTJAESIAESIAESIAESIAESIAESIAESIAESoCKLfwMkQAIkQAIkQAIkQAIkQAIkQAIkQAIkQAIRQYCKrIg4TZwkCZAACZAACZAACZAACZAACZAACZAACZAAFVn8GyABEiABEiABEiABEiABEiABEiABEiABEogIAlRkRcRp4iRJgARIgARIgARIgAS8EViyZIm3wzxGAiRAAiRAAiRgEwJUZNnkRHIZJBBpBLp3725pyhcvXpQOHTpYastGJEACJEACJEACJEACJEACJEACkU2AiqzIPn+cPQlELIFBgwZJVFSU3HHHHfLuu+/KqVOnPK5l//4D8vLLL0vq1KklT5488vXXX3usywORR2DkyJHy1VdfyfXr101P/saNGzJx4kSxqhA1PRArkgAJhAUB/D7gtz8hIcHv+cybN0+WL1/udzs2IAESIAESIAESCE8CUbc0Cc+pcVYkQAJ2J3D8+HHJkSOHY5mxsbEyY8YMqV27tiqDgqNdu3aO4/jAn6xEOGzzBX8H+HvIlCmTLFu2TMqUKaMUnVB2QvTzfvr0aXn44Yfl77//Vsdv3rxpGwZciAgUlDExMYYooMi+evWq42/BtRL+FqKjuT/nysVO37ds2SJly5aV9OnTy+LFi6VSpUqOc47fimrVqsmCBQvUkqHwatasmUyfPl3uueceWbVqlZ1QcC0kQAIkQAIkkKIJ8I4vRZ9+Lp4EQksge/bs0rlzZ8cksOOuK7FQ6KrEGjBggKMuP9iLwLFjxyQuLk7Onj0r5cqVU8oMPITq0rVrV0mTJo1kyZJFKbFQfuTIEf0w321CAEqH6tWrO5QRZpa1cOFCqVWrlnzzzTdmqrNOBBOAgrtPnz5y4cIFpZyC0rNevXoOa6vLly9Lr169JFu2bJIqVSqlxMI7lVgRfNI5dRIgARIgARIwIECLLAMoLCIBEkheAqlSxWvuIte8Dood+PPnz3utw4ORTQAKCSgxzMhLL70kQ4YMMVOVdSKMQNOmTWXy5Mlq1s2bN5cvvvhCWW46W2SdOHFCunXrJj///LOqV6dOHZk5c2aErZTTtUogd+7cphXZGzduVMpxq2OxHQmQAAmQAAmQQPgRoCIr/M4JZ0QCKY7AmjVr1O66t4XDYgcWXBR7EyhdurRs3brV5yJ1V0OfFVkhIglkzpxZWefpk4cl3pkzZwTug/gdgBuqLnBHxe9DfHy8XsR3mxPA+c6ZM6fPVcJSb/bs2T7rsQIJkAAJkAAJkEBkEaBrYWSdL86WBGxJ4O677/a6Yw53QyqxbHnq3RaF2FeeYiTplc0ouvS6fI9MAhs2bFAx0PTZIxmEHg/NWYmF4ytWrKASSweVQt4RU++FF17wulrES6MSyysiHiQBEiABEiCBiCVARVbEnjpOnATsRWDRokUeFzRq1CiPx3jAfgTef/99j4tCcOeSJUt6PM4D9iBQsGBBadKkic/FNGrUSEqVKuWzHivYj8Bnn32m4mB5WtnQoUM9HWI5CZAACZAACZBAhBOga2GEn0BOnwTsRACWV3PmzEm0pKpVq4o3JVeiyvxiGwJ6tkLXBe3evVsKFSrkWszvNiWATKbIZGgksNxDrCy4IVJSJoGBAwdKz5493RaPxBCXLl1yK2cBCZAACZAACZCAPQjQIsse55GrIAFbEBg5cqTbOubNm+dWxgL7E5g1a5bbIh9++GEqsdyo2LvAmzXmG2+8QSWWvU+/z9X16NHDsM7YsWMNy1lIAiRAAiRAAiRgDwK0yLLHeeQqSMA2BMqVKyebN29W62EmMtucVr8XgnhIGTJkSGRVQWssvzHaokHGjBndMpbCGuv69eu2WB8XERiB7777Tjp27OjohBluHSj4gQRIgARIgARsS4AWWbY9tVwYCUQmgYULFzomzhgnDhQp7gMCNcPiRpcSJUrQGkuHkcLeJ06c6Lbijz76yK2MBSmTwLPPPpso2H///v1TJgiumgRIgARIgARSEAFaZKWgk82lkkCkEEBadcQ3OX/+fKRMmfNMIgJ6rKz169dLhQoVkmgUdhvuBGCdd+HCBTVNWGNduXJFED+LQgIg8Prrr8snn3yiMl3q2S1JhgRIgARIgARIwL4EaJFl33PLlZFAxBIYPnw406ZH7NkL7sQbNGigOqQSK7hcI623zz//3DFlWOBQieXAwQ8agUGDBikO+u8FoZAACZAACZAACdibAC2y7H1+uToSiEgCCQkJAtcyPqxG5OkL6qSPHj0qEyZMkBdffDGo/bKzyCKAzIXx8fECa5tbt25F1uQ522QhUL9+fZk+fXqyjMVBSIAESIAESIAEQkuAiqzQ8ufoJEACJEACJEACJgjUq1dPLl++LAsWLDBRm1VSGoFjx45Jjhw5UtqyuV4SIAESIAESSJEEqMhKkaediyYBEiABEiCByCOwePFiqVq1auRNnDMmARIgARIgARIgARIIGgEqsoKGkh2RAAmQAAmQAAmQAAmQAAmQAAmQAAmQAAkkJQEGe09KuuybBEiABEiABEiABEiABEiABEiABEiABEggaASoyAoaSnZEAiRAAiRAAiRAAiRAAiRAAiRAAiRAAiSQlASoyEpKuuybBEiABEiABEiABEiABEiABEiABEiABEggaARig9YTOyIBErA9gSs3EuTK9QRbrTNTqnQSpf1nNzlz9YLdlmSL9WROld4W63BdxK1rZ12LIvt7TBqJio6P7DX8/+xtd25scVb8W0RUrPa7ERXjXyPWJgESIAESIAEbE6Aiy8Ynl0sjgUAJTNvzh3y5+VfZf+G4nEm4INdv3gi0y7Bs/3/tnQd8U2X3x0/3oLusMsuSJciUpciUoaAIggNERVFffJ0ovIq4B259QfCPL6KAIoI4WALKBtmIyEY2pUBbukea5v+cizem6U1y8yRpk+Z3/NTc3HvOM77Pbco9Oec8EcFhlBAWTS0Tkuk/7e6mlvHJXjlOW4MylBTTB3sX0vfHN9LF/EzKKsolk/gP4p0E1Puta82Wyv1Wp0o17xyojVEVX95P+YenU3HWETKJzwVTSeVybpunHRhCgSFRFBhRgyIa30ehNXuaL3nrgTH3DOUfmkqGjD/E2mSTyVjgrUPFuJwkEBAURgHifgyKSqbIZv+i4LhWTrYAdRAAARAAARCoPASwa2HlWUvMBATcQmBjyh/0zJYZdCzrnFva89VGBid3pUntR1FydE2vnAI7FeceWUXPb/2MDJXUweiV4D00qLua9KYJbe+ipMgED/XgWrPGnOOU++e7ZLi43bWGfNw6OLYxVWn5DAUntPWamZQUpFLegY+p8OwqrxkTBlI+BEJrdKPIpv+ioJgm5dMhegEBEAABEAABLyEAR5aXLASGAQIVTWDbhYN056pXKNuQ75ahRIVEUNtqTahFfH23tKe3kR0XDtHOi4f1qjvUaxCTRGsGf0CRImrLW2Ty9lk0c/9SMppK3DKk9tWuoqvi6lBMaBW3tOcvjRhLSmj3pSNuvd94LZbfNMV7EJqMlPHrLVSSf8FtYwqOb0Eh8eUbTcIRSsack2Qy5LplHgEhVSi22/9EdExDt7Qn28jldcPJmH1C1ryMXUWsTZlB+MEJvh+LM/a7baaB4YkU32e529pDQyAAAiAAAiDg7QTgyPL2FcL4QMDDBPKLC2nIzy/QrotHXOqJ06TubzaQOJLJW4Sjlj7583uac3gVncxOdWlYz7QZQePFT0XW0zqYcYoGLJ1AucXy6ULBgUF0a4PraFzLW0QqZQOXmMC4NIGMwmyadXA5fXZgKaUVZJW+6MQ7vsfe6DSGxjS/yQkr96vm7ptCBScWudRwUGQShTcYQWH1bxc1p0JcasudxoVnllDB8flUnOma0zukWgeK6fghUTnX0yo4MZ9y973vEpLA0FixNsMpPPkOkbIW7VJbMJYnwOmfhacWKr9rxtyz8g0Jy4iGd1Bki6dcagPGIAACIAACIOALBODI8oVVwhhBwEMEckT0VeOv7qYSk3w9pc41WtB3/V4hdpB4s3Dx8zbfPkB5wnEnKyGBwXT2nm9lzV2y41plL+/4wqU2pnd/koY0uJ4CAypfcXuXwHjAmB3ETb4aSUWifpmsNIqtRVuGTJM1d8kufdl1LtW+CgiNFhEiK7zKeaUJxFRMlzeOImPmMc3Luk4GBFLiTb/pUnWH0uW1t4nosjPSTQUEhVJcrx8oMCxRug0YeohAiYEy1gxxKQKSnZIJfX8WzlWUwfXQKqFZEAABEAABLyAAR5YXLAKGAAIVQWC7SCW8edlz0kXBq4bHKilQ9aNrVMTwpfv8QRSwf3Dtu9L2CeExtH/E7HJ1Bj2xaSp9deQX6THfXL8zfXrD08SOOEj5Eph9aAU9u+VT6U65Rtu2odOl7Z015MLtGSv7kqlYMsVY7KwW0/EdCql+nbNdV6i+MfsoZW4aIz9vEUUXe93nogB3C8/NQzjdMlYNoJIi2R0iA6hK6wkUXu82z40RLbuFQNGFDZS9YyKRcGzJSEBwFYrr/b3YrCBWxhw2IAACIAACIOD1BODI8volwgBBwP0EzuZeorbfPijdMEdh/TjgdWn7ijbk4uhNRCSaK9FZ50cvEs6sQI9PZeJv/6ekq8l29L+ez9Cg+t6T7ik7D1+24+ishvPukq5pVlMUgP99+GceT2s1GQspfYXYmU84TGSEUwcTBm6SMfUam8xNo0XtogPS4+H5eyqFMmNlH+HEkkxZFQ7GxJu2SM8LhhVDIG1ZN3lnltjlMKHfryIyK6RiBo9eQQAEQAAEQMCDBDz/FObBwaNpEAAB5wlkGfKo83fjnDf82+KB5gN92onF0wgRaZAnRs6nelHVpTn0/PFJaVu9hmvP7XbJibVCFA2HE0svbc/pRYiNAo7eNY+iQyOlOjmfl07DVr4kZeuMEaesyTqxgqLq+bwTi1nFdvuCwur0dQZbKd2MFT2Iax65Wy6vGyHtxAoIChcOjdXuHhLaKwcCiQPWUWCE3N8pdkxnrLm1HEaJLkAABEAABECg/AnAkVX+zNEjCFQogc6L/kWFxiKpMXSq0VwUoX5QytYbjbbcNk1xasmM7YAovP7RHwtlTHXZFBoNNHzlK7p0tZQ+6zGe2okd8CDeQaBKSDj9MXyWdFTVhnN7acGxtR6bTM7u50Vdnoty7QcEU1wPz/0uFOivVAAAKY9JREFUyA1K3iqqzesUHNNQqgGTSAXL3vaYlK0to8JTi8TOhMdtXbZ/XkRiJQxYT5xqBvFBAuJ3K773EukoP/6dzt37qg9OHEMGARAAARAAAfsE4MiyzwdXQaBSEfjm2Bq6VCBbX4Vocf/K9Q9irhm1c9j/Sa/xGzu/Ii4i7wkZ+vNk6WZ5V8LBySIlBeJVBCJFZNZ3/eWdk09v/oR4J053S0nBBSo8Kx+xE993ibuHVOHtxYjILFkxpO0hw6WtsuZl7HL+eKfMOb0nYjpP1asKPS8mENfrO+nRFZxaQiaD/N996Y5hCAIgAAIgAAIeJABHlgfhomkQ8CYCJrEz4aSt/5Me0rKb3qJg8e2+rBgMBkpJSaFz587R5cuXZZshnkd6errSDreVny9ZlPrvEXD9oTsai7pAEmISpfKfEs4Fd0uu2E1ymyjGLyO8I+G06x+XMfUJm5KSEkpLS1PWPzU1lYxGOcdOYWEhsb2r96Oz0LrVvJpaJiQ7a6boc5TelD1fS9naM8re+Yy4LLdzaXi9QRQYmmCv+XK7lp2dbf5cyMqSrCX192gDRH2hmG4zpcees2uSsJVjatlp9i5R8NtUYnlK93FQZBKFJLbXrQ9F7yUQGF6DwmrLpryaROF4/h2HgAAIgAAIgEDlIQBHVuVZS8wEBOwS2J9xkjKLcu3q2LqYFJlIHao1tXXZ7vmlS5dS8+bNKTQ0lGrVqkW1a9em+Ph4Cg8Pp+uvv54yMjLs2qsXd+zYQe3atRPthFBiYqLSDrcVGRmpHL/44ouqqtOvb3d52Gkb1WDJSfcXUO7541Nq806/Tmx7l0d3J+S1u/322+2Oq1WrVsoab9++3ax31113KefY3tYP29mSEydOUOfOnSkiIpyqVq2qrHnNmjWV+6ply5a0Z88eW6alzs+dO5caN26s3H9sr96PERER1KtXLyoocH99o1IDEG9+GvCG9Snd7z/au0i3rl5FV4qbV2n1vN5u6J133tFce15PXpN+/frRhg0bdLfHirxeQ4cOVdqNiYkxfy7ExsZSdHQ0de/enXJz5T73QuJbU2C4nJOOdxY0Zh11ai5aykUp67RO6zoX11M+ikdXB1AqVwJRbV+X7o+jBHlHUggIgAAIgAAIVBYCcGRVlpXEPEDAAYGRv8j/I/iFDqMctF72MkfKXH/ddXTzzTfT+fPnaezYsbRx40b6/fffac6cOdSlSxflfUJCAn377bdlG7A407t3b+rYsSMdPnyYbryxH3399ddKO7/99huxA4udWa+88goFiGikQ4cOWVjqOwwPCqUGMUn6lDW0vjoin5Zl3VyJiDg7mZ1qfVr3+ydaD9OtK6PI0XQ5ObbTKR944AHat28fPf7448qaqX2wM4Ft2Rll66dt27aqeqnXl19+mRo0aEA7d+4Qzo7+yv3C99H333+vODH4vmDb0aNHl7KzfsP30KhRo4ijdf79738rThNu5/PPP1fs165dKxxlEfTrr2KnLw9KVEgEJYlIQFnZeP4PWdMydnmH5FPPQpNuIFG8p0ybtk6w00nrHmAHZnBwMK1Zs0ZxPPHvMa+FI1mwYIGyXosXL6ZGwhHGjrLdu3crnw3z5s0jbpcdY1FRUfTGGzLOwwCKaHCno2HYvJ67/32b1/RcMFzcJKKx5CIOg2ObiLWRj6DVMz7olD8B5XdOstuCY/LpspJdwgwEQAAEQAAEPEYgQKTpuB777rHhoWEQAAF3Eag+e4h0UxfuXey0LUdbseOKHQezZ8+mwMCyD7wcjZWcnEycEnTgwAFq2rRs1FdSUpLiCBsxYoTiAAsJCdEcy7Zt2xQHSVBQkJJ6yNEYzgjXDmsx/15nTMy6daKq0S4Xam2ZGxIHW1P306Dl+qNcLG1bJTakXwa9Z3nK7cfsZOjfvz8tX768TNtPPfUUffDBB8qaf/nll6Wu33LLLfTjjz8qqaGlLjh4w07Pe+65R7lP+B7hSD5rKS4uVhwgW7ZsoalTp9K4ceOsVahZs2aKk3Py5Mn00ksvKU5Pa6ULFy5QjRo1lNOccsj3nqfk22NradyGj6SaH9qwO03v/qSUrbUR71RozDljfVrX+7ieCymoSj1duqz06quvEvO39c8OXsedO3fSDTfcQJz6+cgjj9Ann2in7vI6szOSHY+nT59WojS1BsJOV47kPHLkCE2YMIHeeustLTXb54QjKW1pF9vXHVxJvHmbAw3bl3N2PkuFKWttK9i5UqXVsxRe37NObTvdl8sldlBevHhRuQfKpUMv6KQ48yBlbrhHaiRBYgODuO7zpWxhBAIgAAIgAALeRqDsk6W3jRDjAQEQcJlAemG2dBthQdqOI3sNbt26VXFide3aldihoeXEYntOMdu/f7/yYMvpQdby2muvKU4sfmCdP38+2XJisd21115LJ0+eIn4Y5hQjZyU+LMpZE7N+eoFr9XjMDYmDTef/tHzr1HGf2u2c0nenMkfHsBOLnRDWTizZftiZwU4sfmA9fvy4phOL2+Zons2bNyvdPPHEE2W64/RWjtQbNmwYcXQXO+O0pHr16nTw4JXaZI6iu7TsnTnXXjJVl/vYnCp/j5Qeo4mMuedKn3LiXWBETSe0HavyOnbq1ElJF2zYsCFNnz6dVq1aVcaQnVP8mcD3BTvBOdXYlrAOR+xVq1aNpkyZoji9bOlqnq/AqKbC1I2aQ9JzMrRmTz1qPquzbt066ZRRn520GHhQVAPp4Ruz/hK2+O5aGiAMQQAEQAAEvIoAHFletRwYDAh4hsDuS0ekG+bi1M4Kp5exsAPBkXCNIo6E+eOPsulSHL3B8tFH+iJX6tato0TbsA1HgTkjQS48sOYVFzrTlV3dXZcO271u72Kbqo3tXfbYNXZGcsQcOw04PcxdMnGiKHQt5KefftLVJEf4adW4GjlypGLPKamOhKMCuZ2VK1c6UnXpeoMYeSdQSm6aS32rxiZDtnQh8YCQKJFVGKo25fZXrnnG0ZVa9djUyE2OsmIdPXLs2DFFjZ3rzkpAWJyzJmZ9Y7YLdbJKis3tOHsQGGbbuedsW96o/8MPP3jjsDw+Jt6EICCobFSq3o5NRtTJ0ssKeiAAAiAAAt5NAI4s714fjA4E3ELgryz5qIvo0EinxpCXl6fUSGrSpAnFxel7AORoCesomdWrVyuRWpxaZH3N3oCef/5KWh7XzHJWYpycq2X7aW6KyjqaedayWaeO41yIKnOqIwvllJTzSi0iXkPeTdKZtbJoRvOQo7w4SofTVPUI329ajg2uy8RpgtyWHtF73+ppy5ZOAAVQqES0o632ZM6bSgwyZopNoHBkeVI4NXjAgAGUmZmpRGVa9sVpn1wgnov16xVur1u3bnTmzBklHU2vHesFhVd3Rr2UrjHrUKn33vLm/vvvV35Xi4qKlJpw/HvLP1xv0FK41iF/pqrX1ddGjRrZ3GCB6+GxY1vVVV85bZfTzW3J3r17idtV9dVXTllWZciQIcp1jv5k4fGqejNnzlTVzK9cN43TT1Ud9XXQoEE2NxphHTWqd9q0aWVsLb9Y4S9r2IGvtsuv9913n7l/rQP+28Sbn1jaJCcnE0cy65GAYHlHlmzNNT3jgg4IgAAIgAAIlCcBOLLKkzb6AgE/IMDRVSwDBw50abZcLJzlwQcfdKod1VnBqWjOSqQrDwjOdlZJ9GvXrkUlJSWKs8Fe6qez0zUYDMQOC97pUss5pbc9rrnE8uGHH+o1gZ4eAk4UedfTnJbOjBkzlNPsjFCFN3hgeeyxx9RTul/vuOMORZcL/Pu7dOjQQUHAqdi8mcajjz6q1CWzZsMOQy6Uf++99xI7vfiHf6f4d5M3WFi/fn0ZlPw7y05odtioNrzrLP9tYKe01mczbxBxzTXXCEfjaWKHFttxavHVV1+tpCyzA4uFI/ReeOEFqlu3rvKeozb5Pf9YbxbBqcLPPvss8ZcqaWlp5rHwfJYsWUK80Yj1fLnR9u3bKymrHMHJXLj2Ho/nzJmzivOJ05c3bdqkbDoxePBgpfafOl7uk6OBeZdWLeFoQt6ghO9FlQ1vUJCamqrUeFRTm7Vs3XOuxD3NoBUQAAEQAAEQqGAC+r6eruBBonsQAAHfIZCSkqIMlmtWuSL8D3sWW/W17LXdo0cPXbue2WsD1+wT4AdgjiIIDg4SdYfOSK2TvR74IY+FHzZdETXVkaNxIL5FgNOOWVasWEHvvXdlEwN2eLC0bt1aeXXmf3379lXUeWOIPn36OGNa6XQ5GoiFPyu5DpnKg50+qrDziqMZ2XHFBfNV4WOuTcZRbrzxA0fhqsIbMvCuoJz6x04eVdg5dPToUWosdpdkR5B1amD79u2UKCiOwLMUTjnnzxneoZRFdRDxzqJc5J/Tzzniylr69eunRN5Zj4P1/vOf/yhfkCQl1aTrxM66PBct4Z128/PzzbX5VKc9s+N7iTee4Ig1S+G/f/yZxU4wrhWofrHCOs8995xSr40/k5i7Km3atFH64Wi05s2b29wMQdXHKwiAAAiAAAiAgHhGBAQQAAEQcCcBLqrN0qJFC5eaVR0ZMo4sLjgO8SyBBFFg++zZs2QwFDvlxLJMp7E+thwxO8pYOErDFVHvR07lgfgmAa7Bpgo7L1g46sdZUWtrqc4wZ+0roz7XDlOdWJbzYwfNF198oWyiYenEUnXYQcNpmuzo4XpmqqiOGEsnlnqNHTUsvHuppXB6XlGRgdRoO8trfMwbObz55ps2HU7W+hwhyjXubrrpplLONEs9jjTbvXsP8cYBixdr78rLUZxau6Ty3xeet9YOmPz3So0es3Twcd88B7a1dGJZjmnu3LnK23nz5lmexjEIgAAIgAAIgIAGAURkaUDBKRAAAc8R4G+jbaV5WX9L77lRoGVXCHCEDKf78StHZPDD66VLl3Q1+eSTT+rSc6TE9bhs1aJx5j7i1Cg12se6T2fasbbFexDwBQK2NsVgJzULp+zZEjVa8pFHHlHS72zpOTqv/j3gyCstYaeluvGD1nXrc3PmzFFOceSVPeG0RZaHH37Y7Hyy1B8zZozlW/MxpzDyron9+vU3n7M84LRB5qo64/ma6ozl3TZtSZcuXZQvBRYtWkR33323LTWcBwEQAAEQAAEQEATgyMJtAAIg4FYC7NRg4dojnDJhLezw2L59e6nTnE5i/e11WFiY8g08f7vubFQWP2RAPEeA0wnT0zOU1KJPP/2UHnroIbr11lvN6T/2en7//fftXTZfU1NyOA1MS7iGlvV9xPeKmpKq2qj3I9fb0RKunWPdzsWLF0s9hGrZ4Vz5EbDcabBBgwZKx1yjyVlRo/NUB4az9pVRv3PnzprTUllxZO1ff/2lqaOe5N0jrYUjlk6cOKE4dPh3mN/bEk7H46LtWimCtmzsnVcju6666ip7asq1KlWqKBsKOFS0UFDHWb9+PYuz/xzGx8f/8+bvIzVqjW3t8eQvCFSnV5lGcAIEQAAEQAAEQMBMAKmFZhQ4AAEQcAcB3r2OZcOGDZrNcbFefgi1/Bk1alQZXTV1iJ0TzsratWudNYG+EwT69OmrOLHYhIvx88MuRy+5k7taON5W/RreAc3yHuJjtbC75VTUWm0///yz5WnzMacBWbej5wHY3AAOPEZAffgfOXKkuY9mzZopx1wQ3FnhguMsXK8JcoWArY0UVIcwpwPa++FWTCZTKZzjx49XdvLjzwWubcUF0Jk570KpJfwlhlYKn5aunnMcrcmi/i2yZ8M6Mn9j7LWpdU2t/cXpjvZ4soPeltNdq12cAwEQAAEQAAF/JQBHlr+uPOYNAh4iwA4GFlejoiZNmqS0s3DhQuVV7//UhxLVEabXDnpyBLjO1Z9//qlEzfXs2ZNyc3PlGrKy4ppWfC+dP3++TEFlK1W7b7mYMwsXWob4FgF2iLCw81sVNYLos88+U0/pfv3qq68UXVfrrunu0IcVVccSp8exo8reD0c1qvL0008rqbqcbsg2HNn1zTff0LRp05Td+lQ9y1f+DFE/ty3Pyx6r0ZzsFHIk5eU0Uh3zvEOhPZZ8TWtXR0fzwHUQAAEQAAEQ8DcCcGT524pjviDgYQKcqsHpXLxDFadoyYr68KoVrWWvTX5oYoHjwh4l919TI/Dc6SQYNmyYkuLHhZtdkbi4OLpw4QIiHVyBWM627BzhCD92SCeKjQUshR2cp06dKpOObKljfcxODY7KY9uaNWtaX8Z7KwId/o5aU3f9tLps8+3UqVOpYcOGxK96hWtt8e6IljWl9Npq6akRd3pS9DitUXV8abXlrnNcV4vl5MmT7moS7YAACIAACICAXxOAI8uvlx+T9xcCIYHlWw7vv//9r4JWdUbJcn788ceVh5s33nhDVxP8IMRbxrOMGzdOeXXmf5cKSm/97oytu3Qjg8Pd1VS5tsN1jO68807iXdAmT57slr7VIuy33XabS+2pBa25CLM3SYnJ+bRZbxm/yVjk0aG0atVKicRbsGABccSOpagRK3Xr1tUdrcc13HgnPt6goFwlKKJcu3NXZ9VEOiDLK6+8YrdJy9qGHI3Ju80mJyfbtbG+yOl2LLwLopao9fAKCgq0Lpc5N3r0aOWcGoFXRuHvE2oK4ieffGJLxW3nVeeao77s1RIzD8YqldN8Xs9BQPn+W0DPkKADAiAAAiAAAjIE4MiSoQYbEPAxAo1inN+qXp3iscxz6qHu1969exPXsuH0Qt4Ryp6w42PmzJmaKu+++66yO97zzz9vc6dD1ZAfdurUqaM8SHHNI2elRDwcFJcYnTUz6yeGx5iPXTloGldX2vxcrr6dA6U7cGDID45c6PjVV1+ljRs3OtB2fJkL/k+ZMoX4AbZly5Z2DThFyJbO4MGDiaM+uF6Po53MuC4Tp0PFxsba7c/ViwXFRS7db672z/YBLjhZSoo84/TlB3muqcSRMhMmTKBu3bqVmSoXzOYNBtgR0aFDhzLXrU/wTnHLli1TdoLT2oDCWt/6fXHWMetTut8Hx13ZGU+3gZcocmRtx44dld9jTu/VEk4p5t939XddLYLO0Y9a8uKLL2mdJjWNfNCgQZrXeadTrnXH6cZ6hCP4OOru7bfftpvqrG4coH75oadtV3T43uPoUlvp11ykPjo6mubPn2+3G1Ox7cL5dg3FxYCAIEcquA4CIAACIAACPkEAjiyfWCYMEgRcI9CpRgvpBvalH5ey5Vog/KDAu9rVrl1b+Qe8+g04v/LDz8CBA6lx48bEqV8ZGRll+uGUD46ySkpKIn6YadKkCS1fvlwU505RdNl5xUWf2TnBDzlcoJiLjrO+s+JKdEx0aKSz3dnU716rtc1rji5sSd3vSMXj13k9eJfJG2+8UbPuDT/I2fuxHuCzzz5LQ4cOVXby4sicWbNmKcXZWY+jP3h3zIkTJyrFovkBUd2xzLIdtuNUtXr16tFbb72lFKdnJ6taSJ7vR05ju/7664lTgDidzdbDuGW7rhwfuHxK2twVZ6dlpwHBkcKZFWZ5Sv9xiYFMxTn69S00tdafU9GaNm2q7F7HKckvvfSSslYWZqUOZ8yYQRypx45Hrj/04YcfKunMaq0lju6ZM2eOUnSc2+bPmrlz55ZqQ/cbk7yDOzD8SmST7r4sFAMjrmycYXFK96Ex+6huXVuKq1evVuo58efpqlWrzL/PReJzd/r06cS7P/KPWoeOf+/79OlD+/btI8saZjk5OYqzau7cOZpd8ec8f+HBdmPGjCm1wyH/vnN9rU6dOpXavbb7DTcobS1ZssTcJvejCu8MyE4hdrQtXry4VNri1q1blc+CrKwsWrp0qWri8dctW7YoOzPymH766Sdzf/w5xvdmly5dqH79+mQvcrSkKINMJXLRkAGBwhEYGGLuFwcgAAIgAAIg4MsEEGPsy6uHsYOATgKh5ZxayMPiYsEcbcURNexo6tevn+ZoX3vtNaWelXX6kKXy6dOnlQLCHKHBD6RawtEDv/zyi3k3PS0de+dWnbmyo5k9HVvX6laRf+C0brN91ausT+l+/9OJLfRul0d063tCkaPivv76axoxYoTyUMZrZym27gNVh4sdWwsX/GfHE0f68YOulvTv31+JuOIoLlvCD7cc3cf3ZI8ePTTVPv74Y3r00UfLpLNpKrtw8qeTm6Wt+9XtKG1rbRgU3ZCKLx+wPq3rvTHnBMlEHNm7B8aOHUsffPCB4tByNIhFixbRwYMHlZp87OjmHy3ZtWuX4qDUuubonMngmcgzR/3y9bDa/Sn/qLbzx5F94bkVFNn0UUdqdq/HxMSILwcuiC8kkhXHNH9Gs9OQHS8s7MCy3tSDUzfZ8cW7mXLUHDupVH2OtuvVqxexQ8daOOWOHcrsuOIf/mJCtePoKjXqS7V7TUR9vilSzocPH66MiR2Y/Jkzb948RYWjw/iLDa7XxQ5Pdez8xQjrcvtnz54TTmvnv/RQx+DsK/9NZCdtVFQUcZSoOiZ1nt27d1cc6vbaNWYdsXfZ7rXgePkvtOw2jIsgAAIgAAIgUAEEAsRDQ9mnhgoYCLoEARDwLIF7fn2TVpzaJtXJgy1uotevfUDKVjU6fPgwbd68WUmr4NQPThniGjfOChfL3bFjh7KbHdtyahF/W++q1J0znAqNBqlmNg+ZSo1ja0vZahnV/vJ2MpQUa11yeO7MqAUUGlR5v3Xnh10uLK/W0+Eohnbt2jnkYq1geT/ygzLfQ+yEKy9xZY23D51B9aOv7A7q6niLUlZS9s5JUs1wxFB87/KLaLE3SE4tXSui6niTCRZ2YNwgonYiI12LlszZM4kKz6y017XNa5HNxlJEY/nPTWPWYbq8fqTN9u1dCAiJooR+v9pTceoaO6TZScVOF2bLkVfqTnxaDVnq8zpw5JYe4XXkiD0u5s+RvGzLEUxawjXPONpKdVjx3xR2vlkLR15y0XoeEzuRBgwYoKSvWuuV53uOKv5l9SrKEmPjyGV27gYFBTkcwuU1Q8iYe9ahnpZCdLtXKbSW9hdKWvo4BwIgAAIgAALeTACOLG9eHYwNBNxIIKMwm5p+fY9Ui+wYYQdJZZX9GSeoxw/a0Rx65nzh3sV61HTrjN88nb48LPfw3Dy+Pq275UPdfUGx/An8nnaM+v40Xrpjd99vaUuulR5LwoD1Ij0xXNreqw1FSmHa0q5iiHLf98X3XUqBYa5Fa6Yvv45kC+uzI4sdWpDKQYBrY6WvuJJSKTOjxJvlvsiS6Qs2IAACIAACIOBpAqiR5WnCaB8EvIRAfFg0NYuvJzWaIhGp9MHehVK2vmA0Zu070sN8s5N8xIWtTt/tKp8eeCDjJJ3MTrXVNM5XMAGuxTbs5xelR/HDgNekbW0ZRjYda+uSw/NZm91//zvstJwUcve9JXqSc2IFRSe77MTiaUZ3/EB6tumrbpS2haH3EcjcNFp6UJHN/yVtC0MQAAEQAAEQ8EYCcGR546pgTCDgIQLf95d/CH5z1zzKKPynmK6Hhljuzc47sppkdmbkgYaI2mNjml/ZOt7dA3/6muHSTfZdIh/tI90pDHUReHP3V5RZlKtL11opKTKButSwv3ujtY2e9xGN76MAySLQxZmHqTh9t55ufErHmHeWCk7+ID3muBvcE8EaUrUjBYTGyo1DpCfnH/k/OVtYeRUBw8UtZMw+ITcm8bsd0VAuGluuQ1iBAAiAAAiAgOcJwJHlecboAQS8hkCCiMp6pOVg6fFcu+gRKjAWSdt7m+HWCwfoqU3TpIf16+D3pG0dGU5oeyeFB4U6UtO8flk4HIevelnzGk5WHIHFxzfQR3sXSQ9g+U1TpG3tGgYEUXQn+XTUzM0PUXHWIbtd+NRFUTo0c92d0kOObPaQtK2WYWzXmVqndZ3LO/QZFaWu16ULJe8kYMw9SVlbH5ceXMy175PwVEvbwxAEQAAEQAAEvJEA/rJ546pgTCDgQQIvd7xPulB0ZlEO1ZszolI4s1LzM2jQsuckE4eIHmt1GzWNk0vV1Lu8f438igIlH0DWnt1D4zbIOyf0jhF6+gj8nnaUHlonHiglZWaP8VSrSlVJa8dmIYkdKbyefHRh5vpRVFKU4bgjL9cwGfNFXaxOoi5VgdRIgyKTRIF37Z01pRoURkFRyVSlxWOy5pS9fbzYmfJPaXsYVhyBkoKLdHnN7dIDCKs3iEKqur4ZivQAYAgCIAACIAACHiIAR5aHwKJZEPBmAluGTKMwF3a2u/qb+yhdFI/3VVlwbC1ds0D+YbNLzZY0qf0oj08/WETK/DJIPurr22PrqP/SZ8ko6jJBKo7Au3u+EcXdn5EewL1N+9Mtyd2k7fUaVmn9IgXHNNKrXkYvY2U/Kjq/psx5XzlhzE+hjJXydaUCwxIorpd8OqI9TuENR1J43QH2VOxey9x4H+Uf/Z9dHVz0LgJF51ZSxmp553JIYhuKai23I6l3kcBoQAAEQAAEQKAsAexaWJYJzoCAXxDIKy6kaxc9TBfyL0vPd1L7kSIyaai0fXkbZhvyaciKF2iv2DVOVvrWaU/z+pTvw8HZ3EvUYeFDLjmkVg16l65JlHdSyPLyZ7u0gizqt/QZOpV9QRrD6Kb96J0uD0vbyxhmbbqfDBn7ZEwVm5BqHSi6w3tiN8MI6TbK1VA4evOPzKC8w7Olu2UnVnzvJUSibp4nJXvH08JZuEG6i+CYBhTT+VNRdytOug0YepaAqTiPsrc9SoZ0F34HhRMrpgvqo3l2pdA6CIAACIBARRKAI6si6aNvEKhgAhypc4eopbTu3F7pkXBk18S2d9G4q2+VbsPThsUlRiXN7ocTm4l3jZOVN8QOhQ94qLi7ozGl5KWJKDLXdoirH12Dvuz1H2oeX99Rd7juAoHc4gK699e3aL34vTJJJ68Sze41gQbW6+zCSORN84/OoryDM+QbENGEYXX7U1Qr4fQVx94q+UdmCifWbDKVGKSHGFqjq9hdsPzSeAvPLKWcPa7UwAuk0BqdKar926J0klwdPmlYMLRNQBTnz/l9MhWeE1GNJqNtPQdXuEabu9NbHXSJyyAAAiAAAiBQ7gTgyCp35OgQBLyPAKfaPb35Eyo0yj/M8aw6VG9K48Vue+woSYpMrLCJGoTj6kR2Cv2Wup84rSslL92lsdQQu8WtEIW2a3uwRpGeAbITbuy69+hH4ZBzVTjSZ0TjntQophbFi00AIPIE8ouLlPtt0/l9xLt7cuSfK9IothYtG/hWha+LMeswZW55mEyGHFemQ4GRNSmyyRgKTmhDQZF1K7TwdIlIHyzOPCTS7GaJulEHXZpXQFAYRbV5kUKT+rjUjoyxyZBNmRtGkjEvRcbcbBMQGiPW5j5RR6mzWKc6wucYZr6GAw8TMBWTMfeMuA//oLxDM6gk/6JLHQaK3S1jus2ioCridwwCAiAAAiAAApWcABxZlXyBMT0Q0EuAnVgvbv+cZh1crtfEoV5EcJhSiytIsmC5ww6sFPJFumSJ2HHMnTsrftFrIvWvdy0FiP+8Rc4Lx9yApROIUw7dIbw+oSKyLlKsF0Q/AU7P5fut0E07eXJh/x8HvE7XVm+mfxAe1zRR0bmfKXvXZLf1pDhLxFzLKxrIJCJdSDgNTMZCt80hovHdFHHVv8QcQtzWpkxDhvTdlLVlnDI/GXtrmyuOLPFpB4eWNRq3vTeViJ1/xZcS7rwfozu+LaLserhtjGgIBEAABEAABLydABxZ3r5CGB8IVACB2YdW0Mz9S+lI5pkK6L1iu2SHVZeaLeiJ1sOoR602FTsYB71nG/Loua2f0YpT2yizKNeBNi57I4HgwCDqKe6zCSI9t3ViQ28conlMRanrRCTTbCrO2C/Omczn/eUgKLo+hSePoPD6w7xuysWX94lU0E/IkLZLcZJ43QAxIDcTCKTg+KYU0eQBCq1+vZvbRnMgAAIgAAIg4P0E4Mjy/jXCCEGgwghwpAmnSc06uIyWCWfJ/vQTFTYWT3bcrebVdEeTXnRjHVGkOiSS2Lnga5Ij1okdj9/9tYG+O76BLrpQxN/X5u5L4+Xot+uSWtF9zfpTt5qtxP0WQRyJ5VPC0U0i3bDw/CoqOr1MFIb/06eGr3ewIfFXU2it3hRaeyAFBEdVePSVrnFzpE9xDhVd3EyFx7+ptGuji0UlUwqJb0lh9W6h0Jo9lfvRm2vPVTL0mA4IgAAIgIAXEoAjywsXBUMCARAAARAAARAAARAAARAAARAAARAAARAoS8DHvgYuOwGcAQEQAAEQAAEQAAEQAAEQAAEQAAEQAAEQ8A8CcGT5xzpjliAAAiAAAiAAAiAAAiAAAiAAAiAAAiDg8wTgyPL5JcQEQAAEQAAEQAAEQAAEQAAEQAAEQAAEQMA/CMCR5R/rjFmCAAiAAAiAAAiAAAiAAAiAAAiAAAiAgM8TgCPL55cQEwABEAABEAABEAABEAABEAABEAABEAAB/yAAR5Z/rDNmCQIgAAIgAAIgAAIgAAIgAAIgAAIgAAI+TwCOLJ9fQkwABEAABEAABEAABEAABEAABEAABEAABPyDABxZ/rHOmCUIgAAIgAAIgAAIgAAIgAAIgAAIgAAI+DwBOLJ8fgkxARAAARAAARAAARAAARAAARAAARAAARDwDwJwZPnHOmOWIAACIAACIAACIAACIAACIAACIAACIODzBODI8vklxARAAARAAARAAARAAARAAARAAARAAARAwD8IwJHlH+uMWYIACIAACIAACIAACIAACIAACIAACICAzxOAI8vnlxATAAEQAAEQAAEQAAEQAAEQAAEQAAEQAAH/IABHln+sM2YJAiAAAiAAAiAAAiAAAiAAAiAAAiAAAj5PAI4sn19CTAAEQAAEQAAEQAAEQAAEQAAEQAAEQAAE/IMAHFn+sc6YJQiAAAiAAAiAAAiAAAiAAAiAAAiAAAj4PAE4snx+CTEBEAABEAABEAABEAABEAABEAABEAABEPAPAnBk+cc6Y5YgAAIgAAIgAAIgAAIgAAIgAAIgAAIg4PME4Mjy+SXEBEAABEAABEAABEAABEAABEAABEAABEDAPwjAkeUf64xZggAIgAAIgAAIgAAIgAAIgAAIgAAIgIDPE4Ajy+eXEBMAARAAARAAARAAARAAARAAARAAARAAAf8gAEeWf6wzZgkCIAACIAACIAACIAACIAACIAACIAACPk8AjiyfX0JMAARAAARAAARAAARAAARAAARAAARAAAT8gwAcWf6xzpglCIAACIAACIAACIAACIAACIAACIAACPg8ATiyfH4JMQEQAAEQAAEQAAEQAAEQAAEQAAEQAAEQ8A8CcGT5xzpjliAAAiAAAiAAAiAAAiAAAiAAAiAAAiDg8wTgyPL5JcQEQAAEQAAEQAAEQAAEQAAEQAAEQAAEQMA/CMCR5R/rjFmCAAiAAAiAAAiAAAiAAAiAAAiAAAiAgM8TgCPL55cQEwABEAABEAABEAABEAABEAABEAABEAAB/yAAR5Z/rDNmCQIgAAIgAAIgAAIgAAIgAAIgAAIgAAI+TwCOLJ9fQkwABEAABEAABEAABEAABEAABEAABEAABPyDQLB/TBOzBAEQAAEQAAEQAAEQAIF/CBzLOkv7M04oJ6JCIqhnrXb/XJQ8KjQa6EzuBWoUU1uyBdtmG87/Tm0TryIeqyfFRCYKEP9BQAAEQAAEQMBbCcCR5a0rg3GBAAiAAAiAAAiAAAjQr+d20oX8jDIkqkfEU69a7cuc13vi+xPrafxvUxX1pnH16ODwr/WamvWKS4y0/eIBWnNulzLOzal/UGhgCB27YwElhsea9SwPXtn1OW1J3Udzek6mqjZ0LPX5+HTOBeq15N8UFBBIvWt3oElt76UuNa62VpN6n1dcQFsv7Cd2lG1I+Z32pB2ho3d8Q7GhUfTL2R1UbDI63W7zuGSqF1WjjN3vaUfLnPPUiWsSG3uqabQLAiAAAiBQwQTgyKrgBUD3IAACIAACIAACIODvBPamH6Wx69+msc0H052N+lJEcJgZycs7Z9H6lD3m9+oBO4yO37WQakVWVU+5/TW/uJBS89PFTwadz0tTjs/z+7x0+iv7HG0Uzp8cQ36pfvOpkF7f/QW93+WxUuf5zcRt02nKnrnK+baL7qUFfV7V5ZCa+udCYqdZMRnp59Nb6aOuT5Rp29GJw5mnRQTacTqenUIn/v7h44OXT5KhpLiU+fxjq+mh5rfS0FXPU2ZRTqlret583PVJ+vfVw0qpcqRXm0WjS53z5JuSsRsRWeZJwGgbBEAABCqQwP8D5YqtoKU2Zk8AAAAASUVORK5CYII=;" vertex="1" parent="1">
          <mxGeometry x="-860" y="-180" width="1202" height="1080" as="geometry" />
        </mxCell>
        <mxCell id="GwSeWStYfNyYOptomUMy-58" value="" style="edgeStyle=orthogonalEdgeStyle;rounded=0;orthogonalLoop=1;jettySize=auto;html=1;" edge="1" parent="1" source="GwSeWStYfNyYOptomUMy-56" target="GwSeWStYfNyYOptomUMy-57">
          <mxGeometry relative="1" as="geometry" />
        </mxCell>
        <mxCell id="GwSeWStYfNyYOptomUMy-56" value="&lt;span style=&quot;font-size: 24px;&quot;&gt;下机数据&lt;/span&gt;" style="rounded=1;whiteSpace=wrap;html=1;fillColor=#D1FF66;" vertex="1" parent="1">
          <mxGeometry x="720.0000000000002" y="420" width="120" height="60" as="geometry" />
        </mxCell>
        <mxCell id="GwSeWStYfNyYOptomUMy-60" value="" style="edgeStyle=orthogonalEdgeStyle;rounded=0;orthogonalLoop=1;jettySize=auto;html=1;" edge="1" parent="1" source="GwSeWStYfNyYOptomUMy-57" target="GwSeWStYfNyYOptomUMy-59">
          <mxGeometry relative="1" as="geometry" />
        </mxCell>
        <mxCell id="GwSeWStYfNyYOptomUMy-57" value="&lt;font style=&quot;font-size: 24px;&quot;&gt;数据质控&lt;/font&gt;" style="whiteSpace=wrap;html=1;fillColor=#D1FF66;rounded=1;" vertex="1" parent="1">
          <mxGeometry x="720.0000000000002" y="510" width="120" height="60" as="geometry" />
        </mxCell>
        <mxCell id="GwSeWStYfNyYOptomUMy-62" value="" style="edgeStyle=orthogonalEdgeStyle;rounded=0;orthogonalLoop=1;jettySize=auto;html=1;" edge="1" parent="1" source="GwSeWStYfNyYOptomUMy-59" target="GwSeWStYfNyYOptomUMy-61">
          <mxGeometry relative="1" as="geometry" />
        </mxCell>
        <mxCell id="GwSeWStYfNyYOptomUMy-59" value="&lt;font style=&quot;font-size: 24px;&quot;&gt;合格数据&lt;/font&gt;" style="whiteSpace=wrap;html=1;fillColor=#D1FF66;rounded=1;" vertex="1" parent="1">
          <mxGeometry x="720.0000000000002" y="600" width="120" height="60" as="geometry" />
        </mxCell>
        <mxCell id="GwSeWStYfNyYOptomUMy-64" value="" style="edgeStyle=orthogonalEdgeStyle;rounded=0;orthogonalLoop=1;jettySize=auto;html=1;" edge="1" parent="1" source="GwSeWStYfNyYOptomUMy-61" target="GwSeWStYfNyYOptomUMy-63">
          <mxGeometry relative="1" as="geometry" />
        </mxCell>
        <mxCell id="GwSeWStYfNyYOptomUMy-61" value="&lt;font style=&quot;font-size: 24px;&quot;&gt;比对参考基因组&lt;/font&gt;" style="whiteSpace=wrap;html=1;fillColor=#D1FF66;rounded=1;" vertex="1" parent="1">
          <mxGeometry x="720.0000000000002" y="700" width="120" height="60" as="geometry" />
        </mxCell>
        <mxCell id="GwSeWStYfNyYOptomUMy-66" value="" style="edgeStyle=orthogonalEdgeStyle;rounded=0;orthogonalLoop=1;jettySize=auto;html=1;" edge="1" parent="1" source="GwSeWStYfNyYOptomUMy-63" target="GwSeWStYfNyYOptomUMy-65">
          <mxGeometry relative="1" as="geometry" />
        </mxCell>
        <mxCell id="GwSeWStYfNyYOptomUMy-63" value="&lt;font style=&quot;font-size: 24px;&quot;&gt;转录本&lt;br&gt;重构&lt;/font&gt;" style="whiteSpace=wrap;html=1;fillColor=#D1FF66;rounded=1;" vertex="1" parent="1">
          <mxGeometry x="720.0000000000002" y="800" width="120" height="60" as="geometry" />
        </mxCell>
        <mxCell id="GwSeWStYfNyYOptomUMy-68" value="" style="edgeStyle=orthogonalEdgeStyle;rounded=0;orthogonalLoop=1;jettySize=auto;html=1;" edge="1" parent="1" source="GwSeWStYfNyYOptomUMy-65" target="GwSeWStYfNyYOptomUMy-67">
          <mxGeometry relative="1" as="geometry" />
        </mxCell>
        <mxCell id="GwSeWStYfNyYOptomUMy-72" value="" style="edgeStyle=orthogonalEdgeStyle;rounded=0;orthogonalLoop=1;jettySize=auto;html=1;" edge="1" parent="1" source="GwSeWStYfNyYOptomUMy-65" target="GwSeWStYfNyYOptomUMy-71">
          <mxGeometry relative="1" as="geometry" />
        </mxCell>
        <mxCell id="GwSeWStYfNyYOptomUMy-65" value="&lt;font style=&quot;font-size: 24px;&quot;&gt;基因&lt;br&gt;表达量&lt;/font&gt;" style="whiteSpace=wrap;html=1;fillColor=#D1FF66;rounded=1;" vertex="1" parent="1">
          <mxGeometry x="720.0000000000002" y="890" width="120" height="60" as="geometry" />
        </mxCell>
        <mxCell id="GwSeWStYfNyYOptomUMy-70" value="" style="edgeStyle=orthogonalEdgeStyle;rounded=0;orthogonalLoop=1;jettySize=auto;html=1;" edge="1" parent="1" source="GwSeWStYfNyYOptomUMy-67" target="GwSeWStYfNyYOptomUMy-69">
          <mxGeometry relative="1" as="geometry" />
        </mxCell>
        <mxCell id="GwSeWStYfNyYOptomUMy-67" value="&lt;font style=&quot;font-size: 24px;&quot;&gt;差异基因分析&lt;/font&gt;" style="whiteSpace=wrap;html=1;fillColor=#D1FF66;rounded=1;" vertex="1" parent="1">
          <mxGeometry x="720.0000000000002" y="980" width="120" height="60" as="geometry" />
        </mxCell>
        <mxCell id="GwSeWStYfNyYOptomUMy-69" value="&lt;font style=&quot;font-size: 24px;&quot;&gt;富集分析&lt;/font&gt;" style="whiteSpace=wrap;html=1;fillColor=#D1FF66;rounded=1;" vertex="1" parent="1">
          <mxGeometry x="720.0000000000002" y="1070" width="120" height="60" as="geometry" />
        </mxCell>
        <mxCell id="GwSeWStYfNyYOptomUMy-71" value="&lt;font style=&quot;font-size: 24px;&quot;&gt;PPI&lt;/font&gt;" style="whiteSpace=wrap;html=1;fillColor=#D1FF66;rounded=1;" vertex="1" parent="1">
          <mxGeometry x="920.0000000000002" y="890" width="120" height="60" as="geometry" />
        </mxCell>
      </root>
    </mxGraphModel>
  </diagram>
</mxfile>
